<svg width="1920" height="1145" viewBox="0 0 1920 1145" fill="none" xmlns="http://www.w3.org/2000/svg">
<g clip-path="url(#clip0_242_541)">
<mask id="path-1-inside-1_242_541" fill="white">
<path d="M0 0H1920V1145H0V0Z"/>
</mask>
<path d="M0 0H1920V1145H0V0Z" fill="#1F1F1F"/>
<g opacity="0.28" filter="url(#filter0_f_242_541)">
<ellipse cx="985" cy="171.5" rx="823" ry="376.5" fill="#70B2DB"/>
</g>
<g opacity="0.6">
<ellipse opacity="0.02" cx="-7" cy="-21" rx="856" ry="849" stroke="#5BA3D1" stroke-width="6.6283" stroke-linecap="round" stroke-dasharray="33.14 33.14"/>
<ellipse opacity="0.04" cx="-6.37604" cy="-20.3812" rx="749.39" ry="743.261" stroke="#5BA3D1" stroke-width="5.80278" stroke-linecap="round" stroke-dasharray="29.01 29.01"/>
<ellipse opacity="0.06" cx="-7.00171" cy="-21.0007" rx="655.248" ry="649.89" stroke="#5BA3D1" stroke-width="5.07381" stroke-linecap="round" stroke-dasharray="25.37 25.37"/>
<ellipse opacity="0.08" cx="-6.37579" cy="-20.382" rx="569.835" ry="565.176" stroke="#5BA3D1" stroke-width="4.41243" stroke-linecap="round" stroke-dasharray="22.06 22.06"/>
<ellipse opacity="0.1" cx="-7.00098" cy="-19.7644" rx="488.163" ry="484.171" stroke="#5BA3D1" stroke-width="3.78001" stroke-linecap="round" stroke-dasharray="18.9 18.9"/>
<ellipse opacity="0.2" cx="-6.99814" cy="-19.7633" rx="408.361" ry="405.022" stroke="#5BA3D1" stroke-width="3.16208" stroke-linecap="round" stroke-dasharray="15.81 15.81"/>
<ellipse opacity="0.4" cx="-6.99683" cy="-19.764" rx="332.3" ry="329.583" stroke="#5BA3D1" stroke-width="2.57311" stroke-linecap="round" stroke-dasharray="12.87 12.87"/>
<ellipse opacity="0.5" cx="-6.47617" cy="-20.4744" rx="265.496" ry="263.325" stroke="#5BA3D1" stroke-width="2.05583" stroke-linecap="round" stroke-dasharray="10.28 10.28"/>
<ellipse opacity="0.09" cx="-7.03093" cy="-19.7889" rx="198.856" ry="197.23" fill="#5BA3D1"/>
<ellipse opacity="0.1" cx="-7.62303" cy="-20.3732" rx="147.143" ry="145.939" fill="#5BA3D1"/>
<ellipse opacity="0.1" cx="-7.30024" cy="-20.0634" rx="90.0982" ry="89.3614" fill="#5BA3D1"/>
<ellipse opacity="0.3" cx="109.5" cy="368.433" rx="6.23452" ry="6.18354" fill="#51B198"/>
<ellipse opacity="0.2" cx="232.719" cy="584.044" rx="6.23452" ry="6.18354" fill="#51B198"/>
<ellipse opacity="0.08" cx="636.899" cy="360.09" rx="6.23452" ry="6.18354" fill="#51B198"/>
<ellipse opacity="0.7" cx="282.395" cy="266.029" rx="6.23452" ry="6.18354" fill="#51B198"/>
<ellipse opacity="0.4" cx="531.035" cy="168.836" rx="6.23452" ry="6.18354" fill="#51B198"/>
</g>
<g opacity="0.38">
<ellipse opacity="0.02" cx="1871.5" cy="613.75" rx="574.5" ry="571.75" stroke="#5BA3D1" stroke-width="6.6283" stroke-linecap="round" stroke-dasharray="33.14 33.14"/>
<ellipse opacity="0.04" cx="1871.92" cy="614.167" rx="502.949" ry="500.541" stroke="#5BA3D1" stroke-width="5.80278" stroke-linecap="round" stroke-dasharray="29.01 29.01"/>
<ellipse opacity="0.06" cx="1871.5" cy="613.749" rx="439.767" ry="437.661" stroke="#5BA3D1" stroke-width="5.07381" stroke-linecap="round" stroke-dasharray="25.37 25.37"/>
<ellipse opacity="0.08" cx="1871.92" cy="614.166" rx="382.442" ry="380.611" stroke="#5BA3D1" stroke-width="4.41243" stroke-linecap="round" stroke-dasharray="22.06 22.06"/>
<ellipse opacity="0.1" cx="1871.5" cy="614.582" rx="327.628" ry="326.06" stroke="#5BA3D1" stroke-width="3.78001" stroke-linecap="round" stroke-dasharray="18.9 18.9"/>
<ellipse opacity="0.2" cx="1871.5" cy="614.582" rx="274.07" ry="272.757" stroke="#5BA3D1" stroke-width="3.16208" stroke-linecap="round" stroke-dasharray="15.81 15.81"/>
<ellipse opacity="0.4" cx="1871.5" cy="614.582" rx="223.021" ry="221.954" stroke="#5BA3D1" stroke-width="2.57311" stroke-linecap="round" stroke-dasharray="12.87 12.87"/>
<ellipse opacity="0.5" cx="1871.85" cy="614.103" rx="178.187" ry="177.334" stroke="#5BA3D1" stroke-width="2.05583" stroke-linecap="round" stroke-dasharray="10.28 10.28"/>
<ellipse opacity="0.09" cx="1871.48" cy="614.565" rx="133.461" ry="132.822" fill="#5BA3D1"/>
<ellipse opacity="0.1" cx="1871.08" cy="614.172" rx="98.754" ry="98.2812" fill="#5BA3D1"/>
<ellipse opacity="0.1" cx="1871.3" cy="614.38" rx="60.4689" ry="60.1794" fill="#5BA3D1"/>
<ellipse opacity="0.3" cx="1608.06" cy="537.834" rx="4.18427" ry="4.16424" fill="#51B198"/>
<ellipse opacity="0.7" cx="1750.57" cy="800.723" rx="4.18427" ry="4.16424" fill="#51B198"/>
<ellipse opacity="0.4" cx="1620.94" cy="403.606" rx="4.18427" ry="4.16424" fill="#51B198"/>
<ellipse opacity="0.3" cx="1620.94" cy="831.177" rx="4.18427" ry="4.16424" fill="#51B198"/>
<ellipse opacity="0.1" cx="1561.08" cy="304.818" rx="4.18427" ry="4.16424" fill="#51B198"/>
<ellipse opacity="0.08" cx="1614.88" cy="1045.34" rx="4.18427" ry="4.16424" fill="#51B198"/>
<ellipse opacity="0.1" cx="1781.58" cy="184.917" rx="4.18427" ry="4.16424" fill="#51B198"/>
<ellipse opacity="0.2" cx="1815.68" cy="347.803" rx="4.18427" ry="4.16424" fill="#51B198"/>
</g>
</g>
<path d="M0 0V1H1920V0V-1H0V0Z" fill="white" fill-opacity="0.05" mask="url(#path-1-inside-1_242_541)"/>
<defs>
<filter id="filter0_f_242_541" x="-208.554" y="-575.554" width="2387.11" height="1494.11" filterUnits="userSpaceOnUse" color-interpolation-filters="sRGB">
<feFlood flood-opacity="0" result="BackgroundImageFix"/>
<feBlend mode="normal" in="SourceGraphic" in2="BackgroundImageFix" result="shape"/>
<feGaussianBlur stdDeviation="185.277" result="effect1_foregroundBlur_242_541"/>
</filter>
<clipPath id="clip0_242_541">
<path d="M0 0H1920V1145H0V0Z" fill="white"/>
</clipPath>
</defs>
</svg>
