<svg width="1920" height="576" viewBox="0 0 1920 576" fill="none" xmlns="http://www.w3.org/2000/svg">
<g clip-path="url(#clip0_270_4747)">
<mask id="path-1-inside-1_270_4747" fill="white">
<path d="M0 0H1920V576H0V0Z"/>
</mask>
<path d="M0 0H1920V576H0V0Z" fill="#1F1F1F"/>
<g clip-path="url(#clip1_270_4747)">
<mask id="path-3-inside-2_270_4747" fill="white">
<path d="M1016.06 410.951C1016.06 456.472 979.336 493.414 933.9 493.773L933.234 493.773C933.234 493.416 933.237 493.059 933.241 492.703C933.81 447.809 970.096 411.523 1014.99 410.954C1015.17 410.952 1015.34 410.952 1015.52 410.951L1016.06 410.951Z"/>
</mask>
<path d="M1016.06 410.951L1017.49 410.951L1017.49 409.523L1016.06 409.523L1016.06 410.951ZM933.9 493.773L933.9 495.202L933.912 495.201L933.9 493.773ZM933.234 493.773L931.806 493.773L931.806 495.201L933.234 495.201L933.234 493.773ZM933.241 492.703L931.813 492.685L933.241 492.703ZM1015.52 410.951L1015.52 409.523L1015.51 409.523L1015.52 410.951ZM1016.06 410.951L1014.63 410.951C1014.63 455.687 978.542 491.993 933.889 492.345L933.9 493.773L933.912 495.201C980.131 494.836 1017.49 457.257 1017.49 410.951L1016.06 410.951ZM933.9 493.773L933.9 492.345L933.234 492.345L933.234 493.773L933.234 495.201L933.9 495.201L933.9 493.773ZM933.234 493.773L934.662 493.773C934.662 493.422 934.665 493.072 934.669 492.721L933.241 492.703L931.813 492.685C931.809 493.047 931.806 493.41 931.806 493.773L933.234 493.773ZM933.241 492.703L934.669 492.721C935.228 448.602 970.889 412.941 1015.01 412.382L1014.99 410.954L1014.97 409.526C969.304 410.105 932.392 447.017 931.813 492.685L933.241 492.703ZM1014.99 410.954L1015.01 412.382C1015.18 412.38 1015.33 412.38 1015.53 412.379L1015.52 410.951L1015.51 409.523C1015.35 409.524 1015.15 409.524 1014.97 409.526L1014.99 410.954ZM1015.52 410.951L1015.52 412.379L1016.06 412.379L1016.06 410.951L1016.06 409.523L1015.52 409.523L1015.52 410.951Z" fill="#5BA3D1" mask="url(#path-3-inside-2_270_4747)"/>
<mask id="path-5-inside-3_270_4747" fill="white">
<path d="M1016.06 410.951C1016.06 456.472 1052.78 493.415 1098.22 493.773L1098.88 493.773C1098.88 448.387 1062.38 411.527 1017.13 410.954C1016.95 410.952 1016.77 410.952 1016.6 410.951L1016.06 410.951Z"/>
</mask>
<path d="M1016.06 410.951L1014.63 410.951L1014.63 409.523L1016.06 409.523L1016.06 410.951ZM1098.22 493.773L1098.22 495.202L1098.21 495.201L1098.22 493.773ZM1098.88 493.773L1100.31 493.773L1100.31 495.201L1098.88 495.201L1098.88 493.773ZM1017.13 410.954L1017.15 409.526L1017.13 410.954ZM1016.6 410.951L1016.6 409.523L1016.61 409.523L1016.6 410.951ZM1016.06 410.951L1017.49 410.951C1017.49 455.687 1053.58 491.993 1098.23 492.345L1098.22 493.773L1098.21 495.201C1051.99 494.837 1014.63 457.257 1014.63 410.951L1016.06 410.951ZM1098.22 493.773L1098.22 492.345L1098.88 492.345L1098.88 493.773L1098.88 495.201L1098.22 495.201L1098.22 493.773ZM1098.88 493.773L1097.45 493.773C1097.45 449.17 1061.58 412.945 1017.11 412.382L1017.13 410.954L1017.15 409.526C1063.18 410.109 1100.31 447.605 1100.31 493.773L1098.88 493.773ZM1017.13 410.954L1017.11 412.382C1016.94 412.38 1016.79 412.38 1016.59 412.379L1016.6 410.951L1016.61 409.523C1016.76 409.524 1016.97 409.524 1017.15 409.526L1017.13 410.954ZM1016.6 410.951L1016.6 412.379L1016.06 412.379L1016.06 410.951L1016.06 409.523L1016.6 409.523L1016.6 410.951Z" fill="#5BA3D1" mask="url(#path-5-inside-3_270_4747)"/>
<g clip-path="url(#clip2_270_4747)">
<mask id="path-7-inside-4_270_4747" fill="white">
<path d="M933.223 657.997C933.223 612.254 970.305 575.171 1016.05 575.171V575.171L1016.05 657.997L933.223 657.997V657.997Z"/>
</mask>
<path d="M931.795 657.997C931.795 611.465 969.517 573.743 1016.05 573.743L1017.48 573.743L1014.62 576.599L1016.05 576.599C971.094 576.599 934.651 613.042 934.651 657.997L931.795 657.997ZM934.651 657.997M1016.05 657.997L933.223 657.997L1016.05 657.997M931.795 657.997V657.997C931.795 611.465 969.517 573.743 1016.05 573.743L1016.05 576.599C971.094 576.599 934.651 613.042 934.651 657.997V657.997L931.795 657.997ZM1017.48 573.743L1017.48 657.997L1014.62 657.997L1014.62 575.183C1015.1 575.175 1015.57 575.171 1016.05 575.171L1017.48 573.743Z" fill="#5BA3D1" mask="url(#path-7-inside-4_270_4747)"/>
<mask id="path-9-inside-5_270_4747" fill="white">
<path d="M933.234 492.349C933.237 538.089 970.317 575.168 1016.06 575.17C1016.05 529.429 978.975 492.35 933.234 492.349Z"/>
</mask>
<path d="M933.234 492.349L931.806 492.349L931.806 490.921L933.234 490.921L933.234 492.349ZM1016.06 575.17L1017.49 575.17L1017.49 576.598L1016.06 576.598L1016.06 575.17ZM933.234 492.349L934.662 492.349C934.665 537.301 971.105 573.74 1016.06 573.742L1016.06 575.17L1016.06 576.598C969.528 576.596 931.809 538.878 931.806 492.349L933.234 492.349ZM1016.06 575.17L1014.63 575.17C1014.63 530.218 978.187 493.778 933.234 493.777L933.234 492.349L933.234 490.921C979.764 490.922 1017.48 528.641 1017.49 575.17L1016.06 575.17Z" fill="#5BA3D1" mask="url(#path-9-inside-5_270_4747)"/>
</g>
<g clip-path="url(#clip3_270_4747)">
<circle cx="1098.87" cy="575.188" r="21.836" transform="rotate(-180 1098.87 575.188)" stroke="#5BA3D1" stroke-width="1.50593"/>
<circle cx="1098.88" cy="575.191" r="51.9547" transform="rotate(-180 1098.88 575.191)" stroke="#5BA3D1" stroke-width="1.50593"/>
<circle cx="1098.87" cy="575.188" r="82.0733" transform="rotate(-180 1098.87 575.188)" stroke="#5BA3D1" stroke-width="1.50593"/>
</g>
<mask id="path-14-inside-6_270_4747" fill="white">
<path d="M1180.28 410.94C1180.28 365.466 1143.63 328.552 1098.26 328.119L1097.46 328.119C1097.46 373.608 1134.13 410.53 1179.52 410.94L1180.28 410.94Z"/>
</mask>
<path d="M1180.28 410.94L1181.71 410.94L1181.71 412.368L1180.28 412.368L1180.28 410.94ZM1098.26 328.119L1098.26 326.691L1098.27 326.691L1098.26 328.119ZM1097.46 328.119L1096.03 328.119L1096.03 326.691L1097.46 326.691L1097.46 328.119ZM1179.52 410.94L1179.52 412.369L1179.51 412.368L1179.52 410.94ZM1180.28 410.94L1178.85 410.94C1178.85 366.25 1142.84 329.972 1098.25 329.547L1098.26 328.119L1098.27 326.691C1144.43 327.131 1181.71 364.682 1181.71 410.94L1180.28 410.94ZM1098.26 328.119L1098.26 329.547L1097.46 329.547L1097.46 328.119L1097.46 326.691L1098.26 326.691L1098.26 328.119ZM1097.46 328.119L1098.89 328.119C1098.89 372.823 1134.92 409.109 1179.53 409.512L1179.52 410.94L1179.51 412.368C1133.33 411.951 1096.03 374.392 1096.03 328.119L1097.46 328.119ZM1179.52 410.94L1179.52 409.512L1180.28 409.512L1180.28 410.94L1180.28 412.368L1179.52 412.368L1179.52 410.94Z" fill="#5BA3D1" mask="url(#path-14-inside-6_270_4747)"/>
<g clip-path="url(#clip4_270_4747)">
<circle cx="1263.12" cy="410.959" r="21.836" transform="rotate(-90 1263.12 410.959)" stroke="#5BA3D1" stroke-width="1.50593"/>
<circle cx="1263.1" cy="410.956" r="51.9547" transform="rotate(-90 1263.1 410.956)" stroke="#5BA3D1" stroke-width="1.50593"/>
<circle cx="1263.12" cy="410.953" r="82.0733" transform="rotate(-90 1263.12 410.953)" stroke="#5BA3D1" stroke-width="1.50593"/>
</g>
<g clip-path="url(#clip5_270_4747)">
<circle cx="1180.28" cy="410.954" r="82.0733" transform="rotate(90 1180.28 410.954)" stroke="#5BA3D1" stroke-width="1.50593"/>
<path d="M1180.28 410.953L1180.28 493.779" stroke="#5BA3D1" stroke-width="1.42804"/>
</g>
<path d="M1097.45 410.949L1263.11 410.949" stroke="#5BA3D1" stroke-width="1.42804"/>
<path d="M1180.28 410.949L1180.28 328.123" stroke="#5BA3D1" stroke-width="1.42804"/>
<mask id="path-23-inside-7_270_4747" fill="white">
<path d="M1428.07 327.931C1382.33 327.93 1345.25 290.85 1345.25 245.109C1345.6 245.109 1345.96 245.111 1346.31 245.115C1391.21 245.684 1427.49 281.97 1428.06 326.864C1428.07 327.219 1428.07 327.575 1428.07 327.931Z"/>
</mask>
<path d="M1428.07 327.931L1428.07 329.359L1429.5 329.359L1429.5 327.931L1428.07 327.931ZM1345.25 245.109L1345.25 243.681L1343.82 243.681L1343.82 245.109L1345.25 245.109ZM1346.31 245.115L1346.33 243.687L1346.31 245.115ZM1428.06 326.864L1429.49 326.846L1428.06 326.864ZM1428.07 327.931L1428.07 326.503C1383.12 326.502 1346.68 290.061 1346.68 245.109L1345.25 245.109L1343.82 245.109C1343.82 291.639 1381.54 329.358 1428.07 329.359L1428.07 327.931ZM1345.25 245.109L1345.25 246.537C1345.6 246.537 1345.95 246.539 1346.3 246.543L1346.31 245.115L1346.33 243.687C1345.97 243.683 1345.61 243.681 1345.25 243.681L1345.25 245.109ZM1346.31 245.115L1346.3 246.543C1390.42 247.102 1426.08 282.763 1426.64 326.882L1428.06 326.864L1429.49 326.846C1428.91 281.178 1392 244.266 1346.33 243.687L1346.31 245.115ZM1428.06 326.864L1426.64 326.882C1426.64 327.231 1426.64 327.581 1426.64 327.931L1428.07 327.931L1429.5 327.931C1429.5 327.568 1429.5 327.207 1429.49 326.846L1428.06 326.864Z" fill="#5BA3D1" mask="url(#path-23-inside-7_270_4747)"/>
<mask id="path-25-inside-8_270_4747" fill="white">
<path d="M1344.65 245.118C1299.19 245.447 1262.44 282.401 1262.44 327.94L1263.05 327.94C1308.51 327.612 1345.26 290.658 1345.26 245.118L1344.65 245.118Z"/>
</mask>
<path d="M1344.65 245.118L1344.64 243.69L1344.65 243.69L1344.65 245.118ZM1262.44 327.94L1262.44 329.368L1261.01 329.368L1261.01 327.94L1262.44 327.94ZM1263.05 327.94L1263.06 329.368L1263.05 329.368L1263.05 327.94ZM1345.26 245.118L1345.26 243.69L1346.69 243.69L1346.69 245.118L1345.26 245.118ZM1344.65 245.118L1344.66 246.546C1299.98 246.869 1263.87 283.186 1263.87 327.94L1262.44 327.94L1261.01 327.94C1261.01 281.616 1298.4 244.025 1344.64 243.69L1344.65 245.118ZM1262.44 327.94L1262.44 326.512L1263.05 326.512L1263.05 327.94L1263.05 329.368L1262.44 329.368L1262.44 327.94ZM1263.05 327.94L1263.04 326.512C1307.71 326.189 1343.83 289.873 1343.83 245.118L1345.26 245.118L1346.69 245.118C1346.69 291.443 1309.3 329.034 1263.06 329.368L1263.05 327.94ZM1345.26 245.118L1345.26 246.546L1344.65 246.546L1344.65 245.118L1344.65 243.69L1345.26 243.69L1345.26 245.118Z" fill="#5BA3D1" mask="url(#path-25-inside-8_270_4747)"/>
<g clip-path="url(#clip6_270_4747)">
<mask id="path-29-inside-9_270_4747" fill="white">
<path d="M1427.31 410.953C1427.31 365.211 1390.23 328.131 1344.49 328.129C1344.49 373.871 1381.57 410.952 1427.31 410.953Z"/>
</mask>
<path d="M1427.31 410.953L1428.74 410.953L1428.74 412.381L1427.31 412.381L1427.31 410.953ZM1344.49 328.129L1343.06 328.129L1343.06 326.701L1344.49 326.701L1344.49 328.129ZM1427.31 410.953L1425.88 410.953C1425.88 366 1389.44 329.559 1344.49 329.557L1344.49 328.129L1344.49 326.701C1391.02 326.703 1428.74 364.422 1428.74 410.953L1427.31 410.953ZM1344.49 328.129L1345.92 328.129C1345.92 373.082 1382.36 409.524 1427.31 409.525L1427.31 410.953L1427.31 412.381C1380.78 412.38 1343.06 374.66 1343.06 328.129L1344.49 328.129Z" fill="#5BA3D1" mask="url(#path-29-inside-9_270_4747)"/>
<mask id="path-31-inside-10_270_4747" fill="white">
<path d="M1344.5 493.772C1344.5 448.251 1381.22 411.308 1426.66 410.949L1427.32 410.949C1427.32 456.336 1390.82 493.196 1345.57 493.769C1345.39 493.771 1345.22 493.77 1345.04 493.772L1344.5 493.772Z"/>
</mask>
<path d="M1344.5 493.772L1343.07 493.772L1343.07 495.2L1344.5 495.2L1344.5 493.772ZM1426.66 410.949L1426.66 409.521L1426.65 409.521L1426.66 410.949ZM1427.32 410.949L1428.75 410.949L1428.75 409.521L1427.32 409.521L1427.32 410.949ZM1345.57 493.769L1345.59 495.197L1345.57 493.769ZM1345.04 493.772L1345.04 495.2L1345.05 495.2L1345.04 493.772ZM1344.5 493.772L1345.93 493.772C1345.93 449.035 1382.02 412.73 1426.67 412.377L1426.66 410.949L1426.65 409.521C1380.43 409.886 1343.07 447.466 1343.07 493.772L1344.5 493.772ZM1426.66 410.949L1426.66 412.377L1427.32 412.377L1427.32 410.949L1427.32 409.521L1426.66 409.521L1426.66 410.949ZM1427.32 410.949L1425.9 410.949C1425.9 455.553 1390.02 491.778 1345.55 492.341L1345.57 493.769L1345.59 495.197C1391.62 494.614 1428.75 457.118 1428.75 410.949L1427.32 410.949ZM1345.57 493.769L1345.55 492.341C1345.38 492.343 1345.23 492.342 1345.03 492.344L1345.04 493.772L1345.05 495.2C1345.21 495.199 1345.41 495.199 1345.59 495.197L1345.57 493.769ZM1345.04 493.772L1345.04 492.344L1344.5 492.344L1344.5 493.772L1344.5 495.2L1345.04 495.2L1345.04 493.772Z" fill="#5BA3D1" mask="url(#path-31-inside-10_270_4747)"/>
<mask id="path-33-inside-11_270_4747" fill="white">
<path d="M1344.5 493.772C1344.5 448.251 1307.78 411.308 1262.34 410.949L1261.68 410.949C1261.68 456.336 1298.18 493.196 1343.43 493.769C1343.61 493.771 1343.78 493.77 1343.96 493.772L1344.5 493.772Z"/>
</mask>
<path d="M1344.5 493.772L1345.93 493.772L1345.93 495.2L1344.5 495.2L1344.5 493.772ZM1262.34 410.949L1262.34 409.521L1262.35 409.521L1262.34 410.949ZM1261.68 410.949L1260.25 410.949L1260.25 409.521L1261.68 409.521L1261.68 410.949ZM1343.43 493.769L1343.41 495.197L1343.43 493.769ZM1343.96 493.772L1343.96 495.2L1343.95 495.2L1343.96 493.772ZM1344.5 493.772L1343.07 493.772C1343.07 449.035 1306.98 412.73 1262.33 412.377L1262.34 410.949L1262.35 409.521C1308.57 409.886 1345.93 447.466 1345.93 493.772L1344.5 493.772ZM1262.34 410.949L1262.34 412.377L1261.68 412.377L1261.68 410.949L1261.68 409.521L1262.34 409.521L1262.34 410.949ZM1261.68 410.949L1263.1 410.949C1263.1 455.553 1298.98 491.778 1343.45 492.341L1343.43 493.769L1343.41 495.197C1297.38 494.614 1260.25 457.118 1260.25 410.949L1261.68 410.949ZM1343.43 493.769L1343.45 492.341C1343.62 492.343 1343.77 492.342 1343.97 492.344L1343.96 493.772L1343.95 495.2C1343.79 495.199 1343.59 495.199 1343.41 495.197L1343.43 493.769ZM1343.96 493.772L1343.96 492.344L1344.5 492.344L1344.5 493.772L1344.5 495.2L1343.96 495.2L1343.96 493.772Z" fill="#5BA3D1" mask="url(#path-33-inside-11_270_4747)"/>
<mask id="path-35-inside-12_270_4747" fill="white">
<path d="M1261.69 410.953C1261.69 365.211 1298.77 328.131 1344.51 328.129C1344.51 373.871 1307.43 410.952 1261.69 410.953Z"/>
</mask>
<path d="M1261.69 410.953L1260.26 410.953L1260.26 412.381L1261.69 412.381L1261.69 410.953ZM1344.51 328.129L1345.94 328.129L1345.94 326.701L1344.51 326.701L1344.51 328.129ZM1261.69 410.953L1263.12 410.953C1263.12 366 1299.56 329.559 1344.51 329.557L1344.51 328.129L1344.51 326.701C1297.98 326.703 1260.26 364.422 1260.26 410.953L1261.69 410.953ZM1344.51 328.129L1343.08 328.129C1343.08 373.082 1306.64 409.524 1261.69 409.525L1261.69 410.953L1261.69 412.381C1308.22 412.38 1345.94 374.66 1345.94 328.129L1344.51 328.129Z" fill="#5BA3D1" mask="url(#path-35-inside-12_270_4747)"/>
<path d="M1344.51 493.779L1344.51 328.127" stroke="#5BA3D1" stroke-width="1.42804"/>
</g>
<rect x="1262.39" y="328.838" width="164.225" height="164.225" stroke="#5BA3D1" stroke-width="1.42804"/>
<rect x="1426.63" y="164.616" width="164.225" height="164.225" stroke="#5BA3D1" stroke-width="1.42804"/>
<mask id="path-39-inside-13_270_4747" fill="white">
<path d="M1425.9 246.731C1425.9 200.987 1462.98 163.904 1508.72 163.904V163.904V246.731H1425.9V246.731Z"/>
</mask>
<path d="M1424.47 246.731C1424.47 200.198 1462.19 162.476 1508.72 162.476H1510.15L1507.3 165.332H1508.72C1463.77 165.332 1427.33 201.776 1427.33 246.731H1424.47ZM1427.33 246.731M1508.72 246.731H1425.9H1508.72M1424.47 246.731V246.731C1424.47 200.198 1462.19 162.476 1508.72 162.476V165.332C1463.77 165.332 1427.33 201.776 1427.33 246.731V246.731H1424.47ZM1510.15 162.476V246.731H1507.3V163.916C1507.77 163.908 1508.25 163.904 1508.72 163.904L1510.15 162.476Z" fill="#5BA3D1" mask="url(#path-39-inside-13_270_4747)"/>
<g clip-path="url(#clip7_270_4747)">
<mask id="path-41-inside-14_270_4747" fill="white">
<path d="M1508.74 246.718C1554.48 246.718 1591.57 283.801 1591.57 329.544V329.544L1508.74 329.544L1508.74 246.718V246.718Z"/>
</mask>
<path d="M1508.74 245.29C1555.27 245.29 1592.99 283.012 1592.99 329.544L1592.99 330.972L1590.14 328.116L1590.14 329.544C1590.14 284.589 1553.7 248.146 1508.74 248.146L1508.74 245.29ZM1508.74 248.146M1508.74 329.544L1508.74 246.718L1508.74 329.544M1508.74 245.29V245.29C1555.27 245.29 1592.99 283.012 1592.99 329.544L1590.14 329.544C1590.14 284.589 1553.7 248.146 1508.74 248.146V248.146L1508.74 245.29ZM1592.99 330.972L1508.74 330.972L1508.74 328.116L1591.55 328.116C1591.56 328.592 1591.57 329.068 1591.57 329.544L1592.99 330.972Z" fill="#5BA3D1" mask="url(#path-41-inside-14_270_4747)"/>
<mask id="path-43-inside-15_270_4747" fill="white">
<path d="M1425.92 329.545C1471.66 329.544 1508.74 292.463 1508.75 246.722C1463 246.723 1425.92 283.803 1425.92 329.545Z"/>
</mask>
<path d="M1425.92 329.545L1425.92 330.973L1424.49 330.973L1424.49 329.545L1425.92 329.545ZM1508.75 246.722L1508.75 245.294L1510.17 245.294L1510.17 246.722L1508.75 246.722ZM1425.92 329.545L1425.92 328.117C1470.87 328.116 1507.32 291.675 1507.32 246.722L1508.75 246.722L1510.17 246.722C1510.17 293.252 1472.45 330.972 1425.92 330.973L1425.92 329.545ZM1508.75 246.722L1508.75 248.15C1463.79 248.151 1427.35 284.592 1427.35 329.545L1425.92 329.545L1424.49 329.545C1424.49 283.014 1462.21 245.295 1508.75 245.294L1508.75 246.722Z" fill="#5BA3D1" mask="url(#path-43-inside-15_270_4747)"/>
</g>
<mask id="path-45-inside-16_270_4747" fill="white">
<path d="M1508.74 246.726C1554.48 246.726 1591.56 209.643 1591.56 163.899V163.899L1508.74 163.899L1508.74 246.726V246.726Z"/>
</mask>
<path d="M1508.74 248.154C1555.27 248.154 1592.99 210.432 1592.99 163.899L1592.99 162.471L1590.13 165.327L1590.13 163.899C1590.13 208.854 1553.69 245.298 1508.74 245.298L1508.74 248.154ZM1508.74 245.298M1508.74 163.899L1508.74 246.726L1508.74 163.899M1508.74 248.154V248.154C1555.27 248.154 1592.99 210.432 1592.99 163.899L1590.13 163.899C1590.13 208.854 1553.69 245.298 1508.74 245.298V245.298L1508.74 248.154ZM1592.99 162.471L1508.74 162.471L1508.74 165.327L1591.55 165.327C1591.56 164.851 1591.56 164.375 1591.56 163.899L1592.99 162.471Z" fill="#5BA3D1" mask="url(#path-45-inside-16_270_4747)"/>
<path d="M1508.73 163.904L1508.73 329.557" stroke="#5BA3D1" stroke-width="1.42804"/>
<path d="M1591.55 246.721L1425.89 246.721" stroke="#5BA3D1" stroke-width="1.42804"/>
<g clip-path="url(#clip8_270_4747)">
<circle cx="22.589" cy="22.589" r="21.836" transform="matrix(-4.37114e-08 -1 -1 4.37114e-08 1448.49 433.548)" stroke="#5BA3D1" stroke-width="1.50593"/>
<circle cx="52.7076" cy="52.7076" r="51.9547" transform="matrix(-4.37114e-08 -1 -1 4.37114e-08 1478.63 463.664)" stroke="#5BA3D1" stroke-width="1.50593"/>
<circle cx="82.8263" cy="82.8263" r="82.0733" transform="matrix(-4.37114e-08 -1 -1 4.37114e-08 1508.73 493.779)" stroke="#5BA3D1" stroke-width="1.50593"/>
</g>
<mask id="path-52-inside-17_270_4747" fill="white">
<path d="M1508.73 410.94C1508.73 365.466 1545.38 328.552 1590.75 328.119L1591.56 328.119C1591.56 373.608 1554.89 410.53 1509.5 410.94L1508.73 410.94Z"/>
</mask>
<path d="M1508.73 410.94L1507.31 410.94L1507.31 412.368L1508.73 412.368L1508.73 410.94ZM1590.75 328.119L1590.75 326.691L1590.74 326.691L1590.75 328.119ZM1591.56 328.119L1592.99 328.119L1592.99 326.691L1591.56 326.691L1591.56 328.119ZM1509.5 410.94L1509.5 412.369L1509.51 412.368L1509.5 410.94ZM1508.73 410.94L1510.16 410.94C1510.16 366.25 1546.18 329.972 1590.77 329.547L1590.75 328.119L1590.74 326.691C1544.59 327.131 1507.31 364.682 1507.31 410.94L1508.73 410.94ZM1590.75 328.119L1590.75 329.547L1591.56 329.547L1591.56 328.119L1591.56 326.691L1590.75 326.691L1590.75 328.119ZM1591.56 328.119L1590.13 328.119C1590.13 372.823 1554.09 409.109 1509.48 409.512L1509.5 410.94L1509.51 412.368C1555.68 411.951 1592.99 374.392 1592.99 328.119L1591.56 328.119ZM1509.5 410.94L1509.5 409.512L1508.73 409.512L1508.73 410.94L1508.73 412.368L1509.5 412.368L1509.5 410.94Z" fill="#5BA3D1" mask="url(#path-52-inside-17_270_4747)"/>
<g clip-path="url(#clip9_270_4747)">
<circle cx="1508.72" cy="410.954" r="82.0733" transform="rotate(90 1508.72 410.954)" stroke="#5BA3D1" stroke-width="1.50593"/>
<path d="M1508.72 410.953L1508.72 493.779" stroke="#5BA3D1" stroke-width="1.42804"/>
</g>
<path d="M1425.89 410.949L1591.55 410.949" stroke="#5BA3D1" stroke-width="1.42804"/>
<path d="M1508.72 410.949L1508.72 328.123" stroke="#5BA3D1" stroke-width="1.42804"/>
<g clip-path="url(#clip10_270_4747)">
<mask id="path-60-inside-18_270_4747" fill="white">
<path d="M1180.26 657.989C1180.26 612.248 1143.18 575.169 1097.43 575.167C1097.44 620.908 1134.52 657.988 1180.26 657.989Z"/>
</mask>
<path d="M1180.26 657.989L1181.69 657.989L1181.69 659.417L1180.26 659.417L1180.26 657.989ZM1097.43 575.167L1096.01 575.167L1096.01 573.739L1097.43 573.739L1097.43 575.167ZM1180.26 657.989L1178.83 657.989C1178.83 613.037 1142.39 576.597 1097.43 576.595L1097.43 575.167L1097.43 573.739C1143.96 573.741 1181.68 611.459 1181.69 657.989L1180.26 657.989ZM1097.43 575.167L1098.86 575.167C1098.86 620.119 1135.31 656.56 1180.26 656.561L1180.26 657.989L1180.26 659.417C1133.73 659.416 1096.01 621.697 1096.01 575.167L1097.43 575.167Z" fill="#5BA3D1" mask="url(#path-60-inside-18_270_4747)"/>
<mask id="path-62-inside-19_270_4747" fill="white">
<path d="M1097.42 575.168C1097.42 529.647 1134.14 492.704 1179.58 492.346L1180.24 492.346C1180.24 537.732 1143.74 574.592 1098.49 575.165C1098.31 575.167 1098.13 575.167 1097.96 575.168L1097.42 575.168Z"/>
</mask>
<path d="M1097.42 575.168L1095.99 575.168L1095.99 576.596L1097.42 576.596L1097.42 575.168ZM1179.58 492.346L1179.58 490.918L1179.57 490.918L1179.58 492.346ZM1180.24 492.346L1181.67 492.346L1181.67 490.918L1180.24 490.918L1180.24 492.346ZM1098.49 575.165L1098.5 576.593L1098.49 575.165ZM1097.96 575.168L1097.96 576.596L1097.97 576.596L1097.96 575.168ZM1097.42 575.168L1098.85 575.168C1098.85 530.432 1134.94 494.126 1179.59 493.774L1179.58 492.346L1179.57 490.918C1133.35 491.282 1095.99 528.862 1095.99 575.168L1097.42 575.168ZM1179.58 492.346L1179.58 493.774L1180.24 493.774L1180.24 492.346L1180.24 490.918L1179.58 490.918L1179.58 492.346ZM1180.24 492.346L1178.81 492.346C1178.81 536.949 1142.94 573.174 1098.47 573.737L1098.49 575.165L1098.5 576.593C1144.54 576.01 1181.67 538.515 1181.67 492.346L1180.24 492.346ZM1098.49 575.165L1098.47 573.737C1098.3 573.739 1098.14 573.739 1097.95 573.74L1097.96 575.168L1097.97 576.596C1098.12 576.595 1098.32 576.595 1098.5 576.593L1098.49 575.165ZM1097.96 575.168L1097.96 573.74L1097.42 573.74L1097.42 575.168L1097.42 576.596L1097.96 576.596L1097.96 575.168Z" fill="#5BA3D1" mask="url(#path-62-inside-19_270_4747)"/>
<path d="M1097.43 575.172L1180.26 575.172" stroke="#5BA3D1" stroke-width="1.42804"/>
<mask id="path-65-inside-20_270_4747" fill="white">
<path d="M1263.08 657.994C1263.08 612.253 1226 575.173 1180.26 575.172C1180.26 575.528 1180.26 575.884 1180.26 576.239C1180.83 621.133 1217.12 657.42 1262.01 657.988C1262.37 657.993 1262.73 657.994 1263.08 657.994Z"/>
</mask>
<path d="M1263.08 657.994L1264.51 657.994L1264.51 659.422L1263.08 659.422L1263.08 657.994ZM1180.26 575.172L1178.83 575.172L1178.83 573.744L1180.26 573.744L1180.26 575.172ZM1180.26 576.239L1178.84 576.257L1180.26 576.239ZM1263.08 657.994L1261.65 657.994C1261.65 613.042 1225.21 576.601 1180.26 576.6L1180.26 575.172L1180.26 573.744C1226.79 573.745 1264.51 611.464 1264.51 657.994L1263.08 657.994ZM1180.26 575.172L1181.69 575.172C1181.69 575.525 1181.69 575.874 1181.69 576.221L1180.26 576.239L1178.84 576.257C1178.83 575.894 1178.83 575.532 1178.83 575.172L1180.26 575.172ZM1180.26 576.239L1181.69 576.221C1182.25 620.341 1217.91 656.002 1262.03 656.56L1262.01 657.988L1262 659.416C1216.33 658.838 1179.42 621.926 1178.84 576.257L1180.26 576.239ZM1262.01 657.988L1262.03 656.56C1262.38 656.565 1262.73 656.566 1263.08 656.566L1263.08 657.994L1263.08 659.422C1262.72 659.422 1262.36 659.421 1262 659.416L1262.01 657.988Z" fill="#5BA3D1" mask="url(#path-65-inside-20_270_4747)"/>
<mask id="path-67-inside-21_270_4747" fill="white">
<path d="M1180.27 575.172C1180.27 529.581 1217.1 492.596 1262.63 492.349L1263.09 492.349C1263.09 537.735 1226.58 574.595 1181.33 575.168C1181.12 575.171 1180.91 575.171 1180.69 575.172L1180.27 575.172Z"/>
</mask>
<path d="M1180.27 575.172L1178.84 575.172L1178.84 576.6L1180.27 576.6L1180.27 575.172ZM1262.63 492.349L1262.63 490.921L1262.63 490.921L1262.63 492.349ZM1263.09 492.349L1264.52 492.349L1264.52 490.921L1263.09 490.921L1263.09 492.349ZM1180.69 575.172L1180.69 576.6L1180.7 576.6L1180.69 575.172ZM1180.27 575.172L1181.69 575.172C1181.69 530.368 1217.89 494.02 1262.64 493.777L1262.63 492.349L1262.63 490.921C1216.31 491.172 1178.84 528.795 1178.84 575.172L1180.27 575.172ZM1262.63 492.349L1262.63 493.777L1263.09 493.777L1263.09 492.349L1263.09 490.921L1262.63 490.921L1262.63 492.349ZM1263.09 492.349L1261.66 492.349C1261.66 536.952 1225.79 573.177 1181.32 573.74L1181.33 575.168L1181.35 576.596C1227.38 576.013 1264.52 538.518 1264.52 492.349L1263.09 492.349ZM1181.33 575.168L1181.32 573.74C1181.11 573.743 1180.91 573.743 1180.69 573.744L1180.69 575.172L1180.7 576.6C1180.91 576.599 1181.13 576.599 1181.35 576.596L1181.33 575.168ZM1180.69 575.172L1180.69 573.744L1180.27 573.744L1180.27 575.172L1180.27 576.6L1180.69 576.6L1180.69 575.172Z" fill="#5BA3D1" mask="url(#path-67-inside-21_270_4747)"/>
<path d="M1263.09 658.001L1263.09 492.348" stroke="#5BA3D1" stroke-width="1.42804"/>
</g>
<rect x="1098.17" y="493.068" width="164.225" height="164.225" stroke="#5BA3D1" stroke-width="1.42804"/>
<g clip-path="url(#clip11_270_4747)">
<rect x="1262.38" y="657.289" width="164.225" height="81.3982" transform="rotate(-90 1262.38 657.289)" stroke="#5BA3D1" stroke-width="1.42804"/>
<rect x="1343.77" y="575.89" width="81.3982" height="81.3982" transform="rotate(90 1343.77 575.89)" stroke="#5BA3D1" stroke-width="1.42804"/>
<mask id="path-74-inside-22_270_4747" fill="white">
<path d="M1344.49 658.007C1298.74 658.007 1261.66 620.924 1261.66 575.181V575.181L1344.49 575.181L1344.49 658.007V658.007Z"/>
</mask>
<path d="M1344.49 659.435C1297.95 659.435 1260.23 621.713 1260.23 575.181V575.181L1263.09 575.181V575.181C1263.09 620.136 1299.53 656.579 1344.49 656.579L1344.49 659.435ZM1345.91 575.181L1345.91 659.435L1344.49 658.007C1344.01 658.007 1343.53 658.003 1343.06 657.995L1343.06 575.181V575.181L1345.91 575.181ZM1345.91 659.435L1344.49 659.435C1297.95 659.435 1260.23 621.713 1260.23 575.181L1263.09 575.181C1263.09 620.136 1299.53 656.579 1344.49 656.579L1343.06 656.579L1345.91 659.435ZM1343.06 656.579M1261.66 575.181L1344.49 575.181L1261.66 575.181" fill="#5BA3D1" mask="url(#path-74-inside-22_270_4747)"/>
<g clip-path="url(#clip12_270_4747)">
<mask id="path-76-inside-23_270_4747" fill="white">
<path d="M1344.49 492.358L1344.49 575.185L1261.66 575.185L1261.66 492.358L1344.49 492.358Z"/>
</mask>
<circle cx="7.52966" cy="7.52966" r="6.7767" transform="matrix(-1 3.17865e-08 3.17865e-08 1 1352.02 567.662)" stroke="#5BA3D1" stroke-width="1.50593"/>
<circle cx="22.589" cy="22.589" r="21.836" transform="matrix(-1 3.17865e-08 3.17865e-08 1 1367.09 552.598)" stroke="#5BA3D1" stroke-width="1.50593"/>
<circle cx="37.6483" cy="37.6483" r="36.8954" transform="matrix(-1 3.17865e-08 3.17865e-08 1 1382.14 537.53)" stroke="#5BA3D1" stroke-width="1.50593"/>
<circle cx="52.7076" cy="52.7076" r="51.9547" transform="matrix(-1 3.17865e-08 3.17865e-08 1 1397.2 522.476)" stroke="#5BA3D1" stroke-width="1.50593"/>
<circle cx="67.767" cy="67.767" r="67.014" transform="matrix(-1 3.17865e-08 3.17865e-08 1 1412.26 507.417)" stroke="#5BA3D1" stroke-width="1.50593"/>
<circle cx="82.8263" cy="82.8263" r="82.0733" transform="matrix(-1 3.17865e-08 3.17865e-08 1 1427.32 492.36)" stroke="#5BA3D1" stroke-width="1.50593"/>
</g>
<path d="M1344.49 492.358L1343.06 492.358L1343.06 575.185L1344.49 575.185L1345.92 575.185L1345.92 492.358L1344.49 492.358ZM1261.66 575.185L1263.09 575.185L1263.09 492.358L1261.66 492.358L1260.23 492.358L1260.23 575.185L1261.66 575.185Z" fill="#5BA3D1" mask="url(#path-76-inside-23_270_4747)"/>
<mask id="path-84-inside-24_270_4747" fill="white">
<path d="M1344.5 575.189C1344.5 620.93 1381.58 658.009 1427.32 658.011C1427.32 612.27 1390.24 575.191 1344.5 575.189Z"/>
</mask>
<path d="M1344.5 575.189L1343.07 575.19L1343.07 573.761L1344.5 573.761L1344.5 575.189ZM1427.32 658.011L1428.75 658.011L1428.75 659.439L1427.32 659.439L1427.32 658.011ZM1344.5 575.189L1345.93 575.189C1345.93 620.142 1382.37 656.581 1427.32 656.583L1427.32 658.011L1427.32 659.439C1380.79 659.437 1343.07 621.719 1343.07 575.19L1344.5 575.189ZM1427.32 658.011L1425.9 658.011C1425.89 613.059 1389.45 576.619 1344.5 576.617L1344.5 575.189L1344.5 573.761C1391.03 573.763 1428.75 611.481 1428.75 658.011L1427.32 658.011Z" fill="#5BA3D1" mask="url(#path-84-inside-24_270_4747)"/>
<mask id="path-86-inside-25_270_4747" fill="white">
<path d="M1427.31 492.349C1427.31 538.09 1390.23 575.169 1344.49 575.171C1344.49 529.43 1381.57 492.35 1427.31 492.349Z"/>
</mask>
<path d="M1427.31 492.349L1428.74 492.349L1428.74 490.921L1427.31 490.921L1427.31 492.349ZM1344.49 575.171L1343.06 575.171L1343.06 576.599L1344.49 576.599L1344.49 575.171ZM1427.31 492.349L1425.88 492.349C1425.88 537.301 1389.44 573.741 1344.49 573.743L1344.49 575.171L1344.49 576.599C1391.02 576.597 1428.74 538.879 1428.74 492.349L1427.31 492.349ZM1344.49 575.171L1345.92 575.171C1345.92 530.218 1382.36 493.778 1427.31 493.777L1427.31 492.349L1427.31 490.921C1380.78 490.922 1343.06 528.641 1343.06 575.171L1344.49 575.171Z" fill="#5BA3D1" mask="url(#path-86-inside-25_270_4747)"/>
</g>
<rect x="1426.61" y="657.286" width="164.225" height="164.225" transform="rotate(180 1426.61 657.286)" stroke="#5BA3D1" stroke-width="1.42804"/>
<rect x="1426.61" y="493.068" width="164.225" height="164.225" stroke="#5BA3D1" stroke-width="1.42804"/>
<path d="M1479.4 650.377C1483.03 651.811 1486.74 652.908 1490.62 653.835C1490.62 653.835 1490.62 653.835 1490.71 653.835C1496.53 655.185 1502.52 655.86 1508.67 655.86C1553.21 655.86 1589.32 619.757 1589.32 575.133C1589.32 530.595 1553.21 494.491 1508.67 494.491C1495.94 494.491 1483.96 497.444 1473.24 502.673C1470.46 504.023 1467.76 505.542 1465.15 507.229C1442.79 521.569 1428.03 546.622 1428.03 575.218C1428.03 585.171 1429.8 594.788 1433.18 603.561" stroke="#5BA3D1" stroke-width="1.42804" stroke-linecap="round"/>
<path d="M1486.25 519.709C1490.13 527.47 1492.32 536.242 1492.32 545.606C1492.32 563.826 1483.88 580.022 1470.81 590.651" stroke="#5BA3D1" stroke-width="1.42804" stroke-linecap="round"/>
<path d="M1486.23 519.709C1496.78 529.747 1503.27 543.834 1503.27 559.524C1503.27 567.285 1501.67 574.708 1498.72 581.456C1496.36 586.855 1493.15 591.747 1489.36 596.049C1488.34 597.146 1487.33 598.242 1486.23 599.255" stroke="#5BA3D1" stroke-width="1.42804" stroke-linecap="round"/>
<rect x="1755.07" y="164.612" width="164.225" height="164.225" transform="rotate(180 1755.07 164.612)" stroke="#5BA3D1" stroke-width="1.42804"/>
<path d="M1595.11 108.829C1606.11 140.478 1636.45 163.181 1672.15 163.181C1717.15 163.181 1753.62 127.059 1753.62 82.4967C1753.62 37.9347 1717.15 1.8125 1672.15 1.8125C1657.49 1.8125 1643.77 5.61041 1631.93 12.2778C1624.91 16.3852 1608.83 28.9042 1600.65 46.1213" stroke="#5BA3D1" stroke-width="1.42804" stroke-linecap="round"/>
<path d="M1635.03 111.893C1639.35 108.264 1644.59 105.447 1650.44 103.881C1655.54 102.514 1660.74 102.178 1665.67 102.798C1681.38 104.766 1695.04 115.927 1699.39 132.144" stroke="#5BA3D1" stroke-width="1.42804" stroke-linecap="round"/>
<path d="M1617.7 123.327C1623.04 107.34 1636.11 94.2206 1653.64 89.5225C1654.88 89.1916 1656.13 88.9431 1657.39 88.6945C1683.99 83.5958 1710.31 99.8355 1717.42 126.342" stroke="#5BA3D1" stroke-width="1.42804" stroke-linecap="round"/>
<path d="M1632.23 83.0833C1630.69 83.5847 1629.17 84.1684 1627.77 84.8947C1625.68 85.9842 1623.82 87.2765 1622.11 88.7936C1614.84 95.2417 1611.5 105.489 1614.17 115.45C1614.94 118.331 1616.18 120.997 1617.79 123.389" stroke="#5BA3D1" stroke-width="1.42804" stroke-linecap="round"/>
<path d="M1635.72 60.5241C1637.22 62.1527 1638.31 64.243 1638.92 66.5479C1639.92 70.2522 1639.44 74.0845 1637.74 77.276C1636.44 79.6546 1634.61 81.7318 1632.26 83.1564" stroke="#5BA3D1" stroke-width="1.42804" stroke-linecap="round"/>
<path d="M1635.73 60.5254C1641.99 61.495 1647.34 65.9737 1649.08 72.4768C1649.5 74.0408 1649.67 75.671 1649.63 77.1807" stroke="#5BA3D1" stroke-width="1.42804" stroke-linecap="round"/>
<path d="M1649.63 77.1923L1649.8 77.1482C1651.11 76.7953 1652.41 76.3601 1653.66 75.7602C1663.87 71.0818 1669.51 59.5139 1666.49 48.2364C1665.98 46.3431 1665.25 44.5983 1664.35 42.8976" stroke="#5BA3D1" stroke-width="1.42804" stroke-linecap="round"/>
<path d="M1681.84 65.639C1682.64 62.6901 1682.67 59.5061 1681.81 56.2957C1678.04 43.518 1669.36 41.8538 1664.95 42.6677C1664.63 42.7252 1664.49 43.0707 1664.63 43.3532C1665.38 44.8301 1666.03 46.459 1666.48 48.14C1669.5 59.4176 1663.84 70.9031 1653.65 75.6638" stroke="#5BA3D1" stroke-width="1.42804" stroke-linecap="round"/>
<path d="M1721.13 47.9666C1718.37 57.0882 1711.05 64.6946 1701.17 67.3414C1695.58 68.8413 1689.95 68.5845 1684.81 66.8724C1683.75 66.5388 1682.76 66.1008 1681.76 65.6629" stroke="#5BA3D1" stroke-width="1.42804" stroke-linecap="round"/>
<path d="M1721.12 47.9648C1724.14 50.684 1726.44 54.3044 1727.56 58.5026C1727.94 59.902 1728.15 61.3455 1728.25 62.7288C1728.71 70.0185 1725.54 76.9556 1719.93 81.3705C1719.33 81.7939 1718.74 82.2173 1718.07 82.6628" stroke="#5BA3D1" stroke-width="1.42804" stroke-linecap="round"/>
<path d="M1741.81 89.9846C1740.34 91.0843 1738.62 91.8988 1736.64 92.4282C1728.74 94.5457 1720.69 90.1746 1718.04 82.5911L1718.02 82.5088" stroke="#5BA3D1" stroke-width="1.42804" stroke-linecap="round"/>
<path d="M1731.18 109.941C1739.41 107.735 1744.3 99.281 1742.09 91.0492C1742 90.7199 1741.91 90.3907 1741.83 90.0614" stroke="#5BA3D1" stroke-width="1.42804" stroke-linecap="round"/>
<path d="M1719.93 81.3709C1719.23 81.7337 1718.05 82.5799 1718.05 82.5799" stroke="#5BA3D1" stroke-width="1.42804" stroke-linecap="round"/>
<mask id="path-106-inside-26_270_4747" fill="white">
<path d="M1672.95 246.722C1672.95 201.297 1709.51 164.414 1754.82 163.901L1755.77 163.901C1755.77 209.339 1719.18 246.23 1673.86 246.722L1672.95 246.722Z"/>
</mask>
<path d="M1672.95 246.722L1671.52 246.722L1671.52 248.15L1672.95 248.15L1672.95 246.722ZM1754.82 163.901L1754.82 162.473L1754.81 162.473L1754.8 162.473L1754.82 163.901ZM1755.77 163.901L1757.2 163.901L1757.2 162.473L1755.77 162.473L1755.77 163.901ZM1673.86 246.722L1673.86 248.15L1673.87 248.15L1673.88 248.15L1673.86 246.722ZM1672.95 246.722L1674.37 246.722C1674.37 202.08 1710.31 165.833 1754.83 165.329L1754.82 163.901L1754.8 162.473C1708.71 162.995 1671.52 200.514 1671.52 246.722L1672.95 246.722ZM1754.82 163.901L1754.82 165.329L1755.77 165.329L1755.77 163.901L1755.77 162.473L1754.82 162.473L1754.82 163.901ZM1755.77 163.901L1754.34 163.901C1754.34 208.555 1718.38 244.811 1673.84 245.294L1673.86 246.722L1673.88 248.15C1719.98 247.65 1757.2 210.122 1757.2 163.901L1755.77 163.901ZM1673.86 246.722L1673.86 245.294L1672.95 245.294L1672.95 246.722L1672.95 248.15L1673.86 248.15L1673.86 246.722Z" fill="#5BA3D1" mask="url(#path-106-inside-26_270_4747)"/>
<mask id="path-108-inside-27_270_4747" fill="white">
<path d="M1755.75 329.543C1755.75 283.802 1718.67 246.723 1672.93 246.722C1672.93 247.078 1672.93 247.433 1672.94 247.788C1673.51 292.682 1709.79 328.969 1754.69 329.537C1755.04 329.542 1755.4 329.543 1755.75 329.543Z"/>
</mask>
<path d="M1755.75 329.543L1757.18 329.543L1757.18 330.971L1755.75 330.971L1755.75 329.543ZM1672.93 246.722L1671.5 246.722L1671.5 245.294L1672.93 245.294L1672.93 246.722ZM1672.94 247.788L1671.51 247.806L1672.94 247.788ZM1755.75 329.543L1754.33 329.543C1754.32 284.591 1717.88 248.151 1672.93 248.15L1672.93 246.722L1672.93 245.294C1719.46 245.295 1757.18 283.014 1757.18 329.543L1755.75 329.543ZM1672.93 246.722L1674.36 246.722C1674.36 247.074 1674.36 247.423 1674.36 247.77L1672.94 247.788L1671.51 247.806C1671.5 247.443 1671.5 247.081 1671.5 246.722L1672.93 246.722ZM1672.94 247.788L1674.36 247.77C1674.92 291.89 1710.58 327.551 1754.7 328.109L1754.69 329.537L1754.67 330.965C1709 330.387 1672.09 293.475 1671.51 247.806L1672.94 247.788ZM1754.69 329.537L1754.7 328.109C1755.05 328.114 1755.4 328.115 1755.75 328.115L1755.75 329.543L1755.75 330.971C1755.39 330.971 1755.03 330.97 1754.67 330.965L1754.69 329.537Z" fill="#5BA3D1" mask="url(#path-108-inside-27_270_4747)"/>
<g clip-path="url(#clip13_270_4747)">
<mask id="path-110-inside-28_270_4747" fill="white">
<path d="M1672.94 163.901L1672.94 329.554L1590.12 329.554L1590.12 163.901L1672.94 163.901Z"/>
</mask>
<circle cx="7.52966" cy="7.52966" r="6.7767" transform="matrix(-1 3.17865e-08 3.17865e-08 1 1680.48 239.209)" stroke="#5BA3D1" stroke-width="1.50593"/>
<circle cx="22.589" cy="22.589" r="21.836" transform="matrix(-1 3.17865e-08 3.17865e-08 1 1695.53 224.145)" stroke="#5BA3D1" stroke-width="1.50593"/>
<circle cx="37.6483" cy="37.6483" r="36.8954" transform="matrix(-1 3.17865e-08 3.17865e-08 1 1710.59 209.094)" stroke="#5BA3D1" stroke-width="1.50593"/>
<circle cx="52.7076" cy="52.7076" r="51.9547" transform="matrix(-1 3.17865e-08 3.17865e-08 1 1725.66 194.029)" stroke="#5BA3D1" stroke-width="1.50593"/>
<circle cx="67.767" cy="67.767" r="67.014" transform="matrix(-1 3.17865e-08 3.17865e-08 1 1740.72 178.966)" stroke="#5BA3D1" stroke-width="1.50593"/>
<circle cx="82.8263" cy="82.8263" r="82.0733" transform="matrix(-1 3.17865e-08 3.17865e-08 1 1755.78 163.907)" stroke="#5BA3D1" stroke-width="1.50593"/>
</g>
<path d="M1672.94 163.901L1671.51 163.901L1671.51 329.554L1672.94 329.554L1674.37 329.554L1674.37 163.901L1672.94 163.901ZM1590.12 329.554L1591.54 329.554L1591.54 163.901L1590.12 163.901L1588.69 163.901L1588.69 329.554L1590.12 329.554Z" fill="#5BA3D1" mask="url(#path-110-inside-28_270_4747)"/>
<rect x="1590.85" y="493.062" width="164.225" height="164.225" transform="rotate(-90 1590.85 493.062)" stroke="#5BA3D1" stroke-width="1.42804"/>
<mask id="path-119-inside-29_270_4747" fill="white">
<path d="M1672.18 410.939C1626.79 410.529 1590.12 373.607 1590.12 328.118L1590.88 328.118C1636.27 328.529 1672.94 365.451 1672.94 410.939L1672.18 410.939Z"/>
</mask>
<path d="M1672.18 410.939L1672.17 412.367L1672.18 412.367L1672.18 410.939ZM1590.12 328.118L1590.12 326.69L1588.69 326.69L1588.69 328.118L1590.12 328.118ZM1590.88 328.118L1590.89 326.69L1590.88 326.69L1590.88 328.118ZM1672.94 410.939L1672.94 412.367L1674.37 412.367L1674.37 410.939L1672.94 410.939ZM1672.18 410.939L1672.19 409.511C1627.58 409.108 1591.55 372.822 1591.55 328.118L1590.12 328.118L1588.69 328.118C1588.69 374.391 1625.99 411.95 1672.17 412.367L1672.18 410.939ZM1590.12 328.118L1590.12 329.546L1590.88 329.546L1590.88 328.118L1590.88 326.69L1590.12 326.69L1590.12 328.118ZM1590.88 328.118L1590.87 329.546C1635.48 329.95 1671.51 366.235 1671.51 410.939L1672.94 410.939L1674.37 410.939C1674.37 364.667 1637.07 327.108 1590.89 326.69L1590.88 328.118ZM1672.94 410.939L1672.94 409.511L1672.18 409.511L1672.18 410.939L1672.18 412.367L1672.94 412.367L1672.94 410.939Z" fill="#5BA3D1" mask="url(#path-119-inside-29_270_4747)"/>
<mask id="path-121-inside-30_270_4747" fill="white">
<path d="M1672.33 410.955C1626.87 411.284 1590.12 448.238 1590.12 493.777L1590.73 493.777C1590.88 493.776 1591.03 493.776 1591.19 493.774C1636.44 493.201 1672.94 456.341 1672.94 410.955L1672.33 410.955Z"/>
</mask>
<path d="M1672.33 410.955L1672.32 409.527L1672.33 409.527L1672.33 410.955ZM1590.12 493.777L1590.12 495.205L1588.69 495.205L1588.69 493.777L1590.12 493.777ZM1590.73 493.777L1590.74 495.205L1590.73 495.205L1590.73 493.777ZM1591.19 493.774L1591.17 492.346L1591.19 493.774ZM1672.94 410.955L1672.94 409.527L1674.37 409.527L1674.37 410.955L1672.94 410.955ZM1672.33 410.955L1672.34 412.383C1627.66 412.706 1591.55 449.023 1591.55 493.777L1590.12 493.777L1588.69 493.777C1588.69 447.452 1626.08 409.861 1672.32 409.527L1672.33 410.955ZM1590.12 493.777L1590.12 492.349L1590.73 492.349L1590.73 493.777L1590.73 495.205L1590.12 495.205L1590.12 493.777ZM1590.73 493.777L1590.72 492.349C1590.89 492.348 1591.02 492.348 1591.17 492.346L1591.19 493.774L1591.2 495.202C1591.05 495.204 1590.87 495.204 1590.74 495.205L1590.73 493.777ZM1591.19 493.774L1591.17 492.346C1635.64 491.783 1671.51 455.559 1671.51 410.955L1672.94 410.955L1674.37 410.955C1674.37 457.124 1637.23 494.619 1591.2 495.202L1591.19 493.774ZM1672.94 410.955L1672.94 412.383L1672.33 412.383L1672.33 410.955L1672.33 409.527L1672.94 409.527L1672.94 410.955Z" fill="#5BA3D1" mask="url(#path-121-inside-30_270_4747)"/>
<g clip-path="url(#clip14_270_4747)">
<circle cx="22.589" cy="22.589" r="21.836" transform="matrix(1 -3.17865e-08 -3.17865e-08 -1 1650.36 433.529)" stroke="#5BA3D1" stroke-width="1.50593"/>
<circle cx="52.7076" cy="52.7076" r="51.9547" transform="matrix(1 -3.17865e-08 -3.17865e-08 -1 1620.23 463.646)" stroke="#5BA3D1" stroke-width="1.50593"/>
<circle cx="82.8263" cy="82.8263" r="82.0733" transform="matrix(1 -3.17865e-08 -3.17865e-08 -1 1590.13 493.769)" stroke="#5BA3D1" stroke-width="1.50593"/>
</g>
<path d="M1672.96 328.122L1672.96 493.775" stroke="#5BA3D1" stroke-width="1.42804"/>
<g clip-path="url(#clip15_270_4747)">
<mask id="path-127-inside-31_270_4747" fill="white">
<path d="M1755.78 657.997C1755.78 612.254 1718.69 575.171 1672.95 575.171V575.171L1672.95 657.997L1755.78 657.997V657.997Z"/>
</mask>
<path d="M1757.21 657.997C1757.21 611.465 1719.48 573.743 1672.95 573.743L1671.52 573.743L1674.38 576.599L1672.95 576.599C1717.91 576.599 1754.35 613.042 1754.35 657.997L1757.21 657.997ZM1754.35 657.997M1672.95 657.997L1755.78 657.997L1672.95 657.997M1757.21 657.997V657.997C1757.21 611.465 1719.48 573.743 1672.95 573.743L1672.95 576.599C1717.91 576.599 1754.35 613.042 1754.35 657.997V657.997L1757.21 657.997ZM1671.52 573.743L1671.52 657.997L1674.38 657.997L1674.38 575.183C1673.9 575.175 1673.43 575.171 1672.95 575.171L1671.52 573.743Z" fill="#5BA3D1" mask="url(#path-127-inside-31_270_4747)"/>
<path d="M1673.67 493.065L1755.06 493.065C1754.68 537.848 1718.45 574.079 1673.67 574.46L1673.67 493.065Z" stroke="#5BA3D1" stroke-width="1.42804"/>
</g>
<g clip-path="url(#clip16_270_4747)">
<circle cx="22.589" cy="22.589" r="21.836" transform="matrix(1 -3.17865e-08 -3.17865e-08 -1 1567.54 597.777)" stroke="#5BA3D1" stroke-width="1.50593"/>
<circle cx="52.7076" cy="52.7076" r="51.9547" transform="matrix(1 -3.17865e-08 -3.17865e-08 -1 1537.41 627.898)" stroke="#5BA3D1" stroke-width="1.50593"/>
<circle cx="82.8263" cy="82.8263" r="82.0733" transform="matrix(1 -3.17865e-08 -3.17865e-08 -1 1507.3 658.015)" stroke="#5BA3D1" stroke-width="1.50593"/>
</g>
<g clip-path="url(#clip17_270_4747)">
<mask id="path-135-inside-32_270_4747" fill="white">
<path d="M1919.41 -81.7295C1873.94 -81.4008 1837.19 -44.4469 1837.19 1.09277H1837.8C1837.95 1.09167 1838.11 1.09178 1838.26 1.08984C1883.51 0.516716 1920.02 -36.3432 1920.02 -81.7295H1919.41Z"/>
</mask>
<path d="M1919.41 -81.7295L1919.4 -83.1575H1919.41V-81.7295ZM1837.19 1.09277V2.52081H1835.76V1.09277H1837.19ZM1837.8 1.09277L1837.81 2.52081H1837.8V1.09277ZM1838.26 1.08984L1838.24 -0.338081L1838.26 1.08984ZM1920.02 -81.7295V-83.1575H1921.44L1921.44 -81.7295L1920.02 -81.7295ZM1919.41 -81.7295L1919.42 -80.3015C1874.74 -79.9785 1838.62 -43.6616 1838.62 1.09277H1837.19H1835.76C1835.76 -45.2321 1873.15 -82.8231 1919.4 -83.1575L1919.41 -81.7295ZM1837.19 1.09277V-0.335266H1837.8V1.09277V2.52081H1837.19V1.09277ZM1837.8 1.09277L1837.79 -0.335228C1837.96 -0.336464 1838.09 -0.336182 1838.24 -0.338081L1838.26 1.08984L1838.28 2.51777C1838.12 2.51974 1837.95 2.5198 1837.81 2.52077L1837.8 1.09277ZM1838.26 1.08984L1838.24 -0.338081C1882.71 -0.901321 1918.59 -37.1258 1918.59 -81.7295L1920.02 -81.7295L1921.44 -81.7295C1921.44 -35.5605 1884.31 1.93475 1838.28 2.51777L1838.26 1.08984ZM1920.02 -81.7295V-80.3015H1919.41V-81.7295V-83.1575H1920.02V-81.7295Z" fill="#5BA3D1" mask="url(#path-135-inside-32_270_4747)"/>
<mask id="path-137-inside-33_270_4747" fill="white">
<path d="M1837.19 1.08887C1791.45 1.08775 1754.37 -35.9912 1754.36 -81.7314C1800.1 -81.7298 1837.18 -44.6515 1837.19 1.08887Z"/>
</mask>
<path d="M1837.19 1.08887L1837.19 2.51691L1838.62 2.51694L1838.62 1.08878L1837.19 1.08887ZM1754.36 -81.7314L1754.36 -83.1595L1752.94 -83.1595L1752.94 -81.7313L1754.36 -81.7314ZM1837.19 1.08887L1837.19 -0.339173C1792.24 -0.340267 1755.8 -36.7799 1755.79 -81.7315L1754.36 -81.7314L1752.94 -81.7313C1752.94 -35.2025 1790.66 2.51577 1837.19 2.51691L1837.19 1.08887ZM1754.36 -81.7314L1754.36 -80.3034C1799.32 -80.3018 1835.76 -43.8627 1835.76 1.08895L1837.19 1.08887L1838.62 1.08878C1838.61 -45.4402 1800.89 -83.1578 1754.36 -83.1595L1754.36 -81.7314Z" fill="#5BA3D1" mask="url(#path-137-inside-33_270_4747)"/>
<path d="M1837.19 1.09766L1837.19 -81.7286" stroke="#5BA3D1" stroke-width="1.42804"/>
</g>
<rect x="1755.07" y="0.383636" width="164.225" height="164.225" transform="rotate(-90 1755.07 0.383636)" stroke="#5BA3D1" stroke-width="1.42804"/>
<mask id="path-140-inside-34_270_4747" fill="white">
<path d="M1920 165.326H1754.35V-0.326401H1920V165.326Z"/>
</mask>
<path d="M1754.35 -0.326401V-1.75444H1752.92V-0.326401H1754.35ZM1920 -0.326401H1921.43V-1.75444H1920V-0.326401ZM1754.35 165.326H1755.78V-0.326401H1754.35H1752.92V165.326H1754.35ZM1754.35 -0.326401V1.10164H1920V-0.326401V-1.75444H1754.35V-0.326401ZM1920 -0.326401H1918.57V165.326H1920H1921.43V-0.326401H1920Z" fill="#5BA3D1" mask="url(#path-140-inside-34_270_4747)"/>
<g clip-path="url(#clip18_270_4747)">
<circle cx="22.589" cy="22.589" r="21.836" transform="matrix(4.37114e-08 1 1 -4.37114e-08 1897.41 59.8984)" stroke="#5BA3D1" stroke-width="1.50593"/>
<circle cx="52.7076" cy="52.7076" r="51.9547" transform="matrix(4.37114e-08 1 1 -4.37114e-08 1867.27 29.7822)" stroke="#5BA3D1" stroke-width="1.50593"/>
<circle cx="82.8263" cy="82.8263" r="82.0733" transform="matrix(4.37114e-08 1 1 -4.37114e-08 1837.16 -0.333008)" stroke="#5BA3D1" stroke-width="1.50593"/>
</g>
<g clip-path="url(#clip19_270_4747)">
<mask id="path-145-inside-35_270_4747" fill="white">
<path d="M1754.34 -0.333981C1800.08 -0.333983 1837.16 36.7486 1837.16 82.4923V82.4923L1754.34 82.4923L1754.34 -0.333981V-0.333981Z"/>
</mask>
<path d="M1754.34 -1.76202C1800.87 -1.76202 1838.59 35.9599 1838.59 82.4923L1838.59 83.9203L1835.74 81.0643L1835.74 82.4923C1835.74 37.5373 1799.29 1.09406 1754.34 1.09406L1754.34 -1.76202ZM1754.34 1.09406M1754.34 82.4923L1754.34 -0.333981L1754.34 82.4923M1754.34 -1.76202V-1.76202C1800.87 -1.76202 1838.59 35.9599 1838.59 82.4923L1835.74 82.4923C1835.74 37.5373 1799.29 1.09406 1754.34 1.09406V1.09406L1754.34 -1.76202ZM1838.59 83.9203L1754.34 83.9203L1754.34 81.0643L1837.15 81.0643C1837.16 81.5403 1837.16 82.0163 1837.16 82.4923L1838.59 83.9203Z" fill="#5BA3D1" mask="url(#path-145-inside-35_270_4747)"/>
<path d="M1919.28 81.7783L1919.28 0.384762C1874.49 0.766195 1838.26 36.9955 1837.88 81.7783L1919.28 81.7783Z" stroke="#5BA3D1" stroke-width="1.42804"/>
</g>
<g clip-path="url(#clip20_270_4747)">
<circle cx="1754.34" cy="82.4845" r="21.836" transform="rotate(90 1754.34 82.4845)" stroke="#5BA3D1" stroke-width="1.50593"/>
<circle cx="1754.35" cy="82.4889" r="51.9547" transform="rotate(90 1754.35 82.4889)" stroke="#5BA3D1" stroke-width="1.50593"/>
<circle cx="1754.34" cy="82.4923" r="82.0733" transform="rotate(90 1754.34 82.4923)" stroke="#5BA3D1" stroke-width="1.50593"/>
</g>
<rect x="-0.71402" y="0.71402" width="164.225" height="164.225" transform="matrix(-1 0 0 1 1918.57 163.902)" stroke="#5BA3D1" stroke-width="1.42804"/>
<mask id="path-152-inside-36_270_4747" fill="white">
<path d="M1837.18 246.726C1837.18 201.251 1800.53 164.337 1755.16 163.904L1754.35 163.904C1754.35 209.393 1791.02 246.316 1836.41 246.726L1837.18 246.726Z"/>
</mask>
<path d="M1837.18 246.726L1838.6 246.726L1838.6 248.154L1837.18 248.154L1837.18 246.726ZM1755.16 163.904L1755.16 162.476L1755.17 162.476L1755.16 163.904ZM1754.35 163.904L1752.92 163.904L1752.92 162.476L1754.35 162.476L1754.35 163.904ZM1836.41 246.726L1836.41 248.154L1836.4 248.154L1836.41 246.726ZM1837.18 246.726L1835.75 246.726C1835.75 202.035 1799.73 165.757 1755.14 165.332L1755.16 163.904L1755.17 162.476C1801.32 162.916 1838.6 200.467 1838.6 246.726L1837.18 246.726ZM1755.16 163.904L1755.16 165.332L1754.35 165.332L1754.35 163.904L1754.35 162.476L1755.16 162.476L1755.16 163.904ZM1754.35 163.904L1755.78 163.904C1755.78 208.609 1791.82 244.895 1836.43 245.298L1836.41 246.726L1836.4 248.154C1790.23 247.736 1752.92 210.177 1752.92 163.904L1754.35 163.904ZM1836.41 246.726L1836.41 245.298L1837.18 245.298L1837.18 246.726L1837.18 248.154L1836.41 248.154L1836.41 246.726Z" fill="#5BA3D1" mask="url(#path-152-inside-36_270_4747)"/>
<mask id="path-154-inside-37_270_4747" fill="white">
<path d="M1837.18 246.726C1837.18 201.251 1873.82 164.337 1919.2 163.904L1920 163.904C1920 209.393 1883.33 246.316 1837.94 246.726L1837.18 246.726Z"/>
</mask>
<path d="M1837.18 246.726L1835.75 246.726L1835.75 248.154L1837.18 248.154L1837.18 246.726ZM1919.2 163.904L1919.2 162.476L1919.18 162.476L1919.2 163.904ZM1920 163.904L1921.43 163.904L1921.43 162.476L1920 162.476L1920 163.904ZM1837.94 246.726L1837.94 248.154L1837.95 248.154L1837.94 246.726ZM1837.18 246.726L1838.6 246.726C1838.6 202.035 1874.62 165.757 1919.21 165.332L1919.2 163.904L1919.18 162.476C1873.03 162.916 1835.75 200.467 1835.75 246.726L1837.18 246.726ZM1919.2 163.904L1919.2 165.332L1920 165.332L1920 163.904L1920 162.476L1919.2 162.476L1919.2 163.904ZM1920 163.904L1918.57 163.904C1918.57 208.609 1882.53 244.895 1837.92 245.298L1837.94 246.726L1837.95 248.154C1884.13 247.736 1921.43 210.177 1921.43 163.904L1920 163.904ZM1837.94 246.726L1837.94 245.298L1837.18 245.298L1837.18 246.726L1837.18 248.154L1837.94 248.154L1837.94 246.726Z" fill="#5BA3D1" mask="url(#path-154-inside-37_270_4747)"/>
<g clip-path="url(#clip21_270_4747)">
<circle cx="1837.16" cy="246.732" r="21.836" transform="rotate(90 1837.16 246.732)" stroke="#5BA3D1" stroke-width="1.50593"/>
<circle cx="1837.19" cy="246.728" r="51.9547" transform="rotate(90 1837.19 246.728)" stroke="#5BA3D1" stroke-width="1.50593"/>
<circle cx="1837.17" cy="246.731" r="82.0733" transform="rotate(90 1837.17 246.731)" stroke="#5BA3D1" stroke-width="1.50593"/>
</g>
<rect x="-0.71402" y="0.71402" width="164.225" height="81.3983" transform="matrix(-1 0 0 1 1918.57 246.721)" stroke="#5BA3D1" stroke-width="1.42804"/>
<path d="M1754.35 246.721L1920 246.721" stroke="#5BA3D1" stroke-width="1.42804"/>
<rect x="1755.07" y="328.838" width="164.225" height="164.225" stroke="#5BA3D1" stroke-width="1.42804"/>
<g clip-path="url(#clip22_270_4747)">
<mask id="path-165-inside-38_270_4747" fill="white">
<path d="M1837.21 410.954C1882.96 410.955 1920.04 448.035 1920.04 493.775C1874.3 493.774 1837.22 456.695 1837.21 410.954Z"/>
</mask>
<path d="M1837.21 410.954L1837.21 409.526L1835.79 409.526L1835.79 410.954L1837.21 410.954ZM1920.04 493.775L1920.04 495.203L1921.47 495.203L1921.47 493.775L1920.04 493.775ZM1837.21 410.954L1837.21 412.382C1882.17 412.383 1918.61 448.823 1918.61 493.775L1920.04 493.775L1921.47 493.775C1921.46 447.246 1883.74 409.527 1837.21 409.526L1837.21 410.954ZM1920.04 493.775L1920.04 492.347C1875.09 492.346 1838.65 455.906 1838.64 410.954L1837.21 410.954L1835.79 410.954C1835.79 457.484 1873.51 495.202 1920.04 495.203L1920.04 493.775Z" fill="#5BA3D1" mask="url(#path-165-inside-38_270_4747)"/>
<mask id="path-167-inside-39_270_4747" fill="white">
<path d="M1837.21 410.954C1791.48 410.959 1754.4 448.037 1754.4 493.775C1800.14 493.77 1837.21 456.692 1837.21 410.954Z"/>
</mask>
<path d="M1837.21 410.954L1837.21 409.526L1838.64 409.526L1838.64 410.954L1837.21 410.954ZM1754.4 493.775L1754.4 495.203L1752.97 495.204L1752.97 493.775L1754.4 493.775ZM1837.21 410.954L1837.22 412.382C1792.27 412.387 1755.83 448.826 1755.83 493.775L1754.4 493.775L1752.97 493.775C1752.97 447.249 1790.69 409.531 1837.21 409.526L1837.21 410.954ZM1754.4 493.775L1754.4 492.347C1799.35 492.342 1835.78 455.904 1835.79 410.954L1837.21 410.954L1838.64 410.954C1838.64 457.481 1800.93 495.197 1754.4 495.203L1754.4 493.775Z" fill="#5BA3D1" mask="url(#path-167-inside-39_270_4747)"/>
</g>
<rect x="1755.07" y="493.065" width="81.3982" height="164.225" transform="rotate(-90 1755.07 493.065)" stroke="#5BA3D1" stroke-width="1.42804"/>
<g clip-path="url(#clip23_270_4747)">
<mask id="path-169-inside-40_270_4747" fill="white">
<path d="M1837.98 410.94C1883.37 410.53 1920.04 373.608 1920.04 328.119H1919.28C1873.88 328.53 1837.21 365.452 1837.21 410.94H1837.98Z"/>
</mask>
<path d="M1837.98 410.94L1837.99 412.368H1837.98V410.94ZM1920.04 328.119V326.691H1921.47V328.119H1920.04ZM1919.28 328.119L1919.26 326.691H1919.28V328.119ZM1837.21 410.94V412.368H1835.79L1835.79 410.94L1837.21 410.94ZM1837.98 410.94L1837.96 409.512C1882.57 409.109 1918.61 372.823 1918.61 328.119H1920.04H1921.47C1921.47 374.392 1884.16 411.951 1837.99 412.368L1837.98 410.94ZM1920.04 328.119V329.547H1919.28V328.119V326.691H1920.04V328.119ZM1919.28 328.119L1919.29 329.547C1874.68 329.951 1838.64 366.236 1838.64 410.94L1837.21 410.94L1835.79 410.94C1835.79 364.668 1873.09 327.109 1919.26 326.691L1919.28 328.119ZM1837.21 410.94V409.512H1837.98V410.94V412.368H1837.21V410.94Z" fill="#5BA3D1" mask="url(#path-169-inside-40_270_4747)"/>
<mask id="path-171-inside-41_270_4747" fill="white">
<path d="M1836.45 410.94C1791.06 410.53 1754.39 373.608 1754.39 328.119H1755.15C1800.54 328.53 1837.21 365.452 1837.21 410.94H1836.45Z"/>
</mask>
<path d="M1836.45 410.94L1836.44 412.368H1836.45V410.94ZM1754.39 328.119V326.691H1752.96V328.119H1754.39ZM1755.15 328.119L1755.17 326.691H1755.15V328.119ZM1837.21 410.94V412.368H1838.64L1838.64 410.94L1837.21 410.94ZM1836.45 410.94L1836.47 409.512C1791.86 409.109 1755.82 372.823 1755.82 328.119H1754.39H1752.96C1752.96 374.392 1790.26 411.951 1836.44 412.368L1836.45 410.94ZM1754.39 328.119V329.547H1755.15V328.119V326.691H1754.39V328.119ZM1755.15 328.119L1755.14 329.547C1799.75 329.951 1835.79 366.236 1835.79 410.94L1837.21 410.94L1838.64 410.94C1838.64 364.668 1801.34 327.109 1755.17 326.691L1755.15 328.119ZM1837.21 410.94V409.512H1836.45V410.94V412.368H1837.21V410.94Z" fill="#5BA3D1" mask="url(#path-171-inside-41_270_4747)"/>
</g>
<rect x="1755.07" y="657.286" width="164.225" height="164.225" transform="rotate(-90 1755.07 657.286)" stroke="#5BA3D1" stroke-width="1.42804"/>
<mask id="path-174-inside-42_270_4747" fill="white">
<path d="M1920.02 575.183C1920.02 529.442 1882.94 492.363 1837.2 492.359C1837.21 538.1 1874.28 575.179 1920.02 575.183Z"/>
</mask>
<path d="M1920.02 575.183L1921.45 575.183L1921.45 576.611L1920.02 576.611L1920.02 575.183ZM1837.2 492.359L1835.78 492.359L1835.78 490.931L1837.2 490.931L1837.2 492.359ZM1920.02 575.183L1918.6 575.183C1918.59 530.231 1882.16 493.791 1837.2 493.787L1837.2 492.359L1837.2 490.931C1883.73 490.935 1921.45 528.654 1921.45 575.183L1920.02 575.183ZM1837.2 492.359L1838.63 492.359C1838.63 537.311 1875.07 573.751 1920.02 573.755L1920.02 575.183L1920.02 576.611C1873.49 576.607 1835.78 538.888 1835.78 492.359L1837.2 492.359Z" fill="#5BA3D1" mask="url(#path-174-inside-42_270_4747)"/>
<mask id="path-176-inside-43_270_4747" fill="white">
<path d="M1837.21 658.002C1837.21 612.527 1873.85 575.613 1919.23 575.181L1920.03 575.181C1920.03 620.669 1883.36 657.592 1837.97 658.002L1837.21 658.002Z"/>
</mask>
<path d="M1837.21 658.002L1835.78 658.002L1835.78 659.43L1837.21 659.43L1837.21 658.002ZM1919.23 575.181L1919.23 573.753L1919.21 573.753L1919.23 575.181ZM1920.03 575.181L1921.46 575.181L1921.46 573.753L1920.03 573.753L1920.03 575.181ZM1837.97 658.002L1837.97 659.43L1837.98 659.43L1837.97 658.002ZM1837.21 658.002L1838.64 658.002C1838.64 613.311 1874.65 577.034 1919.24 576.609L1919.23 575.181L1919.21 573.753C1873.06 574.193 1835.78 611.743 1835.78 658.002L1837.21 658.002ZM1919.23 575.181L1919.23 576.609L1920.03 576.609L1920.03 575.181L1920.03 573.753L1919.23 573.753L1919.23 575.181ZM1920.03 575.181L1918.6 575.181C1918.6 619.885 1882.56 656.171 1837.96 656.574L1837.97 658.002L1837.98 659.43C1884.16 659.013 1921.46 621.454 1921.46 575.181L1920.03 575.181ZM1837.97 658.002L1837.97 656.574L1837.21 656.574L1837.21 658.002L1837.21 659.43L1837.97 659.43L1837.97 658.002Z" fill="#5BA3D1" mask="url(#path-176-inside-43_270_4747)"/>
<g clip-path="url(#clip24_270_4747)">
<mask id="path-178-inside-44_270_4747" fill="white">
<path d="M1754.36 658.007H1837.19V575.181H1754.36V658.007Z"/>
</mask>
<circle cx="1837.19" cy="658.023" r="82.0733" transform="rotate(-90 1837.19 658.023)" stroke="#5BA3D1" stroke-width="1.50593"/>
</g>
<path d="M1837.19 658.007H1835.76V575.181H1837.19H1838.61V658.007H1837.19Z" fill="#5BA3D1" mask="url(#path-178-inside-44_270_4747)"/>
<g clip-path="url(#clip25_270_4747)">
<mask id="path-181-inside-45_270_4747" fill="white">
<path d="M1754.36 575.176L1754.36 492.349L1837.19 492.349L1837.19 575.176L1754.36 575.176Z"/>
</mask>
<circle cx="7.52966" cy="7.52966" r="6.7767" transform="matrix(1 -3.17865e-08 -3.17865e-08 -1 1746.83 499.877)" stroke="#5BA3D1" stroke-width="1.50593"/>
<circle cx="22.589" cy="22.589" r="21.836" transform="matrix(1 -3.17865e-08 -3.17865e-08 -1 1731.77 514.943)" stroke="#5BA3D1" stroke-width="1.50593"/>
<circle cx="37.6483" cy="37.6483" r="36.8954" transform="matrix(1 -3.17865e-08 -3.17865e-08 -1 1716.73 529.999)" stroke="#5BA3D1" stroke-width="1.50593"/>
<circle cx="52.7076" cy="52.7076" r="51.9547" transform="matrix(1 -3.17865e-08 -3.17865e-08 -1 1701.67 545.059)" stroke="#5BA3D1" stroke-width="1.50593"/>
<circle cx="67.767" cy="67.767" r="67.014" transform="matrix(1 -3.17865e-08 -3.17865e-08 -1 1686.61 560.121)" stroke="#5BA3D1" stroke-width="1.50593"/>
<circle cx="82.8263" cy="82.8263" r="82.0733" transform="matrix(1 -3.17865e-08 -3.17865e-08 -1 1671.54 575.179)" stroke="#5BA3D1" stroke-width="1.50593"/>
</g>
<path d="M1754.36 575.176L1755.79 575.176L1755.79 492.349L1754.36 492.349L1752.93 492.349L1752.93 575.176L1754.36 575.176ZM1837.19 492.349L1835.76 492.349L1835.76 575.176L1837.19 575.176L1838.61 575.176L1838.61 492.349L1837.19 492.349Z" fill="#5BA3D1" mask="url(#path-181-inside-45_270_4747)"/>
<mask id="path-189-inside-46_270_4747" fill="white">
<path d="M850.641 575.936C850.643 530.195 887.723 493.116 933.464 493.114C933.461 538.855 896.382 575.934 850.641 575.936Z"/>
</mask>
<path d="M850.641 575.936L849.213 575.935L849.213 577.364L850.641 577.364L850.641 575.936ZM933.464 493.114L934.892 493.114L934.892 491.686L933.464 491.686L933.464 493.114ZM850.641 575.936L852.069 575.936C852.071 530.983 888.512 494.544 933.464 494.542L933.464 493.114L933.464 491.686C886.934 491.688 849.215 529.406 849.213 575.935L850.641 575.936ZM933.464 493.114L932.036 493.114C932.033 538.066 895.593 574.506 850.641 574.508L850.641 575.936L850.641 577.364C897.17 577.362 934.889 539.644 934.892 493.114L933.464 493.114Z" fill="#5BA3D1" mask="url(#path-189-inside-46_270_4747)"/>
<mask id="path-191-inside-47_270_4747" fill="white">
<path d="M933.469 658.757C933.469 613.236 896.746 576.293 851.31 575.935L850.645 575.935C850.645 621.321 887.15 658.181 932.4 658.754C932.576 658.756 932.752 658.756 932.929 658.757L933.469 658.757Z"/>
</mask>
<path d="M933.469 658.757L934.897 658.757L934.897 660.185L933.469 660.185L933.469 658.757ZM851.31 575.935L851.31 574.506L851.321 574.507L851.31 575.935ZM850.645 575.935L849.216 575.935L849.216 574.507L850.645 574.507L850.645 575.935ZM932.4 658.754L932.382 660.182L932.4 658.754ZM932.929 658.757L932.929 660.185L932.92 660.185L932.929 658.757ZM933.469 658.757L932.041 658.757C932.041 614.021 895.951 577.715 851.298 577.363L851.31 575.935L851.321 574.507C897.541 574.871 934.897 612.451 934.897 658.757L933.469 658.757ZM851.31 575.935L851.31 577.363L850.645 577.363L850.645 575.935L850.645 574.507L851.31 574.507L851.31 575.935ZM850.645 575.935L852.073 575.935C852.073 620.538 887.949 656.763 932.418 657.326L932.4 658.754L932.382 660.182C886.351 659.599 849.217 622.103 849.216 575.935L850.645 575.935ZM932.4 658.754L932.418 657.326C932.591 657.328 932.742 657.328 932.938 657.329L932.929 658.757L932.92 660.185C932.763 660.184 932.562 660.184 932.382 660.182L932.4 658.754ZM932.929 658.757L932.929 657.329L933.469 657.329L933.469 658.757L933.469 660.185L932.929 660.185L932.929 658.757Z" fill="#5BA3D1" mask="url(#path-191-inside-47_270_4747)"/>
</g>
<g opacity="0.8" filter="url(#filter0_f_270_4747)">
<path d="M739 91.0382C739 146.551 611.386 66.3404 413.746 66.3404C216.105 66.3404 -30 182.363 -30 44.5144C-30 -10.9982 130.219 -56 327.859 -56C525.5 -56 739 35.5256 739 91.0382Z" fill="#3A7394"/>
</g>
<g opacity="0.8" filter="url(#filter1_f_270_4747)">
<path d="M1529 468.962C1529 413.449 1593.89 493.66 1694.38 493.66C1794.87 493.66 1920 377.637 1920 515.486C1920 570.998 1838.54 616 1738.05 616C1637.55 616 1529 524.474 1529 468.962Z" fill="#3A7394"/>
</g>
</g>
<path d="M0 0V1H1920V0V-1H0V0Z" fill="white" fill-opacity="0.05" mask="url(#path-1-inside-1_270_4747)"/>
<defs>
<filter id="filter0_f_270_4747" x="-534" y="-560" width="1777" height="1176" filterUnits="userSpaceOnUse" color-interpolation-filters="sRGB">
<feFlood flood-opacity="0" result="BackgroundImageFix"/>
<feBlend mode="normal" in="SourceGraphic" in2="BackgroundImageFix" result="shape"/>
<feGaussianBlur stdDeviation="252" result="effect1_foregroundBlur_270_4747"/>
</filter>
<filter id="filter1_f_270_4747" x="1025" y="-56.0001" width="1399" height="1176" filterUnits="userSpaceOnUse" color-interpolation-filters="sRGB">
<feFlood flood-opacity="0" result="BackgroundImageFix"/>
<feBlend mode="normal" in="SourceGraphic" in2="BackgroundImageFix" result="shape"/>
<feGaussianBlur stdDeviation="252" result="effect1_foregroundBlur_270_4747"/>
</filter>
<clipPath id="clip0_270_4747">
<path d="M0 0H1920V576H0V0Z" fill="white"/>
</clipPath>
<clipPath id="clip1_270_4747">
<rect width="1151" height="1151" fill="white" transform="translate(769 -493)"/>
</clipPath>
<clipPath id="clip2_270_4747">
<rect width="82.8263" height="165.653" fill="white" transform="translate(933.223 492.354)"/>
</clipPath>
<clipPath id="clip3_270_4747">
<rect width="164.225" height="82.8263" fill="white" transform="matrix(-1.19249e-08 -1 -1 1.19249e-08 1098.86 658.001)"/>
</clipPath>
<clipPath id="clip4_270_4747">
<rect width="82.8263" height="82.8263" fill="white" transform="matrix(1 0 0 -1 1180.29 410.943)"/>
</clipPath>
<clipPath id="clip5_270_4747">
<rect width="165.653" height="82.8263" fill="white" transform="matrix(-1 0 0 1 1263.1 410.949)"/>
</clipPath>
<clipPath id="clip6_270_4747">
<rect x="1261.68" y="328.124" width="165.653" height="165.653" fill="white"/>
</clipPath>
<clipPath id="clip7_270_4747">
<rect width="82.8263" height="165.653" fill="white" transform="translate(1425.92 329.549) rotate(-90)"/>
</clipPath>
<clipPath id="clip8_270_4747">
<rect width="82.8263" height="82.8263" fill="white" transform="matrix(-1 0 0 -1 1508.73 410.942)"/>
</clipPath>
<clipPath id="clip9_270_4747">
<rect width="165.653" height="82.8263" fill="white" transform="matrix(-1 0 0 1 1591.55 410.949)"/>
</clipPath>
<clipPath id="clip10_270_4747">
<rect x="1097.45" y="492.354" width="165.653" height="165.653" fill="white"/>
</clipPath>
<clipPath id="clip11_270_4747">
<rect x="1427.32" y="658" width="165.653" height="165.653" transform="rotate(180 1427.32 658)" fill="white"/>
</clipPath>
<clipPath id="clip12_270_4747">
<path d="M1344.49 492.358L1344.49 575.185L1261.66 575.185L1261.66 492.358L1344.49 492.358Z" fill="white"/>
</clipPath>
<clipPath id="clip13_270_4747">
<path d="M1672.94 163.901L1672.94 329.554L1590.12 329.554L1590.12 163.901L1672.94 163.901Z" fill="white"/>
</clipPath>
<clipPath id="clip14_270_4747">
<rect width="165.653" height="82.8263" fill="white" transform="translate(1672.96 493.774) rotate(-90)"/>
</clipPath>
<clipPath id="clip15_270_4747">
<rect width="82.8263" height="165.653" fill="white" transform="matrix(-1 -5.56363e-08 -5.56363e-08 1 1755.78 492.354)"/>
</clipPath>
<clipPath id="clip16_270_4747">
<rect width="164.225" height="82.8263" fill="white" transform="translate(1590.14 658.001) rotate(-90)"/>
</clipPath>
<clipPath id="clip17_270_4747">
<rect x="1754.35" y="1.09766" width="165.653" height="165.653" transform="rotate(-90 1754.35 1.09766)" fill="white"/>
</clipPath>
<clipPath id="clip18_270_4747">
<rect width="82.8263" height="82.8263" fill="white" transform="translate(1837.16 82.5039)"/>
</clipPath>
<clipPath id="clip19_270_4747">
<rect width="82.8263" height="165.653" fill="white" transform="translate(1920 -0.330078) rotate(90)"/>
</clipPath>
<clipPath id="clip20_270_4747">
<rect width="82.8263" height="82.8263" fill="white" transform="matrix(-1 0 0 1 1837.16 82.499)"/>
</clipPath>
<clipPath id="clip21_270_4747">
<rect width="165.653" height="82.8263" transform="matrix(-1 0 0 1 1920 246.721)" fill="white"/>
</clipPath>
<clipPath id="clip22_270_4747">
<rect x="1754.36" y="493.779" width="82.8263" height="165.653" transform="rotate(-90 1754.36 493.779)" fill="white"/>
</clipPath>
<clipPath id="clip23_270_4747">
<rect width="82.8263" height="165.653" fill="white" transform="matrix(-4.37114e-08 1 1 4.37114e-08 1754.36 328.125)"/>
</clipPath>
<clipPath id="clip24_270_4747">
<path d="M1754.36 658.007H1837.19V575.181H1754.36V658.007Z" fill="white"/>
</clipPath>
<clipPath id="clip25_270_4747">
<path d="M1754.36 575.176L1754.36 492.349L1837.19 492.349L1837.19 575.176L1754.36 575.176Z" fill="white"/>
</clipPath>
</defs>
</svg>
