<svg width="85" height="78" viewBox="0 0 85 78" fill="none" xmlns="http://www.w3.org/2000/svg">
<path d="M41.8614 76.6251C40.7531 76.6196 39.9494 76.0669 39.8426 75.2764L39.8407 75.2607L39.8378 75.2461C37.7054 63.3486 34.7971 55.5493 29.0959 50.1903C23.4089 44.8448 15.0519 42.0335 2.31438 39.8005L2.31438 39.7995C1.14653 39.5615 0.707902 38.8039 0.710793 38.2125C0.713777 37.6461 1.12356 36.9759 2.26133 36.8685L2.28184 36.8667L2.30237 36.8629C15.0718 34.8987 23.4631 32.2422 29.2074 26.9845C34.9626 21.717 37.9471 13.9453 40.1956 2.07017L40.1986 2.05554L40.2006 2.03992C40.3152 1.25042 41.1243 0.705683 42.2325 0.710974C43.341 0.716393 44.1454 1.26904 44.2523 2.05973L44.2542 2.07537L44.257 2.09003L44.4597 3.19357C46.5743 14.4727 49.4759 21.9542 54.9989 27.1458C60.6861 32.4913 69.0428 35.3036 81.7805 37.5366L81.7795 37.5366C82.9836 37.7818 83.3872 38.4921 83.3846 39.0151C83.3818 39.5366 82.9741 40.2407 81.7759 40.476C69.1956 42.4411 60.8109 45.0978 55.0252 50.3503C49.2253 55.6158 46.1489 63.385 43.8993 75.2659L43.8963 75.2805L43.8943 75.2962C43.7797 76.0858 42.9699 76.6305 41.8614 76.6251Z" fill="white" stroke="#70B2DB" stroke-width="1.4225"/>
</svg>
