<svg width="1720" height="426" viewBox="0 0 1720 426" fill="none" xmlns="http://www.w3.org/2000/svg">
<g clip-path="url(#clip0_505_6549)">
<rect width="1720" height="426" rx="20" fill="#EEF6FB"/>
<g opacity="0.5">
<path d="M1750.89 108.713C1688.01 116.919 1676.83 127.341 1668.44 188.105C1668.16 190.1 1664.53 190.1 1664.25 188.105C1655.87 127.341 1644.69 117.14 1581.8 108.713C1579.29 108.492 1579.29 105.609 1581.8 105.387C1644.69 97.1817 1655.87 86.9807 1664.25 26.2176C1664.53 24.2217 1668.16 24.2217 1668.44 26.2176C1676.83 86.9807 1688.01 96.96 1750.89 105.387C1753.13 105.609 1753.13 108.27 1750.89 108.713Z" fill="#5BA3D1" fill-opacity="0.2"/>
<path d="M1616.4 38.6361C1596.83 41.7407 1591.24 46.8413 1587.89 65.0258C1587.61 67.0217 1583.98 67.0217 1583.7 65.0258C1580.34 46.8413 1574.75 41.7407 1555.19 38.4143C1552.95 37.9708 1552.95 35.5314 1555.19 35.0879C1574.47 31.9832 1580.34 26.8826 1583.7 8.69807C1583.98 6.70221 1587.61 6.70221 1587.89 8.69807C1591.24 26.8826 1596.83 31.9832 1616.4 35.3096C1618.63 35.7531 1618.63 38.4143 1616.4 38.6361Z" fill="#5BA3D1" fill-opacity="0.2"/>
</g>
<g opacity="0.3">
<path d="M233.971 291.056C121.436 305.74 101.429 324.393 86.4248 433.134C85.9246 436.705 79.4226 436.705 78.9224 433.134C63.9177 324.393 43.9114 306.137 -68.6239 291.056C-73.1254 290.66 -73.1254 285.5 -68.6239 285.103C43.9114 270.419 63.9177 252.164 78.9224 143.423C79.4226 139.851 85.9246 139.851 86.4248 143.423C101.429 252.164 121.436 270.023 233.971 285.103C237.972 285.5 237.972 290.263 233.971 291.056Z" fill="#5BA3D1" fill-opacity="0.2"/>
</g>
</g>
<defs>
<clipPath id="clip0_505_6549">
<rect width="1720" height="426" rx="20" fill="white"/>
</clipPath>
</defs>
</svg>
