<svg width="68" height="62" viewBox="0 0 68 62" fill="none" xmlns="http://www.w3.org/2000/svg">
<path d="M32.2237 53.3632C36.5132 53.3632 40.7301 52.2552 44.4656 50.1466C48.2011 48.038 51.3286 45.0002 53.545 41.3276C55.7614 37.6551 56.9916 33.4723 57.1164 29.1845C57.2412 24.8968 56.2563 20.6495 54.2573 16.8543C54.1457 16.6477 53.957 16.4937 53.7323 16.4257C53.5076 16.3577 53.2652 16.3813 53.0578 16.4913C52.8504 16.6014 52.695 16.7889 52.6254 17.0131C52.5557 17.2373 52.5775 17.4799 52.686 17.6881C54.437 21.0085 55.3508 24.7062 55.3482 28.4599C54.0808 59.1329 10.3664 59.1332 9.0992 28.4598C8.88502 11.3106 27.9548 -0.183882 42.9957 7.99789C43.2041 8.10844 43.4479 8.13167 43.6734 8.06248C43.899 7.99329 44.0878 7.83733 44.1983 7.62893C44.3089 7.42052 44.3321 7.17674 44.2629 6.95121C44.1937 6.72567 44.0378 6.53686 43.8293 6.42631C40.2521 4.53924 36.2682 3.55416 32.2237 3.55665C-0.809128 4.92149 -0.808744 51.999 32.2237 53.3632Z" fill="#4A8FB8"/>
<path d="M32.223 21.3453C32.9931 21.3449 33.758 21.4727 34.4861 21.7236C34.709 21.8004 34.9534 21.7855 35.1654 21.6821C35.3774 21.5788 35.5396 21.3955 35.6165 21.1725C36.0072 19.5991 33.2371 19.6619 32.2231 19.5664C20.4254 20.054 20.4259 36.8675 32.2231 37.3546C34.5811 37.352 36.8418 36.4141 38.5092 34.7467C40.1766 33.0793 41.1144 30.8186 41.1171 28.4606C41.0262 27.4281 41.0864 24.6869 39.5199 25.0762C39.4094 25.1141 39.3075 25.1735 39.22 25.2509C39.1325 25.3283 39.0611 25.4222 39.01 25.5272C38.9588 25.6321 38.9288 25.7462 38.9217 25.8628C38.9146 25.9794 38.9306 26.0962 38.9687 26.2067C39.2162 26.9322 39.3411 27.6939 39.3383 28.4606C38.9816 37.8853 25.4644 37.8856 25.1078 28.4605C25.11 26.5741 25.8603 24.7656 27.1942 23.4317C28.5281 22.0978 30.3366 21.3475 32.223 21.3453Z" fill="#4A8FB8"/>
<path d="M40.7371 14.8843C40.7938 14.7822 40.8298 14.6699 40.843 14.5538C40.8563 14.4378 40.8465 14.3203 40.8143 14.208C40.7821 14.0957 40.7282 13.9909 40.6554 13.8995C40.5827 13.8081 40.4927 13.7319 40.3906 13.6753C37.8901 12.2912 35.0793 11.5643 32.2214 11.5625C9.80626 12.4889 9.80655 44.4338 32.2215 45.3598C35.1611 45.3615 38.0502 44.5959 40.6032 43.1388C43.1562 41.6816 45.2847 39.5832 46.7781 37.0513C48.2716 34.5193 49.0782 31.6413 49.1184 28.702C49.1586 25.7627 48.4309 22.8638 47.0072 20.2919C46.9509 20.1893 46.8748 20.0988 46.7834 20.0256C46.6919 19.9525 46.587 19.8981 46.4745 19.8656C46.362 19.8331 46.2442 19.8232 46.1279 19.8364C46.0115 19.8495 45.8989 19.8855 45.7965 19.9423C45.6941 19.999 45.6039 20.0755 45.5311 20.1672C45.4584 20.2589 45.4044 20.3641 45.3724 20.4767C45.3403 20.5893 45.3308 20.7072 45.3444 20.8235C45.3581 20.9397 45.3945 21.0522 45.4517 21.1544C51.0891 30.9314 43.516 43.7768 32.2211 43.5808C28.2125 43.5764 24.3693 41.982 21.5348 39.1475C18.7003 36.3129 17.1059 32.4698 17.1015 28.4612C16.9078 17.1666 29.7498 9.59254 39.5282 15.2311C39.6303 15.2879 39.7426 15.324 39.8587 15.3374C39.9748 15.3507 40.0924 15.341 40.2047 15.3087C40.317 15.2765 40.4219 15.2224 40.5132 15.1496C40.6046 15.0768 40.6807 14.9866 40.7371 14.8843Z" fill="#4A8FB8"/>
<path d="M42.4736 12.3622L42.8002 16.6281L31.5953 27.833C31.4342 28.0009 31.3453 28.2253 31.3477 28.4581C31.3501 28.6908 31.4436 28.9133 31.6082 29.0779C31.7728 29.2424 31.9953 29.3359 32.228 29.3383C32.4607 29.3407 32.6851 29.2518 32.8531 29.0906L44.0579 17.8858L48.3237 18.2124C48.4516 18.2222 48.58 18.2042 48.7003 18.1597C48.8205 18.1152 48.9297 18.0452 49.0203 17.9545L55.4937 11.4816C55.6115 11.3603 55.6925 11.2081 55.7275 11.0427C55.7624 10.8773 55.7498 10.7053 55.6911 10.5468C55.6324 10.3882 55.53 10.2495 55.3957 10.1468C55.2615 10.044 55.1009 9.98127 54.9325 9.96594L51.0197 9.66627L50.7201 5.75338C50.7047 5.58505 50.6419 5.42451 50.5391 5.29034C50.4363 5.15616 50.2976 5.05382 50.1391 4.99515C49.9806 4.93647 49.8087 4.92385 49.6433 4.95875C49.4779 4.99365 49.3257 5.07464 49.2044 5.19237L42.7316 11.6656C42.6408 11.7562 42.5707 11.8654 42.5262 11.9857C42.4817 12.1059 42.4637 12.2344 42.4736 12.3622ZM49.0941 7.81794C49.4501 11.9599 48.7496 11.2308 52.8681 11.5918L48.0519 16.4075L44.5468 16.1391L44.2784 12.6341L49.0941 7.81794Z" fill="#4A8FB8"/>
<path d="M61.9298 10.281C64.8182 15.4297 66.2901 21.2422 66.1976 27.1343C66.1051 33.0264 64.4514 38.7906 61.4027 43.8474C58.354 48.9042 54.0178 53.0755 48.8299 55.9421C43.6419 58.8086 37.6597 60.3988 31.7227 60.307" stroke="#4A8FB8" stroke-width="1.7553" stroke-linecap="round"/>
<mask id="path-6-inside-1_505_5928" fill="white">
<path d="M32.3477 61.1094C32.3066 43.2787 17.8403 28.8369 1.414e-06 28.8369L1.41067e-06 28.9131C0.0410239 46.7438 14.5074 61.1855 32.3477 61.1855L32.3477 61.1094Z"/>
</mask>
<path d="M32.3477 61.1094L34.4089 61.1046L34.4089 61.1094L32.3477 61.1094ZM1.414e-06 28.8369L-2.06122 28.8369L-2.06122 26.7757L1.5041e-06 26.7757L1.414e-06 28.8369ZM1.41067e-06 28.9131L-2.06122 28.9178L-2.06122 28.9131L1.41067e-06 28.9131ZM32.3477 61.1855L34.4089 61.1855L34.4089 63.2468L32.3477 63.2468L32.3477 61.1855ZM32.3477 61.1094L30.2864 61.1141C30.248 44.4197 16.7034 30.8981 1.3239e-06 30.8981L1.414e-06 28.8369L1.5041e-06 26.7757C18.9771 26.7757 34.3652 42.1378 34.4089 61.1046L32.3477 61.1094ZM1.414e-06 28.8369L2.06122 28.8369L2.06122 28.9131L1.41067e-06 28.9131L-2.06122 28.9131L-2.06122 28.8369L1.414e-06 28.8369ZM1.41067e-06 28.9131L2.06122 28.9083C2.09963 45.6028 15.6442 59.1243 32.3477 59.1243L32.3477 61.1855L32.3477 63.2468C13.3705 63.2467 -2.01758 47.8847 -2.06121 28.9178L1.41067e-06 28.9131ZM32.3477 61.1855L30.2864 61.1855L30.2864 61.1094L32.3477 61.1094L34.4089 61.1094L34.4089 61.1855L32.3477 61.1855Z" fill="#4A8FB8" mask="url(#path-6-inside-1_505_5928)"/>
</svg>
