<svg width="1920" height="2181" viewBox="0 0 1920 2181" fill="none" xmlns="http://www.w3.org/2000/svg">
<rect width="1920" height="2181" fill="url(#paint0_linear_647_7424)"/>
<g clip-path="url(#clip0_647_7424)">
<path d="M0 100C0 44.7715 44.7715 0 100 0H1820C1875.23 0 1920 44.7715 1920 100V2181H0V100Z" fill="url(#paint1_linear_647_7424)"/>
<g opacity="0.62">
<path d="M109.796 107.883C169.419 107.883 218.395 59.5487 218.395 -0.0743408V-0.0743408L109.796 -0.0743361L109.796 107.883V107.883Z" fill="#ADD1E8"/>
<path d="M218.396 107.883C278.019 107.883 326.994 59.5485 326.994 -0.0745239V-0.0745239L218.396 -0.0745192L218.396 107.883V107.883Z" fill="#DCECF7"/>
<path d="M326.998 435.311C386.975 435.311 435.596 386.142 435.596 326.164V326.164L326.998 326.164L326.998 435.311V435.311Z" fill="#B8D9EE"/>
<path d="M543.133 327.228L543.133 434.252C484.585 433.682 437.219 385.795 436.655 327.228L543.133 327.228Z" stroke="#DCECF7" stroke-width="2.11467"/>
<mask id="path-6-inside-1_647_7424" fill="white">
<path d="M109.802 217.012C169.779 217.012 218.4 167.843 218.4 107.866V107.866L109.802 107.866L109.802 217.012V217.012Z"/>
</mask>
<path d="M109.802 219.126C170.947 219.126 220.515 169.559 220.515 108.414L220.515 105.751L216.286 109.98L216.286 108.414C216.286 167.223 168.611 214.897 109.802 214.897L109.802 219.126ZM109.802 214.897M109.802 107.866L109.802 217.012L109.802 107.866M109.802 219.126V219.126C170.947 219.126 220.515 169.559 220.515 108.414L216.286 108.414C216.286 167.223 168.611 214.897 109.802 214.897V214.897L109.802 219.126ZM220.515 105.751L109.802 105.751L109.802 109.98L218.389 109.98C218.397 109.458 218.4 108.936 218.4 108.414L220.515 105.751Z" fill="#B8D9EE" mask="url(#path-6-inside-1_647_7424)"/>
<path d="M326.991 217.014C267.014 217.014 218.393 167.845 218.393 107.868V107.868L326.991 107.868L326.991 217.014V217.014Z" fill="#DCECF7"/>
<path d="M326.992 216.43C267.015 216.43 218.395 265.6 218.395 325.577V325.577L326.992 325.577L326.992 216.43V216.43Z" fill="#DCECF7"/>
<mask id="path-10-inside-2_647_7424" fill="white">
<path d="M109.803 216.434C169.78 216.434 218.4 265.604 218.4 325.581V325.581L109.803 325.581L109.803 216.434V216.434Z"/>
</mask>
<path d="M109.803 214.319C170.947 214.319 220.515 263.886 220.515 325.031L220.515 327.695L216.286 323.466L216.286 325.031C216.286 266.222 168.612 218.548 109.803 218.548L109.803 214.319ZM109.803 218.548M109.803 325.581L109.803 216.434L109.803 325.581M109.803 214.319V214.319C170.947 214.319 220.515 263.886 220.515 325.031L216.286 325.031C216.286 266.222 168.612 218.548 109.803 218.548V218.548L109.803 214.319ZM220.515 327.695L109.803 327.695L109.803 323.466L218.389 323.466C218.397 323.988 218.4 324.509 218.4 325.031L220.515 327.695Z" fill="#B8D9EE" mask="url(#path-10-inside-2_647_7424)"/>
<path d="M109.796 435.316C169.773 435.316 218.395 386.147 218.395 326.17V326.17L109.796 326.17L109.796 435.316V435.316Z" fill="#DCECF7"/>
<path d="M219.453 327.228L219.453 434.252C278.001 433.682 325.367 385.795 325.931 327.228L219.453 327.228Z" fill="#EEF6FB" stroke="#ADD1E8" stroke-width="2.11467"/>
<g clip-path="url(#clip1_647_7424)">
<circle cx="436.413" cy="325.567" r="2.0878" transform="rotate(-180 436.413 325.567)" stroke="#DCECF7" stroke-width="2.82691"/>
<circle cx="436.41" cy="325.567" r="9.0903" transform="rotate(-180 436.41 325.567)" stroke="#DCECF7" stroke-width="2.82691"/>
<circle cx="436.41" cy="325.564" r="16.0928" transform="rotate(-180 436.41 325.564)" stroke="#DCECF7" stroke-width="2.82691"/>
<circle cx="436.407" cy="325.569" r="23.0953" transform="rotate(-180 436.407 325.569)" stroke="#DCECF7" stroke-width="2.82691"/>
<circle cx="436.411" cy="325.563" r="30.0978" transform="rotate(-180 436.411 325.563)" stroke="#DCECF7" stroke-width="2.82691"/>
<circle cx="436.41" cy="325.564" r="37.1003" transform="rotate(-180 436.41 325.564)" stroke="#DCECF7" stroke-width="2.82691"/>
<circle cx="436.406" cy="325.568" r="44.1028" transform="rotate(-180 436.406 325.568)" stroke="#DCECF7" stroke-width="2.82691"/>
<circle cx="436.411" cy="325.565" r="51.1053" transform="rotate(-180 436.411 325.565)" stroke="#DCECF7" stroke-width="2.82691"/>
<circle cx="436.41" cy="325.567" r="58.1078" transform="rotate(-180 436.41 325.567)" stroke="#DCECF7" stroke-width="2.82691"/>
<circle cx="436.406" cy="325.564" r="65.1103" transform="rotate(-180 436.406 325.564)" stroke="#DCECF7" stroke-width="2.82691"/>
<circle cx="436.407" cy="325.566" r="72.1128" transform="rotate(-180 436.407 325.566)" stroke="#DCECF7" stroke-width="2.82691"/>
<circle cx="436.407" cy="325.567" r="79.1153" transform="rotate(-180 436.407 325.567)" stroke="#DCECF7" stroke-width="2.82691"/>
<circle cx="436.41" cy="325.566" r="86.1178" transform="rotate(-180 436.41 325.566)" stroke="#DCECF7" stroke-width="2.82691"/>
<circle cx="436.406" cy="325.564" r="93.1203" transform="rotate(-180 436.406 325.564)" stroke="#DCECF7" stroke-width="2.82691"/>
<circle cx="436.411" cy="325.571" r="100.123" transform="rotate(-180 436.411 325.571)" stroke="#DCECF7" stroke-width="2.82691"/>
<circle cx="436.41" cy="325.567" r="107.125" transform="rotate(-180 436.41 325.567)" stroke="#DCECF7" stroke-width="2.82691"/>
</g>
<g opacity="0.5">
<mask id="mask0_647_7424" style="mask-type:alpha" maskUnits="userSpaceOnUse" x="326" y="109" width="109" height="109">
<rect width="107.405" height="107.405" transform="matrix(-4.3014e-08 -1 -1 4.442e-08 434.4 217.027)" fill="white"/>
</mask>
<g mask="url(#mask0_647_7424)">
<rect width="151.92" height="151.867" transform="matrix(0.707107 -0.707107 -0.707107 -0.707107 434.367 324.432)" fill="#DCECF7"/>
</g>
</g>
<path d="M328.044 106.825L433.326 106.825C432.762 48.9172 385.932 1.55759 328.044 0.987366L328.044 106.825Z" stroke="#DCECF7" stroke-width="2.11467"/>
<path d="M540.738 106.826L435.455 106.826C436.019 48.9177 482.85 1.55772 540.738 0.987366L540.738 106.826Z" stroke="#DCECF7" stroke-width="2.11467"/>
<path d="M0.00533295 435.311C59.9824 435.311 108.604 386.142 108.604 326.164V326.164L0.00533775 326.164L0.00533295 435.311V435.311Z" fill="#B8D9EE"/>
<g opacity="0.6">
<path d="M109.793 543.277C109.793 602.901 61.4577 651.236 1.83325 651.236H0.00138092V543.277H109.793V543.277Z" fill="#DCECF7"/>
<path d="M1.83301 436.376H1.05859V542.221H108.729C108.161 483.667 60.5207 436.376 1.83301 436.376Z" stroke="#B8D9EE" stroke-width="2.11467"/>
</g>
<g opacity="0.5">
<mask id="mask1_647_7424" style="mask-type:alpha" maskUnits="userSpaceOnUse" x="0" y="109" width="108" height="109">
<rect width="107.405" height="107.405" transform="matrix(-4.3014e-08 -1 -1 4.442e-08 107.404 217.029)" fill="white"/>
</mask>
<g mask="url(#mask1_647_7424)">
<rect width="151.92" height="151.867" transform="matrix(0.707107 -0.707107 -0.707107 -0.707107 107.369 324.432)" fill="#DCECF7"/>
</g>
</g>
<path d="M1.05371 106.827L106.336 106.827C105.772 48.9192 58.9415 1.55955 1.05371 0.989319L1.05371 106.827Z" stroke="#DCECF7" stroke-width="2.11467"/>
<g clip-path="url(#clip2_647_7424)">
<g clip-path="url(#clip3_647_7424)">
<circle cx="109.413" cy="325.567" r="2.0878" transform="rotate(-180 109.413 325.567)" stroke="#DCECF7" stroke-width="2.82691"/>
<circle cx="109.414" cy="325.567" r="9.0903" transform="rotate(-180 109.414 325.567)" stroke="#DCECF7" stroke-width="2.82691"/>
<circle cx="109.414" cy="325.564" r="16.0928" transform="rotate(-180 109.414 325.564)" stroke="#DCECF7" stroke-width="2.82691"/>
<circle cx="109.411" cy="325.569" r="23.0953" transform="rotate(-180 109.411 325.569)" stroke="#DCECF7" stroke-width="2.82691"/>
<circle cx="109.415" cy="325.565" r="30.0978" transform="rotate(-180 109.415 325.565)" stroke="#DCECF7" stroke-width="2.82691"/>
<circle cx="109.414" cy="325.564" r="37.1003" transform="rotate(-180 109.414 325.564)" stroke="#DCECF7" stroke-width="2.82691"/>
<circle cx="109.41" cy="325.568" r="44.1028" transform="rotate(-180 109.41 325.568)" stroke="#DCECF7" stroke-width="2.82691"/>
<circle cx="109.415" cy="325.567" r="51.1053" transform="rotate(-180 109.415 325.567)" stroke="#DCECF7" stroke-width="2.82691"/>
<circle cx="109.412" cy="325.567" r="58.1078" transform="rotate(-180 109.412 325.567)" stroke="#DCECF7" stroke-width="2.82691"/>
<circle cx="109.408" cy="325.564" r="65.1103" transform="rotate(-180 109.408 325.564)" stroke="#DCECF7" stroke-width="2.82691"/>
<circle cx="109.409" cy="325.568" r="72.1128" transform="rotate(-180 109.409 325.568)" stroke="#DCECF7" stroke-width="2.82691"/>
<circle cx="109.411" cy="325.569" r="79.1153" transform="rotate(-180 109.411 325.569)" stroke="#DCECF7" stroke-width="2.82691"/>
<circle cx="109.414" cy="325.566" r="86.1178" transform="rotate(-180 109.414 325.566)" stroke="#DCECF7" stroke-width="2.82691"/>
<circle cx="109.412" cy="325.566" r="93.1203" transform="rotate(-180 109.412 325.566)" stroke="#DCECF7" stroke-width="2.82691"/>
<circle cx="109.413" cy="325.571" r="100.123" transform="rotate(-180 109.413 325.571)" stroke="#DCECF7" stroke-width="2.82691"/>
<circle cx="109.412" cy="325.569" r="107.125" transform="rotate(-180 109.412 325.569)" stroke="#DCECF7" stroke-width="2.82691"/>
</g>
</g>
</g>
<g opacity="0.5">
<path d="M1810.2 2073.04C1750.57 2073.04 1701.6 2121.38 1701.6 2181V2181L1810.2 2181L1810.2 2073.04V2073.04Z" fill="#ADD1E8"/>
<path d="M1701.6 2073.04C1641.98 2073.04 1593 2121.38 1593 2181V2181L1701.6 2181L1701.6 2073.04V2073.04Z" fill="#DCECF7"/>
<mask id="path-58-inside-3_647_7424" fill="white">
<path d="M1810.19 1963.91C1750.22 1963.91 1701.6 2013.08 1701.6 2073.06V2073.06L1810.19 2073.06L1810.19 1963.91V1963.91Z"/>
</mask>
<path d="M1810.19 1961.8C1749.05 1961.8 1699.48 2011.36 1699.48 2072.51L1699.48 2075.17L1703.71 2070.94L1703.71 2072.51C1703.71 2013.7 1751.38 1966.02 1810.19 1966.02L1810.19 1961.8ZM1810.19 1966.02M1810.19 2073.06L1810.19 1963.91L1810.19 2073.06M1810.19 1961.8V1961.8C1749.05 1961.8 1699.48 2011.36 1699.48 2072.51L1703.71 2072.51C1703.71 2013.7 1751.38 1966.02 1810.19 1966.02V1966.02L1810.19 1961.8ZM1699.48 2075.17L1810.19 2075.17L1810.19 2070.94L1701.61 2070.94C1701.6 2071.46 1701.6 2071.99 1701.6 2072.51L1699.48 2075.17Z" fill="#B8D9EE" mask="url(#path-58-inside-3_647_7424)"/>
<path d="M1593.01 1963.91C1652.98 1963.91 1701.6 2013.08 1701.6 2073.05V2073.05L1593.01 2073.05L1593.01 1963.91V1963.91Z" fill="#DCECF7"/>
<g opacity="0.5">
<mask id="mask2_647_7424" style="mask-type:alpha" maskUnits="userSpaceOnUse" x="1485" y="1963" width="108" height="109">
<rect width="107.405" height="107.405" transform="matrix(-4.44087e-08 1 1 4.30027e-08 1485.59 1963.9)" fill="white"/>
</mask>
<g mask="url(#mask2_647_7424)">
<rect width="151.92" height="151.867" transform="matrix(-0.707107 0.707107 0.707107 0.707107 1485.63 1856.49)" fill="white"/>
</g>
</g>
<path d="M1379.25 2179.94H1484.54C1483.97 2122.03 1437.14 2074.67 1379.25 2074.1V2179.94Z" stroke="#B8D9EE" stroke-width="2.11467"/>
<path d="M1591.95 2179.94H1486.67C1487.23 2122.03 1534.06 2074.67 1591.95 2074.1V2179.94Z" stroke="#B8D9EE" stroke-width="2.11467"/>
<path d="M1919.99 1745.61C1860.02 1745.61 1811.4 1794.78 1811.4 1854.76V1854.76L1919.99 1854.76L1919.99 1745.61V1745.61Z" fill="#B8D9EE"/>
<g opacity="0.6">
<path d="M1810.21 1637.65C1810.21 1578.02 1858.54 1529.69 1918.16 1529.69L1920 1529.69L1920 1637.65L1810.21 1637.65V1637.65Z" fill="white"/>
<path d="M1918.16 1744.55L1918.94 1744.55L1918.94 1638.7L1811.27 1638.7C1811.83 1697.26 1859.48 1744.55 1918.16 1744.55Z" stroke="#B8D9EE" stroke-width="2.11467"/>
</g>
<g opacity="0.5">
<mask id="mask3_647_7424" style="mask-type:alpha" maskUnits="userSpaceOnUse" x="1812" y="1963" width="108" height="109">
<rect width="107.405" height="107.405" transform="matrix(-4.44087e-08 1 1 4.30027e-08 1812.59 1963.9)" fill="white"/>
</mask>
<g mask="url(#mask3_647_7424)">
<rect width="151.92" height="151.867" transform="matrix(-0.707107 0.707107 0.707107 0.707107 1812.63 1856.49)" fill="#B8D9EE"/>
</g>
</g>
<path d="M1918.94 2074.1L1813.66 2074.1C1814.23 2132.01 1861.06 2179.36 1918.94 2179.94L1918.94 2074.1Z" stroke="#B8D9EE" stroke-width="2.11467"/>
<g clip-path="url(#clip4_647_7424)">
<g clip-path="url(#clip5_647_7424)">
<circle cx="1810.58" cy="1855.36" r="2.0878" stroke="#B8D9EE" stroke-width="2.82691"/>
<circle cx="1810.58" cy="1855.36" r="9.0903" stroke="#B8D9EE" stroke-width="2.82691"/>
<circle cx="1810.58" cy="1855.36" r="16.0928" stroke="#B8D9EE" stroke-width="2.82691"/>
<circle cx="1810.58" cy="1855.35" r="23.0953" stroke="#B8D9EE" stroke-width="2.82691"/>
<circle cx="1810.58" cy="1855.36" r="30.0978" stroke="#B8D9EE" stroke-width="2.82691"/>
<circle cx="1810.58" cy="1855.36" r="37.1003" stroke="#B8D9EE" stroke-width="2.82691"/>
<circle cx="1810.58" cy="1855.36" r="44.1028" stroke="#B8D9EE" stroke-width="2.82691"/>
<circle cx="1810.58" cy="1855.36" r="51.1053" stroke="#B8D9EE" stroke-width="2.82691"/>
<circle cx="1810.58" cy="1855.36" r="58.1078" stroke="#B8D9EE" stroke-width="2.82691"/>
<circle cx="1810.59" cy="1855.36" r="65.1103" stroke="#B8D9EE" stroke-width="2.82691"/>
<circle cx="1810.59" cy="1855.36" r="72.1128" stroke="#B8D9EE" stroke-width="2.82691"/>
<circle cx="1810.59" cy="1855.36" r="79.1153" stroke="#B8D9EE" stroke-width="2.82691"/>
<circle cx="1810.58" cy="1855.36" r="86.1178" stroke="#B8D9EE" stroke-width="2.82691"/>
<circle cx="1810.58" cy="1855.36" r="93.1203" stroke="#B8D9EE" stroke-width="2.82691"/>
<circle cx="1810.58" cy="1855.35" r="100.123" stroke="#B8D9EE" stroke-width="2.82691"/>
<circle cx="1810.58" cy="1855.36" r="107.125" stroke="#B8D9EE" stroke-width="2.82691"/>
</g>
</g>
</g>
<path d="M1294.43 281.546C1294.52 281.546 1294.59 281.57 1294.62 281.594C1294.65 281.608 1294.65 281.614 1294.65 281.618V281.619C1296.17 292.657 1297.96 299.283 1302.37 303.486C1306.77 307.682 1313.69 309.366 1325.09 310.896L1325.1 310.896L1325.11 310.897C1325.16 310.902 1325.19 310.912 1325.21 310.92C1325.22 310.925 1325.23 310.931 1325.23 310.934C1325.23 310.934 1325.23 310.936 1325.23 310.937C1325.23 310.941 1325.22 310.948 1325.22 310.957C1325.2 310.973 1325.16 311.007 1325.07 311.027C1313.68 312.516 1306.77 314.221 1302.37 318.444C1298.24 322.413 1296.4 328.519 1294.94 338.362L1294.65 340.381C1294.65 340.385 1294.65 340.391 1294.62 340.406C1294.59 340.43 1294.52 340.454 1294.43 340.454C1294.34 340.454 1294.26 340.43 1294.23 340.406C1294.22 340.398 1294.21 340.392 1294.21 340.388L1294.21 340.38C1292.68 329.342 1290.89 322.697 1286.48 318.474C1282.08 314.258 1275.17 312.553 1263.76 311.023L1263.75 311.022L1263.73 311.021L1263.65 311.009C1263.59 310.993 1263.56 310.969 1263.55 310.961C1263.55 310.96 1263.55 310.96 1263.55 310.959L1263.55 310.958C1263.56 310.948 1263.61 310.909 1263.73 310.898L1263.75 310.897L1263.76 310.896C1275.17 309.406 1282.08 307.723 1286.48 303.517C1290.89 299.304 1292.68 292.658 1294.21 281.62C1294.21 281.616 1294.2 281.61 1294.23 281.594C1294.26 281.57 1294.34 281.546 1294.43 281.546Z" fill="white" stroke="#70B2DB" stroke-width="1.0917"/>
<path d="M1263.52 280.715C1264.05 283.926 1264.74 286.043 1266.23 287.462C1267.65 288.82 1269.75 289.475 1272.85 289.981C1269.74 290.482 1267.65 291.145 1266.23 292.514C1264.74 293.942 1264.05 296.07 1263.52 299.283C1263 296.072 1262.31 293.949 1260.82 292.523C1259.39 291.158 1257.3 290.497 1254.19 289.988C1257.3 289.49 1259.39 288.835 1260.82 287.473C1262.31 286.05 1263 283.927 1263.52 280.715Z" fill="white" stroke="#B8D9EE"/>
<path d="M179.527 783.888C179.593 783.888 179.643 783.905 179.669 783.922L179.687 783.94C180.777 791.853 182.06 796.602 185.222 799.615C188.377 802.622 193.334 803.829 201.511 804.926L201.524 804.928C201.559 804.931 201.581 804.938 201.593 804.943C201.6 804.947 201.605 804.95 201.607 804.952C201.607 804.953 201.608 804.954 201.607 804.955C201.606 804.958 201.603 804.963 201.598 804.97C201.588 804.981 201.559 805.005 201.492 805.02C193.326 806.087 188.374 807.309 185.221 810.337C182.06 813.371 180.777 818.149 179.687 826.061C179.686 826.063 179.688 826.068 179.669 826.08C179.643 826.097 179.593 826.114 179.527 826.114C179.462 826.114 179.412 826.097 179.386 826.08C179.367 826.068 179.369 826.063 179.368 826.061C178.277 818.149 176.995 813.385 173.834 810.358C170.678 807.336 165.722 806.114 157.544 805.018L157.526 805.016L157.469 805.007C157.422 804.996 157.401 804.979 157.396 804.974L157.394 804.972L157.396 804.971C157.403 804.963 157.437 804.936 157.526 804.928L157.542 804.926C165.72 803.858 170.677 802.652 173.833 799.637C176.797 796.805 178.11 792.441 179.161 785.387L179.368 783.94C179.368 783.938 179.368 783.934 179.386 783.922C179.412 783.905 179.462 783.888 179.527 783.888Z" fill="white" stroke="#70B2DB" stroke-width="0.782559"/>
<path d="M1059.53 783.888C1059.59 783.888 1059.64 783.905 1059.67 783.922L1059.69 783.94C1060.78 791.853 1062.06 796.602 1065.22 799.615C1068.38 802.622 1073.33 803.829 1081.51 804.926L1081.52 804.928C1081.56 804.931 1081.58 804.938 1081.59 804.943C1081.6 804.947 1081.6 804.95 1081.61 804.952C1081.61 804.953 1081.61 804.954 1081.61 804.955C1081.61 804.958 1081.6 804.963 1081.6 804.97C1081.59 804.981 1081.56 805.005 1081.49 805.02C1073.33 806.087 1068.37 807.309 1065.22 810.337C1062.06 813.371 1060.78 818.149 1059.69 826.061C1059.69 826.063 1059.69 826.068 1059.67 826.08C1059.64 826.097 1059.59 826.114 1059.53 826.114C1059.46 826.114 1059.41 826.097 1059.39 826.08C1059.37 826.068 1059.37 826.063 1059.37 826.061C1058.28 818.149 1056.99 813.385 1053.83 810.358C1050.68 807.336 1045.72 806.114 1037.54 805.018L1037.53 805.016L1037.47 805.007C1037.42 804.996 1037.4 804.979 1037.4 804.974L1037.39 804.972L1037.4 804.971C1037.4 804.963 1037.44 804.936 1037.53 804.928L1037.54 804.926C1045.72 803.858 1050.68 802.652 1053.83 799.637C1056.8 796.805 1058.11 792.441 1059.16 785.387L1059.37 783.94C1059.37 783.938 1059.37 783.934 1059.39 783.922C1059.41 783.905 1059.46 783.888 1059.53 783.888Z" fill="white" stroke="#70B2DB" stroke-width="0.782559"/>
<path d="M423.79 281.546C423.881 281.546 423.951 281.57 423.987 281.594C424.009 281.608 424.011 281.614 424.011 281.618V281.619C425.533 292.657 427.323 299.283 431.733 303.486C436.136 307.682 443.051 309.366 454.458 310.896L454.467 310.896L454.477 310.897C454.524 310.902 454.554 310.912 454.571 310.92C454.583 310.925 454.589 310.931 454.593 310.934C454.593 310.934 454.593 310.936 454.593 310.937C454.591 310.941 454.587 310.948 454.579 310.957C454.565 310.973 454.525 311.007 454.431 311.027C443.038 312.516 436.132 314.221 431.732 318.444C427.599 322.413 425.767 328.519 424.3 338.362L424.011 340.381C424.011 340.385 424.011 340.391 423.987 340.406C423.951 340.43 423.881 340.454 423.79 340.454C423.698 340.454 423.628 340.43 423.592 340.406C423.579 340.398 423.573 340.392 423.57 340.388L423.568 340.38C422.046 329.342 420.256 322.697 415.847 318.474C411.444 314.258 404.53 312.553 393.122 311.023L393.109 311.022L393.098 311.021L393.018 311.009C392.951 310.993 392.923 310.969 392.915 310.961C392.914 310.96 392.914 310.96 392.913 310.959L392.915 310.958C392.925 310.948 392.973 310.909 393.098 310.898L393.108 310.897L393.12 310.896C404.528 309.406 411.444 307.723 415.847 303.517C420.257 299.304 422.047 292.658 423.568 281.62C423.569 281.616 423.566 281.61 423.592 281.594C423.628 281.57 423.698 281.546 423.79 281.546Z" fill="white" stroke="#70B2DB" stroke-width="1.0917"/>
<path d="M392.886 280.715C393.409 283.926 394.103 286.043 395.592 287.462C397.017 288.82 399.108 289.475 402.217 289.981C399.107 290.482 397.017 291.145 395.591 292.514C394.103 293.942 393.409 296.07 392.886 299.283C392.363 296.072 391.67 293.949 390.182 292.523C388.756 291.158 386.664 290.497 383.554 289.988C386.663 289.49 388.755 288.835 390.181 287.473C391.67 286.05 392.363 283.927 392.886 280.715Z" fill="white" stroke="#B8D9EE"/>
</g>
<defs>
<linearGradient id="paint0_linear_647_7424" x1="1920" y1="1090.5" x2="0" y2="1090.5" gradientUnits="userSpaceOnUse">
<stop stop-color="#283741"/>
<stop offset="1" stop-color="#23303A"/>
</linearGradient>
<linearGradient id="paint1_linear_647_7424" x1="960" y1="0" x2="960" y2="2181" gradientUnits="userSpaceOnUse">
<stop stop-color="white"/>
<stop offset="1" stop-color="#EEF6FB"/>
</linearGradient>
<clipPath id="clip0_647_7424">
<path d="M0 100C0 44.7715 44.7715 0 100 0H1820C1875.23 0 1920 44.7715 1920 100V2181H0V100Z" fill="white"/>
</clipPath>
<clipPath id="clip1_647_7424">
<rect width="109.146" height="217.196" fill="white" transform="matrix(4.39699e-08 1 1 -4.34544e-08 326.994 217.023)"/>
</clipPath>
<clipPath id="clip2_647_7424">
<rect width="109.058" height="109.058" fill="white" transform="matrix(4.39699e-08 1 1 -4.34544e-08 -0.00390625 217.066)"/>
</clipPath>
<clipPath id="clip3_647_7424">
<rect width="217.087" height="108.029" fill="white" transform="matrix(4.39699e-08 1 1 -4.34544e-08 1.02344 217.066)"/>
</clipPath>
<clipPath id="clip4_647_7424">
<rect width="109.058" height="109.058" fill="white" transform="matrix(4.34529e-08 -1 -1 -4.39684e-08 1920 1963.86)"/>
</clipPath>
<clipPath id="clip5_647_7424">
<rect width="217.087" height="108.029" fill="white" transform="matrix(4.34529e-08 -1 -1 -4.39684e-08 1918.97 1963.86)"/>
</clipPath>
</defs>
</svg>
