<svg width="63" height="60" viewBox="0 0 63 60" fill="none" xmlns="http://www.w3.org/2000/svg">
<path d="M31.4268 0.545898C31.5181 0.545957 31.5878 0.570353 31.624 0.59375C31.6457 0.607814 31.6473 0.614325 31.6475 0.618164V0.619141C33.1693 11.6572 34.9596 18.2832 39.3701 22.4863C43.7725 26.6815 50.6875 28.3656 62.0947 29.8955L62.1035 29.8965L62.1133 29.8975C62.1608 29.9022 62.1909 29.9123 62.208 29.9199C62.2197 29.9252 62.2262 29.9309 62.2295 29.9336C62.2293 29.9343 62.2299 29.9356 62.2295 29.9365C62.2278 29.9408 62.2238 29.9479 62.2158 29.957C62.2018 29.9728 62.1613 30.0074 62.0674 30.0273C50.6751 31.5164 43.7683 33.221 39.3691 37.4443C35.2354 41.413 33.4033 47.5191 31.9365 57.3623L31.6475 59.3809C31.6474 59.3846 31.6476 59.3909 31.624 59.4062C31.5878 59.4296 31.5181 59.454 31.4268 59.4541C31.3351 59.4541 31.2647 59.4297 31.2285 59.4062C31.2153 59.3977 31.2095 59.3917 31.207 59.3877L31.2051 59.3799C29.6832 48.342 27.893 41.6966 23.4834 37.4736C19.0811 33.2579 12.1668 31.5535 0.758789 30.0234L0.746094 30.0225L0.734375 30.0215L0.654297 30.0088C0.587958 29.9928 0.559557 29.9685 0.551758 29.9609C0.551037 29.9602 0.550387 29.9596 0.549805 29.959L0.551758 29.958C0.562184 29.9479 0.609853 29.9094 0.734375 29.8984L0.745117 29.8975L0.756836 29.8955C12.1651 28.4057 19.0804 26.7228 23.4834 22.5166C27.8935 18.3035 29.6832 11.6577 31.2051 0.620117C31.2054 0.616455 31.2028 0.610489 31.2285 0.59375C31.2647 0.570281 31.3351 0.545898 31.4268 0.545898Z" fill="white" stroke="#70B2DB" stroke-width="1.0917"/>
</svg>
