<svg width="81" height="58" viewBox="0 0 81 58" fill="none" xmlns="http://www.w3.org/2000/svg">
<g clip-path="url(#clip0_505_5889)">
<path d="M53.6847 7.38281H50.4212C49.8652 7.38281 49.4146 7.83347 49.4146 8.38935C49.4146 8.94523 49.8652 9.39589 50.4212 9.39589H53.6847C54.6213 9.39589 55.5341 9.70403 56.2799 10.2559L49.6313 21.5612L41.3853 9.39589H45.7239C46.2799 9.39589 46.7304 8.94523 46.7304 8.38935C46.7304 7.83347 46.2799 7.38281 45.7239 7.38281C45.1974 7.38281 26.3063 7.38281 25.2893 7.38281C23.5549 7.38281 21.8741 8.10296 20.6782 9.35859L10.4839 20.0581C8.54761 22.0904 8.80623 25.1797 10.5015 27.1662L34.5381 55.3276C35.8068 56.8139 37.6365 57.61 39.4871 57.61C41.3317 57.61 43.1652 56.8163 44.4362 55.3276L55.425 42.4527C55.7858 42.0298 55.7356 41.3945 55.3128 41.0336C54.8898 40.6727 54.2545 40.7231 53.8938 41.1457L42.905 54.0205C42.7997 54.144 42.6883 54.2608 42.5716 54.371L50.4671 24.4505H67.6929C67.5481 24.9652 67.2931 25.4469 66.9411 25.8591L56.9742 37.5368C56.6134 37.9596 56.6636 38.595 57.0864 38.9559C57.5094 39.3167 58.1447 39.2664 58.5055 38.8438L68.4724 27.1663C70.1777 25.1688 70.4142 22.0783 68.4901 20.0581H68.4899C62.0133 13.2605 64.7609 16.1443 58.296 9.35872C57.0998 8.10296 55.4191 7.38281 53.6847 7.38281ZM39.4871 10.1833L47.7932 22.4376H31.1808L39.4871 10.1833ZM25.2895 9.39589H37.5889L29.3429 21.5612L22.6941 10.256C23.4399 9.70403 24.3529 9.39589 25.2895 9.39589ZM11.9417 21.4465C12.8435 20.4999 20.0015 12.9871 21.2157 11.7128L27.5229 22.4374H11.3219C11.4613 22.0611 11.6971 21.7032 11.9417 21.4465ZM36.0691 54.0207L12.0329 25.8593C11.681 25.447 11.4261 24.9653 11.2812 24.4507H28.5071L36.4025 54.3711C36.2859 54.2609 36.1745 54.1441 36.0691 54.0207ZM40.1804 55.5426C39.7344 55.6122 39.2497 55.6138 38.7936 55.5426L30.589 24.4507H48.3852L40.1804 55.5426ZM67.0325 21.4467C67.2822 21.7088 67.5121 22.0599 67.6521 22.4376H51.4512L57.7583 11.713C58.6803 12.6806 66.1138 20.4826 67.0325 21.4467Z" fill="#4A8FB8"/>
<mask id="path-2-inside-1_505_5889" fill="white">
<path d="M14.0088 13.9046C10.3384 9.89086 10.5877 3.66148 14.5813 -0.0442484L14.6345 0.013022C14.732 0.119801 14.8282 0.226924 14.9202 0.336747C18.2869 4.35529 17.9449 10.3522 14.0586 13.9583L14.0088 13.9046Z"/>
</mask>
<path d="M14.0088 13.9046C10.3384 9.89086 10.5877 3.66148 14.5813 -0.0442484L14.6345 0.013022C14.732 0.119801 14.8282 0.226924 14.9202 0.336747C18.2869 4.35529 17.9449 10.3522 14.0586 13.9583L14.0088 13.9046Z" fill="#131A1F"/>
<path d="M14.0088 13.9046L13.0243 14.8049L13.0309 14.8119L14.0088 13.9046ZM14.5813 -0.0442484L15.5592 -0.951575L14.6519 -1.92951L13.674 -1.0221L14.5813 -0.0442484ZM14.6345 0.013022L15.6194 -0.886768L15.6124 -0.894305L14.6345 0.013022ZM14.9202 0.336747L15.9427 -0.519945L14.9202 0.336747ZM14.0586 13.9583L13.0807 14.8656L13.9881 15.8436L14.9659 14.9362L14.0586 13.9583ZM14.0088 13.9046L14.9932 13.0044C11.8169 9.53097 12.0329 4.14028 15.4887 0.933605L14.5813 -0.0442484L13.674 -1.0221C9.14256 3.18269 8.8598 10.2507 13.0243 14.8048L14.0088 13.9046ZM14.5813 -0.0442484L13.6034 0.863078L13.6566 0.920349L14.6345 0.013022L15.6124 -0.894305L15.5592 -0.951575L14.5813 -0.0442484ZM14.6345 0.013022L13.6496 0.912785C13.7431 1.01508 13.8241 1.10564 13.8976 1.19344L14.9202 0.336747L15.9427 -0.519945C15.8323 -0.651787 15.721 -0.775478 15.6193 -0.886741L14.6345 0.013022ZM14.9202 0.336747L13.8976 1.19344C16.8104 4.67006 16.5142 9.86001 13.1512 12.9804L14.0586 13.9583L14.9659 14.9362C19.3757 10.8444 19.7635 4.04051 15.9427 -0.519945L14.9202 0.336747ZM14.0586 13.9583L15.0365 13.051L14.9867 12.9973L14.0088 13.9046L13.0309 14.8119L13.0807 14.8656L14.0586 13.9583Z" fill="#4A8FB8" mask="url(#path-2-inside-1_505_5889)"/>
<mask id="path-4-inside-2_505_5889" fill="white">
<path d="M14.0281 13.933C10.3026 9.94894 4.05369 9.72346 0.0515136 13.4368L0.0780825 13.4654C3.80364 17.4494 10.0525 17.675 14.0547 13.9616L14.0281 13.933Z"/>
</mask>
<path d="M14.0281 13.933C10.3026 9.94894 4.05369 9.72346 0.0515136 13.4368L0.0780825 13.4654C3.80364 17.4494 10.0525 17.675 14.0547 13.9616L14.0281 13.933Z" fill="#131A1F"/>
<path d="M14.0281 13.933L15.0025 13.0219L15.006 13.0257L14.0281 13.933ZM0.0515136 13.4368L-0.926378 14.3441L-1.83371 13.3662L-0.855808 12.4589L0.0515136 13.4368ZM0.0780825 13.4654L-0.896268 14.3766L-0.899809 14.3728L0.0780825 13.4654ZM14.0547 13.9616L15.0326 13.0543L15.9399 14.0322L14.962 14.9395L14.0547 13.9616ZM14.0281 13.933L13.0538 14.8441C9.8297 11.3963 4.42206 11.2014 0.958835 14.4147L0.0515136 13.4368L-0.855808 12.4589C3.68532 8.2455 10.7755 8.50154 15.0025 13.0219L14.0281 13.933ZM0.0515136 13.4368L1.02941 12.5295L1.05597 12.5581L0.0780825 13.4654L-0.899809 14.3728L-0.926378 14.3441L0.0515136 13.4368ZM0.0780825 13.4654L1.05243 12.5543C4.27652 16.0021 9.68418 16.197 13.1474 12.9837L14.0547 13.9616L14.962 14.9395C10.4209 19.153 3.33076 18.8968 -0.896261 14.3766L0.0780825 13.4654ZM14.0547 13.9616L13.0768 14.869L13.0502 14.8403L14.0281 13.933L15.006 13.0257L15.0326 13.0543L14.0547 13.9616Z" fill="#4A8FB8" mask="url(#path-4-inside-2_505_5889)"/>
<mask id="path-6-inside-3_505_5889" fill="white">
<path d="M66.0264 13.9046C69.6968 9.89086 69.4474 3.66148 65.4538 -0.0442484L65.4007 0.013022C65.3031 0.119801 65.207 0.226924 65.115 0.336747C61.7482 4.35529 62.0902 10.3522 65.9766 13.9583L66.0264 13.9046Z"/>
</mask>
<path d="M66.0264 13.9046C69.6968 9.89086 69.4474 3.66148 65.4538 -0.0442484L65.4007 0.013022C65.3031 0.119801 65.207 0.226924 65.115 0.336747C61.7482 4.35529 62.0902 10.3522 65.9766 13.9583L66.0264 13.9046Z" fill="#131A1F"/>
<path d="M66.0264 13.9046L67.0108 14.8049L67.0043 14.8119L66.0264 13.9046ZM65.4538 -0.0442484L64.4759 -0.951575L65.3833 -1.92951L66.3612 -1.0221L65.4538 -0.0442484ZM65.4007 0.013022L64.4158 -0.886768L64.4228 -0.894305L65.4007 0.013022ZM65.115 0.336747L64.0924 -0.519945L65.115 0.336747ZM65.9766 13.9583L66.9545 14.8656L66.0471 15.8436L65.0692 14.9362L65.9766 13.9583ZM66.0264 13.9046L65.0419 13.0044C68.2183 9.53097 68.0022 4.14028 64.5464 0.933605L65.4538 -0.0442484L66.3612 -1.0221C70.8926 3.18269 71.1754 10.2507 67.0108 14.8048L66.0264 13.9046ZM65.4538 -0.0442484L66.4317 0.863078L66.3786 0.920349L65.4007 0.013022L64.4228 -0.894305L64.4759 -0.951575L65.4538 -0.0442484ZM65.4007 0.013022L66.3855 0.912785C66.2921 1.01508 66.2111 1.10564 66.1375 1.19344L65.115 0.336747L64.0924 -0.519945C64.2029 -0.651787 64.3142 -0.775478 64.4158 -0.886741L65.4007 0.013022ZM65.115 0.336747L66.1375 1.19344C63.2248 4.67006 63.521 9.86001 66.8839 12.9804L65.9766 13.9583L65.0692 14.9362C60.6595 10.8444 60.2716 4.04051 64.0924 -0.519945L65.115 0.336747ZM65.9766 13.9583L64.9987 13.051L65.0485 12.9973L66.0264 13.9046L67.0043 14.8119L66.9545 14.8656L65.9766 13.9583Z" fill="#4A8FB8" mask="url(#path-6-inside-3_505_5889)"/>
<mask id="path-8-inside-4_505_5889" fill="white">
<path d="M65.9805 13.9616C69.7028 9.94983 75.9726 9.71515 79.9844 13.4375C76.262 17.449 69.9922 17.6839 65.9805 13.9616Z"/>
</mask>
<path d="M65.9805 13.9616C69.7028 9.94983 75.9726 9.71515 79.9844 13.4375C76.262 17.449 69.9922 17.6839 65.9805 13.9616Z" fill="#131A1F"/>
<path d="M65.9805 13.9616L65.0026 13.0543L64.0952 14.0322L65.0731 14.9395L65.9805 13.9616ZM79.9844 13.4375L80.9622 14.3448L81.8696 13.3669L80.8917 12.4596L79.9844 13.4375ZM65.9805 13.9616L66.9584 14.869C70.1796 11.3972 75.6053 11.1941 79.077 14.4154L79.9844 13.4375L80.8917 12.4596C76.3398 8.23616 69.226 8.50243 65.0026 13.0543L65.9805 13.9616ZM79.9844 13.4375L79.0065 12.5301C75.7852 16.0016 70.3594 16.2048 66.8878 12.9837L65.9805 13.9616L65.0731 14.9395C69.625 19.1629 76.7388 18.8963 80.9622 14.3448L79.9844 13.4375Z" fill="#4A8FB8" mask="url(#path-8-inside-4_505_5889)"/>
</g>
<defs>
<clipPath id="clip0_505_5889">
<rect width="80.0391" height="57.6281" fill="white"/>
</clipPath>
</defs>
</svg>
