<svg width="58" height="70" viewBox="0 0 58 70" fill="none" xmlns="http://www.w3.org/2000/svg">
<g clip-path="url(#clip0_505_5838)">
<path d="M57.7468 28.4323C51.7166 18.8119 41.264 12.8566 29.9135 12.5742V4.82422H27.9837V12.5742C16.6332 12.8566 6.18062 18.8119 0.150396 28.4323C-0.0475278 28.7466 -0.0475278 29.1465 0.150396 29.4608C6.18062 39.0812 16.6332 45.0365 27.9837 45.3189V53.0689H29.9135V45.3189C41.264 45.0365 51.7166 39.0812 57.7468 29.4608C57.9449 29.1465 57.9449 28.7466 57.7468 28.4323ZM2.11395 28.9466C6.05325 22.9231 11.9116 18.4068 18.7391 16.1299C15.0999 19.0279 12.8656 23.3374 12.5946 27.9817H4.82627V29.9114H12.5946C12.8656 34.5557 15.0999 38.8652 18.7391 41.7632C11.9116 39.4863 6.05325 34.97 2.11395 28.9466ZM27.9837 37.6306V43.3707C20.7633 42.8803 15.0148 37.1319 14.5244 29.9114H20.2646V27.9817H14.5244C15.0148 20.7612 20.7633 15.0128 27.9837 14.5224V20.2625H29.9135V14.5224C37.1339 15.0128 42.8824 20.7611 43.3728 27.9817H37.6326V29.9114H43.3728C42.8824 37.1319 37.1339 42.8803 29.9135 43.3707V37.6306H27.9837ZM55.7833 28.9466C51.844 34.97 45.9856 39.4863 39.1581 41.7632C42.7974 38.8652 45.0316 34.5557 45.3026 29.9114H53.0709V27.9817H45.3026C45.0316 23.3374 42.7974 19.0278 39.1581 16.1299C45.9857 18.4069 51.844 22.9231 55.7833 28.9466Z" fill="#4A8FB8"/>
<path d="M28.9457 22.1934C25.2154 22.1934 22.1914 25.2173 22.1914 28.9476C22.1956 32.6761 25.2172 35.6976 28.9457 35.7019C32.6759 35.7019 35.6999 32.6779 35.6999 28.9476C35.6999 25.2173 32.6759 22.1934 28.9457 22.1934ZM28.9457 33.7721C26.2812 33.7721 24.1212 31.612 24.1212 28.9476C24.1243 26.2845 26.2826 24.1263 28.9457 24.1231C31.6101 24.1231 33.7701 26.2832 33.7701 28.9476C33.7701 31.612 31.6102 33.7721 28.9457 33.7721Z" fill="#4A8FB8"/>
<path d="M5.78911 4.82425C5.25625 4.82425 4.82422 5.25628 4.82422 5.78914V13.5083H6.75401V6.75404H13.5083V4.82425H5.78911Z" fill="#4A8FB8"/>
<path d="M52.1039 4.82422H44.3848V6.75401H51.139V13.5083H53.0688V5.78911C53.0688 5.25625 52.6368 4.82422 52.1039 4.82422Z" fill="#4A8FB8"/>
</g>
<mask id="path-5-inside-1_505_5838" fill="white">
<path d="M28.8457 69.7229C28.8458 54.9391 40.8305 42.9545 55.6143 42.9543C55.6143 57.7381 43.6294 69.7226 28.8457 69.7229Z"/>
</mask>
<path d="M28.8457 69.7229L27.14 69.7229L27.14 71.4286L28.8457 71.4286L28.8457 69.7229ZM55.6143 42.9543L57.3199 42.9543L57.3199 41.2486L55.6142 41.2487L55.6143 42.9543ZM28.8457 69.7229L30.5514 69.7229C30.5514 55.8812 41.7725 44.6602 55.6143 44.66L55.6143 42.9543L55.6142 41.2487C39.8885 41.2489 27.1401 53.9971 27.14 69.7229L28.8457 69.7229ZM55.6143 42.9543L53.9086 42.9543C53.9086 56.7961 42.6874 68.017 28.8457 68.0172L28.8457 69.7229L28.8457 71.4286C44.5714 71.4283 57.3199 58.6802 57.3199 42.9543L55.6143 42.9543Z" fill="#4A8FB8" mask="url(#path-5-inside-1_505_5838)"/>
<mask id="path-7-inside-2_505_5838" fill="white">
<path d="M28.8457 69.7229C28.8456 54.939 16.8611 42.9543 2.07715 42.9543C2.07715 57.7383 14.0617 69.7229 28.8457 69.7229Z"/>
</mask>
<path d="M28.8457 69.7229L30.5514 69.7229L30.5514 71.4286L28.8457 71.4286L28.8457 69.7229ZM2.07715 42.9543L0.371474 42.9543L0.371475 41.2487L2.07715 41.2487L2.07715 42.9543ZM28.8457 69.7229L27.14 69.7229C27.14 55.881 15.919 44.66 2.07715 44.66L2.07715 42.9543L2.07715 41.2487C17.8031 41.2487 30.5513 53.997 30.5514 69.7229L28.8457 69.7229ZM2.07715 42.9543L3.78282 42.9543C3.78282 56.7963 15.0038 68.0172 28.8457 68.0172L28.8457 69.7229L28.8457 71.4286C13.1197 71.4286 0.371474 58.6803 0.371474 42.9543L2.07715 42.9543Z" fill="#4A8FB8" mask="url(#path-7-inside-2_505_5838)"/>
<defs>
<clipPath id="clip0_505_5838">
<rect width="57.8934" height="57.8934" fill="white"/>
</clipPath>
</defs>
</svg>
