<svg width="1920" height="875" viewBox="0 0 1920 875" fill="none" xmlns="http://www.w3.org/2000/svg">
<g clip-path="url(#clip0_373_7328)">
<rect width="1920" height="875" fill="url(#paint0_linear_373_7328)"/>
<path opacity="0.2" d="M580.667 76.2424C580.667 207.081 474.601 313.147 343.762 313.147C212.923 313.147 106.858 207.081 106.858 76.2424C106.858 -54.5964 212.923 -160.662 343.762 -160.662C474.601 -160.662 580.667 -54.5964 580.667 76.2424ZM195.949 76.2424C195.949 157.877 262.127 224.055 343.762 224.055C425.397 224.055 491.575 157.877 491.575 76.2424C491.575 -5.39252 425.397 -71.5707 343.762 -71.5707C262.127 -71.5707 195.949 -5.39252 195.949 76.2424Z" fill="#B8D9EE"/>
<path opacity="0.4" d="M964.224 76.2424C964.224 29.3871 950.33 -16.416 924.299 -55.3747C898.267 -94.3335 861.268 -124.698 817.979 -142.629C774.691 -160.56 727.057 -165.251 681.102 -156.11C635.147 -146.969 592.935 -124.406 559.803 -91.2744C526.672 -58.1427 504.109 -15.9304 494.968 30.0246C485.827 75.9796 490.518 123.613 508.449 166.902C526.38 210.19 556.744 247.19 595.703 273.221C634.662 299.253 680.465 313.147 727.32 313.147L727.32 224.055C698.085 224.055 669.507 215.386 645.199 199.144C620.892 182.902 601.946 159.817 590.759 132.808C579.571 105.799 576.644 76.0784 582.347 47.4055C588.051 18.7325 602.128 -7.60521 622.8 -28.2772C643.472 -48.9493 669.81 -63.0271 698.483 -68.7305C727.156 -74.4339 756.876 -71.5067 783.886 -60.3191C810.895 -49.1315 833.98 -30.1859 850.222 -5.87816C866.464 18.4296 875.133 47.0077 875.133 76.2424H964.224Z" fill="#B8D9EE"/>
<path opacity="0.4" d="M727.32 786.946C758.431 786.946 789.237 780.818 817.979 768.912C846.722 757.007 872.838 739.557 894.837 717.558C916.835 695.559 934.286 669.443 946.191 640.701C958.097 611.958 964.224 581.152 964.224 550.041C964.224 518.931 958.097 488.124 946.191 459.382C934.286 430.639 916.835 404.523 894.837 382.525C872.838 360.526 846.722 343.076 817.979 331.17C789.237 319.265 758.431 313.137 727.32 313.137L727.32 402.228C746.731 402.228 765.952 406.052 783.886 413.48C801.819 420.908 818.114 431.796 831.84 445.522C845.565 459.247 856.453 475.542 863.881 493.476C871.31 511.409 875.133 530.63 875.133 550.041C875.133 569.452 871.31 588.673 863.881 606.607C856.453 624.54 845.565 640.835 831.84 654.561C818.114 668.287 801.819 679.174 783.886 686.603C765.952 694.031 746.731 697.854 727.32 697.854L727.32 786.946Z" fill="#B8D9EE"/>
<path opacity="0.2" d="M727.32 225.407C696.209 225.407 665.403 231.535 636.661 243.44C607.918 255.346 581.802 272.796 559.803 294.795C537.805 316.793 520.354 342.909 508.449 371.652C496.543 400.395 490.416 431.201 490.416 462.311L579.507 462.311C579.507 442.9 583.33 423.679 590.759 405.746C598.187 387.812 609.075 371.518 622.8 357.792C636.526 344.066 652.821 333.178 670.754 325.75C688.688 318.322 707.909 314.498 727.32 314.498L727.32 225.407Z" fill="#B8D9EE"/>
<path opacity="0.3" d="M580.665 462.311C580.665 431.201 574.537 400.395 562.632 371.652C550.726 342.909 533.276 316.793 511.277 294.795C489.278 272.796 463.162 255.346 434.42 243.44C405.677 231.535 374.871 225.407 343.76 225.407L343.76 314.498C363.171 314.498 382.392 318.322 400.326 325.75C418.259 333.178 434.554 344.066 448.28 357.792C462.006 371.518 472.893 387.812 480.322 405.746C487.75 423.679 491.573 442.9 491.573 462.311L580.665 462.311Z" fill="#B8D9EE"/>
<path opacity="0.4" d="M-39.7934 313.137C-8.68264 313.137 22.1235 307.009 50.866 295.104C79.6086 283.198 105.725 265.748 127.723 243.749C149.722 221.75 167.172 195.634 179.078 166.892C190.983 138.149 197.111 107.343 197.111 76.2323L108.02 76.2323C108.02 95.6434 104.196 114.864 96.7681 132.798C89.3398 150.731 78.4519 167.026 64.7262 180.752C51.0005 194.478 34.7057 205.365 16.7722 212.794C-1.16128 220.222 -20.3823 224.045 -39.7934 224.045L-39.7934 313.137Z" fill="#B8D9EE"/>
</g>
<defs>
<linearGradient id="paint0_linear_373_7328" x1="1920" y1="419.521" x2="9.72996e-06" y2="419.521" gradientUnits="userSpaceOnUse">
<stop stop-color="#B8D9EE"/>
<stop offset="0.225962" stop-color="white"/>
</linearGradient>
<clipPath id="clip0_373_7328">
<rect width="1920" height="875" fill="white"/>
</clipPath>
</defs>
</svg>
