<svg width="1920" height="829" viewBox="0 0 1920 829" fill="none" xmlns="http://www.w3.org/2000/svg">
<g clip-path="url(#clip0_376_7552)">
<rect width="1920" height="829" fill="#EEF6FB"/>
<g opacity="0.27">
<circle cx="1827.5" cy="735.5" r="92" transform="rotate(90 1827.5 735.5)" stroke="#3D3D3D"/>
<path d="M1782.5 474.403C1775.69 478.366 1769.4 483.202 1763.8 488.8C1755.3 497.296 1748.56 507.383 1743.96 518.484C1739.37 529.586 1737 541.484 1737 553.5L1736.5 553.5L1736.5 462C1748.52 462 1760.41 464.367 1771.52 468.965C1775.3 470.534 1778.97 472.351 1782.5 474.403Z" fill="#B6D1FB"/>
<mask id="path-3-inside-1_376_7552" fill="white">
<path d="M1645 552.5C1645 540.484 1647.37 528.586 1651.97 517.484C1656.56 506.383 1663.3 496.296 1671.8 487.8C1680.3 479.303 1690.38 472.563 1701.48 467.965C1712.59 463.367 1724.48 461 1736.5 461C1748.52 461 1760.41 463.367 1771.52 467.965C1782.62 472.563 1792.7 479.303 1801.2 487.8C1809.7 496.296 1816.44 506.383 1821.03 517.484C1825.63 528.586 1828 540.484 1828 552.5L1736.5 552.5L1645 552.5Z"/>
</mask>
<path d="M1645 552.5C1645 540.484 1647.37 528.586 1651.97 517.484C1656.56 506.383 1663.3 496.296 1671.8 487.8C1680.3 479.303 1690.38 472.563 1701.48 467.965C1712.59 463.367 1724.48 461 1736.5 461C1748.52 461 1760.41 463.367 1771.52 467.965C1782.62 472.563 1792.7 479.303 1801.2 487.8C1809.7 496.296 1816.44 506.383 1821.03 517.484C1825.63 528.586 1828 540.484 1828 552.5L1736.5 552.5L1645 552.5Z" stroke="#3D3D3D" stroke-width="2" mask="url(#path-3-inside-1_376_7552)"/>
<mask id="path-4-inside-2_376_7552" fill="white">
<path d="M1736 551.5C1736 563.516 1733.63 575.414 1729.03 586.516C1724.44 597.617 1717.7 607.704 1709.2 616.2C1700.7 624.697 1690.62 631.437 1679.52 636.035C1668.41 640.633 1656.52 643 1644.5 643C1632.48 643 1620.59 640.633 1609.48 636.035C1598.38 631.437 1588.3 624.697 1579.8 616.2C1571.3 607.704 1564.56 597.617 1559.97 586.516C1555.37 575.414 1553 563.516 1553 551.5L1644.5 551.5L1736 551.5Z"/>
</mask>
<path d="M1736 551.5C1736 563.516 1733.63 575.414 1729.03 586.516C1724.44 597.617 1717.7 607.704 1709.2 616.2C1700.7 624.697 1690.62 631.437 1679.52 636.035C1668.41 640.633 1656.52 643 1644.5 643C1632.48 643 1620.59 640.633 1609.48 636.035C1598.38 631.437 1588.3 624.697 1579.8 616.2C1571.3 607.704 1564.56 597.617 1559.97 586.516C1555.37 575.414 1553 563.516 1553 551.5L1644.5 551.5L1736 551.5Z" stroke="#3D3D3D" stroke-width="2" mask="url(#path-4-inside-2_376_7552)"/>
<mask id="path-5-inside-3_376_7552" fill="white">
<path d="M1736 735.5C1736 723.484 1733.63 711.586 1729.03 700.484C1724.44 689.383 1717.7 679.296 1709.2 670.8C1700.7 662.303 1690.62 655.563 1679.52 650.965C1668.41 646.367 1656.52 644 1644.5 644C1632.48 644 1620.59 646.367 1609.48 650.965C1598.38 655.563 1588.3 662.303 1579.8 670.8C1571.3 679.296 1564.56 689.383 1559.97 700.484C1555.37 711.586 1553 723.484 1553 735.5L1644.5 735.5L1736 735.5Z"/>
</mask>
<path d="M1736 735.5C1736 723.484 1733.63 711.586 1729.03 700.484C1724.44 689.383 1717.7 679.296 1709.2 670.8C1700.7 662.303 1690.62 655.563 1679.52 650.965C1668.41 646.367 1656.52 644 1644.5 644C1632.48 644 1620.59 646.367 1609.48 650.965C1598.38 655.563 1588.3 662.303 1579.8 670.8C1571.3 679.296 1564.56 689.383 1559.97 700.484C1555.37 711.586 1553 723.484 1553 735.5L1644.5 735.5L1736 735.5Z" stroke="#3D3D3D" stroke-width="2" mask="url(#path-5-inside-3_376_7552)"/>
<mask id="path-6-inside-4_376_7552" fill="white">
<path d="M1463 552.5C1463 540.484 1465.37 528.586 1469.97 517.484C1474.56 506.383 1481.3 496.296 1489.8 487.8C1498.3 479.303 1508.38 472.563 1519.48 467.965C1530.59 463.367 1542.48 461 1554.5 461C1566.52 461 1578.41 463.367 1589.52 467.965C1600.62 472.563 1610.7 479.303 1619.2 487.8C1627.7 496.296 1634.44 506.383 1639.03 517.484C1643.63 528.586 1646 540.484 1646 552.5L1554.5 552.5L1463 552.5Z"/>
</mask>
<path d="M1463 552.5C1463 540.484 1465.37 528.586 1469.97 517.484C1474.56 506.383 1481.3 496.296 1489.8 487.8C1498.3 479.303 1508.38 472.563 1519.48 467.965C1530.59 463.367 1542.48 461 1554.5 461C1566.52 461 1578.41 463.367 1589.52 467.965C1600.62 472.563 1610.7 479.303 1619.2 487.8C1627.7 496.296 1634.44 506.383 1639.03 517.484C1643.63 528.586 1646 540.484 1646 552.5L1554.5 552.5L1463 552.5Z" stroke="#3D3D3D" stroke-width="2" mask="url(#path-6-inside-4_376_7552)"/>
<mask id="path-7-inside-5_376_7552" fill="white">
<path d="M1463 551.5C1463 563.516 1465.37 575.414 1469.97 586.516C1474.56 597.617 1481.3 607.704 1489.8 616.2C1498.3 624.697 1508.38 631.437 1519.48 636.035C1530.59 640.633 1542.48 643 1554.5 643L1554.5 551.5H1463Z"/>
</mask>
<path d="M1463 551.5C1463 563.516 1465.37 575.414 1469.97 586.516C1474.56 597.617 1481.3 607.704 1489.8 616.2C1498.3 624.697 1508.38 631.437 1519.48 636.035C1530.59 640.633 1542.48 643 1554.5 643L1554.5 551.5H1463Z" stroke="#3D3D3D" stroke-width="2" mask="url(#path-7-inside-5_376_7552)"/>
<mask id="path-8-inside-6_376_7552" fill="white">
<path d="M1554.5 461C1566.52 461 1578.41 463.367 1589.52 467.965C1600.62 472.563 1610.7 479.303 1619.2 487.8C1627.7 496.296 1634.44 506.383 1639.03 517.484C1643.63 528.586 1646 540.484 1646 552.5L1554.5 552.5L1554.5 461Z"/>
</mask>
<path d="M1554.5 461C1566.52 461 1578.41 463.367 1589.52 467.965C1600.62 472.563 1610.7 479.303 1619.2 487.8C1627.7 496.296 1634.44 506.383 1639.03 517.484C1643.63 528.586 1646 540.484 1646 552.5L1554.5 552.5L1554.5 461Z" fill="#4A8FB8" stroke="#3D3D3D" stroke-width="2" mask="url(#path-8-inside-6_376_7552)"/>
<mask id="path-9-inside-7_376_7552" fill="white">
<path d="M1827.5 645C1815.48 645 1803.59 642.633 1792.48 638.035C1781.38 633.437 1771.3 626.697 1762.8 618.2C1754.3 609.704 1747.56 599.617 1742.97 588.516C1738.37 577.414 1736 565.516 1736 553.5C1736 541.484 1738.37 529.586 1742.97 518.484C1747.56 507.383 1754.3 497.296 1762.8 488.8C1771.3 480.303 1781.38 473.563 1792.48 468.965C1803.59 464.367 1815.48 462 1827.5 462L1827.5 553.5L1827.5 645Z"/>
</mask>
<path d="M1827.5 645C1815.48 645 1803.59 642.633 1792.48 638.035C1781.38 633.437 1771.3 626.697 1762.8 618.2C1754.3 609.704 1747.56 599.617 1742.97 588.516C1738.37 577.414 1736 565.516 1736 553.5C1736 541.484 1738.37 529.586 1742.97 518.484C1747.56 507.383 1754.3 497.296 1762.8 488.8C1771.3 480.303 1781.38 473.563 1792.48 468.965C1803.59 464.367 1815.48 462 1827.5 462L1827.5 553.5L1827.5 645Z" stroke="#3D3D3D" stroke-width="2" mask="url(#path-9-inside-7_376_7552)"/>
<mask id="path-10-inside-8_376_7552" fill="white">
<path d="M1828 827.5C1828 815.353 1825.61 803.324 1820.96 792.102C1816.31 780.879 1809.5 770.682 1800.91 762.093C1792.32 753.503 1782.12 746.69 1770.9 742.041C1759.68 737.393 1747.65 735 1735.5 735C1723.35 735 1711.32 737.393 1700.1 742.041C1688.88 746.69 1678.68 753.503 1670.09 762.093C1661.5 770.682 1654.69 780.879 1650.04 792.102C1645.39 803.324 1643 815.353 1643 827.5L1735.5 827.5H1828Z"/>
</mask>
<path d="M1828 827.5C1828 815.353 1825.61 803.324 1820.96 792.102C1816.31 780.879 1809.5 770.682 1800.91 762.093C1792.32 753.503 1782.12 746.69 1770.9 742.041C1759.68 737.393 1747.65 735 1735.5 735C1723.35 735 1711.32 737.393 1700.1 742.041C1688.88 746.69 1678.68 753.503 1670.09 762.093C1661.5 770.682 1654.69 780.879 1650.04 792.102C1645.39 803.324 1643 815.353 1643 827.5L1735.5 827.5H1828Z" stroke="#3D3D3D" stroke-width="2" mask="url(#path-10-inside-8_376_7552)"/>
<mask id="path-11-inside-9_376_7552" fill="white">
<path d="M1817.83 827.5C1771.29 822.667 1735 783.322 1735 735.5C1735 735.334 1735 735.169 1735 735.003C1735.17 735.002 1735.33 735 1735.5 735C1747.65 735 1759.68 737.392 1770.9 742.041C1782.12 746.69 1792.32 753.503 1800.91 762.093C1809.5 770.682 1816.31 780.879 1820.96 792.102C1825.61 803.324 1828 815.353 1828 827.5L1817.83 827.5Z"/>
</mask>
<path d="M1817.83 827.5C1771.29 822.667 1735 783.322 1735 735.5C1735 735.334 1735 735.169 1735 735.003C1735.17 735.002 1735.33 735 1735.5 735C1747.65 735 1759.68 737.392 1770.9 742.041C1782.12 746.69 1792.32 753.503 1800.91 762.093C1809.5 770.682 1816.31 780.879 1820.96 792.102C1825.61 803.324 1828 815.353 1828 827.5L1817.83 827.5Z" fill="#F97F7F"/>
<path d="M1817.83 827.5L1817.73 828.495L1817.78 828.5L1817.83 828.5L1817.83 827.5ZM1735 735.003L1735 734.003L1734.01 734.008L1734 734.998L1735 735.003ZM1735.5 735L1735.5 734V734L1735.5 735ZM1770.9 742.041L1771.28 741.117L1771.28 741.117L1770.9 742.041ZM1800.91 762.093L1801.61 761.386V761.386L1800.91 762.093ZM1820.96 792.102L1821.88 791.719L1821.88 791.719L1820.96 792.102ZM1828 827.5L1828 828.5L1829 828.5L1829 827.5L1828 827.5ZM1817.83 827.5L1817.94 826.505C1771.9 821.725 1736 782.805 1736 735.5L1735 735.5L1734 735.5C1734 783.84 1770.68 823.61 1817.73 828.495L1817.83 827.5ZM1735 735.5L1736 735.5C1736 735.331 1736 735.198 1736 735.008L1735 735.003L1734 734.998C1734 735.139 1734 735.338 1734 735.5L1735 735.5ZM1735 735.003L1735.01 736.003C1735.19 736.002 1735.34 736 1735.5 736L1735.5 735L1735.5 734C1735.33 734 1735.15 734.002 1735 734.003L1735 735.003ZM1735.5 735L1735.5 736C1747.52 736 1759.41 738.367 1770.52 742.965L1770.9 742.041L1771.28 741.117C1759.94 736.418 1747.78 734 1735.5 734L1735.5 735ZM1770.9 742.041L1770.52 742.965C1781.62 747.563 1791.7 754.303 1800.2 762.8L1800.91 762.093L1801.61 761.386C1792.93 752.703 1782.63 745.816 1771.28 741.117L1770.9 742.041ZM1800.91 762.093L1800.2 762.8C1808.7 771.296 1815.44 781.383 1820.04 792.484L1820.96 792.102L1821.88 791.719C1817.18 780.375 1810.3 770.068 1801.61 761.386L1800.91 762.093ZM1820.96 792.102L1820.04 792.484C1824.63 803.586 1827 815.484 1827 827.5L1828 827.5L1829 827.5C1829 815.221 1826.58 803.063 1821.88 791.719L1820.96 792.102ZM1828 827.5L1828 826.5L1817.83 826.5L1817.83 827.5L1817.83 828.5L1828 828.5L1828 827.5Z" fill="#3D3D3D" mask="url(#path-11-inside-9_376_7552)"/>
<mask id="path-13-inside-10_376_7552" fill="white">
<path d="M1452.83 552.5C1406.29 547.667 1370 508.322 1370 460.5C1370 460.334 1370 460.169 1370 460.003C1370.17 460.002 1370.33 460 1370.5 460C1382.65 460 1394.68 462.392 1405.9 467.041C1417.12 471.69 1427.32 478.503 1435.91 487.093C1444.5 495.682 1451.31 505.879 1455.96 517.102C1460.61 528.324 1463 540.353 1463 552.5L1452.83 552.5Z"/>
</mask>
<path d="M1452.83 552.5C1406.29 547.667 1370 508.322 1370 460.5C1370 460.334 1370 460.169 1370 460.003C1370.17 460.002 1370.33 460 1370.5 460C1382.65 460 1394.68 462.392 1405.9 467.041C1417.12 471.69 1427.32 478.503 1435.91 487.093C1444.5 495.682 1451.31 505.879 1455.96 517.102C1460.61 528.324 1463 540.353 1463 552.5L1452.83 552.5Z" fill="#F97F7F"/>
<path d="M1452.83 552.5L1452.73 553.495L1452.78 553.5L1452.83 553.5L1452.83 552.5ZM1370 460.003L1370 459.003L1369.01 459.008L1369 459.998L1370 460.003ZM1370.5 460L1370.5 459V459L1370.5 460ZM1405.9 467.041L1406.28 466.117L1406.28 466.117L1405.9 467.041ZM1435.91 487.093L1436.61 486.386V486.386L1435.91 487.093ZM1455.96 517.102L1456.88 516.719L1456.88 516.719L1455.96 517.102ZM1463 552.5L1463 553.5L1464 553.5L1464 552.5L1463 552.5ZM1452.83 552.5L1452.94 551.505C1406.9 546.725 1371 507.805 1371 460.5L1370 460.5L1369 460.5C1369 508.84 1405.68 548.61 1452.73 553.495L1452.83 552.5ZM1370 460.5L1371 460.5C1371 460.331 1371 460.198 1371 460.008L1370 460.003L1369 459.998C1369 460.139 1369 460.338 1369 460.5L1370 460.5ZM1370 460.003L1370.01 461.003C1370.19 461.002 1370.34 461 1370.5 461L1370.5 460L1370.5 459C1370.33 459 1370.15 459.002 1370 459.003L1370 460.003ZM1370.5 460L1370.5 461C1382.52 461 1394.41 463.367 1405.52 467.965L1405.9 467.041L1406.28 466.117C1394.94 461.418 1382.78 459 1370.5 459L1370.5 460ZM1405.9 467.041L1405.52 467.965C1416.62 472.563 1426.7 479.303 1435.2 487.8L1435.91 487.093L1436.61 486.386C1427.93 477.703 1417.63 470.816 1406.28 466.117L1405.9 467.041ZM1435.91 487.093L1435.2 487.8C1443.7 496.296 1450.44 506.383 1455.04 517.484L1455.96 517.102L1456.88 516.719C1452.18 505.375 1445.3 495.068 1436.61 486.386L1435.91 487.093ZM1455.96 517.102L1455.04 517.484C1459.63 528.586 1462 540.484 1462 552.5L1463 552.5L1464 552.5C1464 540.221 1461.58 528.063 1456.88 516.719L1455.96 517.102ZM1463 552.5L1463 551.5L1452.83 551.5L1452.83 552.5L1452.83 553.5L1463 553.5L1463 552.5Z" fill="#3D3D3D" mask="url(#path-13-inside-10_376_7552)"/>
<circle cx="1874" cy="645" r="45.5" transform="rotate(90 1874 645)" fill="#5BA3D1" stroke="#3D3D3D"/>
<path d="M1902.39 681.195C1894.57 687.337 1884.71 691 1874 691C1848.59 691 1828 670.405 1828 645C1828 644.331 1828.02 643.666 1828.05 643.004C1858.62 643.181 1885.68 658.186 1902.39 681.195Z" fill="#3A7394"/>
<circle cx="1828" cy="508" r="45.5" transform="rotate(90 1828 508)" stroke="#3D3D3D"/>
<mask id="path-18-inside-11_376_7552" fill="white">
<path d="M1827 554C1833.04 554 1839.02 552.81 1844.6 550.498C1850.18 548.187 1855.26 544.798 1859.53 540.527C1863.8 536.255 1867.19 531.184 1869.5 525.603C1871.81 520.022 1873 514.041 1873 508C1873 501.959 1871.81 495.978 1869.5 490.397C1867.19 484.816 1863.8 479.745 1859.53 475.473C1855.26 471.202 1850.18 467.813 1844.6 465.502C1839.02 463.19 1833.04 462 1827 462L1827 508L1827 554Z"/>
</mask>
<path d="M1827 554C1833.04 554 1839.02 552.81 1844.6 550.498C1850.18 548.187 1855.26 544.798 1859.53 540.527C1863.8 536.255 1867.19 531.184 1869.5 525.603C1871.81 520.022 1873 514.041 1873 508C1873 501.959 1871.81 495.978 1869.5 490.397C1867.19 484.816 1863.8 479.745 1859.53 475.473C1855.26 471.202 1850.18 467.813 1844.6 465.502C1839.02 463.19 1833.04 462 1827 462L1827 508L1827 554Z" fill="#FF9967" stroke="#3D3D3D" stroke-width="2" mask="url(#path-18-inside-11_376_7552)"/>
<circle cx="1599" cy="736" r="45.5" transform="rotate(90 1599 736)" stroke="#3D3D3D"/>
<mask id="path-20-inside-12_376_7552" fill="white">
<path d="M1553 736C1553 723.8 1557.85 712.1 1566.47 703.473C1575.1 694.846 1586.8 690 1599 690C1611.2 690 1622.9 694.846 1631.53 703.473C1640.15 712.1 1645 723.8 1645 736L1599 736L1553 736Z"/>
</mask>
<path d="M1553 736C1553 723.8 1557.85 712.1 1566.47 703.473C1575.1 694.846 1586.8 690 1599 690C1611.2 690 1622.9 694.846 1631.53 703.473C1640.15 712.1 1645 723.8 1645 736L1599 736L1553 736Z" fill="#51B198" stroke="#3D3D3D" stroke-width="2" mask="url(#path-20-inside-12_376_7552)"/>
</g>
<g opacity="0.27">
<circle cx="312.406" cy="105.213" r="104.324" stroke="#3D3D3D" stroke-width="1.13396"/>
<path d="M16.3333 156.241C20.8269 163.968 26.3106 171.098 32.6584 177.446C42.2932 187.081 53.7312 194.724 66.3196 199.938C78.9079 205.153 92.4001 207.836 106.026 207.836L106.026 208.403L2.26782 208.403C2.26782 194.778 4.95202 181.286 10.1663 168.697C11.9451 164.403 14.0065 160.242 16.3333 156.241Z" fill="#B6D1FB"/>
<mask id="path-23-inside-13_376_7552" fill="white">
<path d="M104.891 312.161C91.2658 312.161 77.7736 309.477 65.1852 304.263C52.5968 299.048 41.1586 291.406 31.5239 281.771C21.8891 272.136 14.2464 260.698 9.03209 248.11C3.8178 235.521 1.13403 222.029 1.13403 208.403C1.13404 194.778 3.81781 181.286 9.03211 168.697C14.2464 156.109 21.8891 144.671 31.5239 135.036C41.1587 125.401 52.5968 117.758 65.1852 112.544C77.7737 107.33 91.2659 104.646 104.891 104.646L104.891 208.403L104.891 312.161Z"/>
</mask>
<path d="M104.891 312.161C91.2658 312.161 77.7736 309.477 65.1852 304.263C52.5968 299.048 41.1586 291.406 31.5239 281.771C21.8891 272.136 14.2464 260.698 9.03209 248.11C3.8178 235.521 1.13403 222.029 1.13403 208.403C1.13404 194.778 3.81781 181.286 9.03211 168.697C14.2464 156.109 21.8891 144.671 31.5239 135.036C41.1587 125.401 52.5968 117.758 65.1852 112.544C77.7737 107.33 91.2659 104.646 104.891 104.646L104.891 208.403L104.891 312.161Z" stroke="#3D3D3D" stroke-width="2.26792" mask="url(#path-23-inside-13_376_7552)"/>
<mask id="path-24-inside-14_376_7552" fill="white">
<path d="M103.757 208.97C117.383 208.97 130.875 211.654 143.464 216.869C156.052 222.083 167.49 229.726 177.125 239.36C186.76 248.995 194.403 260.433 199.617 273.022C204.831 285.61 207.515 299.102 207.515 312.728C207.515 326.354 204.831 339.846 199.617 352.434C194.403 365.023 186.76 376.461 177.125 386.096C167.49 395.73 156.052 403.373 143.464 408.587C130.875 413.802 117.383 416.485 103.757 416.485L103.757 312.728L103.757 208.97Z"/>
</mask>
<path d="M103.757 208.97C117.383 208.97 130.875 211.654 143.464 216.869C156.052 222.083 167.49 229.726 177.125 239.36C186.76 248.995 194.403 260.433 199.617 273.022C204.831 285.61 207.515 299.102 207.515 312.728C207.515 326.354 204.831 339.846 199.617 352.434C194.403 365.023 186.76 376.461 177.125 386.096C167.49 395.73 156.052 403.373 143.464 408.587C130.875 413.802 117.383 416.485 103.757 416.485L103.757 312.728L103.757 208.97Z" stroke="#3D3D3D" stroke-width="2.26792" mask="url(#path-24-inside-14_376_7552)"/>
<mask id="path-25-inside-15_376_7552" fill="white">
<path d="M312.406 208.97C298.781 208.97 285.288 211.654 272.7 216.869C260.111 222.083 248.673 229.726 239.039 239.36C229.404 248.995 221.761 260.433 216.547 273.022C211.332 285.61 208.649 299.102 208.649 312.728C208.649 326.354 211.332 339.846 216.547 352.434C221.761 365.023 229.404 376.461 239.039 386.095C248.673 395.73 260.111 403.373 272.7 408.587C285.288 413.802 298.781 416.485 312.406 416.485L312.406 312.728L312.406 208.97Z"/>
</mask>
<path d="M312.406 208.97C298.781 208.97 285.288 211.654 272.7 216.869C260.111 222.083 248.673 229.726 239.039 239.36C229.404 248.995 221.761 260.433 216.547 273.022C211.332 285.61 208.649 299.102 208.649 312.728C208.649 326.354 211.332 339.846 216.547 352.434C221.761 365.023 229.404 376.461 239.039 386.095C248.673 395.73 260.111 403.373 272.7 408.587C285.288 413.802 298.781 416.485 312.406 416.485L312.406 312.728L312.406 208.97Z" stroke="#3D3D3D" stroke-width="2.26792" mask="url(#path-25-inside-15_376_7552)"/>
<mask id="path-26-inside-16_376_7552" fill="white">
<path d="M104.891 518.542C91.2658 518.542 77.7736 515.858 65.1852 510.644C52.5968 505.429 41.1586 497.787 31.5239 488.152C21.8891 478.517 14.2464 467.079 9.03209 454.491C3.8178 441.902 1.13403 428.41 1.13403 414.784C1.13404 401.159 3.81781 387.666 9.03211 375.078C14.2464 362.49 21.8891 351.051 31.5239 341.417C41.1587 331.782 52.5968 324.139 65.1852 318.925C77.7737 313.711 91.2659 311.027 104.891 311.027L104.891 414.784L104.891 518.542Z"/>
</mask>
<path d="M104.891 518.542C91.2658 518.542 77.7736 515.858 65.1852 510.644C52.5968 505.429 41.1586 497.787 31.5239 488.152C21.8891 478.517 14.2464 467.079 9.03209 454.491C3.8178 441.902 1.13403 428.41 1.13403 414.784C1.13404 401.159 3.81781 387.666 9.03211 375.078C14.2464 362.49 21.8891 351.051 31.5239 341.417C41.1587 331.782 52.5968 324.139 65.1852 318.925C77.7737 313.711 91.2659 311.027 104.891 311.027L104.891 414.784L104.891 518.542Z" stroke="#3D3D3D" stroke-width="2.26792" mask="url(#path-26-inside-16_376_7552)"/>
<mask id="path-27-inside-17_376_7552" fill="white">
<path d="M103.757 518.542C117.383 518.542 130.875 515.858 143.464 510.644C156.052 505.429 167.49 497.787 177.125 488.152C186.76 478.517 194.403 467.079 199.617 454.491C204.831 441.902 207.515 428.41 207.515 414.784L103.757 414.784L103.757 518.542Z"/>
</mask>
<path d="M103.757 518.542C117.383 518.542 130.875 515.858 143.464 510.644C156.052 505.429 167.49 497.787 177.125 488.152C186.76 478.517 194.403 467.079 199.617 454.491C204.831 441.902 207.515 428.41 207.515 414.784L103.757 414.784L103.757 518.542Z" stroke="#3D3D3D" stroke-width="2.26792" mask="url(#path-27-inside-17_376_7552)"/>
<mask id="path-28-inside-18_376_7552" fill="white">
<path d="M1.13403 414.784C1.13404 401.159 3.81781 387.666 9.03211 375.078C14.2464 362.49 21.8891 351.051 31.5239 341.417C41.1587 331.782 52.5968 324.139 65.1852 318.925C77.7737 313.711 91.2659 311.027 104.891 311.027L104.891 414.784L1.13403 414.784Z"/>
</mask>
<path d="M1.13403 414.784C1.13404 401.159 3.81781 387.666 9.03211 375.078C14.2464 362.49 21.8891 351.051 31.5239 341.417C41.1587 331.782 52.5968 324.139 65.1852 318.925C77.7737 313.711 91.2659 311.027 104.891 311.027L104.891 414.784L1.13403 414.784Z" fill="#4A8FB8" stroke="#3D3D3D" stroke-width="2.26792" mask="url(#path-28-inside-18_376_7552)"/>
<mask id="path-29-inside-19_376_7552" fill="white">
<path d="M209.783 105.213C209.783 118.839 207.099 132.331 201.885 144.919C196.67 157.508 189.028 168.946 179.393 178.581C169.758 188.215 158.32 195.858 145.731 201.072C133.143 206.287 119.651 208.97 106.025 208.97C92.3996 208.97 78.9074 206.287 66.319 201.072C53.7306 195.858 42.2924 188.215 32.6577 178.581C23.0229 168.946 15.3802 157.508 10.1659 144.919C4.95157 132.331 2.26781 118.839 2.26781 105.213L106.025 105.213L209.783 105.213Z"/>
</mask>
<path d="M209.783 105.213C209.783 118.839 207.099 132.331 201.885 144.919C196.67 157.508 189.028 168.946 179.393 178.581C169.758 188.215 158.32 195.858 145.731 201.072C133.143 206.287 119.651 208.97 106.025 208.97C92.3996 208.97 78.9074 206.287 66.319 201.072C53.7306 195.858 42.2924 188.215 32.6577 178.581C23.0229 168.946 15.3802 157.508 10.1659 144.919C4.95157 132.331 2.26781 118.839 2.26781 105.213L106.025 105.213L209.783 105.213Z" stroke="#3D3D3D" stroke-width="2.26792" mask="url(#path-29-inside-19_376_7552)"/>
<mask id="path-30-inside-20_376_7552" fill="white">
<path d="M416.731 104.646C402.956 104.646 389.317 107.359 376.591 112.63C363.865 117.902 352.301 125.628 342.561 135.368C332.821 145.108 325.095 156.671 319.824 169.397C314.552 182.123 311.839 195.763 311.839 209.537C311.839 223.312 314.552 236.952 319.824 249.678C325.095 262.404 332.821 273.967 342.561 283.707C352.301 293.447 363.865 301.173 376.591 306.444C389.317 311.716 402.956 314.429 416.731 314.429L416.731 209.537L416.731 104.646Z"/>
</mask>
<path d="M416.731 104.646C402.956 104.646 389.317 107.359 376.591 112.63C363.865 117.902 352.301 125.628 342.561 135.368C332.821 145.108 325.095 156.671 319.824 169.397C314.552 182.123 311.839 195.763 311.839 209.537C311.839 223.312 314.552 236.952 319.824 249.678C325.095 262.404 332.821 273.967 342.561 283.707C352.301 293.447 363.865 301.173 376.591 306.444C389.317 311.716 402.956 314.429 416.731 314.429L416.731 209.537L416.731 104.646Z" stroke="#3D3D3D" stroke-width="2.26792" mask="url(#path-30-inside-20_376_7552)"/>
<mask id="path-31-inside-21_376_7552" fill="white">
<path d="M416.73 116.172C411.25 168.952 366.635 210.105 312.406 210.105C312.217 210.105 312.029 210.102 311.841 210.101C311.84 209.913 311.838 209.725 311.838 209.538C311.838 195.763 314.552 182.124 319.823 169.398C325.094 156.672 332.821 145.109 342.561 135.369C352.301 125.629 363.864 117.902 376.59 112.63C389.316 107.359 402.956 104.646 416.73 104.646L416.73 116.172Z"/>
</mask>
<path d="M416.73 116.172C411.25 168.952 366.635 210.105 312.406 210.105C312.217 210.105 312.029 210.102 311.841 210.101C311.84 209.913 311.838 209.725 311.838 209.538C311.838 195.763 314.552 182.124 319.823 169.398C325.094 156.672 332.821 145.109 342.561 135.369C352.301 125.629 363.864 117.902 376.59 112.63C389.316 107.359 402.956 104.646 416.73 104.646L416.73 116.172Z" fill="#F97F7F"/>
<path d="M416.73 116.172L417.858 116.289L417.864 116.231L417.864 116.172L416.73 116.172ZM312.406 210.105L312.406 211.239L312.406 211.239L312.406 210.105ZM311.841 210.101L310.707 210.107L310.713 211.229L311.835 211.235L311.841 210.101ZM311.838 209.538L310.704 209.538V209.538L311.838 209.538ZM319.823 169.398L318.775 168.964L318.775 168.964L319.823 169.398ZM342.561 135.369L341.759 134.567L341.759 134.567L342.561 135.369ZM376.59 112.63L376.156 111.583L376.156 111.583L376.59 112.63ZM416.73 104.646L417.864 104.646L417.864 103.512L416.73 103.512L416.73 104.646ZM416.73 116.172L415.602 116.055C410.182 168.263 366.048 208.971 312.406 208.971L312.406 210.105L312.406 211.239C367.222 211.239 412.319 169.641 417.858 116.289L416.73 116.172ZM312.406 210.105L312.406 208.971C312.217 208.971 312.055 208.968 311.847 208.967L311.841 210.101L311.835 211.235C312.004 211.236 312.218 211.239 312.406 211.239L312.406 210.105ZM311.841 210.101L312.975 210.095C312.974 209.9 312.972 209.722 312.972 209.538L311.838 209.538L310.704 209.538C310.704 209.729 310.706 209.927 310.707 210.107L311.841 210.101ZM311.838 209.538L312.972 209.538C312.972 195.912 315.656 182.42 320.87 169.832L319.823 169.398L318.775 168.964C313.447 181.827 310.704 195.614 310.704 209.538L311.838 209.538ZM319.823 169.398L320.87 169.832C326.085 157.244 333.728 145.805 343.363 136.17L342.561 135.369L341.759 134.567C331.914 144.412 324.103 156.1 318.775 168.964L319.823 169.398ZM342.561 135.369L343.363 136.17C352.998 126.536 364.436 118.892 377.024 113.678L376.59 112.63L376.156 111.583C363.293 116.911 351.605 124.721 341.759 134.567L342.561 135.369ZM376.59 112.63L377.024 113.678C389.613 108.464 403.105 105.78 416.73 105.78L416.73 104.646L416.73 103.512C402.807 103.512 389.02 106.255 376.156 111.583L376.59 112.63ZM416.73 104.646L415.596 104.646L415.596 116.172L416.73 116.172L417.864 116.172L417.864 104.646L416.73 104.646Z" fill="#3D3D3D" mask="url(#path-31-inside-21_376_7552)"/>
<mask id="path-33-inside-22_376_7552" fill="white">
<path d="M104.892 530.067C99.4122 582.846 54.7963 623.999 0.567374 624C0.379234 624 0.190827 623.997 0.00292047 623.996C0.00191309 623.808 -9.16983e-06 623.62 -9.16983e-06 623.432C4.35273e-05 609.658 2.71317 596.018 7.98437 583.292C13.2556 570.567 20.9817 559.003 30.7217 549.263C40.4617 539.523 52.0251 531.797 64.751 526.526C77.477 521.255 91.1171 518.542 104.892 518.542L104.892 530.067Z"/>
</mask>
<path d="M104.892 530.067C99.4122 582.846 54.7963 623.999 0.567374 624C0.379234 624 0.190827 623.997 0.00292047 623.996C0.00191309 623.808 -9.16983e-06 623.62 -9.16983e-06 623.432C4.35273e-05 609.658 2.71317 596.018 7.98437 583.292C13.2556 570.567 20.9817 559.003 30.7217 549.263C40.4617 539.523 52.0251 531.797 64.751 526.526C77.477 521.255 91.1171 518.542 104.892 518.542L104.892 530.067Z" fill="#F97F7F"/>
<path d="M104.892 530.067L106.019 530.184L106.026 530.126L106.026 530.067L104.892 530.067ZM0.567374 624L0.567373 625.133L0.567378 625.133L0.567374 624ZM0.00292047 623.996L-1.13102 624.002L-1.125 625.124L-0.00305045 625.13L0.00292047 623.996ZM-9.16983e-06 623.432L-1.13397 623.432L-1.13397 623.432L-9.16983e-06 623.432ZM7.98437 583.292L6.93673 582.859H6.93673L7.98437 583.292ZM30.7217 549.263L29.9198 548.461L29.9198 548.461L30.7217 549.263ZM64.751 526.526L64.317 525.478L64.317 525.478L64.751 526.526ZM104.892 518.542L106.026 518.542L106.026 517.408L104.892 517.408L104.892 518.542ZM104.892 530.067L103.764 529.95C98.3436 582.158 54.2093 622.865 0.56737 622.866L0.567374 624L0.567378 625.133C55.3832 625.133 100.481 583.535 106.019 530.184L104.892 530.067ZM0.567374 624L0.567374 622.866C0.379075 622.866 0.2164 622.863 0.00889138 622.862L0.00292047 623.996L-0.00305045 625.13C0.165254 625.13 0.379394 625.133 0.567373 625.133L0.567374 624ZM0.00292047 623.996L1.13687 623.99C1.13582 623.794 1.13395 623.616 1.13395 623.432L-9.16983e-06 623.432L-1.13397 623.432C-1.13397 623.624 -1.13199 623.822 -1.13102 624.002L0.00292047 623.996ZM-9.16983e-06 623.432L1.13395 623.432C1.134 609.807 3.8178 596.315 9.03201 583.726L7.98437 583.292L6.93673 582.859C1.60854 595.722 -1.13392 609.509 -1.13397 623.432L-9.16983e-06 623.432ZM7.98437 583.292L9.03201 583.726C14.2463 571.138 21.8888 559.7 31.5235 550.065L30.7217 549.263L29.9198 548.461C20.0746 558.307 12.265 569.995 6.93673 582.859L7.98437 583.292ZM30.7217 549.263L31.5235 550.065C41.1582 540.43 52.5966 532.788 65.1849 527.574L64.751 526.526L64.317 525.478C51.4536 530.807 39.7651 538.616 29.9198 548.461L30.7217 549.263ZM64.751 526.526L65.1849 527.574C77.7734 522.359 91.266 519.675 104.892 519.675L104.892 518.542L104.892 517.408C90.9682 517.408 77.1806 520.15 64.317 525.478L64.751 526.526ZM104.892 518.542L103.758 518.542L103.758 530.067L104.892 530.067L106.026 530.067L106.026 518.542L104.892 518.542Z" fill="#3D3D3D" mask="url(#path-33-inside-22_376_7552)"/>
<circle cx="209.783" cy="52.4835" r="51.5952" fill="#5BA3D1" stroke="#3D3D3D" stroke-width="1.13396"/>
<path d="M250.827 20.291C257.791 29.1572 261.945 40.3349 261.945 52.4834C261.945 81.2917 238.591 104.645 209.783 104.646C209.025 104.646 208.27 104.628 207.519 104.596C207.719 69.927 224.735 39.2436 250.827 20.291Z" fill="#3A7394"/>
<circle cx="54.43" cy="104.646" r="51.5952" stroke="#3D3D3D" stroke-width="1.13396"/>
<mask id="path-38-inside-23_376_7552" fill="white">
<path d="M106.592 105.78C106.592 98.9299 105.243 92.1469 102.622 85.8183C100 79.4897 96.158 73.7393 91.3143 68.8956C86.4706 64.0519 80.7203 60.2097 74.3916 57.5883C68.063 54.9669 61.2801 53.6177 54.43 53.6177C47.58 53.6177 40.797 54.9669 34.4684 57.5883C28.1398 60.2097 22.3895 64.0519 17.5458 68.8956C12.7021 73.7393 8.85983 79.4897 6.23843 85.8183C3.61703 92.1469 2.26782 98.9298 2.26782 105.78L54.43 105.78L106.592 105.78Z"/>
</mask>
<path d="M106.592 105.78C106.592 98.9299 105.243 92.1469 102.622 85.8183C100 79.4897 96.158 73.7393 91.3143 68.8956C86.4706 64.0519 80.7203 60.2097 74.3916 57.5883C68.063 54.9669 61.2801 53.6177 54.43 53.6177C47.58 53.6177 40.797 54.9669 34.4684 57.5883C28.1398 60.2097 22.3895 64.0519 17.5458 68.8956C12.7021 73.7393 8.85983 79.4897 6.23843 85.8183C3.61703 92.1469 2.26782 98.9298 2.26782 105.78L54.43 105.78L106.592 105.78Z" fill="#FF9967" stroke="#3D3D3D" stroke-width="2.26792" mask="url(#path-38-inside-23_376_7552)"/>
<circle cx="312.973" cy="364.323" r="51.5952" stroke="#3D3D3D" stroke-width="1.13396"/>
<mask id="path-40-inside-24_376_7552" fill="white">
<path d="M312.973 416.485C299.139 416.485 285.871 410.989 276.089 401.207C266.307 391.425 260.811 378.157 260.811 364.323C260.811 350.489 266.307 337.221 276.089 327.439C285.871 317.656 299.139 312.161 312.973 312.161L312.973 364.323L312.973 416.485Z"/>
</mask>
<path d="M312.973 416.485C299.139 416.485 285.871 410.989 276.089 401.207C266.307 391.425 260.811 378.157 260.811 364.323C260.811 350.489 266.307 337.221 276.089 327.439C285.871 317.656 299.139 312.161 312.973 312.161L312.973 364.323L312.973 416.485Z" fill="#51B198" stroke="#3D3D3D" stroke-width="2.26792" mask="url(#path-40-inside-24_376_7552)"/>
</g>
</g>
<defs>
<clipPath id="clip0_376_7552">
<rect width="1920" height="829" fill="white"/>
</clipPath>
</defs>
</svg>
