<svg width="1920" height="957" viewBox="0 0 1920 957" fill="none" xmlns="http://www.w3.org/2000/svg">
<g clip-path="url(#clip0_376_7404)">
<rect width="1920" height="957" fill="#EEF6FB"/>
<g opacity="0.27">
<circle cx="1863.5" cy="92.5" r="92" stroke="#3D3D3D"/>
<path d="M1602.4 137.5C1606.37 144.314 1611.2 150.602 1616.8 156.2C1625.3 164.697 1635.38 171.437 1646.48 176.035C1657.59 180.633 1669.48 183 1681.5 183V183.5H1590C1590 171.484 1592.37 159.586 1596.96 148.484C1598.53 144.697 1600.35 141.028 1602.4 137.5Z" fill="#B6D1FB"/>
<mask id="path-3-inside-1_376_7404" fill="white">
<path d="M1680.5 275C1668.48 275 1656.59 272.633 1645.48 268.035C1634.38 263.437 1624.3 256.697 1615.8 248.2C1607.3 239.704 1600.56 229.617 1595.97 218.516C1591.37 207.414 1589 195.516 1589 183.5C1589 171.484 1591.37 159.586 1595.97 148.484C1600.56 137.383 1607.3 127.296 1615.8 118.8C1624.3 110.303 1634.38 103.563 1645.48 98.965C1656.59 94.3667 1668.48 92 1680.5 92L1680.5 183.5L1680.5 275Z"/>
</mask>
<path d="M1680.5 275C1668.48 275 1656.59 272.633 1645.48 268.035C1634.38 263.437 1624.3 256.697 1615.8 248.2C1607.3 239.704 1600.56 229.617 1595.97 218.516C1591.37 207.414 1589 195.516 1589 183.5C1589 171.484 1591.37 159.586 1595.97 148.484C1600.56 137.383 1607.3 127.296 1615.8 118.8C1624.3 110.303 1634.38 103.563 1645.48 98.965C1656.59 94.3667 1668.48 92 1680.5 92L1680.5 183.5L1680.5 275Z" stroke="#3D3D3D" stroke-width="2" mask="url(#path-3-inside-1_376_7404)"/>
<mask id="path-4-inside-2_376_7404" fill="white">
<path d="M1679.5 184C1691.52 184 1703.41 186.367 1714.52 190.965C1725.62 195.563 1735.7 202.303 1744.2 210.8C1752.7 219.296 1759.44 229.383 1764.03 240.484C1768.63 251.586 1771 263.484 1771 275.5C1771 287.516 1768.63 299.414 1764.03 310.516C1759.44 321.617 1752.7 331.704 1744.2 340.2C1735.7 348.697 1725.62 355.437 1714.52 360.035C1703.41 364.633 1691.52 367 1679.5 367L1679.5 275.5L1679.5 184Z"/>
</mask>
<path d="M1679.5 184C1691.52 184 1703.41 186.367 1714.52 190.965C1725.62 195.563 1735.7 202.303 1744.2 210.8C1752.7 219.296 1759.44 229.383 1764.03 240.484C1768.63 251.586 1771 263.484 1771 275.5C1771 287.516 1768.63 299.414 1764.03 310.516C1759.44 321.617 1752.7 331.704 1744.2 340.2C1735.7 348.697 1725.62 355.437 1714.52 360.035C1703.41 364.633 1691.52 367 1679.5 367L1679.5 275.5L1679.5 184Z" stroke="#3D3D3D" stroke-width="2" mask="url(#path-4-inside-2_376_7404)"/>
<mask id="path-5-inside-3_376_7404" fill="white">
<path d="M1863.5 184C1851.48 184 1839.59 186.367 1828.48 190.965C1817.38 195.563 1807.3 202.303 1798.8 210.8C1790.3 219.296 1783.56 229.383 1778.97 240.484C1774.37 251.586 1772 263.484 1772 275.5C1772 287.516 1774.37 299.414 1778.97 310.516C1783.56 321.617 1790.3 331.704 1798.8 340.2C1807.3 348.697 1817.38 355.437 1828.48 360.035C1839.59 364.633 1851.48 367 1863.5 367L1863.5 275.5L1863.5 184Z"/>
</mask>
<path d="M1863.5 184C1851.48 184 1839.59 186.367 1828.48 190.965C1817.38 195.563 1807.3 202.303 1798.8 210.8C1790.3 219.296 1783.56 229.383 1778.97 240.484C1774.37 251.586 1772 263.484 1772 275.5C1772 287.516 1774.37 299.414 1778.97 310.516C1783.56 321.617 1790.3 331.704 1798.8 340.2C1807.3 348.697 1817.38 355.437 1828.48 360.035C1839.59 364.633 1851.48 367 1863.5 367L1863.5 275.5L1863.5 184Z" stroke="#3D3D3D" stroke-width="2" mask="url(#path-5-inside-3_376_7404)"/>
<mask id="path-6-inside-4_376_7404" fill="white">
<path d="M1680.5 457C1668.48 457 1656.59 454.633 1645.48 450.035C1634.38 445.437 1624.3 438.697 1615.8 430.2C1607.3 421.704 1600.56 411.617 1595.97 400.516C1591.37 389.414 1589 377.516 1589 365.5C1589 353.484 1591.37 341.586 1595.97 330.484C1600.56 319.383 1607.3 309.296 1615.8 300.8C1624.3 292.303 1634.38 285.563 1645.48 280.965C1656.59 276.367 1668.48 274 1680.5 274L1680.5 365.5L1680.5 457Z"/>
</mask>
<path d="M1680.5 457C1668.48 457 1656.59 454.633 1645.48 450.035C1634.38 445.437 1624.3 438.697 1615.8 430.2C1607.3 421.704 1600.56 411.617 1595.97 400.516C1591.37 389.414 1589 377.516 1589 365.5C1589 353.484 1591.37 341.586 1595.97 330.484C1600.56 319.383 1607.3 309.296 1615.8 300.8C1624.3 292.303 1634.38 285.563 1645.48 280.965C1656.59 276.367 1668.48 274 1680.5 274L1680.5 365.5L1680.5 457Z" stroke="#3D3D3D" stroke-width="2" mask="url(#path-6-inside-4_376_7404)"/>
<mask id="path-7-inside-5_376_7404" fill="white">
<path d="M1679.5 457C1691.52 457 1703.41 454.633 1714.52 450.035C1725.62 445.437 1735.7 438.697 1744.2 430.2C1752.7 421.704 1759.44 411.617 1764.03 400.516C1768.63 389.414 1771 377.516 1771 365.5L1679.5 365.5L1679.5 457Z"/>
</mask>
<path d="M1679.5 457C1691.52 457 1703.41 454.633 1714.52 450.035C1725.62 445.437 1735.7 438.697 1744.2 430.2C1752.7 421.704 1759.44 411.617 1764.03 400.516C1768.63 389.414 1771 377.516 1771 365.5L1679.5 365.5L1679.5 457Z" stroke="#3D3D3D" stroke-width="2" mask="url(#path-7-inside-5_376_7404)"/>
<mask id="path-8-inside-6_376_7404" fill="white">
<path d="M1589 365.5C1589 353.484 1591.37 341.586 1595.97 330.484C1600.56 319.383 1607.3 309.296 1615.8 300.8C1624.3 292.303 1634.38 285.563 1645.48 280.965C1656.59 276.367 1668.48 274 1680.5 274L1680.5 365.5L1589 365.5Z"/>
</mask>
<path d="M1589 365.5C1589 353.484 1591.37 341.586 1595.97 330.484C1600.56 319.383 1607.3 309.296 1615.8 300.8C1624.3 292.303 1634.38 285.563 1645.48 280.965C1656.59 276.367 1668.48 274 1680.5 274L1680.5 365.5L1589 365.5Z" fill="#4A8FB8" stroke="#3D3D3D" stroke-width="2" mask="url(#path-8-inside-6_376_7404)"/>
<mask id="path-9-inside-7_376_7404" fill="white">
<path d="M1773 92.5C1773 104.516 1770.63 116.414 1766.03 127.516C1761.44 138.617 1754.7 148.704 1746.2 157.2C1737.7 165.697 1727.62 172.437 1716.52 177.035C1705.41 181.633 1693.52 184 1681.5 184C1669.48 184 1657.59 181.633 1646.48 177.035C1635.38 172.437 1625.3 165.697 1616.8 157.2C1608.3 148.704 1601.56 138.617 1596.97 127.516C1592.37 116.414 1590 104.516 1590 92.5L1681.5 92.5L1773 92.5Z"/>
</mask>
<path d="M1773 92.5C1773 104.516 1770.63 116.414 1766.03 127.516C1761.44 138.617 1754.7 148.704 1746.2 157.2C1737.7 165.697 1727.62 172.437 1716.52 177.035C1705.41 181.633 1693.52 184 1681.5 184C1669.48 184 1657.59 181.633 1646.48 177.035C1635.38 172.437 1625.3 165.697 1616.8 157.2C1608.3 148.704 1601.56 138.617 1596.97 127.516C1592.37 116.414 1590 104.516 1590 92.5L1681.5 92.5L1773 92.5Z" stroke="#3D3D3D" stroke-width="2" mask="url(#path-9-inside-7_376_7404)"/>
<mask id="path-10-inside-8_376_7404" fill="white">
<path d="M1955.5 92C1943.35 92 1931.32 94.3926 1920.1 99.0411C1908.88 103.69 1898.68 110.503 1890.09 119.093C1881.5 127.682 1874.69 137.879 1870.04 149.102C1865.39 160.324 1863 172.353 1863 184.5C1863 196.647 1865.39 208.676 1870.04 219.898C1874.69 231.121 1881.5 241.318 1890.09 249.907C1898.68 258.497 1908.88 265.31 1920.1 269.959C1931.32 274.607 1943.35 277 1955.5 277L1955.5 184.5L1955.5 92Z"/>
</mask>
<path d="M1955.5 92C1943.35 92 1931.32 94.3926 1920.1 99.0411C1908.88 103.69 1898.68 110.503 1890.09 119.093C1881.5 127.682 1874.69 137.879 1870.04 149.102C1865.39 160.324 1863 172.353 1863 184.5C1863 196.647 1865.39 208.676 1870.04 219.898C1874.69 231.121 1881.5 241.318 1890.09 249.907C1898.68 258.497 1908.88 265.31 1920.1 269.959C1931.32 274.607 1943.35 277 1955.5 277L1955.5 184.5L1955.5 92Z" stroke="#3D3D3D" stroke-width="2" mask="url(#path-10-inside-8_376_7404)"/>
<mask id="path-11-inside-9_376_7404" fill="white">
<path d="M1955.5 102.165C1950.67 148.709 1911.32 185 1863.5 185C1863.33 185 1863.17 184.997 1863 184.996C1863 184.831 1863 184.665 1863 184.5C1863 172.353 1865.39 160.324 1870.04 149.102C1874.69 137.879 1881.5 127.682 1890.09 119.093C1898.68 110.503 1908.88 103.69 1920.1 99.041C1931.32 94.3925 1943.35 92 1955.5 92V102.165Z"/>
</mask>
<path d="M1955.5 102.165C1950.67 148.709 1911.32 185 1863.5 185C1863.33 185 1863.17 184.997 1863 184.996C1863 184.831 1863 184.665 1863 184.5C1863 172.353 1865.39 160.324 1870.04 149.102C1874.69 137.879 1881.5 127.682 1890.09 119.093C1898.68 110.503 1908.88 103.69 1920.1 99.041C1931.32 94.3925 1943.35 92 1955.5 92V102.165Z" fill="#F97F7F"/>
<path d="M1955.5 102.165L1956.49 102.268L1956.5 102.217V102.165H1955.5ZM1863 184.996L1862 185.001L1862.01 185.991L1863 185.996L1863 184.996ZM1863 184.5H1862V184.5H1863ZM1870.04 149.102L1869.12 148.719L1869.12 148.719L1870.04 149.102ZM1890.09 119.093L1889.39 118.386V118.386L1890.09 119.093ZM1920.1 99.041L1919.72 98.1171L1919.72 98.1171L1920.1 99.041ZM1955.5 92H1956.5V91H1955.5V92ZM1955.5 102.165L1954.51 102.062C1949.73 148.102 1910.8 184 1863.5 184V185V186C1911.84 186 1951.61 149.317 1956.49 102.268L1955.5 102.165ZM1863.5 185V184C1863.33 184 1863.2 183.997 1863.01 183.996L1863 184.996L1863 185.996C1863.14 185.997 1863.34 186 1863.5 186V185ZM1863 184.996L1864 184.991C1864 184.815 1864 184.663 1864 184.5H1863H1862C1862 184.668 1862 184.847 1862 185.001L1863 184.996ZM1863 184.5H1864C1864 172.484 1866.37 160.586 1870.96 149.484L1870.04 149.102L1869.12 148.719C1864.42 160.063 1862 172.221 1862 184.5H1863ZM1870.04 149.102L1870.96 149.484C1875.56 138.383 1882.3 128.296 1890.8 119.8L1890.09 119.093L1889.39 118.386C1880.7 127.068 1873.82 137.375 1869.12 148.719L1870.04 149.102ZM1890.09 119.093L1890.8 119.8C1899.3 111.303 1909.38 104.563 1920.48 99.9649L1920.1 99.041L1919.72 98.1171C1908.37 102.816 1898.07 109.703 1889.39 118.386L1890.09 119.093ZM1920.1 99.041L1920.48 99.9649C1931.59 95.3666 1943.48 93 1955.5 93V92V91C1943.22 91 1931.06 93.4183 1919.72 98.1171L1920.1 99.041ZM1955.5 92H1954.5V102.165H1955.5H1956.5V92H1955.5Z" fill="#3D3D3D" mask="url(#path-11-inside-9_376_7404)"/>
<mask id="path-13-inside-10_376_7404" fill="white">
<path d="M1680.5 467.165C1675.67 513.709 1636.32 550 1588.5 550C1588.33 550 1588.17 549.997 1588 549.996C1588 549.831 1588 549.665 1588 549.5C1588 537.353 1590.39 525.324 1595.04 514.102C1599.69 502.879 1606.5 492.682 1615.09 484.093C1623.68 475.503 1633.88 468.69 1645.1 464.041C1656.32 459.392 1668.35 457 1680.5 457V467.165Z"/>
</mask>
<path d="M1680.5 467.165C1675.67 513.709 1636.32 550 1588.5 550C1588.33 550 1588.17 549.997 1588 549.996C1588 549.831 1588 549.665 1588 549.5C1588 537.353 1590.39 525.324 1595.04 514.102C1599.69 502.879 1606.5 492.682 1615.09 484.093C1623.68 475.503 1633.88 468.69 1645.1 464.041C1656.32 459.392 1668.35 457 1680.5 457V467.165Z" fill="#F97F7F"/>
<path d="M1680.5 467.165L1681.49 467.268L1681.5 467.217V467.165H1680.5ZM1588 549.996L1587 550.001L1587.01 550.991L1588 550.996L1588 549.996ZM1588 549.5H1587V549.5H1588ZM1595.04 514.102L1594.12 513.719L1594.12 513.719L1595.04 514.102ZM1615.09 484.093L1614.39 483.386V483.386L1615.09 484.093ZM1645.1 464.041L1644.72 463.117L1644.72 463.117L1645.1 464.041ZM1680.5 457H1681.5V456H1680.5V457ZM1680.5 467.165L1679.51 467.062C1674.73 513.102 1635.8 549 1588.5 549V550V551C1636.84 551 1676.61 514.317 1681.49 467.268L1680.5 467.165ZM1588.5 550V549C1588.33 549 1588.2 548.997 1588.01 548.996L1588 549.996L1588 550.996C1588.14 550.997 1588.34 551 1588.5 551V550ZM1588 549.996L1589 549.991C1589 549.815 1589 549.663 1589 549.5H1588H1587C1587 549.668 1587 549.847 1587 550.001L1588 549.996ZM1588 549.5H1589C1589 537.484 1591.37 525.586 1595.96 514.484L1595.04 514.102L1594.12 513.719C1589.42 525.063 1587 537.221 1587 549.5H1588ZM1595.04 514.102L1595.96 514.484C1600.56 503.383 1607.3 493.296 1615.8 484.8L1615.09 484.093L1614.39 483.386C1605.7 492.068 1598.82 502.375 1594.12 513.719L1595.04 514.102ZM1615.09 484.093L1615.8 484.8C1624.3 476.303 1634.38 469.563 1645.48 464.965L1645.1 464.041L1644.72 463.117C1633.37 467.816 1623.07 474.703 1614.39 483.386L1615.09 484.093ZM1645.1 464.041L1645.48 464.965C1656.59 460.367 1668.48 458 1680.5 458V457V456C1668.22 456 1656.06 458.418 1644.72 463.117L1645.1 464.041ZM1680.5 457H1679.5V467.165H1680.5H1681.5V457H1680.5Z" fill="#3D3D3D" mask="url(#path-13-inside-10_376_7404)"/>
<circle cx="1773" cy="46" r="45.5" fill="#5BA3D1" stroke="#3D3D3D"/>
<path d="M1809.2 17.6104C1815.34 25.4292 1819 35.2865 1819 46C1819 71.4051 1798.41 92 1773 92C1772.33 92 1771.67 91.9824 1771 91.9541C1771.18 61.3818 1786.19 34.3237 1809.2 17.6104Z" fill="#3A7394"/>
<circle cx="1636" cy="92" r="45.5" stroke="#3D3D3D"/>
<mask id="path-18-inside-11_376_7404" fill="white">
<path d="M1682 93C1682 86.9592 1680.81 80.9775 1678.5 75.3966C1676.19 69.8156 1672.8 64.7446 1668.53 60.4731C1664.26 56.2016 1659.18 52.8133 1653.6 50.5015C1648.02 48.1898 1642.04 47 1636 47C1629.96 47 1623.98 48.1898 1618.4 50.5015C1612.82 52.8133 1607.74 56.2016 1603.47 60.4731C1599.2 64.7446 1595.81 69.8156 1593.5 75.3966C1591.19 80.9775 1590 86.9592 1590 93L1636 93H1682Z"/>
</mask>
<path d="M1682 93C1682 86.9592 1680.81 80.9775 1678.5 75.3966C1676.19 69.8156 1672.8 64.7446 1668.53 60.4731C1664.26 56.2016 1659.18 52.8133 1653.6 50.5015C1648.02 48.1898 1642.04 47 1636 47C1629.96 47 1623.98 48.1898 1618.4 50.5015C1612.82 52.8133 1607.74 56.2016 1603.47 60.4731C1599.2 64.7446 1595.81 69.8156 1593.5 75.3966C1591.19 80.9775 1590 86.9592 1590 93L1636 93H1682Z" fill="#FF9967" stroke="#3D3D3D" stroke-width="2" mask="url(#path-18-inside-11_376_7404)"/>
<circle cx="1864" cy="321" r="45.5" stroke="#3D3D3D"/>
<mask id="path-20-inside-12_376_7404" fill="white">
<path d="M1864 367C1851.8 367 1840.1 362.154 1831.47 353.527C1822.85 344.9 1818 333.2 1818 321C1818 308.8 1822.85 297.1 1831.47 288.473C1840.1 279.846 1851.8 275 1864 275L1864 321L1864 367Z"/>
</mask>
<path d="M1864 367C1851.8 367 1840.1 362.154 1831.47 353.527C1822.85 344.9 1818 333.2 1818 321C1818 308.8 1822.85 297.1 1831.47 288.473C1840.1 279.846 1851.8 275 1864 275L1864 321L1864 367Z" fill="#51B198" stroke="#3D3D3D" stroke-width="2" mask="url(#path-20-inside-12_376_7404)"/>
</g>
<g opacity="0.27">
<circle cx="275.5" cy="651.5" r="92" stroke="#3D3D3D"/>
<path d="M14.4033 696.5C18.3661 703.314 23.2018 709.602 28.7998 715.2C37.2964 723.697 47.3831 730.437 58.4844 735.035C69.5857 739.633 81.484 742 93.5 742V742.5H2C2 730.484 4.36654 718.586 8.96484 707.484C10.5335 703.697 12.3515 700.028 14.4033 696.5Z" fill="#B6D1FB"/>
<mask id="path-23-inside-13_376_7404" fill="white">
<path d="M92.5 834C80.484 834 68.5857 831.633 57.4845 827.035C46.3832 822.437 36.2963 815.697 27.7997 807.2C19.3032 798.704 12.5633 788.617 7.96502 777.516C3.36671 766.414 0.999995 754.516 0.999996 742.5C0.999997 730.484 3.36672 718.586 7.96502 707.484C12.5633 696.383 19.3032 686.296 27.7997 677.8C36.2963 669.303 46.3832 662.563 57.4845 657.965C68.5858 653.367 80.4841 651 92.5 651L92.5 742.5L92.5 834Z"/>
</mask>
<path d="M92.5 834C80.484 834 68.5857 831.633 57.4845 827.035C46.3832 822.437 36.2963 815.697 27.7997 807.2C19.3032 798.704 12.5633 788.617 7.96502 777.516C3.36671 766.414 0.999995 754.516 0.999996 742.5C0.999997 730.484 3.36672 718.586 7.96502 707.484C12.5633 696.383 19.3032 686.296 27.7997 677.8C36.2963 669.303 46.3832 662.563 57.4845 657.965C68.5858 653.367 80.4841 651 92.5 651L92.5 742.5L92.5 834Z" stroke="#3D3D3D" stroke-width="2" mask="url(#path-23-inside-13_376_7404)"/>
<mask id="path-24-inside-14_376_7404" fill="white">
<path d="M91.5 743C103.516 743 115.414 745.367 126.516 749.965C137.617 754.563 147.704 761.303 156.2 769.8C164.697 778.296 171.437 788.383 176.035 799.484C180.633 810.586 183 822.484 183 834.5C183 846.516 180.633 858.414 176.035 869.516C171.437 880.617 164.697 890.704 156.2 899.2C147.704 907.697 137.617 914.437 126.516 919.035C115.414 923.633 103.516 926 91.5 926L91.5 834.5L91.5 743Z"/>
</mask>
<path d="M91.5 743C103.516 743 115.414 745.367 126.516 749.965C137.617 754.563 147.704 761.303 156.2 769.8C164.697 778.296 171.437 788.383 176.035 799.484C180.633 810.586 183 822.484 183 834.5C183 846.516 180.633 858.414 176.035 869.516C171.437 880.617 164.697 890.704 156.2 899.2C147.704 907.697 137.617 914.437 126.516 919.035C115.414 923.633 103.516 926 91.5 926L91.5 834.5L91.5 743Z" stroke="#3D3D3D" stroke-width="2" mask="url(#path-24-inside-14_376_7404)"/>
<mask id="path-25-inside-15_376_7404" fill="white">
<path d="M275.5 743C263.484 743 251.586 745.367 240.484 749.965C229.383 754.563 219.296 761.303 210.8 769.8C202.303 778.296 195.563 788.383 190.965 799.484C186.367 810.586 184 822.484 184 834.5C184 846.516 186.367 858.414 190.965 869.516C195.563 880.617 202.303 890.704 210.8 899.2C219.296 907.697 229.383 914.437 240.484 919.035C251.586 923.633 263.484 926 275.5 926L275.5 834.5L275.5 743Z"/>
</mask>
<path d="M275.5 743C263.484 743 251.586 745.367 240.484 749.965C229.383 754.563 219.296 761.303 210.8 769.8C202.303 778.296 195.563 788.383 190.965 799.484C186.367 810.586 184 822.484 184 834.5C184 846.516 186.367 858.414 190.965 869.516C195.563 880.617 202.303 890.704 210.8 899.2C219.296 907.697 229.383 914.437 240.484 919.035C251.586 923.633 263.484 926 275.5 926L275.5 834.5L275.5 743Z" stroke="#3D3D3D" stroke-width="2" mask="url(#path-25-inside-15_376_7404)"/>
<mask id="path-26-inside-16_376_7404" fill="white">
<path d="M92.5 1016C80.484 1016 68.5857 1013.63 57.4845 1009.03C46.3832 1004.44 36.2963 997.697 27.7997 989.2C19.3032 980.704 12.5633 970.617 7.96502 959.516C3.36671 948.414 0.999995 936.516 0.999996 924.5C0.999997 912.484 3.36672 900.586 7.96502 889.484C12.5633 878.383 19.3032 868.296 27.7997 859.8C36.2963 851.303 46.3832 844.563 57.4845 839.965C68.5858 835.367 80.4841 833 92.5 833L92.5 924.5L92.5 1016Z"/>
</mask>
<path d="M92.5 1016C80.484 1016 68.5857 1013.63 57.4845 1009.03C46.3832 1004.44 36.2963 997.697 27.7997 989.2C19.3032 980.704 12.5633 970.617 7.96502 959.516C3.36671 948.414 0.999995 936.516 0.999996 924.5C0.999997 912.484 3.36672 900.586 7.96502 889.484C12.5633 878.383 19.3032 868.296 27.7997 859.8C36.2963 851.303 46.3832 844.563 57.4845 839.965C68.5858 835.367 80.4841 833 92.5 833L92.5 924.5L92.5 1016Z" stroke="#3D3D3D" stroke-width="2" mask="url(#path-26-inside-16_376_7404)"/>
<mask id="path-27-inside-17_376_7404" fill="white">
<path d="M91.5 1016C103.516 1016 115.414 1013.63 126.516 1009.03C137.617 1004.44 147.704 997.697 156.2 989.2C164.697 980.704 171.437 970.617 176.035 959.516C180.633 948.414 183 936.516 183 924.5L91.5 924.5L91.5 1016Z"/>
</mask>
<path d="M91.5 1016C103.516 1016 115.414 1013.63 126.516 1009.03C137.617 1004.44 147.704 997.697 156.2 989.2C164.697 980.704 171.437 970.617 176.035 959.516C180.633 948.414 183 936.516 183 924.5L91.5 924.5L91.5 1016Z" stroke="#3D3D3D" stroke-width="2" mask="url(#path-27-inside-17_376_7404)"/>
<mask id="path-28-inside-18_376_7404" fill="white">
<path d="M0.999996 924.5C0.999997 912.484 3.36672 900.586 7.96502 889.484C12.5633 878.383 19.3032 868.296 27.7997 859.8C36.2963 851.303 46.3832 844.563 57.4845 839.965C68.5858 835.367 80.4841 833 92.5 833L92.5 924.5L0.999996 924.5Z"/>
</mask>
<path d="M0.999996 924.5C0.999997 912.484 3.36672 900.586 7.96502 889.484C12.5633 878.383 19.3032 868.296 27.7997 859.8C36.2963 851.303 46.3832 844.563 57.4845 839.965C68.5858 835.367 80.4841 833 92.5 833L92.5 924.5L0.999996 924.5Z" fill="#4A8FB8" stroke="#3D3D3D" stroke-width="2" mask="url(#path-28-inside-18_376_7404)"/>
<mask id="path-29-inside-19_376_7404" fill="white">
<path d="M185 651.5C185 663.516 182.633 675.414 178.035 686.516C173.437 697.617 166.697 707.704 158.2 716.2C149.704 724.697 139.617 731.437 128.516 736.035C117.414 740.633 105.516 743 93.5 743C81.484 743 69.5858 740.633 58.4845 736.035C47.3832 731.437 37.2963 724.697 28.7997 716.2C20.3032 707.704 13.5633 697.617 8.96502 686.516C4.36672 675.414 2 663.516 2 651.5L93.5 651.5H185Z"/>
</mask>
<path d="M185 651.5C185 663.516 182.633 675.414 178.035 686.516C173.437 697.617 166.697 707.704 158.2 716.2C149.704 724.697 139.617 731.437 128.516 736.035C117.414 740.633 105.516 743 93.5 743C81.484 743 69.5858 740.633 58.4845 736.035C47.3832 731.437 37.2963 724.697 28.7997 716.2C20.3032 707.704 13.5633 697.617 8.96502 686.516C4.36672 675.414 2 663.516 2 651.5L93.5 651.5H185Z" stroke="#3D3D3D" stroke-width="2" mask="url(#path-29-inside-19_376_7404)"/>
<mask id="path-30-inside-20_376_7404" fill="white">
<path d="M367.5 651C355.353 651 343.324 653.393 332.102 658.041C320.879 662.69 310.682 669.503 302.093 678.093C293.503 686.682 286.69 696.879 282.041 708.102C277.393 719.324 275 731.353 275 743.5C275 755.647 277.393 767.676 282.041 778.898C286.69 790.121 293.503 800.318 302.093 808.907C310.682 817.497 320.879 824.31 332.102 828.959C343.324 833.607 355.353 836 367.5 836L367.5 743.5L367.5 651Z"/>
</mask>
<path d="M367.5 651C355.353 651 343.324 653.393 332.102 658.041C320.879 662.69 310.682 669.503 302.093 678.093C293.503 686.682 286.69 696.879 282.041 708.102C277.393 719.324 275 731.353 275 743.5C275 755.647 277.393 767.676 282.041 778.898C286.69 790.121 293.503 800.318 302.093 808.907C310.682 817.497 320.879 824.31 332.102 828.959C343.324 833.607 355.353 836 367.5 836L367.5 743.5L367.5 651Z" stroke="#3D3D3D" stroke-width="2" mask="url(#path-30-inside-20_376_7404)"/>
<mask id="path-31-inside-21_376_7404" fill="white">
<path d="M367.5 661.165C362.667 707.709 323.322 744 275.5 744C275.334 744 275.169 743.997 275.003 743.996C275.002 743.831 275 743.665 275 743.5C275 731.353 277.392 719.324 282.041 708.102C286.69 696.879 293.503 686.682 302.093 678.093C310.682 669.503 320.879 662.69 332.102 658.041C343.324 653.392 355.353 651 367.5 651V661.165Z"/>
</mask>
<path d="M367.5 661.165C362.667 707.709 323.322 744 275.5 744C275.334 744 275.169 743.997 275.003 743.996C275.002 743.831 275 743.665 275 743.5C275 731.353 277.392 719.324 282.041 708.102C286.69 696.879 293.503 686.682 302.093 678.093C310.682 669.503 320.879 662.69 332.102 658.041C343.324 653.392 355.353 651 367.5 651V661.165Z" fill="#F97F7F"/>
<path d="M367.5 661.165L368.495 661.268L368.5 661.217V661.165H367.5ZM275.003 743.996L274.003 744.001L274.008 744.991L274.998 744.996L275.003 743.996ZM275 743.5H274V743.5H275ZM282.041 708.102L281.117 707.719L281.117 707.719L282.041 708.102ZM302.093 678.093L301.386 677.386V677.386L302.093 678.093ZM332.102 658.041L331.719 657.117L331.719 657.117L332.102 658.041ZM367.5 651H368.5V650H367.5V651ZM367.5 661.165L366.505 661.062C361.725 707.102 322.805 743 275.5 743V744V745C323.84 745 363.61 708.317 368.495 661.268L367.5 661.165ZM275.5 744V743C275.331 743 275.198 742.997 275.008 742.996L275.003 743.996L274.998 744.996C275.139 744.997 275.338 745 275.5 745V744ZM275.003 743.996L276.003 743.991C276.002 743.815 276 743.663 276 743.5H275H274C274 743.668 274.002 743.847 274.003 744.001L275.003 743.996ZM275 743.5H276C276 731.484 278.367 719.586 282.965 708.484L282.041 708.102L281.117 707.719C276.418 719.063 274 731.221 274 743.5H275ZM282.041 708.102L282.965 708.484C287.563 697.383 294.303 687.296 302.8 678.8L302.093 678.093L301.386 677.386C292.703 686.068 285.816 696.375 281.117 707.719L282.041 708.102ZM302.093 678.093L302.8 678.8C311.296 670.303 321.383 663.563 332.484 658.965L332.102 658.041L331.719 657.117C320.375 661.816 310.068 668.703 301.386 677.386L302.093 678.093ZM332.102 658.041L332.484 658.965C343.586 654.367 355.484 652 367.5 652V651V650C355.221 650 343.063 652.418 331.719 657.117L332.102 658.041ZM367.5 651H366.5V661.165H367.5H368.5V651H367.5Z" fill="#3D3D3D" mask="url(#path-31-inside-21_376_7404)"/>
<circle cx="185" cy="605" r="45.5" fill="#5BA3D1" stroke="#3D3D3D"/>
<path d="M221.195 576.61C227.337 584.429 231 594.287 231 605C231 630.405 210.405 651 185 651C184.331 651 183.665 650.982 183.003 650.954C183.18 620.382 198.186 593.324 221.195 576.61Z" fill="#3A7394"/>
<circle cx="48" cy="651" r="45.5" stroke="#3D3D3D"/>
<mask id="path-36-inside-22_376_7404" fill="white">
<path d="M94 652C94 645.959 92.8102 639.978 90.4985 634.397C88.1867 628.816 84.7984 623.745 80.5269 619.473C76.2554 615.202 71.1844 611.813 65.6034 609.502C60.0225 607.19 54.0408 606 48 606C41.9592 606 35.9775 607.19 30.3966 609.502C24.8156 611.813 19.7446 615.202 15.4731 619.473C11.2016 623.745 7.81326 628.816 5.50154 634.397C3.18982 639.978 2 645.959 2 652L48 652H94Z"/>
</mask>
<path d="M94 652C94 645.959 92.8102 639.978 90.4985 634.397C88.1867 628.816 84.7984 623.745 80.5269 619.473C76.2554 615.202 71.1844 611.813 65.6034 609.502C60.0225 607.19 54.0408 606 48 606C41.9592 606 35.9775 607.19 30.3966 609.502C24.8156 611.813 19.7446 615.202 15.4731 619.473C11.2016 623.745 7.81326 628.816 5.50154 634.397C3.18982 639.978 2 645.959 2 652L48 652H94Z" fill="#FF9967" stroke="#3D3D3D" stroke-width="2" mask="url(#path-36-inside-22_376_7404)"/>
<circle cx="276" cy="880" r="45.5" stroke="#3D3D3D"/>
<mask id="path-38-inside-23_376_7404" fill="white">
<path d="M276 926C263.8 926 252.1 921.154 243.473 912.527C234.846 903.9 230 892.2 230 880C230 867.8 234.846 856.1 243.473 847.473C252.1 838.846 263.8 834 276 834L276 880L276 926Z"/>
</mask>
<path d="M276 926C263.8 926 252.1 921.154 243.473 912.527C234.846 903.9 230 892.2 230 880C230 867.8 234.846 856.1 243.473 847.473C252.1 838.846 263.8 834 276 834L276 880L276 926Z" fill="#51B198" stroke="#3D3D3D" stroke-width="2" mask="url(#path-38-inside-23_376_7404)"/>
</g>
</g>
<defs>
<clipPath id="clip0_376_7404">
<rect width="1920" height="957" fill="white"/>
</clipPath>
</defs>
</svg>
