<svg width="61" height="61" viewBox="0 0 61 61" fill="none" xmlns="http://www.w3.org/2000/svg">
<path d="M28.0599 21.4217C28.3418 21.7013 28.6761 21.9225 29.0437 22.0727C29.4113 22.2228 29.8049 22.2989 30.202 22.2966C30.9935 22.2933 31.752 21.9791 32.314 21.4217L37.775 15.9908C38.0563 15.7115 38.2799 15.3795 38.4329 15.0138C38.5859 14.648 38.6654 14.2558 38.6668 13.8593C38.6682 13.4629 38.5915 13.0701 38.4411 12.7033C38.2906 12.3365 38.0694 12.0029 37.7901 11.7216C37.5108 11.4403 37.1788 11.2167 36.8131 11.0637C36.4473 10.9107 36.0551 10.8312 35.6586 10.8298C34.858 10.827 34.089 11.1424 33.5209 11.7065L33.189 12.0685V3.01714C33.189 2.21694 32.8711 1.44952 32.3053 0.883699C31.7395 0.317876 30.972 0 30.1718 0C29.3717 0 28.6042 0.317876 28.0384 0.883699C27.4726 1.44952 27.1547 2.21694 27.1547 3.01714V12.0685L26.8228 11.7367C26.5423 11.4539 26.2086 11.2294 25.841 11.0762C25.4733 10.9231 25.079 10.8442 24.6807 10.8442C24.2824 10.8442 23.888 10.9231 23.5203 11.0762C23.1527 11.2294 22.819 11.4539 22.5385 11.7367C21.9766 12.302 21.6611 13.0667 21.6611 13.8637C21.6611 14.6608 21.9766 15.4255 22.5385 15.9908L28.0599 21.4217Z" fill="white"/>
<path d="M21.4518 27.8784L16.021 22.4174C15.7417 22.1361 15.4097 21.9126 15.0439 21.7596C14.6782 21.6066 14.2859 21.5271 13.8895 21.5257C13.4931 21.5243 13.1002 21.601 12.7334 21.7514C12.3666 21.9018 12.0331 22.123 11.7517 22.4023C11.1836 22.9665 10.8628 23.7332 10.86 24.5338C10.8572 25.3345 11.1725 26.1034 11.7367 26.6716L12.0685 27.1543H3.01714C2.21694 27.1543 1.44952 27.4722 0.883699 28.038C0.317876 28.6038 0 29.3713 0 30.1715C0 30.9717 0.317876 31.7391 0.883699 32.3049C1.44952 32.8707 2.21694 33.1886 3.01714 33.1886H12.0685L11.7367 33.5205C11.1747 34.0858 10.8593 34.8505 10.8593 35.6476C10.8593 36.4446 11.1747 37.2093 11.7367 37.7746C12.0186 38.0543 12.3529 38.2755 12.7205 38.4257C13.0881 38.5758 13.4818 38.6519 13.8788 38.6496C14.6703 38.6463 15.4288 38.332 15.9908 37.7746L21.482 32.2533C21.7768 31.9694 22.0107 31.6285 22.1696 31.2513C22.3284 30.8742 22.4089 30.4686 22.406 30.0594C22.4032 29.6501 22.3172 29.2458 22.1531 28.8708C21.9891 28.4959 21.7505 28.1582 21.4518 27.8784Z" fill="white"/>
<path d="M32.1929 38.7407C31.6276 38.1787 30.8629 37.8633 30.0658 37.8633C29.2687 37.8633 28.504 38.1787 27.9387 38.7407L22.4777 44.1715C21.9096 44.7356 21.5888 45.5024 21.586 46.303C21.5831 47.1036 21.8985 47.8726 22.4626 48.4408C23.0267 49.0089 23.7935 49.3297 24.5941 49.3325C25.3947 49.3353 26.1637 49.02 26.7319 48.4558L27.1543 48.2748V57.3262C27.1543 58.1264 27.4721 58.8938 28.038 59.4597C28.6038 60.0255 29.3712 60.3434 30.1714 60.3434C30.9716 60.3434 31.739 60.0255 32.3048 59.4597C32.8706 58.8938 33.1885 58.1264 33.1885 57.3262V48.2748L33.5204 48.6067C33.8023 48.8863 34.1367 49.1076 34.5043 49.2577C34.8719 49.4078 35.2655 49.484 35.6626 49.4817C36.0618 49.48 36.4567 49.3991 36.8244 49.2438C37.1921 49.0884 37.5253 48.8616 37.8047 48.5765C38.3667 48.0112 38.6821 47.2465 38.6821 46.4494C38.6821 45.6524 38.3667 44.8877 37.8047 44.3224L32.1929 38.7407Z" fill="white"/>
<path d="M57.3259 27.1552H48.2745L48.6064 26.8234C49.1683 26.2581 49.4837 25.4934 49.4837 24.6963C49.4837 23.8992 49.1683 23.1345 48.6064 22.5692C48.3259 22.2864 47.9922 22.0619 47.6245 21.9088C47.2568 21.7556 46.8625 21.6767 46.4642 21.6767C46.0659 21.6767 45.6715 21.7556 45.3039 21.9088C44.9362 22.0619 44.6025 22.2864 44.322 22.5692L38.861 28.0906C38.2991 28.6559 37.9836 29.4205 37.9836 30.2176C37.9836 31.0147 38.2991 31.7794 38.861 32.3447L44.2617 37.8057C44.5436 38.0854 44.8779 38.3066 45.2455 38.4567C45.6131 38.6069 46.0068 38.683 46.4038 38.6807C46.8009 38.683 47.1945 38.6069 47.5621 38.4567C47.9297 38.3066 48.2641 38.0854 48.546 37.8057C49.108 37.2404 49.4234 36.4757 49.4234 35.6786C49.4234 34.8816 49.108 34.1169 48.546 33.5516L48.2745 33.1895H57.3259C58.1261 33.1895 58.8935 32.8716 59.4593 32.3058C60.0251 31.74 60.343 30.9726 60.343 30.1724C60.343 29.3722 60.0251 28.6048 59.4593 28.0389C58.8935 27.4731 58.1261 27.1552 57.3259 27.1552Z" fill="white"/>
<path d="M26.3699 30.1714C26.3699 30.9233 26.5928 31.6583 27.0106 32.2835C27.4283 32.9086 28.022 33.3959 28.7167 33.6836C29.4113 33.9714 30.1757 34.0466 30.9131 33.8999C31.6506 33.7533 32.3279 33.3912 32.8596 32.8595C33.3913 32.3279 33.7533 31.6505 33.9 30.9131C34.0467 30.1756 33.9714 29.4112 33.6837 28.7166C33.3959 28.0219 32.9087 27.4282 32.2835 27.0105C31.6583 26.5928 30.9233 26.3698 30.1715 26.3698C29.1632 26.3698 28.1963 26.7703 27.4833 27.4833C26.7704 28.1962 26.3699 29.1632 26.3699 30.1714Z" fill="white"/>
</svg>
