<svg width="34" height="34" viewBox="0 0 34 34" fill="none" xmlns="http://www.w3.org/2000/svg">
<path d="M33.5549 21.5488L32.5548 20.8848L18.6529 30.1144C18.1613 30.4406 17.5899 30.6131 17 30.6131C16.4102 30.6131 15.8388 30.4406 15.3474 30.1145L1.4453 20.8849L0.445154 21.5489C-0.148385 21.9429 -0.148385 22.8146 0.445154 23.2086L16.4491 33.8336C16.783 34.0552 17.2171 34.0552 17.5509 33.8336L33.5548 23.2086C34.1484 22.8145 34.1484 21.9429 33.5549 21.5488Z" fill="#EEF6FB"/>
<path d="M33.5548 16.1699L32.5548 15.5059L18.6528 24.7355C18.1614 25.0617 17.5899 25.2342 17 25.2342C16.4101 25.2342 15.8385 25.0617 15.3471 24.7355L1.44523 15.506L0.445154 16.1699C-0.148385 16.564 -0.148385 17.4356 0.445154 17.8296L16.4491 28.4546C16.783 28.6763 17.2171 28.6763 17.5509 28.4546L33.5548 17.8296C34.1483 17.4356 34.1483 16.564 33.5548 16.1699Z" fill="#EEF6FB"/>
<path d="M0.445185 12.4509L16.4491 23.0759C16.783 23.2976 17.2171 23.2976 17.551 23.0759L33.5549 12.4509C34.1484 12.0569 34.1484 11.1853 33.5549 10.7912L17.551 0.166248C17.2171 -0.055416 16.7829 -0.055416 16.4491 0.166248L0.445185 10.7912C-0.148354 11.1852 -0.148354 12.0569 0.445185 12.4509ZM22.13 15.1597C21.8257 15.6181 21.2076 15.7429 20.7492 15.4386L17 12.9495L13.2508 15.4386C12.7924 15.7429 12.1743 15.6181 11.87 15.1597C11.5657 14.7014 11.6906 14.0832 12.1489 13.7789L16.4491 10.9241C16.7829 10.7024 17.2171 10.7024 17.551 10.9241L21.8511 13.7789C22.3094 14.0832 22.4343 14.7014 22.13 15.1597ZM8.09797 11.0894L16.449 5.54515C16.7828 5.32349 17.2171 5.32349 17.5509 5.54515L25.902 11.0894C26.3603 11.3937 26.4851 12.0119 26.1809 12.4702C25.8766 12.9285 25.2584 13.0534 24.8001 12.7491L17 7.57061L9.19985 12.7491C8.74152 13.0534 8.12334 12.9285 7.81907 12.4702C7.51479 12.0119 7.6397 11.3937 8.09797 11.0894Z" fill="#EEF6FB"/>
</svg>
