<svg width="41" height="41" viewBox="0 0 41 41" fill="none" xmlns="http://www.w3.org/2000/svg">
<path d="M17.4735 0C7.84485 0 0 7.83439 0 17.463C-5.37323e-08 27.0916 7.84485 34.9234 17.4735 34.9234C21.8034 34.9234 25.7607 33.3289 28.8155 30.7098L30.3425 32.2367L29.3927 33.1865C29.1409 33.4384 28.9994 33.7801 28.9994 34.1363C28.9994 34.4925 29.1409 34.8341 29.3927 35.086L33.42 39.1159C34.3011 39.9976 35.4346 40.4256 36.487 40.3779C37.5395 40.3322 38.4784 39.8591 39.171 39.1684C39.8637 38.4777 40.3362 37.5421 40.3858 36.4897C40.4354 35.4372 40.0075 34.3017 39.1264 33.42L35.0939 29.3848C34.967 29.2579 34.8159 29.1577 34.6497 29.0901C34.4834 29.0225 34.3052 28.9889 34.1258 28.9913C33.7759 28.9962 33.4417 29.1374 33.1944 29.3848L32.242 30.3372L30.7176 28.8129C33.3403 25.7572 34.9365 21.7962 34.9365 17.463C34.9365 7.83439 27.1021 0 17.4735 0ZM17.4735 2.67612C25.6502 2.67612 32.2472 9.28633 32.2472 17.463C32.2472 25.6397 25.6502 32.2367 17.4735 32.2367C9.29681 32.2367 2.68661 25.6397 2.68661 17.463C2.68661 9.28633 9.29681 2.67612 17.4735 2.67612ZM20.1496 10.7386C19.9707 10.7346 19.7927 10.7663 19.6262 10.832C19.4597 10.8977 19.308 10.9961 19.1801 11.1212C19.0521 11.2463 18.9504 11.3958 18.881 11.5607C18.8116 11.7257 18.7758 11.9029 18.7758 12.0819C18.7758 12.2609 18.8116 12.4381 18.881 12.603C18.9504 12.768 19.0521 12.9175 19.1801 13.0426C19.308 13.1677 19.4597 13.266 19.6262 13.3317C19.7927 13.3974 19.9707 13.4292 20.1496 13.4252H22.2931L17.463 18.2553L15.7288 16.5106C15.2048 15.9899 14.3584 15.9899 13.8345 16.5106L8.45864 21.8838C7.11256 23.1526 9.10167 25.1308 10.3634 23.7781L14.7869 19.3546L16.5211 21.0915C17.0451 21.6122 17.8914 21.6122 18.4154 21.0915L24.1874 15.3273V17.463C24.1834 17.6419 24.2152 17.8198 24.281 17.9863C24.3467 18.1527 24.445 18.3043 24.5701 18.4323C24.6953 18.5602 24.8447 18.6619 25.0096 18.7313C25.1746 18.8007 25.3517 18.8364 25.5307 18.8364C25.7097 18.8364 25.8868 18.8007 26.0518 18.7313C26.2167 18.6619 26.3661 18.5602 26.4913 18.4323C26.6164 18.3043 26.7147 18.1527 26.7804 17.9863C26.8462 17.8198 26.878 17.6419 26.874 17.463V12.0871C26.8747 11.9099 26.8403 11.7342 26.7727 11.5703C26.7052 11.4064 26.6059 11.2574 26.4805 11.1321C26.3552 11.0067 26.2062 10.9074 26.0423 10.8399C25.8784 10.7723 25.7027 10.7379 25.5255 10.7386H20.1496ZM34.1441 32.2341L37.2269 35.3195C37.6451 35.7379 37.7164 36.0517 37.7018 36.3611C37.6872 36.6703 37.5332 37.0079 37.2741 37.2663C37.0151 37.5247 36.6773 37.6802 36.3664 37.6939C36.0554 37.7092 35.7377 37.6348 35.3195 37.2164L32.242 34.1363L34.1441 32.2341Z" fill="#5BA3D1"/>
</svg>
