<svg width="32" height="32" viewBox="0 0 32 32" fill="none" xmlns="http://www.w3.org/2000/svg">
<path d="M30.3587 15.9782V3.99455C30.3587 2.67088 29.2857 1.59782 27.9619 1.59782H3.99463C2.67096 1.59782 1.5979 2.67088 1.5979 3.99455V27.9618C1.5979 29.2856 2.67096 30.3586 3.99463 30.3586H15.9783" stroke="#5BA3D1" stroke-width="3.19564" stroke-linecap="round" stroke-linejoin="round"/>
<path d="M22.3691 27.1629C25.0166 27.1629 27.1626 25.0169 27.1626 22.3695C27.1626 19.722 25.0166 17.576 22.3691 17.576C19.7217 17.576 17.5757 19.722 17.5757 22.3695C17.5757 25.0169 19.7217 27.1629 22.3691 27.1629Z" stroke="#5BA3D1" stroke-width="3.19564"/>
<path d="M26.3645 25.5655L30.3591 28.7611" stroke="#5BA3D1" stroke-width="3.19564" stroke-linecap="round" stroke-linejoin="round"/>
<path d="M7.98877 9.58624H23.967" stroke="#5BA3D1" stroke-width="3.19564" stroke-linecap="round" stroke-linejoin="round"/>
<path d="M7.98901 15.9787H14.3803" stroke="#5BA3D1" stroke-width="3.19564" stroke-linecap="round" stroke-linejoin="round"/>
</svg>
