<svg width="43" height="43" viewBox="0 0 43 43" fill="none" xmlns="http://www.w3.org/2000/svg">
<path d="M4.29792 29.1951C3.09044 26.6718 2.47824 23.9642 2.47824 21.1476C2.47824 10.8533 10.8533 2.47824 21.1476 2.47824C25.2379 2.47824 29.1274 3.78468 32.3395 6.2003L29.2478 6.60731C28.5693 6.6966 28.0917 7.31906 28.181 7.99751C28.2703 8.67605 28.8928 9.15361 29.5712 9.06431L35.3867 8.2987C36.0652 8.2094 36.5428 7.58695 36.4535 6.90849L35.6878 1.09307C35.5985 0.414609 34.9761 -0.0630298 34.2976 0.0262693H34.2975C33.6191 0.115568 33.1414 0.738018 33.2307 1.41648L33.5751 4.0325C29.9859 1.41408 25.6756 0 21.1476 0C15.4989 0 10.1883 2.19968 6.19394 6.19394C2.19976 10.1883 0 15.4989 0 21.1476C0 24.3374 0.693906 27.4049 2.06255 30.2649C2.35796 30.8822 3.09779 31.1432 3.71512 30.8478C4.33237 30.5523 4.59333 29.8124 4.29792 29.1951Z" fill="#5BA3D1"/>
<path d="M40.2336 12.0305C39.9382 11.4131 39.1983 11.1522 38.581 11.4476C37.9638 11.743 37.7028 12.4828 37.9981 13.1001C39.2057 15.6236 39.8179 18.3311 39.8179 21.1477C39.8179 31.4421 31.4429 39.8171 21.1485 39.8171C17.0587 39.8171 13.1701 38.5101 9.95838 36.0948L13.0482 35.688C13.7267 35.5987 14.2043 34.9763 14.115 34.2978C14.0257 33.6193 13.4033 33.1417 12.7248 33.231L6.90932 33.9966C6.23086 34.0859 5.75322 34.7084 5.84252 35.3868L6.60821 41.2023C6.69751 41.8807 7.31996 42.3583 7.99842 42.269C8.67688 42.1797 9.1546 41.5573 9.0653 40.8788L8.72083 38.2624C12.3102 40.881 16.6204 42.2953 21.1485 42.2953C26.7972 42.2953 32.1078 40.0956 36.1022 36.1014C40.0964 32.107 42.2961 26.7964 42.2961 21.1477C42.2961 17.9579 41.6022 14.8904 40.2336 12.0305Z" fill="#5BA3D1"/>
<path d="M32.6481 19.2775L33.229 18.942C33.8217 18.5998 34.0247 17.842 33.6826 17.2494L30.7913 12.2415C30.4491 11.6489 29.6913 11.4457 29.0986 11.788L28.4796 12.1454C27.8041 12.5354 26.996 12.5311 26.3234 12.1325C25.6655 11.7424 25.2785 11.0181 25.2785 10.2532V9.58244C25.2785 8.89812 24.7237 8.34332 24.0394 8.34332H18.2569C17.5725 8.34332 17.0177 8.89812 17.0177 9.58244V10.2535C17.0177 11.0182 16.6308 11.7425 15.9729 12.1324C15.3003 12.531 14.4923 12.5353 13.8167 12.1453L13.1976 11.7879C12.605 11.4457 11.8472 11.6488 11.505 12.2414L8.61372 17.2493C8.27156 17.8419 8.47461 18.5997 9.06724 18.9419L9.64822 19.2774C10.3107 19.6599 10.7444 20.3571 10.7531 21.1218C10.762 21.9036 10.3617 22.6056 9.68622 22.9956L9.06724 23.3529C8.47461 23.6951 8.27156 24.4529 8.61372 25.0456L11.505 30.0534C11.8472 30.646 12.605 30.8492 13.1976 30.5069L13.8167 30.1495C14.4922 29.7595 15.3002 29.7638 15.9728 30.1624C16.6308 30.5527 17.0177 31.277 17.0177 32.0419V32.7126C17.0177 33.397 17.5725 33.9518 18.2569 33.9518H24.0394C24.7237 33.9518 25.2785 33.397 25.2785 32.7126V32.0416C25.2785 31.2768 25.6655 30.5526 26.3234 30.1627C26.996 29.764 27.804 29.7597 28.4796 30.1497L29.0986 30.5072C29.6913 30.8493 30.4491 30.6463 30.7913 30.0537L33.6826 25.0458C34.0247 24.4532 33.8217 23.6953 33.229 23.3532L32.6101 22.9958C31.9346 22.6058 31.5343 21.9039 31.5432 21.1221C31.5519 20.3571 31.9856 19.6599 32.6481 19.2775ZM30.9312 24.8547L29.2502 27.7662C27.912 27.1791 26.3972 27.2582 25.1064 28.0035C23.8155 28.7487 22.9898 30.0209 22.8291 31.4735H19.4672C19.3066 30.0209 18.4808 28.7488 17.19 28.0035C15.899 27.2582 14.3844 27.1791 13.0461 27.7662L11.3651 24.8547C12.5426 23.9892 13.2316 22.6379 13.2316 21.1475C13.2316 19.6571 12.5426 18.3057 11.3651 17.4403L13.0461 14.5288C14.3844 15.116 15.8992 15.0369 17.19 14.2916C18.4808 13.5464 19.3066 12.2742 19.4672 10.8216H22.8291C22.9898 12.2741 23.8155 13.5463 25.1064 14.2916C26.3974 15.0369 27.912 15.1159 29.2502 14.5288L30.9312 17.4403C29.7537 18.3058 29.0648 19.6571 29.0648 21.1475C29.0648 22.6379 29.7537 23.9893 30.9312 24.8547Z" fill="#5BA3D1"/>
<path d="M21.1483 15.7794C18.1876 15.7794 15.7788 18.1881 15.7788 21.1489C15.7788 24.1096 18.1876 26.5184 21.1483 26.5184C24.1091 26.5184 26.5178 24.1096 26.5178 21.1489C26.5178 18.1881 24.1091 15.7794 21.1483 15.7794ZM21.1483 24.0401C19.5541 24.0401 18.257 22.7431 18.257 21.1489C18.257 19.5546 19.5541 18.2576 21.1483 18.2576C22.7426 18.2576 24.0396 19.5546 24.0396 21.1489C24.0396 22.7431 22.7426 24.0401 21.1483 24.0401Z" fill="#5BA3D1"/>
</svg>
