<svg width="36" height="36" viewBox="0 0 36 36" fill="none" xmlns="http://www.w3.org/2000/svg">
<path d="M34.5669 21.7155H29.8756V17.765C29.8756 17.2219 29.4312 16.7774 28.888 16.7774H20.4438C20.1475 15.9873 19.555 15.3947 18.7649 15.0985V13.6664H24.7894C26.814 13.6664 28.4436 12.0368 28.4436 10.0122C28.4436 8.38261 27.4066 7.04932 25.9251 6.55551C25.8758 3.39511 23.5548 0.679138 20.3944 0.0865628C19.9994 0.0371815 15.1107 -0.851681 12.8885 4.38273C12.5428 4.28397 12.1972 4.28397 11.8515 4.28397C9.23429 4.28397 7.16028 6.40736 7.16028 8.97519C7.16028 11.5924 9.28367 13.6664 11.8515 13.6664H16.7896V15.0985C15.9995 15.3947 15.4069 15.9873 15.1107 16.7774H6.66647C6.12327 16.7774 5.67884 17.2219 5.67884 17.765V21.7155H0.987625C0.444431 21.7155 0 22.16 0 22.7032V30.9992C0 31.5424 0.444431 31.9868 0.987625 31.9868H3.99988L3.11102 34.209C3.01226 34.5053 3.01226 34.851 3.20978 35.1472C3.40731 35.4435 3.70359 35.5917 4.04926 35.5917H9.33305C9.67872 35.5917 9.97501 35.4435 10.1725 35.1472C10.3701 34.9003 10.3701 34.5547 10.2713 34.209L9.38243 31.9868H12.3947C12.9379 31.9868 13.3823 31.5424 13.3823 30.9992V22.7032C13.3823 22.16 12.9379 21.7155 12.3947 21.7155H7.65409V18.7527H15.1107C15.5057 19.8391 16.5427 20.6292 17.7772 20.6292C19.0118 20.6292 20.0488 19.8391 20.4438 18.7527H27.9004V21.7155H23.2092C22.666 21.7155 22.2216 22.16 22.2216 22.7032V30.9992C22.2216 31.5424 22.666 31.9868 23.2092 31.9868H26.2214L25.3326 34.209C25.2338 34.5053 25.2338 34.851 25.4313 35.1472C25.6289 35.3941 25.9251 35.5917 26.2708 35.5917H31.5546C31.9003 35.5917 32.1966 35.4435 32.3941 35.1472C32.5916 34.9003 32.5916 34.5547 32.4929 34.209L31.604 31.9868H34.6162C35.1594 31.9868 35.6039 31.5424 35.6039 30.9992V22.7032C35.5545 22.16 35.1101 21.7155 34.5669 21.7155ZM5.48132 33.567L6.12327 31.9868H7.20966L7.85162 33.567H5.48132ZM11.3083 23.6908V30.0116H1.97525V23.6908H11.3083ZM11.8515 11.6912C10.3207 11.6912 9.13553 10.4566 9.13553 8.97519C9.13553 7.44437 10.3701 6.25922 11.8515 6.25922C12.2959 6.25922 12.7404 6.35798 13.1354 6.55551C13.4317 6.70365 13.728 6.70365 14.0243 6.55551C14.3206 6.40736 14.4687 6.16046 14.5675 5.86417C15.7032 1.41986 19.8019 2.01243 20.0982 2.06181C22.5672 2.50624 24.2462 4.82716 23.9499 7.29622C23.9005 7.59251 23.9993 7.83942 24.1968 8.03694C24.3943 8.23447 24.6412 8.38261 24.8881 8.38261C25.777 8.43199 26.4683 9.17271 26.4683 10.0616C26.4683 10.9998 25.7276 11.7405 24.7894 11.7405H11.8515V11.6912ZM17.7772 18.6539C17.2834 18.6539 16.8884 18.2589 16.8884 17.765C16.8884 17.2712 17.2834 16.8762 17.7772 16.8762C18.2711 16.8762 18.6661 17.2712 18.6661 17.765C18.6661 18.2589 18.2711 18.6539 17.7772 18.6539ZM27.7523 33.567L28.3942 31.9868H29.4806L30.1226 33.567H27.7523ZM33.5792 30.0116H24.2462V23.6908H33.5792V30.0116Z" fill="#5BA3D1"/>
</svg>
