<svg width="39" height="39" viewBox="0 0 39 39" fill="none" xmlns="http://www.w3.org/2000/svg">
<path d="M38.5558 30.8784L36.1248 28.4474C35.6498 27.9724 34.8802 27.9724 34.4052 28.4474C33.9302 28.9224 33.9302 29.6919 34.4052 30.1669L34.7615 30.5232H31.6169C30.2756 30.5232 29.1848 29.4318 29.1848 28.0911V25.6555L32.1127 25.6567C36.8465 25.3829 40.1117 20.7027 38.488 15.9355C37.6626 13.5106 35.4645 11.759 32.8804 11.335C34.913 5.8868 30.8613 0 25.0017 0C22.1873 0 19.5818 1.41316 18.0303 3.69323C16.9057 3.06265 15.6291 2.7242 14.3246 2.7242C10.1136 2.7242 6.68819 6.15024 6.68819 10.3612C6.68819 10.4705 6.69056 10.5785 6.69472 10.6854C2.9344 11.1011 0 14.2932 0 18.1562C0 22.0394 2.90174 25.2565 6.74994 25.64C6.85362 25.6493 6.28418 25.643 9.72827 25.6472V28.0911C9.72827 29.4318 8.63752 30.5232 7.29621 30.5232H4.15162L4.50788 30.1669C4.98289 29.6919 4.98289 28.9224 4.50788 28.4474C4.03286 27.9724 3.26334 27.9724 2.78833 28.4474L0.357299 30.8784C-0.115848 31.3506 -0.116863 32.1268 0.357299 32.6L2.78833 35.0311C3.26333 35.5061 4.03285 35.5061 4.50788 35.0311C4.98289 34.556 4.98289 33.7865 4.50788 33.3115L4.15162 32.9552H7.29621C9.97825 32.9552 12.1603 30.7737 12.1603 28.0911V25.6482L18.2405 25.6507V34.7615L17.8843 34.4052C17.4092 33.9302 16.6397 33.9302 16.1647 34.4052C15.6897 34.8802 15.6897 35.6498 16.1647 36.1248L18.596 38.5559C19.0624 39.0233 19.8371 39.0369 20.3171 38.5559L22.7484 36.1248C23.2234 35.6498 23.2234 34.8802 22.7484 34.4052C22.2734 33.9302 21.5039 33.9302 21.0288 34.4052L20.6726 34.7615V25.6519L26.7528 25.6543V28.0911C26.7528 30.7737 28.9348 32.9552 31.6169 32.9552H34.7615L34.4052 33.3115C33.9302 33.7865 33.9302 34.556 34.4052 35.0311C34.8802 35.5061 35.6497 35.5061 36.1248 35.0311L38.5558 32.6C39.0269 32.1298 39.0319 31.3535 38.5558 30.8784ZM2.43207 18.1562C2.43207 15.3524 4.71748 13.0724 7.52718 13.0724C7.66553 13.0724 7.80388 13.0807 7.93332 13.0985C8.34361 13.1519 8.7444 13.0011 9.01278 12.6947C9.28236 12.3872 9.37914 11.9656 9.27107 11.5713C9.17073 11.2068 9.12026 10.7994 9.12026 10.3612C9.12026 7.49096 11.4549 5.15627 14.3246 5.15627C15.5407 5.15627 16.7211 5.58972 17.6479 6.37587C18.272 6.90203 19.2128 6.67871 19.542 5.95073C20.5123 3.81317 22.6552 2.43207 25.0017 2.43207C29.851 2.43207 32.6236 7.92064 29.9021 11.8171C29.2825 12.703 30.0473 13.9081 31.1282 13.7077C31.2476 13.6839 31.3663 13.6756 31.4845 13.6709C33.5983 13.6008 35.5488 14.8477 36.1853 16.7193C37.322 20.0579 34.9784 23.0521 32.0426 23.227L6.9346 23.2139C4.36359 22.9301 2.43207 20.7652 2.43207 18.1562Z" fill="#5BA3D1"/>
</svg>
