<svg width="37" height="26" viewBox="0 0 37 26" fill="none" xmlns="http://www.w3.org/2000/svg">
<path d="M34.5693 13.9045L32.3398 16.134V6.22767C32.3361 2.79056 29.5529 0.00371945 26.1158 0H11.7543C10.9926 0 10.3721 0.620553 10.3721 1.38598C10.3721 2.14774 10.9926 2.76829 11.7543 2.76829H26.1158C28.0258 2.77201 29.5715 4.31775 29.5753 6.22767V16.134L27.3458 13.9045C26.0267 12.682 24.1688 14.5436 25.3913 15.8627L29.9766 20.4517C30.1066 20.5855 30.2664 20.6747 30.4299 20.7527C30.768 20.8902 31.147 20.8902 31.4852 20.7527C31.6487 20.6747 31.8085 20.5855 31.9385 20.4517L36.5275 15.8627C37.75 14.5436 35.8884 12.682 34.5693 13.9045Z" fill="#5BA3D1"/>
<path d="M2.35644 11.265L4.58592 9.03548V18.9418C4.58964 22.3789 7.37276 25.1657 10.8099 25.1695H25.1714C25.9331 25.1695 26.5536 24.5489 26.5536 23.7835C26.5536 23.0217 25.9331 22.4012 25.1714 22.4012H10.8099C8.8999 22.3975 7.35417 20.8517 7.35045 18.9418V9.03548L9.57992 11.265C10.899 12.4875 12.7569 10.6258 11.5344 9.30673L6.94911 4.71773C6.81911 4.58397 6.65931 4.49479 6.4958 4.41678C6.15769 4.27925 5.77867 4.27925 5.44052 4.41678C5.277 4.49479 5.11725 4.58397 4.98721 4.71773L0.398213 9.30673C-0.824298 10.6258 1.03732 12.4875 2.35644 11.265Z" fill="#5BA3D1"/>
</svg>
