<svg width="238" height="315" viewBox="0 0 238 315" fill="none" xmlns="http://www.w3.org/2000/svg">
<path d="M27.4492 0C58.2452 5.81187e-05 86.9753 21.0083 109.126 58.5811C142.935 115.928 159.002 143.019 202.518 149.888H238V165.112H202.518C159.002 171.981 142.935 199.072 109.126 256.419C86.9753 293.992 58.2452 315 27.4492 315H0V302.071H27.4492C61.7394 300.073 82.6814 280.681 101.427 247.935C134.343 190.433 155.951 161.554 186.921 157.5C155.951 153.446 134.343 124.567 101.427 67.0654C82.6814 34.3195 61.7394 14.9268 27.4492 12.9287H0V0H27.4492Z" fill="url(#paint0_linear_308_3474)"/>
<defs>
<linearGradient id="paint0_linear_308_3474" x1="-32.2412" y1="157.5" x2="238" y2="157.5" gradientUnits="userSpaceOnUse">
<stop stop-color="#3A7394" stop-opacity="0"/>
<stop offset="1" stop-color="#5BA3D1"/>
</linearGradient>
</defs>
</svg>
