<svg width="238" height="315" viewBox="0 0 238 315" fill="none" xmlns="http://www.w3.org/2000/svg">
<path d="M210.551 0C179.755 5.81187e-05 151.025 21.0083 128.874 58.5811C95.0654 115.928 78.9983 143.019 35.4824 149.888H0V165.112H35.4824C78.9983 171.981 95.0654 199.072 128.874 256.419C151.025 293.992 179.755 315 210.551 315H238V302.071H210.551C176.261 300.073 155.319 280.681 136.573 247.935C103.657 190.433 82.0486 161.554 51.0791 157.5C82.0486 153.446 103.657 124.567 136.573 67.0654C155.319 34.3195 176.261 14.9268 210.551 12.9287H238V0H210.551Z" fill="url(#paint0_linear_307_3474)"/>
<defs>
<linearGradient id="paint0_linear_307_3474" x1="270.241" y1="157.5" x2="-2.01345e-06" y2="157.5" gradientUnits="userSpaceOnUse">
<stop stop-color="#3A7394" stop-opacity="0"/>
<stop offset="1" stop-color="#5BA3D1"/>
</linearGradient>
</defs>
</svg>
