<svg xmlns="http://www.w3.org/2000/svg" viewBox="0 0 55.5 62" fill="none">
  <path d="M40.0854 30.7996C43.6814 34.0048 47.9843 36.3848 52.7387 38.123C53.4051 35.8194 53.7657 33.3845 53.7657 30.8602C53.7657 28.3359 53.3907 25.826 52.7041 23.4863C47.9612 25.2187 43.6685 27.5988 40.0811 30.7996H40.0854Z" fill="#FF8A3E"/>
  <path d="M26.2494 56.9774C25.8181 46.2325 22.4471 38.4086 17.1576 32.7686C13.2903 36.2651 8.60233 38.7937 3.38782 40.5824L3.33301 40.5925C7.03437 49.8185 15.8305 56.4509 26.2494 56.9875V56.9774Z" fill="#5BA3D1"/>
  <path d="M2.51771 23.4922C1.8311 25.8319 1.45605 28.3057 1.45605 30.8661C1.45605 33.425 1.821 35.8195 2.48309 38.1289C7.24178 36.3907 11.5389 34.0121 15.1364 30.8055C11.5504 27.6104 7.25764 25.2304 2.51338 23.4922H2.51771Z" fill="#51B198"/>
  <path d="M3.38913 21.0223C8.59787 22.811 13.2916 25.3396 17.1589 28.8362C22.4484 23.1961 25.8194 15.3664 26.2507 4.62731L26.2753 4.58691C15.8361 5.11341 7.02125 11.7646 3.32422 21.0108C3.32422 21.0122 3.38913 21.0223 3.38913 21.0223Z" fill="#AED775"/>
  <path d="M51.8352 40.5824C46.6265 38.7937 41.9327 36.2651 38.0655 32.7686C32.776 38.4086 29.4049 46.2383 28.9736 56.9774C39.3925 56.4466 48.1988 49.8141 51.8944 40.5824C51.8958 40.5824 51.8352 40.5824 51.8352 40.5824Z" fill="#F97F7F"/>
  <path d="M28.9737 4.62346C29.405 15.3684 32.7761 23.1923 38.0656 28.8323C41.9328 25.3358 46.6208 22.8072 51.8353 21.0185H51.906C48.2148 11.7622 39.3941 5.10957 28.9492 4.58451C28.9492 4.58307 28.9737 4.62346 28.9737 4.62346Z" fill="#FFC44A"/>
</svg>
