<svg xmlns="http://www.w3.org/2000/svg" width="217" height="62" viewBox="0 0 217 62" fill="none"><g clip-path="url(#clip0_87_1637)"><path d="M40.0854 30.7996C43.6814 34.0048 47.9843 36.3848 52.7387 38.123C53.4051 35.8194 53.7657 33.3845 53.7657 30.8602C53.7657 28.3359 53.3907 25.826 52.7041 23.4863C47.9612 25.2187 43.6685 27.5988 40.0811 30.7996H40.0854Z" fill="#FF8A3E"></path><path d="M26.2494 56.9774C25.8181 46.2325 22.4471 38.4086 17.1576 32.7686C13.2903 36.2651 8.60233 38.7937 3.38782 40.5824L3.33301 40.5925C7.03437 49.8185 15.8305 56.4509 26.2494 56.9875V56.9774Z" fill="#5BA3D1"></path><path d="M2.51771 23.4922C1.8311 25.8319 1.45605 28.3057 1.45605 30.8661C1.45605 33.425 1.821 35.8195 2.48309 38.1289C7.24178 36.3907 11.5389 34.0121 15.1364 30.8055C11.5504 27.6104 7.25764 25.2304 2.51338 23.4922H2.51771Z" fill="#51B198"></path><path d="M3.38913 21.0223C8.59787 22.811 13.2916 25.3396 17.1589 28.8362C22.4484 23.1961 25.8194 15.3664 26.2507 4.62731L26.2753 4.58691C15.8361 5.11341 7.02125 11.7646 3.32422 21.0108C3.32422 21.0122 3.38913 21.0223 3.38913 21.0223Z" fill="#AED775"></path><path d="M51.8352 40.5824C46.6265 38.7937 41.9327 36.2651 38.0655 32.7686C32.776 38.4086 29.4049 46.2383 28.9736 56.9774C39.3925 56.4466 48.1988 49.8141 51.8944 40.5824C51.8958 40.5824 51.8352 40.5824 51.8352 40.5824Z" fill="#F97F7F"></path><path d="M28.9737 4.62346C29.405 15.3684 32.7761 23.1923 38.0656 28.8323C41.9328 25.3358 46.6208 22.8072 51.8353 21.0185H51.906C48.2148 11.7622 39.3941 5.10957 28.9492 4.58451C28.9492 4.58307 28.9737 4.62346 28.9737 4.62346Z" fill="#FFC44A"></path><path d="M64.4932 13.5898H68.3806V34.9672H64.4932V13.5898Z" fill="#414141" fill-opacity="0.9"></path><path d="M71.8574 19.3597C72.5787 19.1549 73.5105 18.9587 74.663 18.774C75.8155 18.5894 77.0878 18.4985 78.4899 18.4985C79.8068 18.4985 80.9046 18.6788 81.7902 19.0395C82.6716 19.4001 83.3784 19.9006 83.9034 20.5526C84.4299 21.1988 84.8007 21.9806 85.0156 22.8966C85.2305 23.8126 85.3416 24.8151 85.3416 25.9027V34.9744H81.6099V26.4898C81.6099 25.6286 81.5551 24.8915 81.4397 24.2857C81.3243 23.6799 81.1397 23.1837 80.8844 22.8028C80.629 22.422 80.2785 22.1465 79.8371 21.972C79.3957 21.796 78.8548 21.7109 78.2187 21.7109C77.7427 21.7109 77.2522 21.7412 76.7358 21.8018C76.2194 21.8624 75.8386 21.9172 75.5934 21.9576V34.9758H71.8618V19.3683L71.8574 19.3597Z" fill="#414141" fill-opacity="0.9"></path><path d="M88.8178 14.5764L92.5495 13.9604V18.8345H98.2847V21.9503H92.5495V28.5221C92.5495 29.8189 92.7543 30.7406 93.1654 31.2974C93.5765 31.8528 94.2775 32.1283 95.2642 32.1283C95.9407 32.1283 96.5465 32.0576 97.0673 31.9134C97.5938 31.7677 98.0092 31.6378 98.315 31.5123L98.9309 34.4723C98.4996 34.6569 97.9342 34.8473 97.2331 35.0435C96.5321 35.2382 95.7099 35.3334 94.7636 35.3334C93.6111 35.3334 92.6504 35.1776 91.8787 34.8733C91.107 34.5675 90.4968 34.1174 90.0453 33.5304C89.5939 32.9447 89.2736 32.2336 89.089 31.4013C88.9044 30.5704 88.8135 29.6184 88.8135 28.5466V14.5706L88.8178 14.5764Z" fill="#414141" fill-opacity="0.9"></path><path d="M144.698 26.4825C144.698 24.7948 144.487 23.5773 144.066 22.8258C143.645 22.0743 142.859 21.6993 141.706 21.6993C141.295 21.6993 140.839 21.7295 140.349 21.7901C139.858 21.8507 139.488 21.9055 139.237 21.9459V34.9641H135.505V19.3567C136.226 19.1519 137.162 18.9557 138.331 18.771C139.493 18.5864 140.719 18.4955 142.018 18.4955C143.13 18.4955 144.036 18.6412 144.748 18.9268C145.459 19.2168 146.045 19.5933 146.521 20.0693C146.746 19.9034 147.037 19.7288 147.382 19.5428C147.733 19.3581 148.124 19.1865 148.555 19.0321C148.986 18.8778 149.442 18.7523 149.927 18.647C150.407 18.5417 150.899 18.4912 151.394 18.4912C152.646 18.4912 153.683 18.6715 154.493 19.0321C155.304 19.3928 155.942 19.8933 156.408 20.5453C156.868 21.1915 157.189 21.9733 157.364 22.8893C157.54 23.8052 157.625 24.8078 157.625 25.8954V34.967H153.893V26.4825C153.893 24.7948 153.689 23.5773 153.277 22.8258C152.866 22.0743 152.076 21.6993 150.903 21.6993C150.307 21.6993 149.741 21.7988 149.205 21.9892C148.669 22.1839 148.269 22.3743 148.004 22.5604C148.17 23.0768 148.279 23.6221 148.344 24.1933C148.405 24.7688 148.434 25.3847 148.434 26.0468V34.9627H144.702V26.4781L144.698 26.4825Z" fill="#414141" fill-opacity="0.9"></path><path d="M178.217 19.3597C178.938 19.1549 179.87 18.9587 181.022 18.774C182.175 18.5894 183.447 18.4985 184.849 18.4985C186.166 18.4985 187.264 18.6788 188.15 19.0395C189.031 19.4001 189.738 19.9006 190.263 20.5526C190.789 21.1988 191.16 21.9806 191.375 22.8966C191.59 23.8126 191.701 24.8151 191.701 25.9027V34.9744H187.969V26.4898C187.969 25.6286 187.914 24.8915 187.799 24.2857C187.684 23.6799 187.499 23.1837 187.244 22.8028C186.988 22.422 186.638 22.1465 186.196 21.972C185.755 21.796 185.214 21.7109 184.578 21.7109C184.102 21.7109 183.612 21.7412 183.095 21.8018C182.579 21.8624 182.198 21.9172 181.953 21.9576V34.9758H178.221V19.3683L178.217 19.3597Z" fill="#414141" fill-opacity="0.9"></path><path d="M194.832 14.5764L198.564 13.9604V18.8345H204.299V21.9503H198.564V28.5221C198.564 29.8189 198.769 30.7406 199.18 31.2974C199.591 31.8528 200.292 32.1283 201.279 32.1283C201.955 32.1283 202.561 32.0576 203.082 31.9134C203.608 31.7677 204.024 31.6378 204.33 31.5123L204.946 34.4723C204.514 34.6569 203.949 34.8473 203.248 35.0435C202.547 35.2382 201.725 35.3334 200.778 35.3334C199.626 35.3334 198.665 35.1776 197.893 34.8733C197.122 34.5632 196.511 34.1174 196.06 33.5304C195.609 32.9447 195.288 32.2336 195.104 31.4013C194.919 30.5704 194.828 29.6184 194.828 28.5466V14.5706L194.832 14.5764Z" fill="#414141" fill-opacity="0.9"></path><path d="M124.943 31.9019C124.852 31.9019 124.296 31.9264 124.221 31.9163C123.37 31.8716 122.754 31.596 122.378 31.0897C121.967 30.5344 121.762 29.6069 121.762 28.3144V11.0049L118.03 11.6208V28.3462C118.03 29.4179 118.12 30.3642 118.306 31.2008C118.49 32.0317 118.812 32.7442 119.262 33.3299C119.714 33.9155 120.33 34.3612 121.096 34.6728C121.861 34.983 122.828 35.133 123.98 35.133C124.296 35.133 124.596 35.1229 124.882 35.1027C125.058 35.0883 125.253 35.0623 125.447 35.032L124.937 31.9019H124.943Z" fill="#414141" fill-opacity="0.9"></path><path d="M132.23 14.115C132.23 14.816 132.005 15.367 131.553 15.7825C131.102 16.1936 130.566 16.3984 129.95 16.3984C129.334 16.3984 128.768 16.1936 128.318 15.7825C127.866 15.3714 127.637 14.816 127.637 14.115C127.637 13.4139 127.862 12.8283 128.318 12.4172C128.769 12.0061 129.314 11.8013 129.95 11.8013C130.587 11.8013 131.103 12.0061 131.553 12.4172C132.005 12.8283 132.23 13.3937 132.23 14.115ZM131.829 34.9672H128.097V18.8333H131.829V34.9672Z" fill="#414141" fill-opacity="0.9"></path><path d="M100.52 26.9787C100.52 25.5608 100.73 24.3145 101.151 23.2471C101.573 22.1797 102.134 21.2882 102.835 20.5771C103.536 19.866 104.338 19.3351 105.239 18.9745C106.147 18.6139 107.067 18.4336 108.015 18.4336C110.233 18.4336 111.967 19.1245 113.213 20.5021C114.455 21.8796 115.081 23.938 115.081 26.6729C115.081 26.8778 115.077 27.1086 115.067 27.3697C115.057 27.625 115.042 27.8601 115.022 28.0664H104.378C104.478 29.3631 104.939 30.3657 105.75 31.0725C106.562 31.7836 107.739 32.1341 109.281 32.1341C110.188 32.1341 111.013 32.0533 111.765 31.8889C112.517 31.723 113.108 31.5485 113.538 31.3624L114.149 34.3584C113.87 34.4839 113.544 34.6238 113.183 34.7392C112.822 34.8546 112.411 34.9541 111.951 35.0493C111.491 35.1445 110.989 35.2195 110.454 35.2801C109.917 35.3407 109.372 35.371 108.821 35.371C107.403 35.371 106.167 35.1604 105.12 34.7392C104.072 34.318 103.205 33.7324 102.53 32.9808C101.854 32.2293 101.348 31.348 101.017 30.3267C100.687 29.3098 100.527 28.1933 100.527 26.9802H100.52V26.9787ZM111.348 25.3098C111.348 24.7934 111.277 24.3073 111.133 23.8428C110.989 23.3784 110.777 22.9817 110.501 22.6413C110.226 22.3008 109.885 22.0354 109.484 21.8392C109.083 21.6445 108.603 21.5435 108.052 21.5435C107.501 21.5435 106.97 21.6532 106.539 21.8695C106.108 22.0845 105.743 22.3701 105.443 22.7163C105.143 23.0668 104.912 23.4678 104.746 23.9178C104.58 24.3693 104.47 24.8338 104.406 25.3055H111.348V25.3098Z" fill="#414141" fill-opacity="0.9"></path><path d="M160.527 26.9787C160.527 25.5608 160.738 24.3145 161.159 23.2471C161.58 22.1797 162.141 21.2882 162.842 20.5771C163.544 19.866 164.346 19.3351 165.247 18.9745C166.154 18.6139 167.075 18.4336 168.022 18.4336C170.241 18.4336 171.975 19.1245 173.221 20.5021C174.463 21.8796 175.089 23.938 175.089 26.6729C175.089 26.8778 175.085 27.1086 175.075 27.3697C175.064 27.625 175.05 27.8601 175.03 28.0664H164.386C164.491 29.3631 164.947 30.3657 165.758 31.0725C166.57 31.7836 167.747 32.1341 169.289 32.1341C170.196 32.1341 171.021 32.0533 171.773 31.8889C172.524 31.723 173.116 31.5485 173.546 31.3624L174.036 34.4175C173.831 34.5228 173.546 34.6281 173.189 34.7435C172.829 34.8589 172.418 34.9585 171.957 35.0537C171.497 35.1489 170.995 35.2239 170.46 35.2845C169.925 35.345 169.378 35.3753 168.827 35.3753C167.409 35.3753 166.173 35.1647 165.126 34.7435C164.079 34.3223 163.212 33.7367 162.537 32.9852C161.86 32.2336 161.354 31.3523 161.024 30.331C160.693 29.3141 160.527 28.1976 160.527 26.9845V26.9787ZM171.356 25.3098C171.356 24.7934 171.285 24.3073 171.141 23.8428C170.995 23.3827 170.785 22.9817 170.509 22.6413C170.234 22.3008 169.893 22.0354 169.492 21.8392C169.091 21.6445 168.611 21.5435 168.06 21.5435C167.509 21.5435 166.978 21.6532 166.547 21.8695C166.115 22.0845 165.751 22.3701 165.45 22.7163C165.15 23.0668 164.92 23.4678 164.754 23.9178C164.588 24.3693 164.478 24.8338 164.413 25.3055H171.356V25.3098Z" fill="#414141" fill-opacity="0.9"></path><path d="M112.404 48.1694C112.291 47.8689 112.184 47.5751 112.083 47.2879C111.983 46.9939 111.88 46.6968 111.773 46.3963H108.627L107.996 48.1694H106.984C107.252 47.4347 107.502 46.7569 107.736 46.1358C107.969 45.508 108.197 44.9136 108.417 44.3526C108.644 43.7915 108.868 43.2572 109.088 42.7498C109.309 42.2354 109.539 41.7279 109.779 41.2269H110.671C110.911 41.7279 111.142 42.2354 111.362 42.7498C111.583 43.2572 111.803 43.7915 112.023 44.3526C112.251 44.9136 112.481 45.508 112.715 46.1358C112.948 46.7569 113.199 47.4347 113.466 48.1694H112.404ZM111.493 45.5949C111.279 45.0137 111.065 44.4527 110.851 43.9118C110.644 43.3641 110.427 42.8399 110.2 42.3389C109.966 42.8399 109.743 43.3641 109.529 43.9118C109.322 44.4527 109.115 45.0137 108.908 45.5949H111.493ZM114.348 48.1694V40.5558L115.28 40.3955V43.0602C115.454 42.9934 115.637 42.9433 115.831 42.91C116.032 42.8699 116.229 42.8499 116.422 42.8499C116.836 42.8499 117.18 42.91 117.454 43.0302C117.728 43.1437 117.945 43.3074 118.105 43.521C118.272 43.7282 118.389 43.9786 118.456 44.2724C118.523 44.5662 118.556 44.8902 118.556 45.2442V48.1694H117.624V45.4446C117.624 45.1239 117.601 44.8501 117.554 44.6231C117.514 44.396 117.444 44.2123 117.344 44.0721C117.244 43.9319 117.11 43.8316 116.943 43.7714C116.776 43.7047 116.569 43.6713 116.322 43.6713C116.222 43.6713 116.118 43.678 116.011 43.6914C115.905 43.7047 115.801 43.7214 115.701 43.7414C115.607 43.7549 115.521 43.7714 115.44 43.7915C115.367 43.8115 115.314 43.8283 115.28 43.8417V48.1694H114.348ZM119.781 45.5748C119.781 45.114 119.848 44.7132 119.981 44.3727C120.115 44.0253 120.292 43.7381 120.512 43.5111C120.733 43.284 120.987 43.1137 121.274 43.0002C121.561 42.8866 121.855 42.8298 122.155 42.8298C122.857 42.8298 123.394 43.0502 123.768 43.491C124.142 43.9251 124.329 44.5896 124.329 45.4847C124.329 45.5246 124.329 45.5781 124.329 45.6449C124.329 45.7049 124.326 45.7618 124.319 45.8151H120.753C120.793 46.3562 120.95 46.7669 121.224 47.0474C121.498 47.3278 121.925 47.4682 122.506 47.4682C122.833 47.4682 123.107 47.4415 123.327 47.388C123.555 47.3278 123.725 47.2712 123.838 47.2176L123.969 47.9992C123.855 48.0592 123.655 48.1226 123.368 48.1894C123.087 48.2562 122.767 48.2897 122.406 48.2897C121.952 48.2897 121.558 48.2229 121.224 48.0893C120.897 47.949 120.626 47.7587 120.412 47.5182C120.198 47.2778 120.038 46.9939 119.931 46.6668C119.831 46.3328 119.781 45.9688 119.781 45.5748ZM123.357 45.0639C123.364 44.6431 123.257 44.2991 123.037 44.032C122.823 43.7582 122.526 43.6213 122.145 43.6213C121.932 43.6213 121.741 43.6647 121.574 43.7515C121.414 43.8316 121.277 43.9385 121.164 44.0721C121.05 44.2056 120.96 44.3593 120.893 44.5329C120.833 44.7066 120.793 44.8836 120.773 45.0639H123.357ZM127.431 47.4982C127.651 47.4982 127.845 47.4949 128.012 47.4882C128.185 47.4748 128.329 47.4548 128.443 47.4281V45.8753C128.376 45.842 128.266 45.8151 128.112 45.7952C127.965 45.7684 127.785 45.7551 127.571 45.7551C127.431 45.7551 127.281 45.7651 127.12 45.7851C126.967 45.8052 126.823 45.8486 126.689 45.9154C126.562 45.9755 126.456 46.0624 126.369 46.1759C126.282 46.2826 126.239 46.4263 126.239 46.6066C126.239 46.9405 126.346 47.1744 126.559 47.3079C126.773 47.4347 127.063 47.4982 127.431 47.4982ZM127.351 42.8298C127.725 42.8298 128.039 42.8799 128.292 42.9801C128.553 43.0736 128.76 43.2105 128.913 43.3908C129.074 43.5645 129.187 43.7749 129.254 44.022C129.321 44.2625 129.354 44.5296 129.354 44.8234V48.0792C129.274 48.0926 129.161 48.1127 129.014 48.1394C128.873 48.1594 128.713 48.1795 128.533 48.1995C128.352 48.2196 128.155 48.2362 127.942 48.2496C127.735 48.2696 127.528 48.2796 127.321 48.2796C127.027 48.2796 126.756 48.2496 126.509 48.1894C126.262 48.1294 126.048 48.0358 125.868 47.909C125.688 47.7754 125.547 47.6018 125.447 47.388C125.347 47.1744 125.297 46.9172 125.297 46.6166C125.297 46.3295 125.354 46.0823 125.467 45.8753C125.588 45.6683 125.748 45.5013 125.948 45.3745C126.149 45.2475 126.382 45.154 126.649 45.0939C126.916 45.0337 127.197 45.0037 127.491 45.0037C127.584 45.0037 127.681 45.0104 127.781 45.0238C127.882 45.0304 127.975 45.0438 128.062 45.0639C128.155 45.0772 128.236 45.0906 128.302 45.1039C128.369 45.1173 128.416 45.1272 128.443 45.134V44.8735C128.443 44.7199 128.426 44.5696 128.393 44.4227C128.359 44.2691 128.299 44.1355 128.212 44.022C128.125 43.9017 128.005 43.8082 127.851 43.7414C127.705 43.668 127.511 43.6312 127.27 43.6312C126.963 43.6312 126.693 43.6546 126.459 43.7013C126.232 43.7414 126.062 43.7849 125.948 43.8316L125.838 43.0602C125.958 43.0068 126.158 42.9567 126.439 42.91C126.72 42.8565 127.023 42.8298 127.351 42.8298ZM134.268 44.0621C134.154 43.9685 133.991 43.8783 133.777 43.7915C133.564 43.7047 133.329 43.6614 133.076 43.6614C132.808 43.6614 132.579 43.7114 132.384 43.8116C132.198 43.905 132.043 44.0387 131.924 44.2123C131.803 44.3793 131.716 44.5797 131.663 44.8133C131.609 45.0472 131.583 45.2976 131.583 45.5647C131.583 46.1724 131.733 46.6434 132.033 46.9773C132.335 47.3045 132.734 47.4682 133.236 47.4682C133.49 47.4682 133.699 47.4581 133.867 47.438C134.041 47.4114 134.174 47.3847 134.268 47.358V44.0621ZM134.268 40.5558L135.2 40.3955V48.0192C134.986 48.0792 134.712 48.1394 134.377 48.1995C134.044 48.2595 133.66 48.2897 133.226 48.2897C132.825 48.2897 132.465 48.2262 132.144 48.0993C131.823 47.9723 131.55 47.792 131.322 47.5584C131.096 47.3245 130.918 47.0408 130.791 46.7069C130.671 46.3662 130.611 45.9855 130.611 45.5647C130.611 45.164 130.661 44.7968 130.761 44.4628C130.868 44.1289 131.022 43.8417 131.223 43.6012C131.423 43.3608 131.667 43.1738 131.954 43.0403C132.247 42.9067 132.581 42.8399 132.955 42.8399C133.257 42.8399 133.519 42.8799 133.747 42.9601C133.981 43.0403 134.154 43.117 134.268 43.1904V40.5558Z" fill="#818181"></path><path d="M140.044 43.1904C140.158 43.117 140.328 43.0403 140.556 42.9601C140.79 42.8799 141.057 42.8399 141.357 42.8399C141.73 42.8399 142.062 42.9067 142.349 43.0403C142.642 43.1738 142.89 43.3608 143.091 43.6012C143.291 43.8417 143.441 44.1289 143.541 44.4628C143.647 44.7968 143.701 45.164 143.701 45.5647C143.701 45.9855 143.637 46.3662 143.51 46.7069C143.391 47.0408 143.218 47.3245 142.99 47.5584C142.763 47.792 142.489 47.9723 142.169 48.0993C141.847 48.2262 141.487 48.2897 141.087 48.2897C140.653 48.2897 140.268 48.2595 139.935 48.1995C139.6 48.1394 139.327 48.0792 139.112 48.0192V40.5558L140.044 40.3955V43.1904ZM140.044 47.358C140.138 47.3847 140.268 47.4114 140.435 47.438C140.61 47.4581 140.823 47.4682 141.077 47.4682C141.577 47.4682 141.978 47.3045 142.279 46.9773C142.579 46.6434 142.73 46.1724 142.73 45.5647C142.73 45.2976 142.703 45.0472 142.649 44.8133C142.596 44.5797 142.509 44.3793 142.39 44.2123C142.268 44.0387 142.111 43.905 141.918 43.8116C141.73 43.7114 141.504 43.6614 141.237 43.6614C140.983 43.6614 140.75 43.7047 140.536 43.7915C140.323 43.8783 140.158 43.9685 140.044 44.0621V47.358Z" fill="#818181"></path><path d="M144.272 49.1413C144.345 49.1748 144.439 49.2048 144.553 49.2315C144.673 49.2649 144.79 49.2815 144.904 49.2815C145.27 49.2815 145.558 49.1982 145.765 49.0311C145.972 48.8709 146.159 48.607 146.326 48.2396C145.905 47.4382 145.511 46.59 145.143 45.6951C144.782 44.7935 144.482 43.8818 144.241 42.9602H145.244C145.318 43.2608 145.404 43.5847 145.504 43.932C145.612 44.2792 145.729 44.6365 145.856 45.0039C145.983 45.3712 146.118 45.7386 146.265 46.1058C146.412 46.4732 146.567 46.8272 146.727 47.1677C146.981 46.4666 147.201 45.7719 147.387 45.0841C147.575 44.3962 147.751 43.6882 147.918 42.9602H148.88C148.64 43.942 148.373 44.8871 148.078 45.7954C147.786 46.6969 147.468 47.5418 147.128 48.3299C146.994 48.6304 146.854 48.8876 146.707 49.1012C146.567 49.3216 146.41 49.5019 146.235 49.6423C146.062 49.7825 145.866 49.8861 145.645 49.9529C145.432 50.0196 145.188 50.053 144.914 50.053C144.84 50.053 144.764 50.0463 144.683 50.0329C144.602 50.0263 144.523 50.0129 144.442 49.9928C144.368 49.9795 144.299 49.9628 144.231 49.9428C144.172 49.9227 144.129 49.906 144.102 49.8927L144.272 49.1413ZM152.241 41.2271H153.214V48.1695H152.241V41.2271ZM154.872 43.1105C155.086 43.057 155.366 43.0003 155.713 42.9402C156.067 42.88 156.475 42.85 156.935 42.85C157.27 42.85 157.55 42.8968 157.778 42.9902C158.004 43.0771 158.194 43.2073 158.349 43.381C158.395 43.3475 158.469 43.3008 158.568 43.2408C158.669 43.1806 158.792 43.1238 158.939 43.0704C159.086 43.0103 159.25 42.9602 159.431 42.9201C159.611 42.8734 159.804 42.85 160.01 42.85C160.412 42.85 160.739 42.9102 160.993 43.0303C161.247 43.1439 161.444 43.3076 161.584 43.5212C161.731 43.735 161.828 43.9887 161.874 44.2825C161.928 44.5765 161.955 44.897 161.955 45.2444V48.1695H161.023V45.4447C161.023 45.1375 161.006 44.8737 160.973 44.6532C160.947 44.4328 160.889 44.2492 160.802 44.1022C160.723 43.9554 160.609 43.8485 160.462 43.7817C160.322 43.7083 160.137 43.6715 159.911 43.6715C159.597 43.6715 159.337 43.7149 159.129 43.8018C158.929 43.8818 158.792 43.9554 158.719 44.0222C158.773 44.1958 158.812 44.3861 158.839 44.5931C158.865 44.8002 158.88 45.0173 158.88 45.2444V48.1695H157.948V45.4447C157.948 45.1375 157.93 44.8737 157.897 44.6532C157.864 44.4328 157.804 44.2492 157.717 44.1022C157.636 43.9554 157.524 43.8485 157.377 43.7817C157.237 43.7083 157.056 43.6715 156.836 43.6715C156.742 43.6715 156.642 43.6748 156.534 43.6815C156.427 43.6882 156.325 43.6982 156.224 43.7116C156.13 43.7182 156.044 43.7283 155.964 43.7416C155.884 43.755 155.83 43.765 155.803 43.7716V48.1695H154.872V43.1105ZM165.264 47.4984C165.485 47.4984 165.678 47.495 165.845 47.4884C166.018 47.475 166.163 47.4549 166.275 47.4283V45.8754C166.209 45.8421 166.099 45.8153 165.945 45.7954C165.798 45.7686 165.617 45.7553 165.404 45.7553C165.264 45.7553 165.114 45.7652 164.954 45.7853C164.799 45.8053 164.657 45.8488 164.523 45.9155C164.396 45.9757 164.289 46.0625 164.202 46.1761C164.116 46.2828 164.071 46.4265 164.071 46.6068C164.071 46.9407 164.179 47.1745 164.393 47.3081C164.606 47.4349 164.896 47.4984 165.264 47.4984ZM165.183 42.83C165.558 42.83 165.871 42.88 166.125 42.9803C166.386 43.0737 166.592 43.2106 166.747 43.3909C166.907 43.5646 167.021 43.7751 167.087 44.0222C167.154 44.2626 167.187 44.5298 167.187 44.8236V48.0794C167.107 48.0928 166.993 48.1128 166.846 48.1395C166.706 48.1596 166.546 48.1796 166.366 48.1997C166.186 48.2197 165.988 48.2363 165.775 48.2497C165.568 48.2698 165.361 48.2797 165.154 48.2797C164.86 48.2797 164.589 48.2497 164.342 48.1896C164.096 48.1296 163.881 48.036 163.7 47.9092C163.52 47.7756 163.38 47.6019 163.281 47.3882C163.18 47.1745 163.131 46.9173 163.131 46.6167C163.131 46.3297 163.187 46.0824 163.301 45.8754C163.42 45.6685 163.581 45.5014 163.781 45.3746C163.982 45.2477 164.215 45.1542 164.482 45.0941C164.749 45.0339 165.03 45.0039 165.325 45.0039C165.417 45.0039 165.515 45.0105 165.614 45.024C165.714 45.0306 165.808 45.044 165.894 45.0641C165.988 45.0773 166.069 45.0907 166.135 45.104C166.202 45.1174 166.249 45.1274 166.275 45.1342V44.8737C166.275 44.72 166.259 44.5697 166.226 44.4229C166.191 44.2693 166.132 44.1357 166.046 44.0222C165.958 43.9019 165.838 43.8084 165.685 43.7416C165.538 43.6682 165.343 43.6314 165.104 43.6314C164.797 43.6314 164.525 43.6548 164.292 43.7015C164.065 43.7416 163.895 43.785 163.781 43.8318L163.671 43.0603C163.791 43.007 163.992 42.9569 164.272 42.9102C164.553 42.8567 164.856 42.83 165.183 42.83ZM172 47.6487C171.921 47.702 171.764 47.7721 171.53 47.859C171.302 47.9392 171.035 47.9793 170.728 47.9793C170.415 47.9793 170.118 47.9291 169.837 47.829C169.562 47.7287 169.323 47.5752 169.115 47.3681C168.908 47.1545 168.745 46.8907 168.625 46.5768C168.504 46.2629 168.445 45.8889 168.445 45.4547C168.445 45.074 168.501 44.7267 168.615 44.4128C168.727 44.0923 168.892 43.8185 169.105 43.5913C169.326 43.3576 169.593 43.1773 169.907 43.0504C170.22 42.9168 170.575 42.85 170.969 42.85C171.403 42.85 171.78 42.8835 172.101 42.9503C172.429 43.0103 172.701 43.0671 172.922 43.1205V47.7688C172.922 48.5703 172.716 49.1513 172.302 49.512C171.886 49.8727 171.259 50.053 170.418 50.053C170.09 50.053 169.78 50.0263 169.486 49.9728C169.199 49.9194 168.948 49.8559 168.735 49.7825L168.905 48.971C169.092 49.0445 169.319 49.108 169.586 49.1614C169.86 49.2215 170.144 49.2515 170.438 49.2515C170.992 49.2515 171.39 49.1413 171.63 48.9209C171.878 48.7005 172 48.3498 172 47.8691V47.6487ZM171.99 43.7817C171.896 43.755 171.769 43.7317 171.609 43.7116C171.456 43.6849 171.246 43.6715 170.979 43.6715C170.478 43.6715 170.09 43.8351 169.816 44.1624C169.55 44.4897 169.415 44.9237 169.415 45.4648C169.415 45.7652 169.453 46.0224 169.526 46.2361C169.606 46.4498 169.71 46.6268 169.837 46.767C169.971 46.9074 170.121 47.0108 170.288 47.0776C170.461 47.1444 170.639 47.1778 170.819 47.1778C171.066 47.1778 171.292 47.1444 171.5 47.0776C171.706 47.0042 171.87 46.9207 171.99 46.8272V43.7817ZM175.458 48.1695H174.526V42.9602H175.458V48.1695ZM174.988 42.0186C174.82 42.0186 174.676 41.9651 174.556 41.8582C174.442 41.7447 174.386 41.5945 174.386 41.4074C174.386 41.2205 174.442 41.0735 174.556 40.9666C174.676 40.8531 174.82 40.7964 174.988 40.7964C175.153 40.7964 175.295 40.8531 175.407 40.9666C175.529 41.0735 175.588 41.2205 175.588 41.4074C175.588 41.5945 175.529 41.7447 175.407 41.8582C175.295 41.9651 175.153 42.0186 174.988 42.0186ZM177.06 43.1105C177.274 43.057 177.558 43.0003 177.911 42.9402C178.266 42.88 178.673 42.85 179.133 42.85C179.549 42.85 179.892 42.9102 180.166 43.0303C180.44 43.1439 180.656 43.3076 180.817 43.5212C180.984 43.7283 181.101 43.9787 181.167 44.2726C181.235 44.5664 181.268 44.8904 181.268 45.2444V48.1695H180.336V45.4447C180.336 45.1241 180.313 44.8503 180.266 44.6232C180.225 44.3962 180.156 44.2124 180.055 44.0722C179.955 43.932 179.821 43.8318 179.655 43.7716C179.488 43.7048 179.28 43.6715 179.034 43.6715C178.934 43.6715 178.83 43.6748 178.724 43.6815C178.617 43.6882 178.513 43.6982 178.412 43.7116C178.32 43.7182 178.232 43.7283 178.152 43.7416C178.079 43.755 178.025 43.765 177.992 43.7716V48.1695H177.06V43.1105ZM184.576 47.4984C184.796 47.4984 184.99 47.495 185.157 47.4884C185.33 47.475 185.474 47.4549 185.588 47.4283V45.8754C185.52 45.8421 185.411 45.8153 185.256 45.7954C185.111 45.7686 184.93 45.7553 184.716 45.7553C184.576 45.7553 184.426 45.7652 184.266 45.7853C184.111 45.8053 183.968 45.8488 183.834 45.9155C183.707 45.9757 183.601 46.0625 183.514 46.1761C183.427 46.2828 183.384 46.4265 183.384 46.6068C183.384 46.9407 183.491 47.1745 183.704 47.3081C183.918 47.4349 184.208 47.4984 184.576 47.4984ZM184.496 42.83C184.87 42.83 185.183 42.88 185.437 42.9803C185.698 43.0737 185.906 43.2106 186.058 43.3909C186.219 43.5646 186.333 43.7751 186.399 44.0222C186.465 44.2626 186.5 44.5298 186.5 44.8236V48.0794C186.419 48.0928 186.305 48.1128 186.158 48.1395C186.018 48.1596 185.858 48.1796 185.678 48.1997C185.497 48.2197 185.3 48.2363 185.086 48.2497C184.88 48.2698 184.672 48.2797 184.466 48.2797C184.172 48.2797 183.902 48.2497 183.654 48.1896C183.407 48.1296 183.194 48.036 183.013 47.9092C182.833 47.7756 182.692 47.6019 182.592 47.3882C182.493 47.1745 182.442 46.9173 182.442 46.6167C182.442 46.3297 182.498 46.0824 182.612 45.8754C182.732 45.6685 182.892 45.5014 183.093 45.3746C183.293 45.2477 183.527 45.1542 183.794 45.0941C184.062 45.0339 184.342 45.0039 184.636 45.0039C184.73 45.0039 184.827 45.0105 184.926 45.024C185.027 45.0306 185.119 45.044 185.207 45.0641C185.3 45.0773 185.381 45.0907 185.447 45.104C185.515 45.1174 185.561 45.1274 185.588 45.1342V44.8737C185.588 44.72 185.571 44.5697 185.538 44.4229C185.505 44.2693 185.444 44.1357 185.357 44.0222C185.271 43.9019 185.15 43.8084 184.997 43.7416C184.85 43.6682 184.656 43.6314 184.416 43.6314C184.108 43.6314 183.839 43.6548 183.603 43.7015C183.377 43.7416 183.207 43.785 183.093 43.8318L182.983 43.0603C183.103 43.007 183.303 42.9569 183.585 42.9102C183.865 42.8567 184.169 42.83 184.496 42.83ZM188.919 42.9602H190.892V43.7416H188.919V46.1459C188.919 46.4064 188.938 46.6235 188.978 46.7972C189.018 46.9641 189.079 47.0976 189.158 47.1979C189.239 47.2914 189.339 47.3582 189.46 47.3983C189.58 47.4382 189.719 47.4583 189.88 47.4583C190.161 47.4583 190.384 47.4283 190.552 47.3681C190.725 47.3013 190.845 47.2546 190.912 47.2279L191.093 47.9993C190.999 48.0461 190.834 48.1028 190.601 48.1695C190.367 48.2431 190.1 48.2797 189.8 48.2797C189.445 48.2797 189.153 48.2363 188.919 48.1495C188.691 48.056 188.508 47.9191 188.368 47.7388C188.227 47.5585 188.127 47.3381 188.066 47.0776C188.013 46.8104 187.987 46.5032 187.987 46.156V41.5077L188.919 41.3473V42.9602ZM193.01 48.1695H192.078V42.9602H193.01V48.1695ZM192.538 42.0186C192.371 42.0186 192.228 41.9651 192.107 41.8582C191.994 41.7447 191.937 41.5945 191.937 41.4074C191.937 41.2205 191.994 41.0735 192.107 40.9666C192.228 40.8531 192.371 40.7964 192.538 40.7964C192.705 40.7964 192.845 40.8531 192.959 40.9666C193.079 41.0735 193.14 41.2205 193.14 41.4074C193.14 41.5945 193.079 41.7447 192.959 41.8582C192.845 41.9651 192.705 42.0186 192.538 42.0186ZM199.209 45.5649C199.209 45.979 199.149 46.353 199.029 46.687C198.909 47.0209 198.739 47.3081 198.519 47.5484C198.305 47.7889 198.047 47.976 197.747 48.1095C197.447 48.2363 197.119 48.2998 196.764 48.2998C196.411 48.2998 196.084 48.2363 195.784 48.1095C195.482 47.976 195.222 47.7889 195.002 47.5484C194.788 47.3081 194.621 47.0209 194.501 46.687C194.382 46.353 194.321 45.979 194.321 45.5649C194.321 45.1575 194.382 44.7868 194.501 44.4529C194.621 44.1123 194.788 43.8218 195.002 43.5813C195.222 43.3409 195.482 43.1573 195.784 43.0303C196.084 42.8968 196.411 42.83 196.764 42.83C197.119 42.83 197.447 42.8968 197.747 43.0303C198.047 43.1573 198.305 43.3409 198.519 43.5813C198.739 43.8218 198.909 44.1123 199.029 44.4529C199.149 44.7868 199.209 45.1575 199.209 45.5649ZM198.237 45.5649C198.237 44.9772 198.105 44.513 197.838 44.1725C197.577 43.8251 197.219 43.6515 196.764 43.6515C196.312 43.6515 195.951 43.8251 195.683 44.1725C195.423 44.513 195.293 44.9772 195.293 45.5649C195.293 46.1527 195.423 46.6202 195.683 46.9674C195.951 47.3081 196.312 47.4783 196.764 47.4783C197.219 47.4783 197.577 47.3081 197.838 46.9674C198.105 46.6202 198.237 46.1527 198.237 45.5649ZM200.521 43.1105C200.734 43.057 201.018 43.0003 201.372 42.9402C201.725 42.88 202.133 42.85 202.593 42.85C203.007 42.85 203.352 42.9102 203.626 43.0303C203.9 43.1439 204.117 43.3076 204.277 43.5212C204.444 43.7283 204.561 43.9787 204.627 44.2726C204.695 44.5664 204.728 44.8904 204.728 45.2444V48.1695H203.796V45.4447C203.796 45.1241 203.773 44.8503 203.726 44.6232C203.685 44.3962 203.616 44.2124 203.515 44.0722C203.416 43.932 203.282 43.8318 203.116 43.7716C202.948 43.7048 202.741 43.6715 202.494 43.6715C202.393 43.6715 202.291 43.6748 202.184 43.6815C202.077 43.6882 201.973 43.6982 201.872 43.7116C201.78 43.7182 201.692 43.7283 201.613 43.7416C201.539 43.755 201.486 43.765 201.452 43.7716V48.1695H200.521V43.1105Z" fill="#818181"></path><path d="M212.91 9.14111C210.56 9.14111 208.651 11.0495 208.651 13.3993C208.651 15.749 210.56 17.6574 212.91 17.6574C215.259 17.6574 217.168 15.749 217.168 13.3993C217.168 11.0495 215.259 9.14111 212.91 9.14111ZM212.91 17.0299C210.91 17.0299 209.283 15.4014 209.283 13.4036C209.283 11.4043 210.912 9.77724 212.91 9.77724C214.907 9.77724 216.536 11.4058 216.536 13.4036C216.536 15.4028 214.909 17.0299 212.91 17.0299Z" fill="#414141" fill-opacity="0.9"></path><path d="M213.731 13.8048C213.656 13.7399 213.551 13.6693 213.405 13.6043C213.796 13.5495 214.082 13.424 214.272 13.2293C214.463 13.0346 214.552 12.7879 214.552 12.498C214.552 12.2729 214.497 12.0724 214.382 11.8864C214.266 11.7017 214.116 11.5705 213.93 11.5012C213.744 11.432 213.464 11.3916 213.104 11.3916H211.301V15.4593H211.837V13.6563H212.463C212.603 13.6563 212.704 13.6606 212.763 13.6765C212.849 13.6967 212.929 13.7313 213.009 13.7861C213.089 13.8409 213.179 13.926 213.284 14.0573C213.389 14.1871 213.515 14.3732 213.669 14.6184L214.206 15.4651H214.882L214.176 14.3587C214.036 14.1438 213.886 13.9635 213.73 13.8178V13.8048H213.731ZM212.994 13.1788H211.837V11.8316H213.124C213.424 11.8316 213.645 11.8921 213.785 12.0162C213.925 12.1402 213.995 12.296 213.995 12.4922C213.995 12.622 213.961 12.7475 213.886 12.8571C213.811 12.9668 213.71 13.0519 213.57 13.1024C213.43 13.1543 213.239 13.1788 212.994 13.1788Z" fill="#414141" fill-opacity="0.9"></path></g><defs><clipPath id="clip0_87_1637"><rect width="217" height="62" fill="white"></rect></clipPath></defs></svg>