<svg width="43" height="44" viewBox="0 0 43 44" fill="none" xmlns="http://www.w3.org/2000/svg">
<path d="M31.7298 21.5328C34.6836 24.1656 38.2179 26.1205 42.1232 27.5482C42.6705 25.6561 42.9667 23.6561 42.9667 21.5826C42.9667 19.5092 42.6587 17.4476 42.0947 15.5258C38.199 16.9487 34.673 18.9037 31.7263 21.5328H31.7298Z" fill="white" fill-opacity="0.8"/>
<path d="M20.3651 43.035C20.0108 34.2093 17.2419 27.7828 12.8971 23.1501C9.72058 26.0221 5.86992 28.0991 1.58677 29.5683L1.54175 29.5766C4.58201 37.1548 11.8071 42.6026 20.3651 43.0433V43.035Z" fill="white"/>
<path d="M0.872038 15.5306C0.308063 17.4524 0 19.4844 0 21.5875C0 23.6894 0.299767 25.6562 0.843602 27.5531C4.75235 26.1254 8.28196 24.1716 11.2369 21.5377C8.29141 18.9133 4.76538 16.9584 0.868482 15.5306H0.872038Z" fill="white" fill-opacity="0.8"/>
<path d="M1.58774 13.5018C5.86615 14.9711 9.72154 17.048 12.8981 19.9201C17.2429 15.2874 20.0118 8.85613 20.366 0.0351374L20.3862 0.00195312C11.8116 0.434416 4.57113 5.89764 1.53442 13.4924L1.58774 13.5018Z" fill="white"/>
<path d="M41.3811 29.5683C37.1027 28.0991 33.2473 26.0221 30.0708 23.1501C25.726 27.7828 22.957 34.214 22.6028 43.035C31.1608 42.599 38.3942 37.1512 41.4297 29.5683H41.3811Z" fill="white"/>
<path d="M22.6026 0.0320241C22.9569 8.85782 25.7259 15.2843 30.0707 19.917C33.2471 17.045 37.0978 14.968 41.381 13.4988H41.439C38.4071 5.89572 31.1619 0.431311 22.5825 3.0892e-05L22.6026 0.0320241Z" fill="white"/>
</svg>
