<svg width="1928" height="828" viewBox="0 0 1928 828" fill="none" xmlns="http://www.w3.org/2000/svg">
<g filter="url(#filter0_d_458_10114)">
<g clip-path="url(#clip0_458_10114)">
<rect width="1920" height="820" transform="translate(4)" fill="url(#paint0_linear_458_10114)"/>
<g opacity="0.2">
<path d="M1180.06 408.517C1181.64 408.517 1183.01 409.312 1183.21 410.685V410.686C1190.48 463.462 1198.99 494.368 1219.45 513.867C1239.9 533.358 1272.22 541.363 1326.78 548.681L1326.79 548.682L1326.8 548.683C1328.52 548.854 1329.26 549.918 1329.26 550.931C1329.26 551.961 1328.49 553.127 1326.76 553.473C1272.2 560.598 1239.9 568.699 1219.45 588.333C1199.62 607.363 1191.03 637.142 1183.89 686.965L1183.21 691.85C1183.01 693.224 1181.64 694.019 1180.06 694.019C1178.58 694.019 1177.28 693.32 1176.97 692.1L1176.92 691.849C1169.64 639.074 1161.14 608.073 1140.68 588.478C1120.22 568.889 1087.91 560.789 1033.34 553.47L1033.33 553.468L1033.32 553.467C1031.34 553.293 1030.5 552.114 1030.5 551.076C1030.5 550.038 1031.34 548.858 1033.32 548.683L1033.33 548.682L1033.34 548.681C1087.91 541.555 1120.22 533.551 1140.68 514.01C1161.14 494.463 1169.64 463.462 1176.92 410.687C1177.11 409.312 1178.48 408.517 1180.06 408.517Z" fill="white" stroke="#70B2DB"/>
<path d="M1180.06 689.515C1181.64 689.515 1183.01 690.31 1183.21 691.683V691.684C1190.48 744.46 1198.99 775.366 1219.45 794.865C1239.9 814.356 1272.22 822.361 1326.78 829.679L1326.79 829.68L1326.8 829.681C1328.52 829.852 1329.26 830.916 1329.26 831.929C1329.26 832.959 1328.49 834.125 1326.76 834.471C1272.2 841.596 1239.9 849.697 1219.45 869.332C1199.62 888.361 1191.03 918.14 1183.89 967.963L1183.21 972.848C1183.01 974.222 1181.64 975.017 1180.06 975.017C1178.58 975.017 1177.28 974.318 1176.97 973.098L1176.92 972.847C1169.64 920.072 1161.14 889.071 1140.68 869.476C1120.22 849.887 1087.91 841.787 1033.34 834.468L1033.33 834.466L1033.32 834.465C1031.34 834.291 1030.5 833.112 1030.5 832.074C1030.5 831.036 1031.34 829.856 1033.32 829.681L1033.33 829.68L1033.34 829.679C1087.91 822.553 1120.22 814.549 1140.68 795.008C1161.14 775.461 1169.64 744.46 1176.92 691.685C1177.11 690.31 1178.48 689.515 1180.06 689.515Z" fill="white" stroke="#70B2DB"/>
<path d="M1475.06 689.515C1476.64 689.515 1478.01 690.31 1478.21 691.683V691.684C1485.48 744.46 1493.99 775.366 1514.45 794.865C1534.9 814.356 1567.22 822.361 1621.78 829.679L1621.79 829.68L1621.8 829.681C1623.52 829.852 1624.26 830.916 1624.26 831.929C1624.26 832.959 1623.49 834.125 1621.76 834.471C1567.2 841.596 1534.9 849.697 1514.45 869.332C1494.62 888.361 1486.03 918.14 1478.89 967.963L1478.21 972.848C1478.01 974.222 1476.64 975.017 1475.06 975.017C1473.58 975.017 1472.28 974.318 1471.97 973.098L1471.92 972.847C1464.64 920.072 1456.14 889.071 1435.68 869.476C1415.22 849.887 1382.91 841.787 1328.34 834.468L1328.33 834.466L1328.32 834.465C1326.34 834.291 1325.5 833.112 1325.5 832.074C1325.5 831.036 1326.34 829.856 1328.32 829.681L1328.33 829.68L1328.34 829.679C1382.91 822.553 1415.22 814.549 1435.68 795.008C1456.14 775.461 1464.64 744.46 1471.92 691.685C1472.11 690.31 1473.48 689.515 1475.06 689.515Z" fill="white" stroke="#70B2DB"/>
<path d="M1327.06 549.515C1328.64 549.515 1330.01 550.31 1330.21 551.683V551.684C1337.48 604.46 1345.99 635.366 1366.45 654.865C1386.9 674.356 1419.22 682.361 1473.78 689.679L1473.79 689.68L1473.8 689.681C1475.52 689.852 1476.26 690.916 1476.26 691.929C1476.26 692.959 1475.49 694.125 1473.76 694.471C1419.2 701.596 1386.9 709.697 1366.45 729.332C1346.62 748.361 1338.03 778.14 1330.89 827.963L1330.21 832.848C1330.01 834.222 1328.64 835.017 1327.06 835.017C1325.58 835.017 1324.28 834.318 1323.97 833.098L1323.92 832.847C1316.64 780.072 1308.14 749.071 1287.68 729.476C1267.22 709.887 1234.91 701.787 1180.34 694.468L1180.33 694.466L1180.32 694.465C1178.34 694.291 1177.5 693.112 1177.5 692.074C1177.5 691.036 1178.34 689.856 1180.32 689.681L1180.33 689.68L1180.34 689.679C1234.91 682.553 1267.22 674.549 1287.68 655.008C1308.14 635.461 1316.64 604.46 1323.92 551.685C1324.11 550.31 1325.48 549.515 1327.06 549.515Z" fill="white" stroke="#70B2DB"/>
<path d="M1773.7 410.517C1772.12 410.517 1770.75 411.312 1770.56 412.685V412.686C1763.28 465.462 1754.78 496.368 1734.31 515.867C1713.86 535.358 1681.55 543.363 1626.98 550.681L1626.97 550.682L1626.96 550.683C1625.24 550.854 1624.5 551.918 1624.5 552.931C1624.5 553.961 1625.27 555.127 1627 555.473C1681.56 562.598 1713.87 570.699 1734.32 590.333C1754.14 609.363 1762.74 639.142 1769.87 688.965L1770.56 693.85C1770.75 695.224 1772.12 696.019 1773.7 696.019C1775.18 696.019 1776.48 695.32 1776.79 694.1L1776.84 693.849C1784.12 641.074 1792.62 610.073 1813.08 590.478C1833.54 570.889 1865.85 562.789 1920.42 555.47L1920.43 555.468L1920.44 555.467C1922.42 555.293 1923.26 554.114 1923.26 553.076C1923.26 552.038 1922.42 550.858 1920.44 550.683L1920.43 550.682L1920.42 550.681C1865.85 543.555 1833.54 535.551 1813.08 516.01C1792.62 496.463 1784.12 465.462 1776.84 412.687C1776.65 411.312 1775.28 410.517 1773.7 410.517Z" fill="white" stroke="#70B2DB"/>
<path d="M1773.7 691.515C1772.12 691.515 1770.75 692.31 1770.56 693.683V693.684C1763.28 746.46 1754.78 777.366 1734.31 796.865C1713.86 816.356 1681.55 824.361 1626.98 831.679L1626.97 831.68L1626.96 831.681C1625.24 831.852 1624.5 832.916 1624.5 833.929C1624.5 834.959 1625.27 836.125 1627 836.471C1681.56 843.596 1713.87 851.697 1734.32 871.332C1754.14 890.361 1762.74 920.14 1769.87 969.963L1770.56 974.848C1770.75 976.222 1772.12 977.017 1773.7 977.017C1775.18 977.017 1776.48 976.318 1776.79 975.098L1776.84 974.847C1784.12 922.072 1792.62 891.071 1813.08 871.476C1833.54 851.887 1865.85 843.787 1920.42 836.468L1920.43 836.466L1920.44 836.465C1922.42 836.291 1923.26 835.112 1923.26 834.074C1923.26 833.036 1922.42 831.856 1920.44 831.681L1920.43 831.68L1920.42 831.679C1865.85 824.553 1833.54 816.549 1813.08 797.008C1792.62 777.461 1784.12 746.46 1776.84 693.685C1776.65 692.31 1775.28 691.515 1773.7 691.515Z" fill="white" stroke="#70B2DB"/>
<path d="M1626.7 551.515C1625.12 551.515 1623.75 552.31 1623.56 553.683V553.684C1616.28 606.46 1607.78 637.366 1587.31 656.865C1566.86 676.356 1534.55 684.361 1479.98 691.679L1479.97 691.68L1479.96 691.681C1478.24 691.852 1477.5 692.916 1477.5 693.929C1477.5 694.959 1478.27 696.125 1480 696.471C1534.56 703.596 1566.87 711.697 1587.32 731.332C1607.14 750.361 1615.74 780.14 1622.87 829.963L1623.56 834.848C1623.75 836.222 1625.12 837.017 1626.7 837.017C1628.18 837.017 1629.48 836.318 1629.79 835.098L1629.84 834.847C1637.12 782.072 1645.62 751.071 1666.08 731.476C1686.54 711.887 1718.85 703.787 1773.42 696.468L1773.43 696.466L1773.44 696.465C1775.42 696.291 1776.26 695.112 1776.26 694.074C1776.26 693.036 1775.42 691.856 1773.44 691.681L1773.43 691.68L1773.42 691.679C1718.85 684.553 1686.54 676.549 1666.08 657.008C1645.62 637.461 1637.12 606.46 1629.84 553.685C1629.65 552.31 1628.28 551.515 1626.7 551.515Z" fill="white" stroke="#70B2DB"/>
<path d="M1180.06 411.001C1181.64 411.001 1183.01 410.207 1183.21 408.833V408.833C1190.48 356.057 1198.99 325.151 1219.45 305.652C1239.9 286.16 1272.22 278.156 1326.78 270.837L1326.79 270.836L1326.8 270.835C1328.52 270.665 1329.26 269.6 1329.26 268.587C1329.26 267.558 1328.49 266.392 1326.76 266.045C1272.2 258.92 1239.9 250.819 1219.45 231.185C1199.62 212.156 1191.03 182.377 1183.89 132.553L1183.21 127.668C1183.01 126.294 1181.64 125.5 1180.06 125.5C1178.58 125.5 1177.28 126.198 1176.97 127.418L1176.92 127.669C1169.64 180.445 1161.14 211.445 1140.68 231.041C1120.22 250.629 1087.91 258.73 1033.34 266.048L1033.33 266.05L1033.32 266.051C1031.34 266.226 1030.5 267.405 1030.5 268.443C1030.5 269.481 1031.34 270.661 1033.32 270.835L1033.33 270.836L1033.34 270.837C1087.91 277.963 1120.22 285.968 1140.68 305.508C1161.14 325.055 1169.64 356.056 1176.92 408.832C1177.11 410.206 1178.48 411.001 1180.06 411.001Z" fill="white" stroke="#70B2DB"/>
<path d="M1180.06 130.002C1181.64 130.002 1183.01 129.208 1183.21 127.834V127.833C1190.48 75.0577 1198.99 44.1518 1219.45 24.6528C1239.9 5.1612 1272.22 -2.84323 1326.78 -10.1616L1326.79 -10.1626L1326.8 -10.1636C1328.52 -10.334 1329.26 -11.3988 1329.26 -12.4116C1329.26 -13.441 1328.49 -14.6071 1326.76 -14.9536C1272.2 -22.0788 1239.9 -30.1796 1219.45 -49.814C1199.62 -68.8434 1191.03 -98.6222 1183.89 -148.446L1183.21 -153.331C1183.01 -154.705 1181.64 -155.499 1180.06 -155.5C1178.58 -155.5 1177.28 -154.801 1176.97 -153.581L1176.92 -153.33C1169.64 -100.554 1161.14 -69.5535 1140.68 -49.9585C1120.22 -30.3698 1087.91 -22.2692 1033.34 -14.9507L1033.33 -14.9487L1033.32 -14.9478C1031.34 -14.773 1030.5 -13.5942 1030.5 -12.5562C1030.5 -11.5181 1031.34 -10.3383 1033.32 -10.1636L1033.33 -10.1626L1033.34 -10.1616C1087.91 -3.03567 1120.22 4.96852 1140.68 24.5093C1161.14 44.0563 1169.64 75.0572 1176.92 127.833C1177.11 129.207 1178.48 130.002 1180.06 130.002Z" fill="white" stroke="#70B2DB"/>
<path d="M1475.06 130.002C1476.64 130.002 1478.01 129.208 1478.21 127.834V127.833C1485.48 75.0577 1493.99 44.1518 1514.45 24.6528C1534.9 5.1612 1567.22 -2.84323 1621.78 -10.1616L1621.79 -10.1626L1621.8 -10.1636C1623.52 -10.334 1624.26 -11.3988 1624.26 -12.4116C1624.26 -13.441 1623.49 -14.6071 1621.76 -14.9536C1567.2 -22.0788 1534.9 -30.1796 1514.45 -49.814C1494.62 -68.8434 1486.03 -98.6222 1478.89 -148.446L1478.21 -153.331C1478.01 -154.705 1476.64 -155.499 1475.06 -155.5C1473.58 -155.5 1472.28 -154.801 1471.97 -153.581L1471.92 -153.33C1464.64 -100.554 1456.14 -69.5535 1435.68 -49.9585C1415.22 -30.3698 1382.91 -22.2692 1328.34 -14.9507L1328.33 -14.9487L1328.32 -14.9478C1326.34 -14.773 1325.5 -13.5942 1325.5 -12.5562C1325.5 -11.5181 1326.34 -10.3383 1328.32 -10.1636L1328.33 -10.1626L1328.34 -10.1616C1382.91 -3.03567 1415.22 4.96852 1435.68 24.5093C1456.14 44.0563 1464.64 75.0572 1471.92 127.833C1472.11 129.207 1473.48 130.002 1475.06 130.002Z" fill="white" stroke="#70B2DB"/>
<path d="M1327.06 270.002C1328.64 270.002 1330.01 269.208 1330.21 267.834V267.833C1337.48 215.058 1345.99 184.152 1366.45 164.653C1386.9 145.161 1419.22 137.157 1473.78 129.838L1473.79 129.837L1473.8 129.836C1475.52 129.666 1476.26 128.601 1476.26 127.588C1476.26 126.559 1475.49 125.393 1473.76 125.046C1419.2 117.921 1386.9 109.82 1366.45 90.186C1346.62 71.1566 1338.03 41.3778 1330.89 -8.4458L1330.21 -13.3306C1330.01 -14.7048 1328.64 -15.4995 1327.06 -15.4995C1325.58 -15.4995 1324.28 -14.8008 1323.97 -13.5806L1323.92 -13.3296C1316.64 39.4458 1308.14 70.4465 1287.68 90.0415C1267.22 109.63 1234.91 117.731 1180.34 125.049L1180.33 125.051L1180.32 125.052C1178.34 125.227 1177.5 126.406 1177.5 127.444C1177.5 128.482 1178.34 129.662 1180.32 129.836L1180.33 129.837L1180.34 129.838C1234.91 136.964 1267.22 144.969 1287.68 164.509C1308.14 184.056 1316.64 215.057 1323.92 267.833C1324.11 269.207 1325.48 270.002 1327.06 270.002Z" fill="white" stroke="#70B2DB"/>
<path d="M1773.7 409.001C1772.12 409.001 1770.75 408.207 1770.56 406.833V406.833C1763.28 354.057 1754.78 323.151 1734.31 303.652C1713.86 284.16 1681.55 276.156 1626.98 268.837L1626.97 268.836L1626.96 268.835C1625.24 268.665 1624.5 267.6 1624.5 266.587C1624.5 265.558 1625.27 264.392 1627 264.045C1681.56 256.92 1713.87 248.819 1734.32 229.185C1754.14 210.156 1762.74 180.377 1769.87 130.553L1770.56 125.668C1770.75 124.294 1772.12 123.5 1773.7 123.5C1775.18 123.5 1776.48 124.198 1776.79 125.418L1776.84 125.669C1784.12 178.445 1792.62 209.445 1813.08 229.041C1833.54 248.629 1865.85 256.73 1920.42 264.048L1920.43 264.05L1920.44 264.051C1922.42 264.226 1923.26 265.405 1923.26 266.443C1923.26 267.481 1922.42 268.661 1920.44 268.835L1920.43 268.836L1920.42 268.837C1865.85 275.963 1833.54 283.968 1813.08 303.508C1792.62 323.055 1784.12 354.056 1776.84 406.832C1776.65 408.206 1775.28 409.001 1773.7 409.001Z" fill="white" stroke="#70B2DB"/>
<path d="M1773.7 128.002C1772.12 128.002 1770.75 127.208 1770.56 125.834V125.833C1763.28 73.0577 1754.78 42.1518 1734.31 22.6528C1713.86 3.1612 1681.55 -4.84323 1626.98 -12.1616L1626.97 -12.1626L1626.96 -12.1636C1625.24 -12.334 1624.5 -13.3988 1624.5 -14.4116C1624.5 -15.441 1625.27 -16.6071 1627 -16.9536C1681.56 -24.0788 1713.87 -32.1796 1734.32 -51.814C1754.14 -70.8434 1762.74 -100.622 1769.87 -150.446L1770.56 -155.331C1770.75 -156.705 1772.12 -157.499 1773.7 -157.5C1775.18 -157.5 1776.48 -156.801 1776.79 -155.581L1776.84 -155.33C1784.12 -102.554 1792.62 -71.5535 1813.08 -51.9585C1833.54 -32.3698 1865.85 -24.2692 1920.42 -16.9507L1920.43 -16.9487L1920.44 -16.9478C1922.42 -16.773 1923.26 -15.5942 1923.26 -14.5562C1923.26 -13.5181 1922.42 -12.3383 1920.44 -12.1636L1920.43 -12.1626L1920.42 -12.1616C1865.85 -5.03567 1833.54 2.96852 1813.08 22.5093C1792.62 42.0563 1784.12 73.0572 1776.84 125.833C1776.65 127.207 1775.28 128.002 1773.7 128.002Z" fill="white" stroke="#70B2DB"/>
<path d="M1626.7 268.002C1625.12 268.002 1623.75 267.208 1623.56 265.834V265.833C1616.28 213.058 1607.78 182.152 1587.31 162.653C1566.86 143.161 1534.55 135.157 1479.98 127.838L1479.97 127.837L1479.96 127.836C1478.24 127.666 1477.5 126.601 1477.5 125.588C1477.5 124.559 1478.27 123.393 1480 123.046C1534.56 115.921 1566.87 107.82 1587.32 88.186C1607.14 69.1566 1615.74 39.3778 1622.87 -10.4458L1623.56 -15.3306C1623.75 -16.7048 1625.12 -17.4995 1626.7 -17.4995C1628.18 -17.4995 1629.48 -16.8008 1629.79 -15.5806L1629.84 -15.3296C1637.12 37.4458 1645.62 68.4465 1666.08 88.0415C1686.54 107.63 1718.85 115.731 1773.42 123.049L1773.43 123.051L1773.44 123.052C1775.42 123.227 1776.26 124.406 1776.26 125.444C1776.26 126.482 1775.42 127.662 1773.44 127.836L1773.43 127.837L1773.42 127.838C1718.85 134.964 1686.54 142.969 1666.08 162.509C1645.62 182.056 1637.12 213.057 1629.84 265.833C1629.65 267.207 1628.28 268.002 1626.7 268.002Z" fill="white" stroke="#70B2DB"/>
</g>
<path d="M1473.85 409.949C1364.67 424.206 1345.26 442.317 1330.7 547.901C1330.22 551.369 1323.91 551.369 1323.42 547.901C1308.87 442.317 1289.46 424.592 1180.28 409.949C1175.91 409.563 1175.91 404.554 1180.28 404.168C1289.46 389.911 1308.87 372.185 1323.42 266.601C1323.91 263.133 1330.22 263.133 1330.7 266.601C1345.26 372.185 1364.67 389.525 1473.85 404.168C1477.73 404.554 1477.73 409.178 1473.85 409.949Z" fill="#C9E1F0"/>
<path d="M1773.1 410.697C1663.92 424.954 1644.51 443.065 1629.95 548.649C1629.47 552.117 1623.16 552.117 1622.67 548.649C1608.12 443.065 1588.71 425.34 1479.53 410.697C1475.16 410.311 1475.16 405.302 1479.53 404.916C1588.71 390.659 1608.12 372.933 1622.67 267.349C1623.16 263.881 1629.47 263.881 1629.95 267.349C1644.51 372.933 1663.92 390.273 1773.1 404.916C1776.98 405.302 1776.98 409.926 1773.1 410.697Z" fill="#C9E1F0"/>
<path d="M1621.92 269.949C1512.74 284.206 1493.33 302.317 1478.77 407.901C1478.29 411.369 1471.98 411.369 1471.5 407.901C1456.94 302.317 1437.53 284.592 1328.35 269.949C1323.98 269.563 1323.98 264.554 1328.35 264.168C1437.53 249.911 1456.94 232.185 1471.5 126.601C1471.98 123.133 1478.29 123.133 1478.77 126.601C1493.33 232.185 1512.74 249.525 1621.92 264.168C1625.8 264.554 1625.8 269.178 1621.92 269.949Z" fill="#C9E1F0"/>
<path d="M1621.92 551.445C1512.74 565.702 1493.33 583.813 1478.77 689.397C1478.29 692.865 1471.98 692.865 1471.5 689.397C1456.94 583.813 1437.53 566.088 1328.35 551.445C1323.98 551.059 1323.98 546.05 1328.35 545.664C1437.53 531.407 1456.94 513.681 1471.5 408.097C1471.98 404.629 1478.29 404.629 1478.77 408.097C1493.33 513.681 1512.74 531.021 1621.92 545.664C1625.8 546.05 1625.8 550.674 1621.92 551.445Z" fill="#C9E1F0"/>
<path d="M1621.03 405.995C1511.85 420.253 1492.44 438.364 1477.89 543.948C1477.4 547.416 1471.09 547.416 1470.61 543.948C1456.05 438.364 1436.64 420.638 1327.46 405.995C1323.09 405.61 1323.09 400.601 1327.46 400.215C1436.64 385.958 1456.05 368.232 1470.61 262.648C1471.09 259.18 1477.4 259.18 1477.89 262.648C1492.44 368.232 1511.85 385.572 1621.03 400.215C1624.91 400.601 1624.91 405.225 1621.03 405.995Z" fill="#B8D9EE"/>
</g>
</g>
<defs>
<filter id="filter0_d_458_10114" x="0" y="0" width="1928" height="828" filterUnits="userSpaceOnUse" color-interpolation-filters="sRGB">
<feFlood flood-opacity="0" result="BackgroundImageFix"/>
<feColorMatrix in="SourceAlpha" type="matrix" values="0 0 0 0 0 0 0 0 0 0 0 0 0 0 0 0 0 0 127 0" result="hardAlpha"/>
<feOffset dy="4"/>
<feGaussianBlur stdDeviation="2"/>
<feComposite in2="hardAlpha" operator="out"/>
<feColorMatrix type="matrix" values="0 0 0 0 0 0 0 0 0 0 0 0 0 0 0 0 0 0 0.25 0"/>
<feBlend mode="normal" in2="BackgroundImageFix" result="effect1_dropShadow_458_10114"/>
<feBlend mode="normal" in="SourceGraphic" in2="effect1_dropShadow_458_10114" result="shape"/>
</filter>
<linearGradient id="paint0_linear_458_10114" x1="960" y1="0" x2="960" y2="820" gradientUnits="userSpaceOnUse">
<stop stop-color="white"/>
<stop offset="1" stop-color="#B8D9EE"/>
</linearGradient>
<clipPath id="clip0_458_10114">
<rect width="1920" height="820" fill="white" transform="translate(4)"/>
</clipPath>
</defs>
</svg>
