<svg width="1920" height="965" viewBox="0 0 1920 965" fill="none" xmlns="http://www.w3.org/2000/svg">
<g clip-path="url(#clip0_490_5579)">
<mask id="path-1-inside-1_490_5579" fill="white">
<path d="M0 100C0 44.7715 44.7715 0 100 0H1820C1875.23 0 1920 44.7715 1920 100V965H0V100Z"/>
</mask>
<path d="M0 100C0 44.7715 44.7715 0 100 0H1820C1875.23 0 1920 44.7715 1920 100V965H0V100Z" fill="white"/>
<g opacity="0.27">
<circle cx="1834.5" cy="-0.5" r="92" stroke="#94C6E4"/>
<path d="M1573.4 44.5C1577.37 51.314 1582.2 57.6022 1587.8 63.2002C1596.3 71.6968 1606.38 78.4369 1617.48 83.0352C1628.59 87.6335 1640.48 90 1652.5 90V90.5H1561C1561 78.484 1563.37 66.5857 1567.96 55.4844C1569.53 51.6972 1571.35 48.0282 1573.4 44.5Z" fill="#B6D1FB"/>
<mask id="path-5-inside-2_490_5579" fill="white">
<path d="M1651.5 182C1639.48 182 1627.59 179.633 1616.48 175.035C1605.38 170.437 1595.3 163.697 1586.8 155.2C1578.3 146.704 1571.56 136.617 1566.97 125.516C1562.37 114.414 1560 102.516 1560 90.5C1560 78.484 1562.37 66.5857 1566.97 55.4845C1571.56 44.3832 1578.3 34.2963 1586.8 25.7997C1595.3 17.3032 1605.38 10.5633 1616.48 5.96501C1627.59 1.36671 1639.48 -1.00001 1651.5 -1L1651.5 90.5L1651.5 182Z"/>
</mask>
<path d="M1651.5 182C1639.48 182 1627.59 179.633 1616.48 175.035C1605.38 170.437 1595.3 163.697 1586.8 155.2C1578.3 146.704 1571.56 136.617 1566.97 125.516C1562.37 114.414 1560 102.516 1560 90.5C1560 78.484 1562.37 66.5857 1566.97 55.4845C1571.56 44.3832 1578.3 34.2963 1586.8 25.7997C1595.3 17.3032 1605.38 10.5633 1616.48 5.96501C1627.59 1.36671 1639.48 -1.00001 1651.5 -1L1651.5 90.5L1651.5 182Z" stroke="#94C6E4" stroke-width="2" mask="url(#path-5-inside-2_490_5579)"/>
<mask id="path-6-inside-3_490_5579" fill="white">
<path d="M1650.5 91C1662.52 91 1674.41 93.3667 1685.52 97.965C1696.62 102.563 1706.7 109.303 1715.2 117.8C1723.7 126.296 1730.44 136.383 1735.03 147.484C1739.63 158.586 1742 170.484 1742 182.5C1742 194.516 1739.63 206.414 1735.03 217.516C1730.44 228.617 1723.7 238.704 1715.2 247.2C1706.7 255.697 1696.62 262.437 1685.52 267.035C1674.41 271.633 1662.52 274 1650.5 274L1650.5 182.5L1650.5 91Z"/>
</mask>
<path d="M1650.5 91C1662.52 91 1674.41 93.3667 1685.52 97.965C1696.62 102.563 1706.7 109.303 1715.2 117.8C1723.7 126.296 1730.44 136.383 1735.03 147.484C1739.63 158.586 1742 170.484 1742 182.5C1742 194.516 1739.63 206.414 1735.03 217.516C1730.44 228.617 1723.7 238.704 1715.2 247.2C1706.7 255.697 1696.62 262.437 1685.52 267.035C1674.41 271.633 1662.52 274 1650.5 274L1650.5 182.5L1650.5 91Z" stroke="#94C6E4" stroke-width="2" mask="url(#path-6-inside-3_490_5579)"/>
<mask id="path-7-inside-4_490_5579" fill="white">
<path d="M1834.5 91C1822.48 91 1810.59 93.3667 1799.48 97.965C1788.38 102.563 1778.3 109.303 1769.8 117.8C1761.3 126.296 1754.56 136.383 1749.97 147.484C1745.37 158.586 1743 170.484 1743 182.5C1743 194.516 1745.37 206.414 1749.97 217.516C1754.56 228.617 1761.3 238.704 1769.8 247.2C1778.3 255.697 1788.38 262.437 1799.48 267.035C1810.59 271.633 1822.48 274 1834.5 274L1834.5 182.5L1834.5 91Z"/>
</mask>
<path d="M1834.5 91C1822.48 91 1810.59 93.3667 1799.48 97.965C1788.38 102.563 1778.3 109.303 1769.8 117.8C1761.3 126.296 1754.56 136.383 1749.97 147.484C1745.37 158.586 1743 170.484 1743 182.5C1743 194.516 1745.37 206.414 1749.97 217.516C1754.56 228.617 1761.3 238.704 1769.8 247.2C1778.3 255.697 1788.38 262.437 1799.48 267.035C1810.59 271.633 1822.48 274 1834.5 274L1834.5 182.5L1834.5 91Z" stroke="#94C6E4" stroke-width="2" mask="url(#path-7-inside-4_490_5579)"/>
<mask id="path-8-inside-5_490_5579" fill="white">
<path d="M1651.5 364C1639.48 364 1627.59 361.633 1616.48 357.035C1605.38 352.437 1595.3 345.697 1586.8 337.2C1578.3 328.704 1571.56 318.617 1566.97 307.516C1562.37 296.414 1560 284.516 1560 272.5C1560 260.484 1562.37 248.586 1566.97 237.484C1571.56 226.383 1578.3 216.296 1586.8 207.8C1595.3 199.303 1605.38 192.563 1616.48 187.965C1627.59 183.367 1639.48 181 1651.5 181L1651.5 272.5L1651.5 364Z"/>
</mask>
<path d="M1651.5 364C1639.48 364 1627.59 361.633 1616.48 357.035C1605.38 352.437 1595.3 345.697 1586.8 337.2C1578.3 328.704 1571.56 318.617 1566.97 307.516C1562.37 296.414 1560 284.516 1560 272.5C1560 260.484 1562.37 248.586 1566.97 237.484C1571.56 226.383 1578.3 216.296 1586.8 207.8C1595.3 199.303 1605.38 192.563 1616.48 187.965C1627.59 183.367 1639.48 181 1651.5 181L1651.5 272.5L1651.5 364Z" stroke="#94C6E4" stroke-width="2" mask="url(#path-8-inside-5_490_5579)"/>
<mask id="path-9-inside-6_490_5579" fill="white">
<path d="M1650.5 364C1662.52 364 1674.41 361.633 1685.52 357.035C1696.62 352.437 1706.7 345.697 1715.2 337.2C1723.7 328.704 1730.44 318.617 1735.03 307.516C1739.63 296.414 1742 284.516 1742 272.5L1650.5 272.5L1650.5 364Z"/>
</mask>
<path d="M1650.5 364C1662.52 364 1674.41 361.633 1685.52 357.035C1696.62 352.437 1706.7 345.697 1715.2 337.2C1723.7 328.704 1730.44 318.617 1735.03 307.516C1739.63 296.414 1742 284.516 1742 272.5L1650.5 272.5L1650.5 364Z" stroke="#94C6E4" stroke-width="2" mask="url(#path-9-inside-6_490_5579)"/>
<mask id="path-10-inside-7_490_5579" fill="white">
<path d="M1560 272.5C1560 260.484 1562.37 248.586 1566.97 237.484C1571.56 226.383 1578.3 216.296 1586.8 207.8C1595.3 199.303 1605.38 192.563 1616.48 187.965C1627.59 183.367 1639.48 181 1651.5 181L1651.5 272.5L1560 272.5Z"/>
</mask>
<path d="M1560 272.5C1560 260.484 1562.37 248.586 1566.97 237.484C1571.56 226.383 1578.3 216.296 1586.8 207.8C1595.3 199.303 1605.38 192.563 1616.48 187.965C1627.59 183.367 1639.48 181 1651.5 181L1651.5 272.5L1560 272.5Z" fill="#4A8FB8" stroke="#94C6E4" stroke-width="2" mask="url(#path-10-inside-7_490_5579)"/>
<mask id="path-11-inside-8_490_5579" fill="white">
<path d="M1744 -0.5C1744 11.516 1741.63 23.4142 1737.03 34.5155C1732.44 45.6168 1725.7 55.7037 1717.2 64.2003C1708.7 72.6968 1698.62 79.4367 1687.52 84.035C1676.41 88.6333 1664.52 91 1652.5 91C1640.48 91 1628.59 88.6333 1617.48 84.035C1606.38 79.4367 1596.3 72.6968 1587.8 64.2003C1579.3 55.7037 1572.56 45.6168 1567.97 34.5155C1563.37 23.4142 1561 11.5159 1561 -0.500008L1652.5 -0.5L1744 -0.5Z"/>
</mask>
<path d="M1744 -0.5C1744 11.516 1741.63 23.4142 1737.03 34.5155C1732.44 45.6168 1725.7 55.7037 1717.2 64.2003C1708.7 72.6968 1698.62 79.4367 1687.52 84.035C1676.41 88.6333 1664.52 91 1652.5 91C1640.48 91 1628.59 88.6333 1617.48 84.035C1606.38 79.4367 1596.3 72.6968 1587.8 64.2003C1579.3 55.7037 1572.56 45.6168 1567.97 34.5155C1563.37 23.4142 1561 11.5159 1561 -0.500008L1652.5 -0.5L1744 -0.5Z" stroke="#94C6E4" stroke-width="2" mask="url(#path-11-inside-8_490_5579)"/>
<mask id="path-12-inside-9_490_5579" fill="white">
<path d="M1926.5 -1C1914.35 -1 1902.32 1.39258 1891.1 6.04114C1879.88 10.6897 1869.68 17.5032 1861.09 26.0926C1852.5 34.682 1845.69 44.8792 1841.04 56.1018C1836.39 67.3244 1834 79.3527 1834 91.5C1834 103.647 1836.39 115.676 1841.04 126.898C1845.69 138.121 1852.5 148.318 1861.09 156.907C1869.68 165.497 1879.88 172.31 1891.1 176.959C1902.32 181.607 1914.35 184 1926.5 184L1926.5 91.5L1926.5 -1Z"/>
</mask>
<path d="M1926.5 -1C1914.35 -1 1902.32 1.39258 1891.1 6.04114C1879.88 10.6897 1869.68 17.5032 1861.09 26.0926C1852.5 34.682 1845.69 44.8792 1841.04 56.1018C1836.39 67.3244 1834 79.3527 1834 91.5C1834 103.647 1836.39 115.676 1841.04 126.898C1845.69 138.121 1852.5 148.318 1861.09 156.907C1869.68 165.497 1879.88 172.31 1891.1 176.959C1902.32 181.607 1914.35 184 1926.5 184L1926.5 91.5L1926.5 -1Z" stroke="#94C6E4" stroke-width="2" mask="url(#path-12-inside-9_490_5579)"/>
<mask id="path-13-inside-10_490_5579" fill="white">
<path d="M1926.5 9.16504C1921.67 55.7091 1882.32 92 1834.5 92C1834.33 92 1834.17 91.997 1834 91.9961C1834 91.8308 1834 91.6654 1834 91.5C1834 79.3527 1836.39 67.3242 1841.04 56.1016C1845.69 44.879 1852.5 34.6822 1861.09 26.0928C1869.68 17.5034 1879.88 10.6896 1891.1 6.04102C1902.32 1.39245 1914.35 -0.999999 1926.5 -1V9.16504Z"/>
</mask>
<path d="M1926.5 9.16504C1921.67 55.7091 1882.32 92 1834.5 92C1834.33 92 1834.17 91.997 1834 91.9961C1834 91.8308 1834 91.6654 1834 91.5C1834 79.3527 1836.39 67.3242 1841.04 56.1016C1845.69 44.879 1852.5 34.6822 1861.09 26.0928C1869.68 17.5034 1879.88 10.6896 1891.1 6.04102C1902.32 1.39245 1914.35 -0.999999 1926.5 -1V9.16504Z" fill="#70B2DB"/>
<path d="M1926.5 9.16504L1927.49 9.26831L1927.5 9.21681V9.16504H1926.5ZM1834 91.9961L1833 92.0015L1833.01 92.9909L1834 92.9961L1834 91.9961ZM1834 91.5H1833V91.5H1834ZM1841.04 56.1016L1840.12 55.7189L1840.12 55.7189L1841.04 56.1016ZM1861.09 26.0928L1860.39 25.3857V25.3857L1861.09 26.0928ZM1891.1 6.04102L1890.72 5.11714L1890.72 5.11714L1891.1 6.04102ZM1926.5 -1H1927.5V-2H1926.5V-1ZM1926.5 9.16504L1925.51 9.06177C1920.73 55.1016 1881.8 91 1834.5 91V92V93C1882.84 93 1922.61 56.3166 1927.49 9.26831L1926.5 9.16504ZM1834.5 92V91C1834.33 91 1834.2 90.9971 1834.01 90.9961L1834 91.9961L1834 92.9961C1834.14 92.9968 1834.34 93 1834.5 93V92ZM1834 91.9961L1835 91.9907C1835 91.8149 1835 91.663 1835 91.5H1834H1833C1833 91.6678 1833 91.8466 1833 92.0015L1834 91.9961ZM1834 91.5H1835C1835 79.484 1837.37 67.5855 1841.96 56.4842L1841.04 56.1016L1840.12 55.7189C1835.42 67.0628 1833 79.2214 1833 91.5H1834ZM1841.04 56.1016L1841.96 56.4842C1846.56 45.383 1853.3 35.2964 1861.8 26.7999L1861.09 26.0928L1860.39 25.3857C1851.7 34.0679 1844.82 44.375 1840.12 55.7189L1841.04 56.1016ZM1861.09 26.0928L1861.8 26.7999C1870.3 18.3033 1880.38 11.5632 1891.48 6.96489L1891.1 6.04102L1890.72 5.11714C1879.37 9.81596 1869.07 16.7034 1860.39 25.3857L1861.09 26.0928ZM1891.1 6.04102L1891.48 6.9649C1902.59 2.36659 1914.48 4.76837e-07 1926.5 0V-1V-2C1914.22 -2 1902.06 0.418317 1890.72 5.11714L1891.1 6.04102ZM1926.5 -1H1925.5V9.16504H1926.5H1927.5V-1H1926.5Z" fill="#94C6E4" mask="url(#path-13-inside-10_490_5579)"/>
<circle cx="1607" cy="-1" r="45.5" stroke="#94C6E4"/>
<circle cx="1835" cy="228" r="45.5" stroke="#94C6E4"/>
<mask id="path-17-inside-11_490_5579" fill="white">
<path d="M1835 274C1822.8 274 1811.1 269.154 1802.47 260.527C1793.85 251.9 1789 240.2 1789 228C1789 215.8 1793.85 204.1 1802.47 195.473C1811.1 186.846 1822.8 182 1835 182L1835 228L1835 274Z"/>
</mask>
<path d="M1835 274C1822.8 274 1811.1 269.154 1802.47 260.527C1793.85 251.9 1789 240.2 1789 228C1789 215.8 1793.85 204.1 1802.47 195.473C1811.1 186.846 1822.8 182 1835 182L1835 228L1835 274Z" fill="#94C6E4" stroke="#94C6E4" stroke-width="2" mask="url(#path-17-inside-11_490_5579)"/>
</g>
<g opacity="0.27">
<circle cx="275.5" cy="671" r="92" stroke="#94C6E4"/>
<path d="M14.4033 716C18.3661 722.814 23.2018 729.102 28.7998 734.7C37.2964 743.197 47.3831 749.937 58.4844 754.535C69.5857 759.133 81.484 761.5 93.5 761.5V762H2C2 749.984 4.36654 738.086 8.96484 726.984C10.5335 723.197 12.3515 719.528 14.4033 716Z" fill="#B6D1FB"/>
<mask id="path-20-inside-12_490_5579" fill="white">
<path d="M92.5 853.5C80.484 853.5 68.5857 851.133 57.4845 846.535C46.3832 841.937 36.2963 835.197 27.7997 826.7C19.3032 818.204 12.5633 808.117 7.96502 797.016C3.36671 785.914 0.999995 774.016 0.999996 762C0.999997 749.984 3.36672 738.086 7.96502 726.984C12.5633 715.883 19.3032 705.796 27.7997 697.3C36.2963 688.803 46.3832 682.063 57.4845 677.465C68.5858 672.867 80.4841 670.5 92.5 670.5L92.5 762L92.5 853.5Z"/>
</mask>
<path d="M92.5 853.5C80.484 853.5 68.5857 851.133 57.4845 846.535C46.3832 841.937 36.2963 835.197 27.7997 826.7C19.3032 818.204 12.5633 808.117 7.96502 797.016C3.36671 785.914 0.999995 774.016 0.999996 762C0.999997 749.984 3.36672 738.086 7.96502 726.984C12.5633 715.883 19.3032 705.796 27.7997 697.3C36.2963 688.803 46.3832 682.063 57.4845 677.465C68.5858 672.867 80.4841 670.5 92.5 670.5L92.5 762L92.5 853.5Z" stroke="#94C6E4" stroke-width="2" mask="url(#path-20-inside-12_490_5579)"/>
<mask id="path-21-inside-13_490_5579" fill="white">
<path d="M91.5 762.5C103.516 762.5 115.414 764.867 126.516 769.465C137.617 774.063 147.704 780.803 156.2 789.3C164.697 797.796 171.437 807.883 176.035 818.984C180.633 830.086 183 841.984 183 854C183 866.016 180.633 877.914 176.035 889.016C171.437 900.117 164.697 910.204 156.2 918.7C147.704 927.197 137.617 933.937 126.516 938.535C115.414 943.133 103.516 945.5 91.5 945.5L91.5 854L91.5 762.5Z"/>
</mask>
<path d="M91.5 762.5C103.516 762.5 115.414 764.867 126.516 769.465C137.617 774.063 147.704 780.803 156.2 789.3C164.697 797.796 171.437 807.883 176.035 818.984C180.633 830.086 183 841.984 183 854C183 866.016 180.633 877.914 176.035 889.016C171.437 900.117 164.697 910.204 156.2 918.7C147.704 927.197 137.617 933.937 126.516 938.535C115.414 943.133 103.516 945.5 91.5 945.5L91.5 854L91.5 762.5Z" stroke="#94C6E4" stroke-width="2" mask="url(#path-21-inside-13_490_5579)"/>
<mask id="path-22-inside-14_490_5579" fill="white">
<path d="M275.5 762.5C263.484 762.5 251.586 764.867 240.484 769.465C229.383 774.063 219.296 780.803 210.8 789.3C202.303 797.796 195.563 807.883 190.965 818.984C186.367 830.086 184 841.984 184 854C184 866.016 186.367 877.914 190.965 889.016C195.563 900.117 202.303 910.204 210.8 918.7C219.296 927.197 229.383 933.937 240.484 938.535C251.586 943.133 263.484 945.5 275.5 945.5L275.5 854L275.5 762.5Z"/>
</mask>
<path d="M275.5 762.5C263.484 762.5 251.586 764.867 240.484 769.465C229.383 774.063 219.296 780.803 210.8 789.3C202.303 797.796 195.563 807.883 190.965 818.984C186.367 830.086 184 841.984 184 854C184 866.016 186.367 877.914 190.965 889.016C195.563 900.117 202.303 910.204 210.8 918.7C219.296 927.197 229.383 933.937 240.484 938.535C251.586 943.133 263.484 945.5 275.5 945.5L275.5 854L275.5 762.5Z" stroke="#94C6E4" stroke-width="2" mask="url(#path-22-inside-14_490_5579)"/>
<mask id="path-23-inside-15_490_5579" fill="white">
<path d="M92.5 1035.5C80.484 1035.5 68.5857 1033.13 57.4845 1028.53C46.3832 1023.94 36.2963 1017.2 27.7997 1008.7C19.3032 1000.2 12.5633 990.117 7.96502 979.016C3.36671 967.914 0.999995 956.016 0.999996 944C0.999997 931.984 3.36672 920.086 7.96502 908.984C12.5633 897.883 19.3032 887.796 27.7997 879.3C36.2963 870.803 46.3832 864.063 57.4845 859.465C68.5858 854.867 80.4841 852.5 92.5 852.5L92.5 944L92.5 1035.5Z"/>
</mask>
<path d="M92.5 1035.5C80.484 1035.5 68.5857 1033.13 57.4845 1028.53C46.3832 1023.94 36.2963 1017.2 27.7997 1008.7C19.3032 1000.2 12.5633 990.117 7.96502 979.016C3.36671 967.914 0.999995 956.016 0.999996 944C0.999997 931.984 3.36672 920.086 7.96502 908.984C12.5633 897.883 19.3032 887.796 27.7997 879.3C36.2963 870.803 46.3832 864.063 57.4845 859.465C68.5858 854.867 80.4841 852.5 92.5 852.5L92.5 944L92.5 1035.5Z" stroke="#94C6E4" stroke-width="2" mask="url(#path-23-inside-15_490_5579)"/>
<mask id="path-24-inside-16_490_5579" fill="white">
<path d="M91.5 1035.5C103.516 1035.5 115.414 1033.13 126.516 1028.53C137.617 1023.94 147.704 1017.2 156.2 1008.7C164.697 1000.2 171.437 990.117 176.035 979.016C180.633 967.914 183 956.016 183 944L91.5 944L91.5 1035.5Z"/>
</mask>
<path d="M91.5 1035.5C103.516 1035.5 115.414 1033.13 126.516 1028.53C137.617 1023.94 147.704 1017.2 156.2 1008.7C164.697 1000.2 171.437 990.117 176.035 979.016C180.633 967.914 183 956.016 183 944L91.5 944L91.5 1035.5Z" stroke="#94C6E4" stroke-width="2" mask="url(#path-24-inside-16_490_5579)"/>
<mask id="path-25-inside-17_490_5579" fill="white">
<path d="M0.999996 944C0.999997 931.984 3.36672 920.086 7.96502 908.984C12.5633 897.883 19.3032 887.796 27.7997 879.3C36.2963 870.803 46.3832 864.063 57.4845 859.465C68.5858 854.867 80.4841 852.5 92.5 852.5L92.5 944L0.999996 944Z"/>
</mask>
<path d="M0.999996 944C0.999997 931.984 3.36672 920.086 7.96502 908.984C12.5633 897.883 19.3032 887.796 27.7997 879.3C36.2963 870.803 46.3832 864.063 57.4845 859.465C68.5858 854.867 80.4841 852.5 92.5 852.5L92.5 944L0.999996 944Z" fill="#4A8FB8" stroke="#94C6E4" stroke-width="2" mask="url(#path-25-inside-17_490_5579)"/>
<mask id="path-26-inside-18_490_5579" fill="white">
<path d="M185 671C185 683.016 182.633 694.914 178.035 706.016C173.437 717.117 166.697 727.204 158.2 735.7C149.704 744.197 139.617 750.937 128.516 755.535C117.414 760.133 105.516 762.5 93.5 762.5C81.484 762.5 69.5858 760.133 58.4845 755.535C47.3832 750.937 37.2963 744.197 28.7997 735.7C20.3032 727.204 13.5633 717.117 8.96502 706.016C4.36672 694.914 2 683.016 2 671L93.5 671H185Z"/>
</mask>
<path d="M185 671C185 683.016 182.633 694.914 178.035 706.016C173.437 717.117 166.697 727.204 158.2 735.7C149.704 744.197 139.617 750.937 128.516 755.535C117.414 760.133 105.516 762.5 93.5 762.5C81.484 762.5 69.5858 760.133 58.4845 755.535C47.3832 750.937 37.2963 744.197 28.7997 735.7C20.3032 727.204 13.5633 717.117 8.96502 706.016C4.36672 694.914 2 683.016 2 671L93.5 671H185Z" stroke="#94C6E4" stroke-width="2" mask="url(#path-26-inside-18_490_5579)"/>
<mask id="path-27-inside-19_490_5579" fill="white">
<path d="M367.5 670.5C355.353 670.5 343.324 672.893 332.102 677.541C320.879 682.19 310.682 689.003 302.093 697.593C293.503 706.182 286.69 716.379 282.041 727.602C277.393 738.824 275 750.853 275 763C275 775.147 277.393 787.176 282.041 798.398C286.69 809.621 293.503 819.818 302.093 828.407C310.682 836.997 320.879 843.81 332.102 848.459C343.324 853.107 355.353 855.5 367.5 855.5L367.5 763L367.5 670.5Z"/>
</mask>
<path d="M367.5 670.5C355.353 670.5 343.324 672.893 332.102 677.541C320.879 682.19 310.682 689.003 302.093 697.593C293.503 706.182 286.69 716.379 282.041 727.602C277.393 738.824 275 750.853 275 763C275 775.147 277.393 787.176 282.041 798.398C286.69 809.621 293.503 819.818 302.093 828.407C310.682 836.997 320.879 843.81 332.102 848.459C343.324 853.107 355.353 855.5 367.5 855.5L367.5 763L367.5 670.5Z" stroke="#94C6E4" stroke-width="2" mask="url(#path-27-inside-19_490_5579)"/>
<mask id="path-28-inside-20_490_5579" fill="white">
<path d="M367.5 680.665C362.667 727.209 323.322 763.5 275.5 763.5C275.334 763.5 275.169 763.497 275.003 763.496C275.002 763.331 275 763.165 275 763C275 750.853 277.392 738.824 282.041 727.602C286.69 716.379 293.503 706.182 302.093 697.593C310.682 689.003 320.879 682.19 332.102 677.541C343.324 672.892 355.353 670.5 367.5 670.5V680.665Z"/>
</mask>
<path d="M367.5 680.665C362.667 727.209 323.322 763.5 275.5 763.5C275.334 763.5 275.169 763.497 275.003 763.496C275.002 763.331 275 763.165 275 763C275 750.853 277.392 738.824 282.041 727.602C286.69 716.379 293.503 706.182 302.093 697.593C310.682 689.003 320.879 682.19 332.102 677.541C343.324 672.892 355.353 670.5 367.5 670.5V680.665Z" fill="#70B2DB"/>
<path d="M367.5 680.665L368.495 680.768L368.5 680.717V680.665H367.5ZM275.003 763.496L274.003 763.501L274.008 764.491L274.998 764.496L275.003 763.496ZM275 763H274V763H275ZM282.041 727.602L281.117 727.219L281.117 727.219L282.041 727.602ZM302.093 697.593L301.386 696.886V696.886L302.093 697.593ZM332.102 677.541L331.719 676.617L331.719 676.617L332.102 677.541ZM367.5 670.5H368.5V669.5H367.5V670.5ZM367.5 680.665L366.505 680.562C361.725 726.602 322.805 762.5 275.5 762.5V763.5V764.5C323.84 764.5 363.61 727.817 368.495 680.768L367.5 680.665ZM275.5 763.5V762.5C275.331 762.5 275.198 762.497 275.008 762.496L275.003 763.496L274.998 764.496C275.139 764.497 275.338 764.5 275.5 764.5V763.5ZM275.003 763.496L276.003 763.491C276.002 763.315 276 763.163 276 763H275H274C274 763.168 274.002 763.347 274.003 763.501L275.003 763.496ZM275 763H276C276 750.984 278.367 739.086 282.965 727.984L282.041 727.602L281.117 727.219C276.418 738.563 274 750.721 274 763H275ZM282.041 727.602L282.965 727.984C287.563 716.883 294.303 706.796 302.8 698.3L302.093 697.593L301.386 696.886C292.703 705.568 285.816 715.875 281.117 727.219L282.041 727.602ZM302.093 697.593L302.8 698.3C311.296 689.803 321.383 683.063 332.484 678.465L332.102 677.541L331.719 676.617C320.375 681.316 310.068 688.203 301.386 696.886L302.093 697.593ZM332.102 677.541L332.484 678.465C343.586 673.867 355.484 671.5 367.5 671.5V670.5V669.5C355.221 669.5 343.063 671.918 331.719 676.617L332.102 677.541ZM367.5 670.5H366.5V680.665H367.5H368.5V670.5H367.5Z" fill="#94C6E4" mask="url(#path-28-inside-20_490_5579)"/>
<circle cx="185" cy="624.5" r="45.5" fill="#5BA3D1" stroke="#94C6E4"/>
<path d="M221.196 596.11C227.338 603.929 231.001 613.787 231.001 624.5C231.001 649.905 210.406 670.5 185.001 670.5C184.332 670.5 183.666 670.482 183.004 670.454C183.181 639.882 198.187 612.824 221.196 596.11Z" fill="#3A7394"/>
<circle cx="48" cy="670.5" r="45.5" stroke="#94C6E4"/>
<mask id="path-33-inside-21_490_5579" fill="white">
<path d="M94 671.5C94 665.459 92.8102 659.478 90.4985 653.897C88.1867 648.316 84.7984 643.245 80.5269 638.973C76.2554 634.702 71.1844 631.313 65.6034 629.002C60.0225 626.69 54.0408 625.5 48 625.5C41.9592 625.5 35.9775 626.69 30.3966 629.002C24.8156 631.313 19.7446 634.702 15.4731 638.973C11.2016 643.245 7.81326 648.316 5.50154 653.897C3.18982 659.478 2 665.459 2 671.5L48 671.5H94Z"/>
</mask>
<path d="M94 671.5C94 665.459 92.8102 659.478 90.4985 653.897C88.1867 648.316 84.7984 643.245 80.5269 638.973C76.2554 634.702 71.1844 631.313 65.6034 629.002C60.0225 626.69 54.0408 625.5 48 625.5C41.9592 625.5 35.9775 626.69 30.3966 629.002C24.8156 631.313 19.7446 634.702 15.4731 638.973C11.2016 643.245 7.81326 648.316 5.50154 653.897C3.18982 659.478 2 665.459 2 671.5L48 671.5H94Z" fill="#4A8FB8" stroke="#94C6E4" stroke-width="2" mask="url(#path-33-inside-21_490_5579)"/>
<circle cx="276" cy="899.5" r="45.5" stroke="#94C6E4"/>
<mask id="path-35-inside-22_490_5579" fill="white">
<path d="M276 945.5C263.8 945.5 252.1 940.654 243.473 932.027C234.846 923.4 230 911.7 230 899.5C230 887.3 234.846 875.6 243.473 866.973C252.1 858.346 263.8 853.5 276 853.5L276 899.5L276 945.5Z"/>
</mask>
<path d="M276 945.5C263.8 945.5 252.1 940.654 243.473 932.027C234.846 923.4 230 911.7 230 899.5C230 887.3 234.846 875.6 243.473 866.973C252.1 858.346 263.8 853.5 276 853.5L276 899.5L276 945.5Z" fill="#94C6E4" stroke="#94C6E4" stroke-width="2" mask="url(#path-35-inside-22_490_5579)"/>
</g>
</g>
<path d="M0 0H1920H0M1920 966H0V964H1920V966ZM1920 964M0 965V0V965M0 965M1920 0V965V0" fill="white" fill-opacity="0.2" mask="url(#path-1-inside-1_490_5579)"/>
<defs>
<clipPath id="clip0_490_5579">
<path d="M0 100C0 44.7715 44.7715 0 100 0H1820C1875.23 0 1920 44.7715 1920 100V965H0V100Z" fill="white"/>
</clipPath>
</defs>
</svg>
