<svg width="402" height="442" viewBox="0 0 402 442" fill="none" xmlns="http://www.w3.org/2000/svg">
<rect width="402" height="442" rx="10" fill="#E9ECEF"/>
<rect width="353" height="34" transform="translate(24.5 29.5)" fill="url(#paint0_linear_261_4613)"/>
<path d="M99.6159 53.5V39.5H105.356C106.329 39.5 107.143 39.6533 107.796 39.96C108.463 40.2667 108.969 40.6933 109.316 41.24C109.663 41.7733 109.836 42.3933 109.836 43.1C109.836 43.8067 109.683 44.4 109.376 44.88C109.069 45.36 108.663 45.7333 108.156 46C107.663 46.2533 107.116 46.4 106.516 46.44L106.836 46.22C107.476 46.2467 108.043 46.42 108.536 46.74C109.043 47.0467 109.436 47.46 109.716 47.98C110.009 48.5 110.156 49.0667 110.156 49.68C110.156 50.4267 109.976 51.0867 109.616 51.66C109.256 52.2333 108.729 52.6867 108.036 53.02C107.356 53.34 106.523 53.5 105.536 53.5H99.6159ZM102.316 51.3H105.116C105.849 51.3 106.416 51.1333 106.816 50.8C107.216 50.4667 107.416 49.9867 107.416 49.36C107.416 48.7333 107.209 48.2467 106.796 47.9C106.383 47.54 105.809 47.36 105.076 47.36H102.316V51.3ZM102.316 45.34H104.916C105.623 45.34 106.156 45.18 106.516 44.86C106.889 44.54 107.076 44.0867 107.076 43.5C107.076 42.9267 106.889 42.48 106.516 42.16C106.156 41.8267 105.616 41.66 104.896 41.66H102.316V45.34ZM116.011 53.74C115.197 53.74 114.497 53.5667 113.911 53.22C113.337 52.8733 112.897 52.3667 112.591 51.7C112.284 51.02 112.131 50.1867 112.131 49.2V43.52H114.831V48.94C114.831 49.7533 114.997 50.38 115.331 50.82C115.664 51.2467 116.191 51.46 116.911 51.46C117.364 51.46 117.764 51.3533 118.111 51.14C118.471 50.9267 118.751 50.62 118.951 50.22C119.151 49.82 119.251 49.3267 119.251 48.74V43.52H121.951V53.5H119.591L119.371 51.84C119.064 52.4133 118.624 52.8733 118.051 53.22C117.477 53.5667 116.797 53.74 116.011 53.74ZM128.695 53.74C127.802 53.74 127.015 53.5933 126.335 53.3C125.669 53.0067 125.135 52.6067 124.735 52.1C124.335 51.58 124.102 50.9933 124.035 50.34H126.735C126.789 50.58 126.895 50.8067 127.055 51.02C127.229 51.22 127.449 51.38 127.715 51.5C127.995 51.62 128.315 51.68 128.675 51.68C129.035 51.68 129.329 51.6333 129.555 51.54C129.782 51.4333 129.949 51.3 130.055 51.14C130.162 50.9667 130.215 50.7867 130.215 50.6C130.215 50.32 130.135 50.1133 129.975 49.98C129.815 49.8333 129.575 49.7133 129.255 49.62C128.949 49.5267 128.582 49.4333 128.155 49.34C127.702 49.2333 127.249 49.1133 126.795 48.98C126.355 48.8467 125.949 48.6733 125.575 48.46C125.202 48.2467 124.902 47.98 124.675 47.66C124.462 47.3267 124.355 46.9133 124.355 46.42C124.355 45.8333 124.515 45.3 124.835 44.82C125.155 44.34 125.622 43.9667 126.235 43.7C126.849 43.42 127.582 43.28 128.435 43.28C129.635 43.28 130.589 43.5533 131.295 44.1C132.015 44.6467 132.435 45.4 132.555 46.36H130.015C129.949 46.04 129.775 45.7933 129.495 45.62C129.229 45.4467 128.869 45.36 128.415 45.36C127.949 45.36 127.589 45.4467 127.335 45.62C127.095 45.7933 126.975 46.0067 126.975 46.26C126.975 46.4467 127.055 46.6133 127.215 46.76C127.389 46.8933 127.629 47.0133 127.935 47.12C128.255 47.2267 128.622 47.3267 129.035 47.42C129.782 47.58 130.442 47.76 131.015 47.96C131.602 48.16 132.069 48.4467 132.415 48.82C132.762 49.1933 132.935 49.74 132.935 50.46C132.935 51.0867 132.762 51.6533 132.415 52.16C132.082 52.6533 131.595 53.04 130.955 53.32C130.329 53.6 129.575 53.74 128.695 53.74ZM135.261 53.5V43.52H137.961V53.5H135.261ZM136.621 42.1C136.128 42.1 135.728 41.96 135.421 41.68C135.114 41.3867 134.961 41.02 134.961 40.58C134.961 40.14 135.114 39.78 135.421 39.5C135.728 39.2067 136.128 39.06 136.621 39.06C137.114 39.06 137.514 39.2067 137.821 39.5C138.141 39.78 138.301 40.14 138.301 40.58C138.301 41.02 138.141 41.3867 137.821 41.68C137.514 41.96 137.114 42.1 136.621 42.1ZM140.65 53.5V43.52H143.03L143.23 45.18C143.55 44.6067 143.99 44.1467 144.55 43.8C145.123 43.4533 145.81 43.28 146.61 43.28C147.436 43.28 148.136 43.4533 148.71 43.8C149.283 44.1467 149.723 44.66 150.03 45.34C150.336 46.02 150.49 46.8533 150.49 47.84V53.5H147.79V48.08C147.79 47.2667 147.623 46.6467 147.29 46.22C146.956 45.78 146.43 45.56 145.71 45.56C145.256 45.56 144.85 45.6667 144.49 45.88C144.143 46.0933 143.863 46.4067 143.65 46.82C143.45 47.22 143.35 47.7067 143.35 48.28V53.5H140.65ZM157.814 53.74C156.801 53.74 155.901 53.5267 155.114 53.1C154.341 52.66 153.734 52.0533 153.294 51.28C152.854 50.5067 152.634 49.6133 152.634 48.6C152.634 47.56 152.848 46.64 153.274 45.84C153.714 45.04 154.321 44.4133 155.094 43.96C155.881 43.5067 156.788 43.28 157.814 43.28C158.814 43.28 159.688 43.5 160.434 43.94C161.181 44.3667 161.768 44.9533 162.194 45.7C162.621 46.4333 162.834 47.2733 162.834 48.22C162.834 48.3533 162.828 48.5 162.814 48.66C162.814 48.82 162.801 48.9933 162.774 49.18H154.574V47.52H160.094C160.054 46.8933 159.821 46.3933 159.394 46.02C158.981 45.6467 158.461 45.46 157.834 45.46C157.368 45.46 156.941 45.5667 156.554 45.78C156.168 45.98 155.861 46.2933 155.634 46.72C155.408 47.1333 155.294 47.66 155.294 48.3V48.88C155.294 49.4133 155.401 49.88 155.614 50.28C155.828 50.68 156.121 50.9933 156.494 51.22C156.881 51.4333 157.314 51.54 157.794 51.54C158.288 51.54 158.701 51.4333 159.034 51.22C159.368 51.0067 159.614 50.72 159.774 50.36H162.534C162.348 51 162.034 51.5733 161.594 52.08C161.154 52.5867 160.614 52.9933 159.974 53.3C159.334 53.5933 158.614 53.74 157.814 53.74ZM169.106 53.74C168.212 53.74 167.426 53.5933 166.746 53.3C166.079 53.0067 165.546 52.6067 165.146 52.1C164.746 51.58 164.512 50.9933 164.446 50.34H167.146C167.199 50.58 167.306 50.8067 167.466 51.02C167.639 51.22 167.859 51.38 168.126 51.5C168.406 51.62 168.726 51.68 169.086 51.68C169.446 51.68 169.739 51.6333 169.966 51.54C170.192 51.4333 170.359 51.3 170.466 51.14C170.572 50.9667 170.626 50.7867 170.626 50.6C170.626 50.32 170.546 50.1133 170.386 49.98C170.226 49.8333 169.986 49.7133 169.666 49.62C169.359 49.5267 168.992 49.4333 168.566 49.34C168.112 49.2333 167.659 49.1133 167.206 48.98C166.766 48.8467 166.359 48.6733 165.986 48.46C165.612 48.2467 165.312 47.98 165.086 47.66C164.872 47.3267 164.766 46.9133 164.766 46.42C164.766 45.8333 164.926 45.3 165.246 44.82C165.566 44.34 166.032 43.9667 166.646 43.7C167.259 43.42 167.992 43.28 168.846 43.28C170.046 43.28 170.999 43.5533 171.706 44.1C172.426 44.6467 172.846 45.4 172.966 46.36H170.426C170.359 46.04 170.186 45.7933 169.906 45.62C169.639 45.4467 169.279 45.36 168.826 45.36C168.359 45.36 167.999 45.4467 167.746 45.62C167.506 45.7933 167.386 46.0067 167.386 46.26C167.386 46.4467 167.466 46.6133 167.626 46.76C167.799 46.8933 168.039 47.0133 168.346 47.12C168.666 47.2267 169.032 47.3267 169.446 47.42C170.192 47.58 170.852 47.76 171.426 47.96C172.012 48.16 172.479 48.4467 172.826 48.82C173.172 49.1933 173.346 49.74 173.346 50.46C173.346 51.0867 173.172 51.6533 172.826 52.16C172.492 52.6533 172.006 53.04 171.366 53.32C170.739 53.6 169.986 53.74 169.106 53.74ZM179.711 53.74C178.818 53.74 178.031 53.5933 177.351 53.3C176.684 53.0067 176.151 52.6067 175.751 52.1C175.351 51.58 175.118 50.9933 175.051 50.34H177.751C177.804 50.58 177.911 50.8067 178.071 51.02C178.244 51.22 178.464 51.38 178.731 51.5C179.011 51.62 179.331 51.68 179.691 51.68C180.051 51.68 180.344 51.6333 180.571 51.54C180.798 51.4333 180.964 51.3 181.071 51.14C181.178 50.9667 181.231 50.7867 181.231 50.6C181.231 50.32 181.151 50.1133 180.991 49.98C180.831 49.8333 180.591 49.7133 180.271 49.62C179.964 49.5267 179.598 49.4333 179.171 49.34C178.718 49.2333 178.264 49.1133 177.811 48.98C177.371 48.8467 176.964 48.6733 176.591 48.46C176.218 48.2467 175.918 47.98 175.691 47.66C175.478 47.3267 175.371 46.9133 175.371 46.42C175.371 45.8333 175.531 45.3 175.851 44.82C176.171 44.34 176.638 43.9667 177.251 43.7C177.864 43.42 178.598 43.28 179.451 43.28C180.651 43.28 181.604 43.5533 182.311 44.1C183.031 44.6467 183.451 45.4 183.571 46.36H181.031C180.964 46.04 180.791 45.7933 180.511 45.62C180.244 45.4467 179.884 45.36 179.431 45.36C178.964 45.36 178.604 45.4467 178.351 45.62C178.111 45.7933 177.991 46.0067 177.991 46.26C177.991 46.4467 178.071 46.6133 178.231 46.76C178.404 46.8933 178.644 47.0133 178.951 47.12C179.271 47.2267 179.638 47.3267 180.051 47.42C180.798 47.58 181.458 47.76 182.031 47.96C182.618 48.16 183.084 48.4467 183.431 48.82C183.778 49.1933 183.951 49.74 183.951 50.46C183.951 51.0867 183.778 51.6533 183.431 52.16C183.098 52.6533 182.611 53.04 181.971 53.32C181.344 53.6 180.591 53.74 179.711 53.74ZM190.964 53.5V39.5H193.664V53.5H190.964ZM196.294 53.5V43.52H198.674L198.874 45.18C199.194 44.6067 199.634 44.1467 200.194 43.8C200.767 43.4533 201.454 43.28 202.254 43.28C203.081 43.28 203.781 43.4533 204.354 43.8C204.927 44.1467 205.367 44.66 205.674 45.34C205.981 46.02 206.134 46.8533 206.134 47.84V53.5H203.434V48.08C203.434 47.2667 203.267 46.6467 202.934 46.22C202.601 45.78 202.074 45.56 201.354 45.56C200.901 45.56 200.494 45.6667 200.134 45.88C199.787 46.0933 199.507 46.4067 199.294 46.82C199.094 47.22 198.994 47.7067 198.994 48.28V53.5H196.294ZM213.119 53.5C212.412 53.5 211.792 53.3933 211.259 53.18C210.739 52.9533 210.332 52.5867 210.039 52.08C209.745 51.56 209.599 50.8533 209.599 49.96V45.78H207.899V43.52H209.599L209.899 40.8H212.299V43.52H214.939V45.78H212.299V50C212.299 50.4533 212.399 50.7667 212.599 50.94C212.799 51.1133 213.139 51.2 213.619 51.2H214.899V53.5H213.119ZM221.779 53.74C220.766 53.74 219.866 53.5267 219.079 53.1C218.306 52.66 217.699 52.0533 217.259 51.28C216.819 50.5067 216.599 49.6133 216.599 48.6C216.599 47.56 216.812 46.64 217.239 45.84C217.679 45.04 218.286 44.4133 219.059 43.96C219.846 43.5067 220.752 43.28 221.779 43.28C222.779 43.28 223.652 43.5 224.399 43.94C225.146 44.3667 225.732 44.9533 226.159 45.7C226.586 46.4333 226.799 47.2733 226.799 48.22C226.799 48.3533 226.792 48.5 226.779 48.66C226.779 48.82 226.766 48.9933 226.739 49.18H218.539V47.52H224.059C224.019 46.8933 223.786 46.3933 223.359 46.02C222.946 45.6467 222.426 45.46 221.799 45.46C221.332 45.46 220.906 45.5667 220.519 45.78C220.132 45.98 219.826 46.2933 219.599 46.72C219.372 47.1333 219.259 47.66 219.259 48.3V48.88C219.259 49.4133 219.366 49.88 219.579 50.28C219.792 50.68 220.086 50.9933 220.459 51.22C220.846 51.4333 221.279 51.54 221.759 51.54C222.252 51.54 222.666 51.4333 222.999 51.22C223.332 51.0067 223.579 50.72 223.739 50.36H226.499C226.312 51 225.999 51.5733 225.559 52.08C225.119 52.5867 224.579 52.9933 223.939 53.3C223.299 53.5933 222.579 53.74 221.779 53.74ZM228.95 53.5V39.1H231.65V53.5H228.95ZM234.263 53.5V39.1H236.963V53.5H234.263ZM239.655 53.5V43.52H242.355V53.5H239.655ZM241.015 42.1C240.522 42.1 240.122 41.96 239.815 41.68C239.509 41.3867 239.355 41.02 239.355 40.58C239.355 40.14 239.509 39.78 239.815 39.5C240.122 39.2067 240.522 39.06 241.015 39.06C241.509 39.06 241.909 39.2067 242.215 39.5C242.535 39.78 242.695 40.14 242.695 40.58C242.695 41.02 242.535 41.3867 242.215 41.68C241.909 41.96 241.509 42.1 241.015 42.1ZM249.384 58.14C248.424 58.14 247.584 58.02 246.864 57.78C246.157 57.5533 245.604 57.2 245.204 56.72C244.817 56.2533 244.624 55.6733 244.624 54.98C244.624 54.5133 244.744 54.0733 244.984 53.66C245.224 53.2467 245.577 52.8733 246.044 52.54C246.511 52.2067 247.084 51.9133 247.764 51.66L248.764 53C248.164 53.2 247.731 53.4467 247.464 53.74C247.197 54.0467 247.064 54.3667 247.064 54.7C247.064 55.0067 247.164 55.2667 247.364 55.48C247.577 55.6933 247.857 55.8467 248.204 55.94C248.551 56.0467 248.944 56.1 249.384 56.1C249.797 56.1 250.157 56.0467 250.464 55.94C250.784 55.8333 251.031 55.6733 251.204 55.46C251.377 55.26 251.464 55.0267 251.464 54.76C251.464 54.4 251.337 54.1067 251.084 53.88C250.844 53.6533 250.351 53.5133 249.604 53.46C248.924 53.4067 248.317 53.3333 247.784 53.24C247.264 53.1333 246.804 53.0133 246.404 52.88C246.017 52.7333 245.684 52.5733 245.404 52.4C245.124 52.2267 244.897 52.0533 244.724 51.88V51.42L246.864 49.12L248.784 49.72L246.284 52.22L247.064 50.9C247.197 50.9933 247.331 51.08 247.464 51.16C247.611 51.2267 247.791 51.2867 248.004 51.34C248.217 51.3933 248.491 51.4467 248.824 51.5C249.171 51.5533 249.604 51.6 250.124 51.64C251.004 51.72 251.724 51.8867 252.284 52.14C252.857 52.3933 253.277 52.7333 253.544 53.16C253.811 53.5733 253.944 54.0867 253.944 54.7C253.944 55.2867 253.777 55.84 253.444 56.36C253.124 56.8933 252.624 57.32 251.944 57.64C251.277 57.9733 250.424 58.14 249.384 58.14ZM249.404 50.56C248.551 50.56 247.817 50.4 247.204 50.08C246.604 49.7467 246.144 49.3067 245.824 48.76C245.504 48.2 245.344 47.5867 245.344 46.92C245.344 46.24 245.504 45.6267 245.824 45.08C246.144 44.5333 246.611 44.1 247.224 43.78C247.837 43.4467 248.564 43.28 249.404 43.28C250.244 43.28 250.964 43.4467 251.564 43.78C252.177 44.1 252.644 44.5333 252.964 45.08C253.284 45.6267 253.444 46.24 253.444 46.92C253.444 47.5867 253.284 48.2 252.964 48.76C252.644 49.3067 252.177 49.7467 251.564 50.08C250.964 50.4 250.244 50.56 249.404 50.56ZM249.404 48.5C249.911 48.5 250.324 48.3667 250.644 48.1C250.964 47.82 251.124 47.4267 251.124 46.92C251.124 46.4267 250.964 46.0467 250.644 45.78C250.324 45.5133 249.911 45.38 249.404 45.38C248.884 45.38 248.457 45.5133 248.124 45.78C247.804 46.0467 247.644 46.4267 247.644 46.92C247.644 47.4267 247.804 47.82 248.124 48.1C248.457 48.3667 248.884 48.5 249.404 48.5ZM251.044 45.42L250.584 43.52H254.744V45.12L251.044 45.42ZM261.428 53.74C260.414 53.74 259.514 53.5267 258.728 53.1C257.954 52.66 257.348 52.0533 256.908 51.28C256.468 50.5067 256.248 49.6133 256.248 48.6C256.248 47.56 256.461 46.64 256.888 45.84C257.328 45.04 257.934 44.4133 258.708 43.96C259.494 43.5067 260.401 43.28 261.428 43.28C262.428 43.28 263.301 43.5 264.048 43.94C264.794 44.3667 265.381 44.9533 265.808 45.7C266.234 46.4333 266.448 47.2733 266.448 48.22C266.448 48.3533 266.441 48.5 266.428 48.66C266.428 48.82 266.414 48.9933 266.388 49.18H258.188V47.52H263.708C263.668 46.8933 263.434 46.3933 263.008 46.02C262.594 45.6467 262.074 45.46 261.448 45.46C260.981 45.46 260.554 45.5667 260.168 45.78C259.781 45.98 259.474 46.2933 259.248 46.72C259.021 47.1333 258.908 47.66 258.908 48.3V48.88C258.908 49.4133 259.014 49.88 259.228 50.28C259.441 50.68 259.734 50.9933 260.108 51.22C260.494 51.4333 260.928 51.54 261.408 51.54C261.901 51.54 262.314 51.4333 262.648 51.22C262.981 51.0067 263.228 50.72 263.388 50.36H266.148C265.961 51 265.648 51.5733 265.208 52.08C264.768 52.5867 264.228 52.9933 263.588 53.3C262.948 53.5933 262.228 53.74 261.428 53.74ZM268.599 53.5V43.52H270.979L271.179 45.18C271.499 44.6067 271.939 44.1467 272.499 43.8C273.072 43.4533 273.759 43.28 274.559 43.28C275.385 43.28 276.085 43.4533 276.659 43.8C277.232 44.1467 277.672 44.66 277.979 45.34C278.285 46.02 278.439 46.8533 278.439 47.84V53.5H275.739V48.08C275.739 47.2667 275.572 46.6467 275.239 46.22C274.905 45.78 274.379 45.56 273.659 45.56C273.205 45.56 272.799 45.6667 272.439 45.88C272.092 46.0933 271.812 46.4067 271.599 46.82C271.399 47.22 271.299 47.7067 271.299 48.28V53.5H268.599ZM285.804 53.74C284.79 53.74 283.89 53.52 283.104 53.08C282.317 52.6267 281.697 52.0067 281.244 51.22C280.804 50.4333 280.584 49.5333 280.584 48.52C280.584 47.4933 280.804 46.5933 281.244 45.82C281.697 45.0333 282.317 44.4133 283.104 43.96C283.89 43.5067 284.79 43.28 285.804 43.28C287.097 43.28 288.177 43.62 289.044 44.3C289.924 44.9667 290.484 45.8867 290.724 47.06H287.864C287.744 46.6067 287.497 46.2467 287.124 45.98C286.75 45.7133 286.304 45.58 285.784 45.58C285.317 45.58 284.897 45.7 284.524 45.94C284.164 46.1667 283.877 46.5 283.664 46.94C283.45 47.38 283.344 47.9 283.344 48.5C283.344 48.9667 283.404 49.38 283.524 49.74C283.657 50.1 283.83 50.4067 284.044 50.66C284.27 50.9133 284.53 51.1067 284.824 51.24C285.117 51.3733 285.437 51.44 285.784 51.44C286.13 51.44 286.444 51.3867 286.724 51.28C287.004 51.16 287.244 50.9867 287.444 50.76C287.644 50.5333 287.784 50.2667 287.864 49.96H290.724C290.484 51.1067 289.924 52.0267 289.044 52.72C288.164 53.4 287.084 53.74 285.804 53.74ZM297.873 53.74C296.86 53.74 295.96 53.5267 295.173 53.1C294.4 52.66 293.793 52.0533 293.353 51.28C292.913 50.5067 292.693 49.6133 292.693 48.6C292.693 47.56 292.906 46.64 293.333 45.84C293.773 45.04 294.38 44.4133 295.153 43.96C295.94 43.5067 296.846 43.28 297.873 43.28C298.873 43.28 299.746 43.5 300.493 43.94C301.24 44.3667 301.826 44.9533 302.253 45.7C302.68 46.4333 302.893 47.2733 302.893 48.22C302.893 48.3533 302.886 48.5 302.873 48.66C302.873 48.82 302.86 48.9933 302.833 49.18H294.633V47.52H300.153C300.113 46.8933 299.88 46.3933 299.453 46.02C299.04 45.6467 298.52 45.46 297.893 45.46C297.426 45.46 297 45.5667 296.613 45.78C296.226 45.98 295.92 46.2933 295.693 46.72C295.466 47.1333 295.353 47.66 295.353 48.3V48.88C295.353 49.4133 295.46 49.88 295.673 50.28C295.886 50.68 296.18 50.9933 296.553 51.22C296.94 51.4333 297.373 51.54 297.853 51.54C298.346 51.54 298.76 51.4333 299.093 51.22C299.426 51.0067 299.673 50.72 299.833 50.36H302.593C302.406 51 302.093 51.5733 301.653 52.08C301.213 52.5867 300.673 52.9933 300.033 53.3C299.393 53.5933 298.673 53.74 297.873 53.74Z" fill="#495057"/>
<path d="M131.034 126.5L127.194 112.5H128.994L132.014 124.5L135.454 112.5H137.314L140.654 124.54L143.714 112.5H145.514L141.594 126.5H139.674L136.334 114.92L132.914 126.5H131.034ZM147.39 126.5V112.1H149.07V118.22C149.403 117.607 149.87 117.133 150.47 116.8C151.083 116.453 151.756 116.28 152.49 116.28C153.25 116.28 153.916 116.44 154.49 116.76C155.063 117.067 155.503 117.54 155.81 118.18C156.13 118.82 156.29 119.633 156.29 120.62V126.5H154.63V120.8C154.63 119.773 154.416 119.007 153.99 118.5C153.563 117.98 152.943 117.72 152.13 117.72C151.556 117.72 151.036 117.86 150.57 118.14C150.103 118.42 149.736 118.82 149.47 119.34C149.203 119.86 149.07 120.507 149.07 121.28V126.5H147.39ZM162.155 126.74C161.328 126.74 160.641 126.6 160.095 126.32C159.561 126.04 159.161 125.667 158.895 125.2C158.628 124.72 158.495 124.207 158.495 123.66C158.495 122.98 158.668 122.407 159.015 121.94C159.375 121.473 159.875 121.113 160.515 120.86C161.155 120.607 161.915 120.48 162.795 120.48H165.475C165.475 119.867 165.375 119.353 165.175 118.94C164.988 118.527 164.708 118.22 164.335 118.02C163.961 117.807 163.508 117.7 162.975 117.7C162.335 117.7 161.775 117.867 161.295 118.2C160.815 118.52 160.521 118.987 160.415 119.6H158.695C158.775 118.88 159.021 118.28 159.435 117.8C159.848 117.307 160.368 116.933 160.995 116.68C161.621 116.413 162.281 116.28 162.975 116.28C163.895 116.28 164.661 116.453 165.275 116.8C165.901 117.133 166.368 117.607 166.675 118.22C166.995 118.82 167.155 119.527 167.155 120.34V126.5H165.655L165.555 124.72C165.421 125 165.248 125.267 165.035 125.52C164.835 125.76 164.595 125.973 164.315 126.16C164.048 126.333 163.735 126.473 163.375 126.58C163.015 126.687 162.608 126.74 162.155 126.74ZM162.415 125.32C162.895 125.32 163.321 125.227 163.695 125.04C164.081 124.84 164.408 124.573 164.675 124.24C164.941 123.907 165.141 123.533 165.275 123.12C165.408 122.707 165.475 122.273 165.475 121.82V121.78H162.935C162.281 121.78 161.755 121.86 161.355 122.02C160.968 122.18 160.688 122.393 160.515 122.66C160.341 122.927 160.255 123.233 160.255 123.58C160.255 123.927 160.335 124.233 160.495 124.5C160.655 124.767 160.895 124.973 161.215 125.12C161.548 125.253 161.948 125.32 162.415 125.32ZM173.381 126.5C172.781 126.5 172.261 126.407 171.821 126.22C171.381 126.033 171.041 125.72 170.801 125.28C170.574 124.827 170.461 124.22 170.461 123.46V117.94H168.721V116.52H170.461L170.681 114.12H172.141V116.52H175.061V117.94H172.141V123.46C172.141 124.087 172.267 124.513 172.521 124.74C172.774 124.953 173.221 125.06 173.861 125.06H174.921V126.5H173.381ZM182.507 126.5V112.1H184.187V118.22C184.52 117.607 184.987 117.133 185.587 116.8C186.2 116.453 186.874 116.28 187.607 116.28C188.367 116.28 189.034 116.44 189.607 116.76C190.18 117.067 190.62 117.54 190.927 118.18C191.247 118.82 191.407 119.633 191.407 120.62V126.5H189.747V120.8C189.747 119.773 189.534 119.007 189.107 118.5C188.68 117.98 188.06 117.72 187.247 117.72C186.674 117.72 186.154 117.86 185.687 118.14C185.22 118.42 184.854 118.82 184.587 119.34C184.32 119.86 184.187 120.507 184.187 121.28V126.5H182.507ZM197.272 126.74C196.445 126.74 195.758 126.6 195.212 126.32C194.678 126.04 194.278 125.667 194.012 125.2C193.745 124.72 193.612 124.207 193.612 123.66C193.612 122.98 193.785 122.407 194.132 121.94C194.492 121.473 194.992 121.113 195.632 120.86C196.272 120.607 197.032 120.48 197.912 120.48H200.592C200.592 119.867 200.492 119.353 200.292 118.94C200.105 118.527 199.825 118.22 199.452 118.02C199.078 117.807 198.625 117.7 198.092 117.7C197.452 117.7 196.892 117.867 196.412 118.2C195.932 118.52 195.638 118.987 195.532 119.6H193.812C193.892 118.88 194.138 118.28 194.552 117.8C194.965 117.307 195.485 116.933 196.112 116.68C196.738 116.413 197.398 116.28 198.092 116.28C199.012 116.28 199.778 116.453 200.392 116.8C201.018 117.133 201.485 117.607 201.792 118.22C202.112 118.82 202.272 119.527 202.272 120.34V126.5H200.772L200.672 124.72C200.538 125 200.365 125.267 200.152 125.52C199.952 125.76 199.712 125.973 199.432 126.16C199.165 126.333 198.852 126.473 198.492 126.58C198.132 126.687 197.725 126.74 197.272 126.74ZM197.532 125.32C198.012 125.32 198.438 125.227 198.812 125.04C199.198 124.84 199.525 124.573 199.792 124.24C200.058 123.907 200.258 123.533 200.392 123.12C200.525 122.707 200.592 122.273 200.592 121.82V121.78H198.052C197.398 121.78 196.872 121.86 196.472 122.02C196.085 122.18 195.805 122.393 195.632 122.66C195.458 122.927 195.372 123.233 195.372 123.58C195.372 123.927 195.452 124.233 195.612 124.5C195.772 124.767 196.012 124.973 196.332 125.12C196.665 125.253 197.065 125.32 197.532 125.32ZM204.831 130.9V116.52H206.351L206.511 118.16C206.725 117.84 206.998 117.54 207.331 117.26C207.665 116.967 208.065 116.733 208.531 116.56C208.998 116.373 209.538 116.28 210.151 116.28C211.125 116.28 211.978 116.513 212.711 116.98C213.445 117.433 214.011 118.053 214.411 118.84C214.825 119.627 215.031 120.527 215.031 121.54C215.031 122.54 214.825 123.433 214.411 124.22C214.011 125.007 213.438 125.627 212.691 126.08C211.958 126.52 211.105 126.74 210.131 126.74C209.318 126.74 208.598 126.573 207.971 126.24C207.345 125.907 206.858 125.44 206.511 124.84V130.9H204.831ZM209.951 125.28C210.605 125.28 211.185 125.127 211.691 124.82C212.211 124.5 212.611 124.06 212.891 123.5C213.185 122.927 213.331 122.26 213.331 121.5C213.331 120.753 213.185 120.1 212.891 119.54C212.611 118.967 212.211 118.527 211.691 118.22C211.185 117.9 210.605 117.74 209.951 117.74C209.285 117.74 208.691 117.9 208.171 118.22C207.665 118.527 207.265 118.967 206.971 119.54C206.691 120.1 206.551 120.753 206.551 121.5C206.551 122.26 206.691 122.927 206.971 123.5C207.265 124.06 207.665 124.5 208.171 124.82C208.691 125.127 209.285 125.28 209.951 125.28ZM217.37 130.9V116.52H218.89L219.05 118.16C219.264 117.84 219.537 117.54 219.87 117.26C220.204 116.967 220.604 116.733 221.07 116.56C221.537 116.373 222.077 116.28 222.69 116.28C223.664 116.28 224.517 116.513 225.25 116.98C225.984 117.433 226.55 118.053 226.95 118.84C227.364 119.627 227.57 120.527 227.57 121.54C227.57 122.54 227.364 123.433 226.95 124.22C226.55 125.007 225.977 125.627 225.23 126.08C224.497 126.52 223.644 126.74 222.67 126.74C221.857 126.74 221.137 126.573 220.51 126.24C219.884 125.907 219.397 125.44 219.05 124.84V130.9H217.37ZM222.49 125.28C223.144 125.28 223.724 125.127 224.23 124.82C224.75 124.5 225.15 124.06 225.43 123.5C225.724 122.927 225.87 122.26 225.87 121.5C225.87 120.753 225.724 120.1 225.43 119.54C225.15 118.967 224.75 118.527 224.23 118.22C223.724 117.9 223.144 117.74 222.49 117.74C221.824 117.74 221.23 117.9 220.71 118.22C220.204 118.527 219.804 118.967 219.51 119.54C219.23 120.1 219.09 120.753 219.09 121.5C219.09 122.26 219.23 122.927 219.51 123.5C219.804 124.06 220.204 124.5 220.71 124.82C221.23 125.127 221.824 125.28 222.49 125.28ZM234.369 126.74C233.423 126.74 232.583 126.527 231.849 126.1C231.116 125.66 230.536 125.047 230.109 124.26C229.696 123.473 229.489 122.553 229.489 121.5C229.489 120.447 229.696 119.533 230.109 118.76C230.523 117.973 231.096 117.367 231.829 116.94C232.576 116.5 233.436 116.28 234.409 116.28C235.383 116.28 236.216 116.5 236.909 116.94C237.603 117.367 238.129 117.933 238.489 118.64C238.863 119.347 239.049 120.12 239.049 120.96C239.049 121.093 239.049 121.233 239.049 121.38C239.049 121.527 239.043 121.693 239.029 121.88H230.749V120.58H237.389C237.363 119.673 237.063 118.967 236.489 118.46C235.929 117.953 235.223 117.7 234.369 117.7C233.796 117.7 233.263 117.827 232.769 118.08C232.276 118.333 231.876 118.707 231.569 119.2C231.276 119.693 231.129 120.307 231.129 121.04V121.6C231.129 122.427 231.283 123.12 231.589 123.68C231.896 124.227 232.296 124.64 232.789 124.92C233.283 125.187 233.809 125.32 234.369 125.32C235.063 125.32 235.636 125.167 236.089 124.86C236.556 124.54 236.896 124.107 237.109 123.56H238.769C238.596 124.16 238.309 124.7 237.909 125.18C237.523 125.66 237.029 126.04 236.429 126.32C235.843 126.6 235.156 126.74 234.369 126.74ZM241.296 126.5V116.52H242.816L242.916 118.28C243.236 117.667 243.696 117.18 244.296 116.82C244.896 116.46 245.576 116.28 246.336 116.28C247.123 116.28 247.803 116.44 248.376 116.76C248.949 117.067 249.396 117.54 249.716 118.18C250.036 118.82 250.196 119.627 250.196 120.6V126.5H248.516V120.78C248.516 119.767 248.289 119.007 247.836 118.5C247.396 117.98 246.769 117.72 245.956 117.72C245.383 117.72 244.869 117.86 244.416 118.14C243.976 118.407 243.623 118.807 243.356 119.34C243.103 119.86 242.976 120.5 242.976 121.26V126.5H241.296ZM257.221 126.74C256.274 126.74 255.434 126.527 254.701 126.1C253.968 125.66 253.388 125.047 252.961 124.26C252.548 123.473 252.341 122.553 252.341 121.5C252.341 120.447 252.548 119.533 252.961 118.76C253.374 117.973 253.948 117.367 254.681 116.94C255.428 116.5 256.288 116.28 257.261 116.28C258.234 116.28 259.068 116.5 259.761 116.94C260.454 117.367 260.981 117.933 261.341 118.64C261.714 119.347 261.901 120.12 261.901 120.96C261.901 121.093 261.901 121.233 261.901 121.38C261.901 121.527 261.894 121.693 261.881 121.88H253.601V120.58H260.241C260.214 119.673 259.914 118.967 259.341 118.46C258.781 117.953 258.074 117.7 257.221 117.7C256.648 117.7 256.114 117.827 255.621 118.08C255.128 118.333 254.728 118.707 254.421 119.2C254.128 119.693 253.981 120.307 253.981 121.04V121.6C253.981 122.427 254.134 123.12 254.441 123.68C254.748 124.227 255.148 124.64 255.641 124.92C256.134 125.187 256.661 125.32 257.221 125.32C257.914 125.32 258.488 125.167 258.941 124.86C259.408 124.54 259.748 124.107 259.961 123.56H261.621C261.448 124.16 261.161 124.7 260.761 125.18C260.374 125.66 259.881 126.04 259.281 126.32C258.694 126.6 258.008 126.74 257.221 126.74ZM268.628 126.74C267.654 126.74 266.794 126.513 266.048 126.06C265.314 125.607 264.741 124.987 264.328 124.2C263.928 123.4 263.728 122.493 263.728 121.48C263.728 120.48 263.928 119.587 264.328 118.8C264.741 118.013 265.321 117.4 266.068 116.96C266.814 116.507 267.674 116.28 268.648 116.28C269.461 116.28 270.181 116.447 270.808 116.78C271.448 117.113 271.934 117.58 272.268 118.18V112.1H273.948V126.5H272.428L272.268 124.86C272.054 125.18 271.781 125.487 271.448 125.78C271.114 126.06 270.714 126.293 270.248 126.48C269.781 126.653 269.241 126.74 268.628 126.74ZM268.828 125.28C269.494 125.28 270.081 125.127 270.588 124.82C271.094 124.5 271.488 124.06 271.768 123.5C272.061 122.927 272.208 122.26 272.208 121.5C272.208 120.753 272.061 120.1 271.768 119.54C271.488 118.967 271.094 118.527 270.588 118.22C270.081 117.9 269.494 117.74 268.828 117.74C268.174 117.74 267.588 117.9 267.068 118.22C266.561 118.527 266.161 118.967 265.868 119.54C265.588 120.1 265.448 120.753 265.448 121.5C265.448 122.26 265.588 122.927 265.868 123.5C266.161 124.06 266.561 124.5 267.068 124.82C267.588 125.127 268.174 125.28 268.828 125.28Z" fill="#495057"/>
<path d="M88.8179 182.5V168.5H93.3379C94.4312 168.5 95.3246 168.687 96.0179 169.06C96.7112 169.42 97.2246 169.907 97.5579 170.52C97.8912 171.133 98.0579 171.827 98.0579 172.6C98.0579 173.347 97.8846 174.033 97.5379 174.66C97.2046 175.287 96.6846 175.787 95.9779 176.16C95.2712 176.533 94.3646 176.72 93.2579 176.72H90.4979V182.5H88.8179ZM96.2179 182.5L93.1379 176.24H95.0179L98.1979 182.5H96.2179ZM90.4979 175.4H93.2179C94.2846 175.4 95.0646 175.14 95.5579 174.62C96.0646 174.1 96.3179 173.433 96.3179 172.62C96.3179 171.793 96.0712 171.14 95.5779 170.66C95.0979 170.167 94.3046 169.92 93.1979 169.92H90.4979V175.4ZM104.447 182.74C103.501 182.74 102.661 182.527 101.927 182.1C101.194 181.66 100.614 181.047 100.187 180.26C99.7741 179.473 99.5674 178.553 99.5674 177.5C99.5674 176.447 99.7741 175.533 100.187 174.76C100.601 173.973 101.174 173.367 101.907 172.94C102.654 172.5 103.514 172.28 104.487 172.28C105.461 172.28 106.294 172.5 106.987 172.94C107.681 173.367 108.207 173.933 108.567 174.64C108.941 175.347 109.127 176.12 109.127 176.96C109.127 177.093 109.127 177.233 109.127 177.38C109.127 177.527 109.121 177.693 109.107 177.88H100.827V176.58H107.467C107.441 175.673 107.141 174.967 106.567 174.46C106.007 173.953 105.301 173.7 104.447 173.7C103.874 173.7 103.341 173.827 102.847 174.08C102.354 174.333 101.954 174.707 101.647 175.2C101.354 175.693 101.207 176.307 101.207 177.04V177.6C101.207 178.427 101.361 179.12 101.667 179.68C101.974 180.227 102.374 180.64 102.867 180.92C103.361 181.187 103.887 181.32 104.447 181.32C105.141 181.32 105.714 181.167 106.167 180.86C106.634 180.54 106.974 180.107 107.187 179.56H108.847C108.674 180.16 108.387 180.7 107.987 181.18C107.601 181.66 107.107 182.04 106.507 182.32C105.921 182.6 105.234 182.74 104.447 182.74ZM111.374 186.9V172.52H112.894L113.054 174.16C113.267 173.84 113.541 173.54 113.874 173.26C114.207 172.967 114.607 172.733 115.074 172.56C115.541 172.373 116.081 172.28 116.694 172.28C117.667 172.28 118.521 172.513 119.254 172.98C119.987 173.433 120.554 174.053 120.954 174.84C121.367 175.627 121.574 176.527 121.574 177.54C121.574 178.54 121.367 179.433 120.954 180.22C120.554 181.007 119.981 181.627 119.234 182.08C118.501 182.52 117.647 182.74 116.674 182.74C115.861 182.74 115.141 182.573 114.514 182.24C113.887 181.907 113.401 181.44 113.054 180.84V186.9H111.374ZM116.494 181.28C117.147 181.28 117.727 181.127 118.234 180.82C118.754 180.5 119.154 180.06 119.434 179.5C119.727 178.927 119.874 178.26 119.874 177.5C119.874 176.753 119.727 176.1 119.434 175.54C119.154 174.967 118.754 174.527 118.234 174.22C117.727 173.9 117.147 173.74 116.494 173.74C115.827 173.74 115.234 173.9 114.714 174.22C114.207 174.527 113.807 174.967 113.514 175.54C113.234 176.1 113.094 176.753 113.094 177.5C113.094 178.26 113.234 178.927 113.514 179.5C113.807 180.06 114.207 180.5 114.714 180.82C115.234 181.127 115.827 181.28 116.494 181.28ZM128.433 182.74C127.5 182.74 126.66 182.527 125.913 182.1C125.167 181.673 124.573 181.067 124.133 180.28C123.707 179.493 123.493 178.573 123.493 177.52C123.493 176.453 123.713 175.527 124.153 174.74C124.593 173.953 125.187 173.347 125.933 172.92C126.693 172.493 127.54 172.28 128.473 172.28C129.42 172.28 130.267 172.493 131.013 172.92C131.76 173.347 132.347 173.953 132.773 174.74C133.2 175.527 133.413 176.453 133.413 177.52C133.413 178.573 133.193 179.493 132.753 180.28C132.327 181.067 131.733 181.673 130.973 182.1C130.227 182.527 129.38 182.74 128.433 182.74ZM128.433 181.3C129.02 181.3 129.56 181.16 130.053 180.88C130.547 180.6 130.94 180.18 131.233 179.62C131.54 179.047 131.693 178.34 131.693 177.5C131.693 176.66 131.547 175.96 131.253 175.4C130.96 174.84 130.567 174.42 130.073 174.14C129.58 173.86 129.047 173.72 128.473 173.72C127.913 173.72 127.38 173.86 126.873 174.14C126.38 174.42 125.98 174.84 125.673 175.4C125.367 175.96 125.213 176.667 125.213 177.52C125.213 178.347 125.367 179.047 125.673 179.62C125.98 180.18 126.373 180.6 126.853 180.88C127.347 181.16 127.873 181.3 128.433 181.3ZM135.769 182.5V172.52H137.289L137.429 174.44C137.642 173.987 137.922 173.6 138.269 173.28C138.629 172.96 139.049 172.713 139.529 172.54C140.022 172.367 140.582 172.28 141.209 172.28V174.04H140.689C140.249 174.04 139.829 174.1 139.429 174.22C139.042 174.327 138.695 174.507 138.389 174.76C138.095 175.013 137.862 175.36 137.689 175.8C137.529 176.227 137.449 176.767 137.449 177.42V182.5H135.769ZM147.033 182.5C146.433 182.5 145.913 182.407 145.473 182.22C145.033 182.033 144.693 181.72 144.453 181.28C144.226 180.827 144.113 180.22 144.113 179.46V173.94H142.373V172.52H144.113L144.333 170.12H145.793V172.52H148.713V173.94H145.793V179.46C145.793 180.087 145.92 180.513 146.173 180.74C146.426 180.953 146.873 181.06 147.513 181.06H148.573V182.5H147.033ZM154.666 182.74C153.866 182.74 153.153 182.607 152.526 182.34C151.9 182.06 151.4 181.673 151.026 181.18C150.653 180.673 150.42 180.08 150.326 179.4H152.046C152.126 179.747 152.273 180.067 152.486 180.36C152.713 180.653 153.006 180.887 153.366 181.06C153.74 181.233 154.18 181.32 154.686 181.32C155.166 181.32 155.553 181.253 155.846 181.12C156.153 180.973 156.38 180.787 156.526 180.56C156.686 180.32 156.766 180.06 156.766 179.78C156.766 179.38 156.666 179.073 156.466 178.86C156.28 178.647 156 178.48 155.626 178.36C155.253 178.24 154.806 178.127 154.286 178.02C153.86 177.94 153.433 177.833 153.006 177.7C152.593 177.567 152.22 177.4 151.886 177.2C151.553 176.987 151.286 176.72 151.086 176.4C150.886 176.08 150.786 175.693 150.786 175.24C150.786 174.667 150.933 174.16 151.226 173.72C151.52 173.267 151.933 172.913 152.466 172.66C153.013 172.407 153.66 172.28 154.406 172.28C155.46 172.28 156.32 172.54 156.986 173.06C157.666 173.58 158.06 174.333 158.166 175.32H156.506C156.453 174.813 156.24 174.42 155.866 174.14C155.506 173.847 155.013 173.7 154.386 173.7C153.76 173.7 153.286 173.827 152.966 174.08C152.646 174.333 152.486 174.667 152.486 175.08C152.486 175.333 152.573 175.56 152.746 175.76C152.933 175.96 153.2 176.133 153.546 176.28C153.906 176.413 154.34 176.527 154.846 176.62C155.486 176.753 156.08 176.92 156.626 177.12C157.173 177.307 157.62 177.593 157.966 177.98C158.313 178.367 158.486 178.92 158.486 179.64C158.5 180.253 158.346 180.793 158.026 181.26C157.706 181.727 157.26 182.093 156.686 182.36C156.126 182.613 155.453 182.74 154.666 182.74ZM169.479 182.74C168.652 182.74 167.965 182.6 167.419 182.32C166.885 182.04 166.485 181.667 166.219 181.2C165.952 180.72 165.819 180.207 165.819 179.66C165.819 178.98 165.992 178.407 166.339 177.94C166.699 177.473 167.199 177.113 167.839 176.86C168.479 176.607 169.239 176.48 170.119 176.48H172.799C172.799 175.867 172.699 175.353 172.499 174.94C172.312 174.527 172.032 174.22 171.659 174.02C171.285 173.807 170.832 173.7 170.299 173.7C169.659 173.7 169.099 173.867 168.619 174.2C168.139 174.52 167.845 174.987 167.739 175.6H166.019C166.099 174.88 166.345 174.28 166.759 173.8C167.172 173.307 167.692 172.933 168.319 172.68C168.945 172.413 169.605 172.28 170.299 172.28C171.219 172.28 171.985 172.453 172.599 172.8C173.225 173.133 173.692 173.607 173.999 174.22C174.319 174.82 174.479 175.527 174.479 176.34V182.5H172.979L172.879 180.72C172.745 181 172.572 181.267 172.359 181.52C172.159 181.76 171.919 181.973 171.639 182.16C171.372 182.333 171.059 182.473 170.699 182.58C170.339 182.687 169.932 182.74 169.479 182.74ZM169.739 181.32C170.219 181.32 170.645 181.227 171.019 181.04C171.405 180.84 171.732 180.573 171.999 180.24C172.265 179.907 172.465 179.533 172.599 179.12C172.732 178.707 172.799 178.273 172.799 177.82V177.78H170.259C169.605 177.78 169.079 177.86 168.679 178.02C168.292 178.18 168.012 178.393 167.839 178.66C167.665 178.927 167.579 179.233 167.579 179.58C167.579 179.927 167.659 180.233 167.819 180.5C167.979 180.767 168.219 180.973 168.539 181.12C168.872 181.253 169.272 181.32 169.739 181.32ZM177.038 182.5V172.52H178.558L178.658 174.28C178.978 173.667 179.438 173.18 180.038 172.82C180.638 172.46 181.318 172.28 182.078 172.28C182.865 172.28 183.545 172.44 184.118 172.76C184.692 173.067 185.138 173.54 185.458 174.18C185.778 174.82 185.938 175.627 185.938 176.6V182.5H184.258V176.78C184.258 175.767 184.032 175.007 183.578 174.5C183.138 173.98 182.512 173.72 181.698 173.72C181.125 173.72 180.612 173.86 180.158 174.14C179.718 174.407 179.365 174.807 179.098 175.34C178.845 175.86 178.718 176.5 178.718 177.26V182.5H177.038ZM192.983 182.74C192.01 182.74 191.15 182.513 190.403 182.06C189.67 181.607 189.096 180.987 188.683 180.2C188.283 179.4 188.083 178.493 188.083 177.48C188.083 176.48 188.283 175.587 188.683 174.8C189.096 174.013 189.676 173.4 190.423 172.96C191.17 172.507 192.03 172.28 193.003 172.28C193.816 172.28 194.536 172.447 195.163 172.78C195.803 173.113 196.29 173.58 196.623 174.18V168.1H198.303V182.5H196.783L196.623 180.86C196.41 181.18 196.136 181.487 195.803 181.78C195.47 182.06 195.07 182.293 194.603 182.48C194.136 182.653 193.596 182.74 192.983 182.74ZM193.183 181.28C193.85 181.28 194.436 181.127 194.943 180.82C195.45 180.5 195.843 180.06 196.123 179.5C196.416 178.927 196.563 178.26 196.563 177.5C196.563 176.753 196.416 176.1 196.123 175.54C195.843 174.967 195.45 174.527 194.943 174.22C194.436 173.9 193.85 173.74 193.183 173.74C192.53 173.74 191.943 173.9 191.423 174.22C190.916 174.527 190.516 174.967 190.223 175.54C189.943 176.1 189.803 176.753 189.803 177.5C189.803 178.26 189.943 178.927 190.223 179.5C190.516 180.06 190.916 180.5 191.423 180.82C191.943 181.127 192.53 181.28 193.183 181.28ZM210.835 182.74C209.861 182.74 209.001 182.513 208.255 182.06C207.521 181.607 206.948 180.987 206.535 180.2C206.135 179.4 205.935 178.493 205.935 177.48C205.935 176.48 206.135 175.587 206.535 174.8C206.948 174.013 207.528 173.4 208.275 172.96C209.021 172.507 209.881 172.28 210.855 172.28C211.668 172.28 212.388 172.447 213.015 172.78C213.655 173.113 214.141 173.58 214.475 174.18V168.1H216.155V182.5H214.635L214.475 180.86C214.261 181.18 213.988 181.487 213.655 181.78C213.321 182.06 212.921 182.293 212.455 182.48C211.988 182.653 211.448 182.74 210.835 182.74ZM211.035 181.28C211.701 181.28 212.288 181.127 212.795 180.82C213.301 180.5 213.695 180.06 213.975 179.5C214.268 178.927 214.415 178.26 214.415 177.5C214.415 176.753 214.268 176.1 213.975 175.54C213.695 174.967 213.301 174.527 212.795 174.22C212.288 173.9 211.701 173.74 211.035 173.74C210.381 173.74 209.795 173.9 209.275 174.22C208.768 174.527 208.368 174.967 208.075 175.54C207.795 176.1 207.655 176.753 207.655 177.5C207.655 178.26 207.795 178.927 208.075 179.5C208.368 180.06 208.768 180.5 209.275 180.82C209.795 181.127 210.381 181.28 211.035 181.28ZM222.213 182.74C221.387 182.74 220.7 182.6 220.153 182.32C219.62 182.04 219.22 181.667 218.953 181.2C218.687 180.72 218.553 180.207 218.553 179.66C218.553 178.98 218.727 178.407 219.073 177.94C219.433 177.473 219.933 177.113 220.573 176.86C221.213 176.607 221.973 176.48 222.853 176.48H225.533C225.533 175.867 225.433 175.353 225.233 174.94C225.047 174.527 224.767 174.22 224.393 174.02C224.02 173.807 223.567 173.7 223.033 173.7C222.393 173.7 221.833 173.867 221.353 174.2C220.873 174.52 220.58 174.987 220.473 175.6H218.753C218.833 174.88 219.08 174.28 219.493 173.8C219.907 173.307 220.427 172.933 221.053 172.68C221.68 172.413 222.34 172.28 223.033 172.28C223.953 172.28 224.72 172.453 225.333 172.8C225.96 173.133 226.427 173.607 226.733 174.22C227.053 174.82 227.213 175.527 227.213 176.34V182.5H225.713L225.613 180.72C225.48 181 225.307 181.267 225.093 181.52C224.893 181.76 224.653 181.973 224.373 182.16C224.107 182.333 223.793 182.473 223.433 182.58C223.073 182.687 222.667 182.74 222.213 182.74ZM222.473 181.32C222.953 181.32 223.38 181.227 223.753 181.04C224.14 180.84 224.467 180.573 224.733 180.24C225 179.907 225.2 179.533 225.333 179.12C225.467 178.707 225.533 178.273 225.533 177.82V177.78H222.993C222.34 177.78 221.813 177.86 221.413 178.02C221.027 178.18 220.747 178.393 220.573 178.66C220.4 178.927 220.313 179.233 220.313 179.58C220.313 179.927 220.393 180.233 220.553 180.5C220.713 180.767 220.953 180.973 221.273 181.12C221.607 181.253 222.007 181.32 222.473 181.32ZM233.573 182.74C232.773 182.74 232.059 182.607 231.433 182.34C230.806 182.06 230.306 181.673 229.933 181.18C229.559 180.673 229.326 180.08 229.233 179.4H230.953C231.033 179.747 231.179 180.067 231.393 180.36C231.619 180.653 231.913 180.887 232.273 181.06C232.646 181.233 233.086 181.32 233.593 181.32C234.073 181.32 234.459 181.253 234.753 181.12C235.059 180.973 235.286 180.787 235.433 180.56C235.593 180.32 235.673 180.06 235.673 179.78C235.673 179.38 235.573 179.073 235.373 178.86C235.186 178.647 234.906 178.48 234.533 178.36C234.159 178.24 233.713 178.127 233.193 178.02C232.766 177.94 232.339 177.833 231.913 177.7C231.499 177.567 231.126 177.4 230.793 177.2C230.459 176.987 230.193 176.72 229.993 176.4C229.793 176.08 229.693 175.693 229.693 175.24C229.693 174.667 229.839 174.16 230.133 173.72C230.426 173.267 230.839 172.913 231.373 172.66C231.919 172.407 232.566 172.28 233.313 172.28C234.366 172.28 235.226 172.54 235.893 173.06C236.573 173.58 236.966 174.333 237.073 175.32H235.413C235.359 174.813 235.146 174.42 234.773 174.14C234.413 173.847 233.919 173.7 233.293 173.7C232.666 173.7 232.193 173.827 231.873 174.08C231.553 174.333 231.393 174.667 231.393 175.08C231.393 175.333 231.479 175.56 231.653 175.76C231.839 175.96 232.106 176.133 232.453 176.28C232.813 176.413 233.246 176.527 233.753 176.62C234.393 176.753 234.986 176.92 235.533 177.12C236.079 177.307 236.526 177.593 236.873 177.98C237.219 178.367 237.393 178.92 237.393 179.64C237.406 180.253 237.253 180.793 236.933 181.26C236.613 181.727 236.166 182.093 235.593 182.36C235.033 182.613 234.359 182.74 233.573 182.74ZM239.792 182.5V168.1H241.472V174.22C241.805 173.607 242.272 173.133 242.872 172.8C243.485 172.453 244.159 172.28 244.892 172.28C245.652 172.28 246.319 172.44 246.892 172.76C247.465 173.067 247.905 173.54 248.212 174.18C248.532 174.82 248.692 175.633 248.692 176.62V182.5H247.032V176.8C247.032 175.773 246.819 175.007 246.392 174.5C245.965 173.98 245.345 173.72 244.532 173.72C243.959 173.72 243.439 173.86 242.972 174.14C242.505 174.42 242.139 174.82 241.872 175.34C241.605 175.86 241.472 176.507 241.472 177.28V182.5H239.792ZM256.557 182.74C255.997 182.74 255.484 182.66 255.017 182.5C254.564 182.34 254.157 182.12 253.797 181.84C253.45 181.56 253.164 181.227 252.937 180.84L252.777 182.5H251.257V168.1H252.937V174.16C253.257 173.667 253.717 173.233 254.317 172.86C254.917 172.473 255.67 172.28 256.577 172.28C257.55 172.28 258.404 172.507 259.137 172.96C259.87 173.413 260.437 174.04 260.837 174.84C261.25 175.627 261.457 176.52 261.457 177.52C261.457 178.533 261.25 179.433 260.837 180.22C260.437 180.993 259.87 181.607 259.137 182.06C258.404 182.513 257.544 182.74 256.557 182.74ZM256.377 181.28C257.03 181.28 257.61 181.127 258.117 180.82C258.637 180.5 259.037 180.06 259.317 179.5C259.61 178.927 259.757 178.26 259.757 177.5C259.757 176.753 259.61 176.1 259.317 175.54C259.037 174.967 258.637 174.527 258.117 174.22C257.61 173.9 257.03 173.74 256.377 173.74C255.71 173.74 255.117 173.9 254.597 174.22C254.09 174.527 253.69 174.967 253.397 175.54C253.117 176.1 252.977 176.753 252.977 177.5C252.977 178.26 253.117 178.927 253.397 179.5C253.69 180.06 254.09 180.5 254.597 180.82C255.117 181.127 255.71 181.28 256.377 181.28ZM268.316 182.74C267.383 182.74 266.543 182.527 265.796 182.1C265.049 181.673 264.456 181.067 264.016 180.28C263.589 179.493 263.376 178.573 263.376 177.52C263.376 176.453 263.596 175.527 264.036 174.74C264.476 173.953 265.069 173.347 265.816 172.92C266.576 172.493 267.423 172.28 268.356 172.28C269.303 172.28 270.149 172.493 270.896 172.92C271.643 173.347 272.229 173.953 272.656 174.74C273.083 175.527 273.296 176.453 273.296 177.52C273.296 178.573 273.076 179.493 272.636 180.28C272.209 181.067 271.616 181.673 270.856 182.1C270.109 182.527 269.263 182.74 268.316 182.74ZM268.316 181.3C268.903 181.3 269.443 181.16 269.936 180.88C270.429 180.6 270.823 180.18 271.116 179.62C271.423 179.047 271.576 178.34 271.576 177.5C271.576 176.66 271.429 175.96 271.136 175.4C270.843 174.84 270.449 174.42 269.956 174.14C269.463 173.86 268.929 173.72 268.356 173.72C267.796 173.72 267.263 173.86 266.756 174.14C266.263 174.42 265.863 174.84 265.556 175.4C265.249 175.96 265.096 176.667 265.096 177.52C265.096 178.347 265.249 179.047 265.556 179.62C265.863 180.18 266.256 180.6 266.736 180.88C267.229 181.16 267.756 181.3 268.316 181.3ZM278.951 182.74C278.125 182.74 277.438 182.6 276.891 182.32C276.358 182.04 275.958 181.667 275.691 181.2C275.425 180.72 275.291 180.207 275.291 179.66C275.291 178.98 275.465 178.407 275.811 177.94C276.171 177.473 276.671 177.113 277.311 176.86C277.951 176.607 278.711 176.48 279.591 176.48H282.271C282.271 175.867 282.171 175.353 281.971 174.94C281.785 174.527 281.505 174.22 281.131 174.02C280.758 173.807 280.305 173.7 279.771 173.7C279.131 173.7 278.571 173.867 278.091 174.2C277.611 174.52 277.318 174.987 277.211 175.6H275.491C275.571 174.88 275.818 174.28 276.231 173.8C276.645 173.307 277.165 172.933 277.791 172.68C278.418 172.413 279.078 172.28 279.771 172.28C280.691 172.28 281.458 172.453 282.071 172.8C282.698 173.133 283.165 173.607 283.471 174.22C283.791 174.82 283.951 175.527 283.951 176.34V182.5H282.451L282.351 180.72C282.218 181 282.045 181.267 281.831 181.52C281.631 181.76 281.391 181.973 281.111 182.16C280.845 182.333 280.531 182.473 280.171 182.58C279.811 182.687 279.405 182.74 278.951 182.74ZM279.211 181.32C279.691 181.32 280.118 181.227 280.491 181.04C280.878 180.84 281.205 180.573 281.471 180.24C281.738 179.907 281.938 179.533 282.071 179.12C282.205 178.707 282.271 178.273 282.271 177.82V177.78H279.731C279.078 177.78 278.551 177.86 278.151 178.02C277.765 178.18 277.485 178.393 277.311 178.66C277.138 178.927 277.051 179.233 277.051 179.58C277.051 179.927 277.131 180.233 277.291 180.5C277.451 180.767 277.691 180.973 278.011 181.12C278.345 181.253 278.745 181.32 279.211 181.32ZM286.511 182.5V172.52H288.031L288.171 174.44C288.384 173.987 288.664 173.6 289.011 173.28C289.371 172.96 289.791 172.713 290.271 172.54C290.764 172.367 291.324 172.28 291.951 172.28V174.04H291.431C290.991 174.04 290.571 174.1 290.171 174.22C289.784 174.327 289.438 174.507 289.131 174.76C288.838 175.013 288.604 175.36 288.431 175.8C288.271 176.227 288.191 176.767 288.191 177.42V182.5H286.511ZM297.944 182.74C296.971 182.74 296.111 182.513 295.364 182.06C294.631 181.607 294.057 180.987 293.644 180.2C293.244 179.4 293.044 178.493 293.044 177.48C293.044 176.48 293.244 175.587 293.644 174.8C294.057 174.013 294.637 173.4 295.384 172.96C296.131 172.507 296.991 172.28 297.964 172.28C298.777 172.28 299.497 172.447 300.124 172.78C300.764 173.113 301.251 173.58 301.584 174.18V168.1H303.264V182.5H301.744L301.584 180.86C301.371 181.18 301.097 181.487 300.764 181.78C300.431 182.06 300.031 182.293 299.564 182.48C299.097 182.653 298.557 182.74 297.944 182.74ZM298.144 181.28C298.811 181.28 299.397 181.127 299.904 180.82C300.411 180.5 300.804 180.06 301.084 179.5C301.377 178.927 301.524 178.26 301.524 177.5C301.524 176.753 301.377 176.1 301.084 175.54C300.804 174.967 300.411 174.527 299.904 174.22C299.397 173.9 298.811 173.74 298.144 173.74C297.491 173.74 296.904 173.9 296.384 174.22C295.877 174.527 295.477 174.967 295.184 175.54C294.904 176.1 294.764 176.753 294.764 177.5C294.764 178.26 294.904 178.927 295.184 179.5C295.477 180.06 295.877 180.5 296.384 180.82C296.904 181.127 297.491 181.28 298.144 181.28ZM309.823 182.74C309.023 182.74 308.309 182.607 307.683 182.34C307.056 182.06 306.556 181.673 306.183 181.18C305.809 180.673 305.576 180.08 305.483 179.4H307.203C307.283 179.747 307.429 180.067 307.643 180.36C307.869 180.653 308.163 180.887 308.523 181.06C308.896 181.233 309.336 181.32 309.843 181.32C310.323 181.32 310.709 181.253 311.003 181.12C311.309 180.973 311.536 180.787 311.683 180.56C311.843 180.32 311.923 180.06 311.923 179.78C311.923 179.38 311.823 179.073 311.623 178.86C311.436 178.647 311.156 178.48 310.783 178.36C310.409 178.24 309.963 178.127 309.443 178.02C309.016 177.94 308.589 177.833 308.163 177.7C307.749 177.567 307.376 177.4 307.043 177.2C306.709 176.987 306.443 176.72 306.243 176.4C306.043 176.08 305.943 175.693 305.943 175.24C305.943 174.667 306.089 174.16 306.383 173.72C306.676 173.267 307.089 172.913 307.623 172.66C308.169 172.407 308.816 172.28 309.563 172.28C310.616 172.28 311.476 172.54 312.143 173.06C312.823 173.58 313.216 174.333 313.323 175.32H311.663C311.609 174.813 311.396 174.42 311.023 174.14C310.663 173.847 310.169 173.7 309.543 173.7C308.916 173.7 308.443 173.827 308.123 174.08C307.803 174.333 307.643 174.667 307.643 175.08C307.643 175.333 307.729 175.56 307.903 175.76C308.089 175.96 308.356 176.133 308.703 176.28C309.063 176.413 309.496 176.527 310.003 176.62C310.643 176.753 311.236 176.92 311.783 177.12C312.329 177.307 312.776 177.593 313.123 177.98C313.469 178.367 313.643 178.92 313.643 179.64C313.656 180.253 313.503 180.793 313.183 181.26C312.863 181.727 312.416 182.093 311.843 182.36C311.283 182.613 310.609 182.74 309.823 182.74Z" fill="#495057"/>
<path d="M164.912 238.5V224.5H169.512C170.605 224.5 171.505 224.68 172.212 225.04C172.918 225.4 173.438 225.887 173.772 226.5C174.118 227.113 174.292 227.813 174.292 228.6C174.292 229.36 174.125 230.047 173.792 230.66C173.458 231.273 172.938 231.767 172.232 232.14C171.525 232.5 170.618 232.68 169.512 232.68H166.592V238.5H164.912ZM166.592 231.26H169.472C170.578 231.26 171.372 231.02 171.852 230.54C172.332 230.06 172.572 229.413 172.572 228.6C172.572 227.747 172.332 227.087 171.852 226.62C171.372 226.14 170.578 225.9 169.472 225.9H166.592V231.26ZM180.287 238.74C179.341 238.74 178.501 238.527 177.767 238.1C177.034 237.66 176.454 237.047 176.027 236.26C175.614 235.473 175.407 234.553 175.407 233.5C175.407 232.447 175.614 231.533 176.027 230.76C176.441 229.973 177.014 229.367 177.747 228.94C178.494 228.5 179.354 228.28 180.327 228.28C181.301 228.28 182.134 228.5 182.827 228.94C183.521 229.367 184.047 229.933 184.407 230.64C184.781 231.347 184.967 232.12 184.967 232.96C184.967 233.093 184.967 233.233 184.967 233.38C184.967 233.527 184.961 233.693 184.947 233.88H176.667V232.58H183.307C183.281 231.673 182.981 230.967 182.407 230.46C181.847 229.953 181.141 229.7 180.287 229.7C179.714 229.7 179.181 229.827 178.687 230.08C178.194 230.333 177.794 230.707 177.487 231.2C177.194 231.693 177.047 232.307 177.047 233.04V233.6C177.047 234.427 177.201 235.12 177.507 235.68C177.814 236.227 178.214 236.64 178.707 236.92C179.201 237.187 179.727 237.32 180.287 237.32C180.981 237.32 181.554 237.167 182.007 236.86C182.474 236.54 182.814 236.107 183.027 235.56H184.687C184.514 236.16 184.227 236.7 183.827 237.18C183.441 237.66 182.947 238.04 182.347 238.32C181.761 238.6 181.074 238.74 180.287 238.74ZM187.214 238.5V228.52H188.734L188.874 230.44C189.087 229.987 189.367 229.6 189.714 229.28C190.074 228.96 190.494 228.713 190.974 228.54C191.467 228.367 192.027 228.28 192.654 228.28V230.04H192.134C191.694 230.04 191.274 230.1 190.874 230.22C190.487 230.327 190.141 230.507 189.834 230.76C189.541 231.013 189.307 231.36 189.134 231.8C188.974 232.227 188.894 232.767 188.894 233.42V238.5H187.214ZM194.718 238.5V228.52H196.398V238.5H194.718ZM195.558 226.34C195.225 226.34 194.945 226.233 194.718 226.02C194.505 225.793 194.398 225.513 194.398 225.18C194.398 224.847 194.505 224.58 194.718 224.38C194.945 224.167 195.225 224.06 195.558 224.06C195.878 224.06 196.152 224.167 196.378 224.38C196.605 224.58 196.718 224.847 196.718 225.18C196.718 225.513 196.605 225.793 196.378 226.02C196.152 226.233 195.878 226.34 195.558 226.34ZM203.843 238.74C202.91 238.74 202.07 238.527 201.323 238.1C200.577 237.673 199.983 237.067 199.543 236.28C199.117 235.493 198.903 234.573 198.903 233.52C198.903 232.453 199.123 231.527 199.563 230.74C200.003 229.953 200.597 229.347 201.343 228.92C202.103 228.493 202.95 228.28 203.883 228.28C204.83 228.28 205.677 228.493 206.423 228.92C207.17 229.347 207.757 229.953 208.183 230.74C208.61 231.527 208.823 232.453 208.823 233.52C208.823 234.573 208.603 235.493 208.163 236.28C207.737 237.067 207.143 237.673 206.383 238.1C205.637 238.527 204.79 238.74 203.843 238.74ZM203.843 237.3C204.43 237.3 204.97 237.16 205.463 236.88C205.957 236.6 206.35 236.18 206.643 235.62C206.95 235.047 207.103 234.34 207.103 233.5C207.103 232.66 206.957 231.96 206.663 231.4C206.37 230.84 205.977 230.42 205.483 230.14C204.99 229.86 204.457 229.72 203.883 229.72C203.323 229.72 202.79 229.86 202.283 230.14C201.79 230.42 201.39 230.84 201.083 231.4C200.777 231.96 200.623 232.667 200.623 233.52C200.623 234.347 200.777 235.047 201.083 235.62C201.39 236.18 201.783 236.6 202.263 236.88C202.757 237.16 203.283 237.3 203.843 237.3ZM215.659 238.74C214.685 238.74 213.825 238.513 213.079 238.06C212.345 237.607 211.772 236.987 211.359 236.2C210.959 235.4 210.759 234.493 210.759 233.48C210.759 232.48 210.959 231.587 211.359 230.8C211.772 230.013 212.352 229.4 213.099 228.96C213.845 228.507 214.705 228.28 215.679 228.28C216.492 228.28 217.212 228.447 217.839 228.78C218.479 229.113 218.965 229.58 219.299 230.18V224.1H220.979V238.5H219.459L219.299 236.86C219.085 237.18 218.812 237.487 218.479 237.78C218.145 238.06 217.745 238.293 217.279 238.48C216.812 238.653 216.272 238.74 215.659 238.74ZM215.859 237.28C216.525 237.28 217.112 237.127 217.619 236.82C218.125 236.5 218.519 236.06 218.799 235.5C219.092 234.927 219.239 234.26 219.239 233.5C219.239 232.753 219.092 232.1 218.799 231.54C218.519 230.967 218.125 230.527 217.619 230.22C217.112 229.9 216.525 229.74 215.859 229.74C215.205 229.74 214.619 229.9 214.099 230.22C213.592 230.527 213.192 230.967 212.899 231.54C212.619 232.1 212.479 232.753 212.479 233.5C212.479 234.26 212.619 234.927 212.899 235.5C213.192 236.06 213.592 236.5 214.099 236.82C214.619 237.127 215.205 237.28 215.859 237.28ZM223.917 238.5V228.52H225.597V238.5H223.917ZM224.757 226.34C224.424 226.34 224.144 226.233 223.917 226.02C223.704 225.793 223.597 225.513 223.597 225.18C223.597 224.847 223.704 224.58 223.917 224.38C224.144 224.167 224.424 224.06 224.757 224.06C225.077 224.06 225.351 224.167 225.577 224.38C225.804 224.58 225.917 224.847 225.917 225.18C225.917 225.513 225.804 225.793 225.577 226.02C225.351 226.233 225.077 226.34 224.757 226.34ZM233.083 238.74C232.136 238.74 231.283 238.52 230.523 238.08C229.776 237.64 229.183 237.033 228.743 236.26C228.316 235.473 228.103 234.56 228.103 233.52C228.103 232.467 228.316 231.553 228.743 230.78C229.183 229.993 229.776 229.38 230.523 228.94C231.283 228.5 232.136 228.28 233.083 228.28C234.269 228.28 235.263 228.587 236.063 229.2C236.863 229.813 237.369 230.64 237.583 231.68H235.863C235.729 231.053 235.403 230.573 234.883 230.24C234.363 229.893 233.756 229.72 233.063 229.72C232.503 229.72 231.976 229.86 231.483 230.14C230.989 230.42 230.589 230.847 230.283 231.42C229.976 231.98 229.823 232.673 229.823 233.5C229.823 234.127 229.909 234.68 230.083 235.16C230.269 235.627 230.509 236.027 230.803 236.36C231.109 236.68 231.456 236.92 231.843 237.08C232.243 237.24 232.649 237.32 233.063 237.32C233.529 237.32 233.956 237.247 234.343 237.1C234.729 236.94 235.056 236.713 235.323 236.42C235.589 236.113 235.769 235.753 235.863 235.34H237.583C237.369 236.353 236.863 237.173 236.063 237.8C235.263 238.427 234.269 238.74 233.083 238.74Z" fill="#495057"/>
<path d="M178.639 294.74C177.613 294.74 176.719 294.553 175.959 294.18C175.199 293.807 174.613 293.287 174.199 292.62C173.786 291.953 173.579 291.18 173.579 290.3H175.339C175.339 290.847 175.466 291.353 175.719 291.82C175.973 292.273 176.339 292.64 176.819 292.92C177.313 293.187 177.919 293.32 178.639 293.32C179.266 293.32 179.799 293.22 180.239 293.02C180.693 292.807 181.033 292.52 181.259 292.16C181.499 291.8 181.619 291.393 181.619 290.94C181.619 290.38 181.499 289.933 181.259 289.6C181.033 289.253 180.713 288.973 180.299 288.76C179.899 288.547 179.433 288.36 178.899 288.2C178.379 288.04 177.833 287.86 177.259 287.66C176.179 287.287 175.373 286.827 174.839 286.28C174.319 285.72 174.059 284.993 174.059 284.1C174.059 283.34 174.233 282.673 174.579 282.1C174.939 281.527 175.446 281.08 176.099 280.76C176.766 280.427 177.553 280.26 178.459 280.26C179.353 280.26 180.126 280.427 180.779 280.76C181.446 281.093 181.966 281.553 182.339 282.14C182.713 282.713 182.899 283.38 182.899 284.14H181.139C181.139 283.753 181.039 283.373 180.839 283C180.639 282.627 180.333 282.32 179.919 282.08C179.519 281.827 179.013 281.7 178.399 281.7C177.893 281.687 177.439 281.773 177.039 281.96C176.653 282.133 176.346 282.387 176.119 282.72C175.906 283.053 175.799 283.46 175.799 283.94C175.799 284.393 175.893 284.76 176.079 285.04C176.279 285.32 176.559 285.56 176.919 285.76C177.293 285.947 177.726 286.12 178.219 286.28C178.713 286.44 179.259 286.62 179.859 286.82C180.539 287.047 181.139 287.327 181.659 287.66C182.193 287.98 182.606 288.393 182.899 288.9C183.206 289.407 183.359 290.053 183.359 290.84C183.359 291.507 183.179 292.14 182.819 292.74C182.473 293.327 181.953 293.807 181.259 294.18C180.566 294.553 179.693 294.74 178.639 294.74ZM190.181 294.74C189.248 294.74 188.408 294.527 187.661 294.1C186.915 293.673 186.321 293.067 185.881 292.28C185.455 291.493 185.241 290.573 185.241 289.52C185.241 288.453 185.461 287.527 185.901 286.74C186.341 285.953 186.935 285.347 187.681 284.92C188.441 284.493 189.288 284.28 190.221 284.28C191.168 284.28 192.015 284.493 192.761 284.92C193.508 285.347 194.095 285.953 194.521 286.74C194.948 287.527 195.161 288.453 195.161 289.52C195.161 290.573 194.941 291.493 194.501 292.28C194.075 293.067 193.481 293.673 192.721 294.1C191.975 294.527 191.128 294.74 190.181 294.74ZM190.181 293.3C190.768 293.3 191.308 293.16 191.801 292.88C192.295 292.6 192.688 292.18 192.981 291.62C193.288 291.047 193.441 290.34 193.441 289.5C193.441 288.66 193.295 287.96 193.001 287.4C192.708 286.84 192.315 286.42 191.821 286.14C191.328 285.86 190.795 285.72 190.221 285.72C189.661 285.72 189.128 285.86 188.621 286.14C188.128 286.42 187.728 286.84 187.421 287.4C187.115 287.96 186.961 288.667 186.961 289.52C186.961 290.347 187.115 291.047 187.421 291.62C187.728 292.18 188.121 292.6 188.601 292.88C189.095 293.16 189.621 293.3 190.181 293.3ZM197.697 294.5V284.52H199.377V294.5H197.697ZM198.537 282.34C198.203 282.34 197.923 282.233 197.697 282.02C197.483 281.793 197.377 281.513 197.377 281.18C197.377 280.847 197.483 280.58 197.697 280.38C197.923 280.167 198.203 280.06 198.537 280.06C198.857 280.06 199.13 280.167 199.357 280.38C199.583 280.58 199.697 280.847 199.697 281.18C199.697 281.513 199.583 281.793 199.357 282.02C199.13 282.233 198.857 282.34 198.537 282.34ZM202.302 294.5V280.1H203.982V294.5H202.302ZM211.195 294.74C210.249 294.74 209.409 294.527 208.675 294.1C207.942 293.66 207.362 293.047 206.935 292.26C206.522 291.473 206.315 290.553 206.315 289.5C206.315 288.447 206.522 287.533 206.935 286.76C207.349 285.973 207.922 285.367 208.655 284.94C209.402 284.5 210.262 284.28 211.235 284.28C212.209 284.28 213.042 284.5 213.735 284.94C214.429 285.367 214.955 285.933 215.315 286.64C215.689 287.347 215.875 288.12 215.875 288.96C215.875 289.093 215.875 289.233 215.875 289.38C215.875 289.527 215.869 289.693 215.855 289.88H207.575V288.58H214.215C214.189 287.673 213.889 286.967 213.315 286.46C212.755 285.953 212.049 285.7 211.195 285.7C210.622 285.7 210.089 285.827 209.595 286.08C209.102 286.333 208.702 286.707 208.395 287.2C208.102 287.693 207.955 288.307 207.955 289.04V289.6C207.955 290.427 208.109 291.12 208.415 291.68C208.722 292.227 209.122 292.64 209.615 292.92C210.109 293.187 210.635 293.32 211.195 293.32C211.889 293.32 212.462 293.167 212.915 292.86C213.382 292.54 213.722 292.107 213.935 291.56H215.595C215.422 292.16 215.135 292.7 214.735 293.18C214.349 293.66 213.855 294.04 213.255 294.32C212.669 294.6 211.982 294.74 211.195 294.74ZM222.602 294.74C221.629 294.74 220.769 294.513 220.022 294.06C219.289 293.607 218.716 292.987 218.302 292.2C217.902 291.4 217.702 290.493 217.702 289.48C217.702 288.48 217.902 287.587 218.302 286.8C218.716 286.013 219.296 285.4 220.042 284.96C220.789 284.507 221.649 284.28 222.622 284.28C223.436 284.28 224.156 284.447 224.782 284.78C225.422 285.113 225.909 285.58 226.242 286.18V280.1H227.922V294.5H226.402L226.242 292.86C226.029 293.18 225.756 293.487 225.422 293.78C225.089 294.06 224.689 294.293 224.222 294.48C223.756 294.653 223.216 294.74 222.602 294.74ZM222.802 293.28C223.469 293.28 224.056 293.127 224.562 292.82C225.069 292.5 225.462 292.06 225.742 291.5C226.036 290.927 226.182 290.26 226.182 289.5C226.182 288.753 226.036 288.1 225.742 287.54C225.462 286.967 225.069 286.527 224.562 286.22C224.056 285.9 223.469 285.74 222.802 285.74C222.149 285.74 221.562 285.9 221.042 286.22C220.536 286.527 220.136 286.967 219.842 287.54C219.562 288.1 219.422 288.753 219.422 289.5C219.422 290.26 219.562 290.927 219.842 291.5C220.136 292.06 220.536 292.5 221.042 292.82C221.562 293.127 222.149 293.28 222.802 293.28Z" fill="#495057"/>
<path d="M152.391 350.5L157.551 336.5H159.331L164.471 350.5H162.691L158.431 338.6L154.151 350.5H152.391ZM154.751 346.9L155.231 345.54H161.571L162.051 346.9H154.751ZM166.552 350.5V336.5H168.232V350.5H166.552ZM180.933 350.74C180 350.74 179.16 350.527 178.413 350.1C177.667 349.673 177.073 349.067 176.633 348.28C176.207 347.493 175.993 346.573 175.993 345.52C175.993 344.453 176.213 343.527 176.653 342.74C177.093 341.953 177.687 341.347 178.433 340.92C179.193 340.493 180.04 340.28 180.973 340.28C181.92 340.28 182.767 340.493 183.513 340.92C184.26 341.347 184.847 341.953 185.273 342.74C185.7 343.527 185.913 344.453 185.913 345.52C185.913 346.573 185.693 347.493 185.253 348.28C184.827 349.067 184.233 349.673 183.473 350.1C182.727 350.527 181.88 350.74 180.933 350.74ZM180.933 349.3C181.52 349.3 182.06 349.16 182.553 348.88C183.047 348.6 183.44 348.18 183.733 347.62C184.04 347.047 184.193 346.34 184.193 345.5C184.193 344.66 184.047 343.96 183.753 343.4C183.46 342.84 183.067 342.42 182.573 342.14C182.08 341.86 181.547 341.72 180.973 341.72C180.413 341.72 179.88 341.86 179.373 342.14C178.88 342.42 178.48 342.84 178.173 343.4C177.867 343.96 177.713 344.667 177.713 345.52C177.713 346.347 177.867 347.047 178.173 347.62C178.48 348.18 178.873 348.6 179.353 348.88C179.847 349.16 180.373 349.3 180.933 349.3ZM188.269 354.9V340.52H189.789L189.949 342.16C190.162 341.84 190.435 341.54 190.769 341.26C191.102 340.967 191.502 340.733 191.969 340.56C192.435 340.373 192.975 340.28 193.589 340.28C194.562 340.28 195.415 340.513 196.149 340.98C196.882 341.433 197.449 342.053 197.849 342.84C198.262 343.627 198.469 344.527 198.469 345.54C198.469 346.54 198.262 347.433 197.849 348.22C197.449 349.007 196.875 349.627 196.129 350.08C195.395 350.52 194.542 350.74 193.569 350.74C192.755 350.74 192.035 350.573 191.409 350.24C190.782 349.907 190.295 349.44 189.949 348.84V354.9H188.269ZM193.389 349.28C194.042 349.28 194.622 349.127 195.129 348.82C195.649 348.5 196.049 348.06 196.329 347.5C196.622 346.927 196.769 346.26 196.769 345.5C196.769 344.753 196.622 344.1 196.329 343.54C196.049 342.967 195.649 342.527 195.129 342.22C194.622 341.9 194.042 341.74 193.389 341.74C192.722 341.74 192.129 341.9 191.609 342.22C191.102 342.527 190.702 342.967 190.409 343.54C190.129 344.1 189.989 344.753 189.989 345.5C189.989 346.26 190.129 346.927 190.409 347.5C190.702 348.06 191.102 348.5 191.609 348.82C192.129 349.127 192.722 349.28 193.389 349.28ZM204.357 350.5C203.757 350.5 203.237 350.407 202.797 350.22C202.357 350.033 202.017 349.72 201.777 349.28C201.55 348.827 201.437 348.22 201.437 347.46V341.94H199.697V340.52H201.437L201.657 338.12H203.117V340.52H206.037V341.94H203.117V347.46C203.117 348.087 203.244 348.513 203.497 348.74C203.75 348.953 204.197 349.06 204.837 349.06H205.897V350.5H204.357ZM208.371 350.5V340.52H210.051V350.5H208.371ZM209.211 338.34C208.877 338.34 208.597 338.233 208.371 338.02C208.157 337.793 208.051 337.513 208.051 337.18C208.051 336.847 208.157 336.58 208.371 336.38C208.597 336.167 208.877 336.06 209.211 336.06C209.531 336.06 209.804 336.167 210.031 336.38C210.257 336.58 210.371 336.847 210.371 337.18C210.371 337.513 210.257 337.793 210.031 338.02C209.804 338.233 209.531 338.34 209.211 338.34ZM217.496 350.74C216.562 350.74 215.722 350.527 214.976 350.1C214.229 349.673 213.636 349.067 213.196 348.28C212.769 347.493 212.556 346.573 212.556 345.52C212.556 344.453 212.776 343.527 213.216 342.74C213.656 341.953 214.249 341.347 214.996 340.92C215.756 340.493 216.602 340.28 217.536 340.28C218.482 340.28 219.329 340.493 220.076 340.92C220.822 341.347 221.409 341.953 221.836 342.74C222.262 343.527 222.476 344.453 222.476 345.52C222.476 346.573 222.256 347.493 221.816 348.28C221.389 349.067 220.796 349.673 220.036 350.1C219.289 350.527 218.442 350.74 217.496 350.74ZM217.496 349.3C218.082 349.3 218.622 349.16 219.116 348.88C219.609 348.6 220.002 348.18 220.296 347.62C220.602 347.047 220.756 346.34 220.756 345.5C220.756 344.66 220.609 343.96 220.316 343.4C220.022 342.84 219.629 342.42 219.136 342.14C218.642 341.86 218.109 341.72 217.536 341.72C216.976 341.72 216.442 341.86 215.936 342.14C215.442 342.42 215.042 342.84 214.736 343.4C214.429 343.96 214.276 344.667 214.276 345.52C214.276 346.347 214.429 347.047 214.736 347.62C215.042 348.18 215.436 348.6 215.916 348.88C216.409 349.16 216.936 349.3 217.496 349.3ZM224.831 350.5V340.52H226.351L226.451 342.28C226.771 341.667 227.231 341.18 227.831 340.82C228.431 340.46 229.111 340.28 229.871 340.28C230.658 340.28 231.338 340.44 231.911 340.76C232.485 341.067 232.931 341.54 233.251 342.18C233.571 342.82 233.731 343.627 233.731 344.6V350.5H232.051V344.78C232.051 343.767 231.825 343.007 231.371 342.5C230.931 341.98 230.305 341.72 229.491 341.72C228.918 341.72 228.405 341.86 227.951 342.14C227.511 342.407 227.158 342.807 226.891 343.34C226.638 343.86 226.511 344.5 226.511 345.26V350.5H224.831ZM239.596 350.74C238.769 350.74 238.083 350.6 237.536 350.32C237.003 350.04 236.603 349.667 236.336 349.2C236.069 348.72 235.936 348.207 235.936 347.66C235.936 346.98 236.109 346.407 236.456 345.94C236.816 345.473 237.316 345.113 237.956 344.86C238.596 344.607 239.356 344.48 240.236 344.48H242.916C242.916 343.867 242.816 343.353 242.616 342.94C242.429 342.527 242.149 342.22 241.776 342.02C241.403 341.807 240.949 341.7 240.416 341.7C239.776 341.7 239.216 341.867 238.736 342.2C238.256 342.52 237.963 342.987 237.856 343.6H236.136C236.216 342.88 236.463 342.28 236.876 341.8C237.289 341.307 237.809 340.933 238.436 340.68C239.063 340.413 239.723 340.28 240.416 340.28C241.336 340.28 242.103 340.453 242.716 340.8C243.343 341.133 243.809 341.607 244.116 342.22C244.436 342.82 244.596 343.527 244.596 344.34V350.5H243.096L242.996 348.72C242.863 349 242.689 349.267 242.476 349.52C242.276 349.76 242.036 349.973 241.756 350.16C241.489 350.333 241.176 350.473 240.816 350.58C240.456 350.687 240.049 350.74 239.596 350.74ZM239.856 349.32C240.336 349.32 240.763 349.227 241.136 349.04C241.523 348.84 241.849 348.573 242.116 348.24C242.383 347.907 242.583 347.533 242.716 347.12C242.849 346.707 242.916 346.273 242.916 345.82V345.78H240.376C239.723 345.78 239.196 345.86 238.796 346.02C238.409 346.18 238.129 346.393 237.956 346.66C237.783 346.927 237.696 347.233 237.696 347.58C237.696 347.927 237.776 348.233 237.936 348.5C238.096 348.767 238.336 348.973 238.656 349.12C238.989 349.253 239.389 349.32 239.856 349.32ZM247.155 350.5V336.1H248.835V350.5H247.155Z" fill="#495057"/>
<path d="M167.724 406.5V392.5H169.404V406.5H167.724ZM172.292 406.5V396.52H173.812L173.912 398.28C174.232 397.667 174.692 397.18 175.292 396.82C175.892 396.46 176.572 396.28 177.332 396.28C178.119 396.28 178.799 396.44 179.372 396.76C179.945 397.067 180.392 397.54 180.712 398.18C181.032 398.82 181.192 399.627 181.192 400.6V406.5H179.512V400.78C179.512 399.767 179.285 399.007 178.832 398.5C178.392 397.98 177.765 397.72 176.952 397.72C176.379 397.72 175.865 397.86 175.412 398.14C174.972 398.407 174.619 398.807 174.352 399.34C174.099 399.86 173.972 400.5 173.972 401.26V406.5H172.292ZM184.317 406.5V394.86C184.317 394.22 184.424 393.7 184.637 393.3C184.85 392.887 185.164 392.587 185.577 392.4C186.004 392.2 186.524 392.1 187.137 392.1H188.197V393.54H187.397C186.89 393.54 186.53 393.64 186.317 393.84C186.104 394.04 185.997 394.393 185.997 394.9V406.5H184.317ZM182.797 397.94V396.52H188.477V397.94H182.797ZM194.605 406.74C193.672 406.74 192.832 406.527 192.085 406.1C191.338 405.673 190.745 405.067 190.305 404.28C189.878 403.493 189.665 402.573 189.665 401.52C189.665 400.453 189.885 399.527 190.325 398.74C190.765 397.953 191.358 397.347 192.105 396.92C192.865 396.493 193.712 396.28 194.645 396.28C195.592 396.28 196.438 396.493 197.185 396.92C197.932 397.347 198.518 397.953 198.945 398.74C199.372 399.527 199.585 400.453 199.585 401.52C199.585 402.573 199.365 403.493 198.925 404.28C198.498 405.067 197.905 405.673 197.145 406.1C196.398 406.527 195.552 406.74 194.605 406.74ZM194.605 405.3C195.192 405.3 195.732 405.16 196.225 404.88C196.718 404.6 197.112 404.18 197.405 403.62C197.712 403.047 197.865 402.34 197.865 401.5C197.865 400.66 197.718 399.96 197.425 399.4C197.132 398.84 196.738 398.42 196.245 398.14C195.752 397.86 195.218 397.72 194.645 397.72C194.085 397.72 193.552 397.86 193.045 398.14C192.552 398.42 192.152 398.84 191.845 399.4C191.538 399.96 191.385 400.667 191.385 401.52C191.385 402.347 191.538 403.047 191.845 403.62C192.152 404.18 192.545 404.6 193.025 404.88C193.518 405.16 194.045 405.3 194.605 405.3ZM201.941 406.5V396.52H203.461L203.601 398.44C203.814 397.987 204.094 397.6 204.441 397.28C204.801 396.96 205.221 396.713 205.701 396.54C206.194 396.367 206.754 396.28 207.381 396.28V398.04H206.861C206.421 398.04 206.001 398.1 205.601 398.22C205.214 398.327 204.867 398.507 204.561 398.76C204.267 399.013 204.034 399.36 203.861 399.8C203.701 400.227 203.621 400.767 203.621 401.42V406.5H201.941ZM209.265 406.5V396.52H210.785L210.905 397.96C211.225 397.427 211.651 397.013 212.185 396.72C212.718 396.427 213.318 396.28 213.985 396.28C214.505 396.28 214.971 396.353 215.385 396.5C215.811 396.633 216.185 396.847 216.505 397.14C216.838 397.42 217.105 397.78 217.305 398.22C217.651 397.607 218.131 397.133 218.745 396.8C219.358 396.453 220.005 396.28 220.685 396.28C221.471 396.28 222.158 396.44 222.745 396.76C223.331 397.067 223.778 397.54 224.085 398.18C224.405 398.82 224.565 399.633 224.565 400.62V406.5H222.905V400.8C222.905 399.773 222.698 399.007 222.285 398.5C221.871 397.98 221.285 397.72 220.525 397.72C219.991 397.72 219.518 397.86 219.105 398.14C218.691 398.42 218.365 398.82 218.125 399.34C217.885 399.86 217.765 400.507 217.765 401.28V406.5H216.085V400.8C216.085 399.773 215.878 399.007 215.465 398.5C215.051 397.98 214.458 397.72 213.685 397.72C213.178 397.72 212.711 397.86 212.285 398.14C211.871 398.42 211.545 398.82 211.305 399.34C211.065 399.86 210.945 400.507 210.945 401.28V406.5H209.265ZM230.916 406.74C230.116 406.74 229.403 406.607 228.776 406.34C228.15 406.06 227.65 405.673 227.276 405.18C226.903 404.673 226.67 404.08 226.576 403.4H228.296C228.376 403.747 228.523 404.067 228.736 404.36C228.963 404.653 229.256 404.887 229.616 405.06C229.99 405.233 230.43 405.32 230.936 405.32C231.416 405.32 231.803 405.253 232.096 405.12C232.403 404.973 232.63 404.787 232.776 404.56C232.936 404.32 233.016 404.06 233.016 403.78C233.016 403.38 232.916 403.073 232.716 402.86C232.53 402.647 232.25 402.48 231.876 402.36C231.503 402.24 231.056 402.127 230.536 402.02C230.11 401.94 229.683 401.833 229.256 401.7C228.843 401.567 228.47 401.4 228.136 401.2C227.803 400.987 227.536 400.72 227.336 400.4C227.136 400.08 227.036 399.693 227.036 399.24C227.036 398.667 227.183 398.16 227.476 397.72C227.77 397.267 228.183 396.913 228.716 396.66C229.263 396.407 229.91 396.28 230.656 396.28C231.71 396.28 232.57 396.54 233.236 397.06C233.916 397.58 234.31 398.333 234.416 399.32H232.756C232.703 398.813 232.49 398.42 232.116 398.14C231.756 397.847 231.263 397.7 230.636 397.7C230.01 397.7 229.536 397.827 229.216 398.08C228.896 398.333 228.736 398.667 228.736 399.08C228.736 399.333 228.823 399.56 228.996 399.76C229.183 399.96 229.45 400.133 229.796 400.28C230.156 400.413 230.59 400.527 231.096 400.62C231.736 400.753 232.33 400.92 232.876 401.12C233.423 401.307 233.87 401.593 234.216 401.98C234.563 402.367 234.736 402.92 234.736 403.64C234.75 404.253 234.596 404.793 234.276 405.26C233.956 405.727 233.51 406.093 232.936 406.36C232.376 406.613 231.703 406.74 230.916 406.74Z" fill="#495057"/>
<defs>
<linearGradient id="paint0_linear_261_4613" x1="0" y1="17" x2="353" y2="17" gradientUnits="userSpaceOnUse">
<stop stop-color="white" stop-opacity="0"/>
<stop offset="0.514776" stop-color="white"/>
<stop offset="1" stop-color="white" stop-opacity="0"/>
</linearGradient>
</defs>
</svg>
