<svg width="1920" height="835" viewBox="0 0 1920 835" fill="none" xmlns="http://www.w3.org/2000/svg">
<g clip-path="url(#clip0_261_5350)">
<rect width="1920" height="835" fill="#1F1F1F"/>
<g opacity="0.7" filter="url(#filter0_f_261_5350)">
<path d="M717 113.794C717 177.898 593.037 85.274 401.051 85.274C209.065 85.274 -30 219.252 -30 60.0702C-30 -4.03361 125.636 -56 317.622 -56C509.608 -56 717 49.6903 717 113.794Z" fill="url(#paint0_linear_261_5350)"/>
</g>
<g filter="url(#filter1_f_261_5350)">
<path d="M2120 715.521C2120 745.921 1956.21 701.996 1702.54 701.996C1448.87 701.996 1133 765.532 1133 690.044C1133 659.644 1338.64 635 1592.31 635C1845.98 635 2120 685.121 2120 715.521Z" fill="url(#paint1_linear_261_5350)"/>
</g>
</g>
<defs>
<filter id="filter0_f_261_5350" x="-534" y="-560" width="1755" height="1202" filterUnits="userSpaceOnUse" color-interpolation-filters="sRGB">
<feFlood flood-opacity="0" result="BackgroundImageFix"/>
<feBlend mode="normal" in="SourceGraphic" in2="BackgroundImageFix" result="shape"/>
<feGaussianBlur stdDeviation="252" result="effect1_foregroundBlur_261_5350"/>
</filter>
<filter id="filter1_f_261_5350" x="629" y="131" width="1995" height="1100" filterUnits="userSpaceOnUse" color-interpolation-filters="sRGB">
<feFlood flood-opacity="0" result="BackgroundImageFix"/>
<feBlend mode="normal" in="SourceGraphic" in2="BackgroundImageFix" result="shape"/>
<feGaussianBlur stdDeviation="252" result="effect1_foregroundBlur_261_5350"/>
</filter>
<linearGradient id="paint0_linear_261_5350" x1="717" y1="-56" x2="554.493" y2="364.099" gradientUnits="userSpaceOnUse">
<stop stop-color="#A2EDD9"/>
<stop offset="1" stop-color="#72BFF1"/>
</linearGradient>
<linearGradient id="paint1_linear_261_5350" x1="2120" y1="635" x2="2088.8" y2="859.702" gradientUnits="userSpaceOnUse">
<stop stop-color="#A2EDD9"/>
<stop offset="1" stop-color="#72BFF1"/>
</linearGradient>
<clipPath id="clip0_261_5350">
<rect width="1920" height="835" fill="white"/>
</clipPath>
</defs>
</svg>
