<svg width="177" height="177" viewBox="0 0 177 177" fill="none" xmlns="http://www.w3.org/2000/svg">
<g filter="url(#filter0_d_306_3480)">
<circle cx="88.3132" cy="88.3132" r="68.4265" fill="#5BA3D1"/>
</g>
<path d="M86.7475 79.3936C87.0174 79.6613 87.3375 79.8731 87.6894 80.0168C88.0413 80.1606 88.4181 80.2334 88.7982 80.2312C89.556 80.228 90.2821 79.9272 90.82 79.3936L96.0479 74.1947C96.3172 73.9273 96.5311 73.6094 96.6776 73.2593C96.8241 72.9092 96.9002 72.5337 96.9015 72.1542C96.9028 71.7747 96.8294 71.3986 96.6854 71.0475C96.5414 70.6964 96.3297 70.377 96.0623 70.1077C95.7949 69.8384 95.4771 69.6244 95.127 69.478C94.7769 69.3315 94.4013 69.2554 94.0218 69.2541C93.2554 69.2514 92.5192 69.5533 91.9754 70.0933L91.6576 70.4399V61.775C91.6576 61.009 91.3533 60.2743 90.8117 59.7327C90.27 59.191 89.5354 58.8867 88.7694 58.8867C88.0033 58.8867 87.2687 59.191 86.727 59.7327C86.1854 60.2743 85.8811 61.009 85.8811 61.775V70.4399L85.5633 70.1222C85.2948 69.8515 84.9754 69.6366 84.6234 69.49C84.2715 69.3433 83.8939 69.2678 83.5127 69.2678C83.1314 69.2678 82.7539 69.3433 82.4019 69.49C82.0499 69.6366 81.7305 69.8515 81.462 70.1222C80.924 70.6633 80.6221 71.3954 80.6221 72.1584C80.6221 72.9215 80.924 73.6535 81.462 74.1947L86.7475 79.3936Z" fill="white"/>
<path d="M80.4225 85.5737L75.2236 80.3459C74.9562 80.0766 74.6383 79.8626 74.2882 79.7161C73.9381 79.5696 73.5626 79.4935 73.1831 79.4922C72.8036 79.4909 72.4275 79.5643 72.0764 79.7083C71.7253 79.8523 71.4059 80.064 71.1366 80.3314C70.5927 80.8715 70.2857 81.6054 70.283 82.3719C70.2803 83.1383 70.5821 83.8745 71.1222 84.4184L71.4399 84.8805H62.775C62.009 84.8805 61.2743 85.1848 60.7327 85.7264C60.191 86.2681 59.8867 87.0028 59.8867 87.7688C59.8867 88.5348 60.191 89.2694 60.7327 89.8111C61.2743 90.3528 62.009 90.6571 62.775 90.6571H71.4399L71.1222 90.9748C70.5842 91.5159 70.2823 92.248 70.2823 93.011C70.2823 93.7741 70.5842 94.5061 71.1222 95.0473C71.3921 95.315 71.7121 95.5268 72.064 95.6705C72.4159 95.8142 72.7928 95.8871 73.1729 95.8849C73.9306 95.8817 74.6567 95.5809 75.1947 95.0473L80.4514 89.7617C80.7335 89.4899 80.9575 89.1636 81.1096 88.8025C81.2616 88.4415 81.3387 88.0532 81.3359 87.6615C81.3332 87.2697 81.2509 86.8826 81.0938 86.5237C80.9368 86.1648 80.7084 85.8415 80.4225 85.5737Z" fill="white"/>
<path d="M90.7048 95.9727C90.1636 95.4348 89.4316 95.1328 88.6685 95.1328C87.9055 95.1328 87.1734 95.4348 86.6323 95.9727L81.4045 101.172C80.8606 101.712 80.5535 102.446 80.5508 103.212C80.5481 103.979 80.85 104.715 81.39 105.259C81.9301 105.802 82.664 106.11 83.4305 106.112C84.1969 106.115 84.9331 105.813 85.4769 105.273L85.8813 105.1V113.765C85.8813 114.531 86.1856 115.265 86.7273 115.807C87.2689 116.349 88.0036 116.653 88.7696 116.653C89.5356 116.653 90.2703 116.349 90.8119 115.807C91.3536 115.265 91.6579 114.531 91.6579 113.765V105.1L91.9756 105.417C92.2455 105.685 92.5656 105.897 92.9175 106.041C93.2694 106.184 93.6462 106.257 94.0263 106.255C94.4084 106.253 94.7865 106.176 95.1385 106.027C95.4905 105.879 95.8095 105.661 96.077 105.389C96.6149 104.847 96.9169 104.115 96.9169 103.352C96.9169 102.589 96.6149 101.857 96.077 101.316L90.7048 95.9727Z" fill="white"/>
<path d="M114.764 84.8813H106.099L106.417 84.5636C106.955 84.0224 107.257 83.2904 107.257 82.5273C107.257 81.7643 106.955 81.0322 106.417 80.4911C106.149 80.2204 105.829 80.0055 105.477 79.8588C105.125 79.7122 104.748 79.6367 104.366 79.6367C103.985 79.6367 103.608 79.7122 103.256 79.8588C102.904 80.0055 102.584 80.2204 102.316 80.4911L97.0879 85.7767C96.55 86.3178 96.248 87.0499 96.248 87.8129C96.248 88.5759 96.55 89.308 97.0879 89.8491L102.258 95.077C102.528 95.3447 102.848 95.5564 103.2 95.7002C103.552 95.8439 103.929 95.9168 104.309 95.9146C104.689 95.9168 105.066 95.8439 105.418 95.7002C105.769 95.5564 106.089 95.3447 106.359 95.077C106.897 94.5358 107.199 93.8038 107.199 93.0407C107.199 92.2777 106.897 91.5456 106.359 91.0045L106.099 90.6579H114.764C115.53 90.6579 116.265 90.3536 116.807 89.8119C117.348 89.2702 117.653 88.5356 117.653 87.7696C117.653 87.0036 117.348 86.2689 116.807 85.7272C116.265 85.1856 115.53 84.8813 114.764 84.8813Z" fill="white"/>
<path d="M85.1299 87.7701C85.1299 88.4899 85.3433 89.1935 85.7432 89.792C86.1431 90.3904 86.7115 90.8569 87.3765 91.1323C88.0414 91.4078 88.7732 91.4799 89.4791 91.3394C90.1851 91.199 90.8335 90.8524 91.3425 90.3435C91.8514 89.8345 92.198 89.186 92.3385 88.4801C92.4789 87.7741 92.4068 87.0424 92.1314 86.3774C91.8559 85.7124 91.3895 85.1441 90.791 84.7442C90.1925 84.3443 89.4889 84.1309 88.7691 84.1309C87.8039 84.1309 86.8783 84.5143 86.1958 85.1968C85.5133 85.8793 85.1299 86.8049 85.1299 87.7701Z" fill="white"/>
<defs>
<filter id="filter0_d_306_3480" x="0.000101089" y="0.000101089" width="176.626" height="176.627" filterUnits="userSpaceOnUse" color-interpolation-filters="sRGB">
<feFlood flood-opacity="0" result="BackgroundImageFix"/>
<feColorMatrix in="SourceAlpha" type="matrix" values="0 0 0 0 0 0 0 0 0 0 0 0 0 0 0 0 0 0 127 0" result="hardAlpha"/>
<feOffset/>
<feGaussianBlur stdDeviation="9.94331"/>
<feComposite in2="hardAlpha" operator="out"/>
<feColorMatrix type="matrix" values="0 0 0 0 0 0 0 0 0 0 0 0 0 0 0 0 0 0 0.05 0"/>
<feBlend mode="normal" in2="BackgroundImageFix" result="effect1_dropShadow_306_3480"/>
<feBlend mode="normal" in="SourceGraphic" in2="effect1_dropShadow_306_3480" result="shape"/>
</filter>
</defs>
</svg>
