<svg width="385" height="349" viewBox="0 0 385 349" fill="none" xmlns="http://www.w3.org/2000/svg">
<path d="M384 1H316.719C285.102 1 254.57 12.5218 230.835 33.4088L117.564 133.091C93.8296 153.978 63.2969 165.5 31.6806 165.5H0.999984" stroke="#94C6E4" stroke-width="2" stroke-linecap="round"/>
<path d="M384 51H304.313C280.346 51 256.846 57.6254 236.409 70.1442L111.991 146.356C91.5534 158.875 68.0531 165.5 44.0864 165.5H0.999984" stroke="#94C6E4" stroke-width="2" stroke-linecap="round"/>
<path d="M384 101H289.46C275.029 101 260.698 103.403 247.056 108.11L101.343 158.39C87.7011 163.097 73.3704 165.5 58.939 165.5H0.999984" stroke="#94C6E4" stroke-width="2" stroke-linecap="round"/>
<path d="M384 141H267.662L80.7372 165.5H0.999984" stroke="#94C6E4" stroke-width="2" stroke-linecap="round"/>
<path d="M384 330.5H316.719C285.102 330.5 254.57 318.978 230.835 298.091L117.564 198.409C93.8296 177.522 63.2969 166 31.6806 166H0.999984" stroke="#94C6E4" stroke-width="2" stroke-linecap="round"/>
<path d="M384 280.5H304.313C280.346 280.5 256.846 273.875 236.409 261.356L111.991 185.144C91.5534 172.625 68.0531 166 44.0864 166H0.999984" stroke="#94C6E4" stroke-width="2" stroke-linecap="round"/>
<path d="M384 230.5H289.46C275.029 230.5 260.698 228.097 247.056 223.39L101.343 173.11C87.7011 168.403 73.3704 166 58.939 166H0.999984" stroke="#94C6E4" stroke-width="2" stroke-linecap="round"/>
<path d="M384 190.5H267.662L80.7372 166H0.999984" stroke="#94C6E4" stroke-width="2" stroke-linecap="round"/>
<path d="M185.957 81.0799C179.441 82.1148 177.579 83.8149 176.462 89.8765C176.369 90.5417 175.159 90.5417 175.066 89.8765C173.949 83.8149 172.087 82.1148 165.571 81.0059C164.827 80.8581 164.827 80.045 165.571 79.8971C171.994 78.8622 173.949 77.162 175.066 71.1005C175.159 70.4352 176.369 70.4352 176.462 71.1005C177.579 77.162 179.441 78.8622 185.957 79.971C186.702 80.1189 186.702 81.0059 185.957 81.0799Z" fill="#5BA3D1"/>
<path d="M336.3 331.339C322.581 333.13 320.142 335.406 318.313 348.673C318.252 349.109 317.46 349.109 317.399 348.673C315.569 335.406 313.13 333.179 299.412 331.339C298.863 331.291 298.863 330.661 299.412 330.613C313.13 328.821 315.569 326.594 317.399 313.327C317.46 312.891 318.252 312.891 318.313 313.327C320.142 326.594 322.581 328.773 336.3 330.613C336.788 330.661 336.788 331.242 336.3 331.339Z" fill="#5BA3D1"/>
<path d="M259.957 188.08C253.441 189.115 251.579 190.815 250.462 196.876C250.369 197.542 249.159 197.542 249.066 196.876C247.949 190.815 246.087 189.115 239.571 188.006C238.827 187.858 238.827 187.045 239.571 186.897C245.994 185.862 247.949 184.162 249.066 178.101C249.159 177.435 250.369 177.435 250.462 178.101C251.579 184.162 253.441 185.862 259.957 186.971C260.702 187.119 260.702 188.006 259.957 188.08Z" fill="#5BA3D1"/>
<path d="M232.82 212.239C228.941 212.855 227.832 213.868 227.167 217.477C227.112 217.873 226.391 217.873 226.336 217.477C225.67 213.868 224.562 212.855 220.682 212.195C220.239 212.107 220.239 211.623 220.682 211.535C224.507 210.919 225.67 209.906 226.336 206.297C226.391 205.901 227.112 205.901 227.167 206.297C227.832 209.906 228.941 210.919 232.82 211.579C233.264 211.667 233.264 212.195 232.82 212.239Z" fill="#5BA3D1"/>
<path d="M336.708 51.3587C331.51 52.1842 330.025 53.5405 329.133 58.3758C329.059 58.9065 328.094 58.9065 328.02 58.3758C327.129 53.5405 325.643 52.1842 320.446 51.2997C319.851 51.1818 319.851 50.5331 320.446 50.4152C325.569 49.5896 327.129 48.2334 328.02 43.398C328.094 42.8673 329.059 42.8673 329.133 43.398C330.025 48.2334 331.51 49.5896 336.708 50.4742C337.302 50.5921 337.302 51.2997 336.708 51.3587Z" fill="#5BA3D1"/>
</svg>
