<svg width="1928" height="900" viewBox="0 0 1928 900" fill="none" xmlns="http://www.w3.org/2000/svg">
<g filter="url(#filter0_d_424_8683)">
<g clip-path="url(#clip0_424_8683)">
<rect width="1920" height="892" transform="translate(4)" fill="url(#paint0_linear_424_8683)"/>
<g opacity="0.27">
<circle cx="104.031" cy="104.031" r="103.469" transform="matrix(1 1.74846e-07 1.74846e-07 -1 209.812 1008)" stroke="#CED4DA" stroke-width="1.12466"/>
<path opacity="0.7" d="M20.2002 853.36C24.657 845.697 30.0947 838.624 36.3906 832.328C45.9464 822.772 57.2912 815.192 69.7764 810.021C82.2614 804.849 95.6426 802.188 109.156 802.188L109.156 801.625L6.25001 801.625C6.25004 815.139 8.9116 828.52 14.083 841.005C15.8474 845.265 17.8922 849.392 20.2002 853.36Z" fill="#495057"/>
<mask id="path-3-inside-1_424_8683" fill="white">
<path d="M108.031 698.718C94.5172 698.718 81.1356 701.38 68.6504 706.552C56.1653 711.723 44.8209 719.303 35.2652 728.859C25.7094 738.415 18.1294 749.759 12.9578 762.244C7.78631 774.729 5.12456 788.111 5.12456 801.625C5.12455 815.139 7.78631 828.52 12.9578 841.005C18.1294 853.491 25.7094 864.835 35.2652 874.391C44.8209 883.946 56.1652 891.526 68.6504 896.698C81.1356 901.869 94.5172 904.531 108.031 904.531L108.031 801.625L108.031 698.718Z"/>
</mask>
<path d="M108.031 698.718C94.5172 698.718 81.1356 701.38 68.6504 706.552C56.1653 711.723 44.8209 719.303 35.2652 728.859C25.7094 738.415 18.1294 749.759 12.9578 762.244C7.78631 774.729 5.12456 788.111 5.12456 801.625C5.12455 815.139 7.78631 828.52 12.9578 841.005C18.1294 853.491 25.7094 864.835 35.2652 874.391C44.8209 883.946 56.1652 891.526 68.6504 896.698C81.1356 901.869 94.5172 904.531 108.031 904.531L108.031 801.625L108.031 698.718Z" stroke="#CED4DA" stroke-width="2.24932" mask="url(#path-3-inside-1_424_8683)"/>
<mask id="path-4-inside-2_424_8683" fill="white">
<path d="M106.906 801.063C120.42 801.063 133.802 798.401 146.287 793.23C158.772 788.058 170.117 780.478 179.672 770.922C189.228 761.367 196.808 750.022 201.98 737.537C207.151 725.052 209.813 711.67 209.813 698.157C209.813 684.643 207.151 671.261 201.98 658.776C196.808 646.291 189.228 634.946 179.672 625.391C170.117 615.835 158.772 608.255 146.287 603.083C133.802 597.912 120.42 595.25 106.906 595.25L106.906 698.156L106.906 801.063Z"/>
</mask>
<path d="M106.906 801.063C120.42 801.063 133.802 798.401 146.287 793.23C158.772 788.058 170.117 780.478 179.672 770.922C189.228 761.367 196.808 750.022 201.98 737.537C207.151 725.052 209.813 711.67 209.813 698.157C209.813 684.643 207.151 671.261 201.98 658.776C196.808 646.291 189.228 634.946 179.672 625.391C170.117 615.835 158.772 608.255 146.287 603.083C133.802 597.912 120.42 595.25 106.906 595.25L106.906 698.156L106.906 801.063Z" stroke="#CED4DA" stroke-width="2.24932" mask="url(#path-4-inside-2_424_8683)"/>
<mask id="path-5-inside-3_424_8683" fill="white">
<path d="M313.843 801.063C300.33 801.063 286.948 798.401 274.463 793.23C261.978 788.058 250.633 780.478 241.078 770.922C231.522 761.367 223.942 750.022 218.77 737.537C213.599 725.052 210.937 711.67 210.937 698.156C210.937 684.643 213.599 671.261 218.77 658.776C223.942 646.291 231.522 634.946 241.078 625.391C250.633 615.835 261.978 608.255 274.463 603.083C286.948 597.912 300.33 595.25 313.844 595.25L313.844 698.156L313.843 801.063Z"/>
</mask>
<path d="M313.843 801.063C300.33 801.063 286.948 798.401 274.463 793.23C261.978 788.058 250.633 780.478 241.078 770.922C231.522 761.367 223.942 750.022 218.77 737.537C213.599 725.052 210.937 711.67 210.937 698.156C210.937 684.643 213.599 671.261 218.77 658.776C223.942 646.291 231.522 634.946 241.078 625.391C250.633 615.835 261.978 608.255 274.463 603.083C286.948 597.912 300.33 595.25 313.844 595.25L313.844 698.156L313.843 801.063Z" stroke="#CED4DA" stroke-width="2.24932" mask="url(#path-5-inside-3_424_8683)"/>
<mask id="path-6-inside-4_424_8683" fill="white">
<path d="M108.031 494.031C94.5172 494.031 81.1356 496.693 68.6504 501.864C56.1653 507.036 44.8209 514.616 35.2652 524.171C25.7094 533.727 18.1294 545.071 12.9578 557.557C7.78631 570.042 5.12456 583.423 5.12456 596.937C5.12455 610.451 7.78631 623.833 12.9578 636.318C18.1294 648.803 25.7094 660.147 35.2652 669.703C44.8209 679.259 56.1652 686.839 68.6504 692.01C81.1356 697.182 94.5172 699.844 108.031 699.844L108.031 596.937L108.031 494.031Z"/>
</mask>
<path d="M108.031 494.031C94.5172 494.031 81.1356 496.693 68.6504 501.864C56.1653 507.036 44.8209 514.616 35.2652 524.171C25.7094 533.727 18.1294 545.071 12.9578 557.557C7.78631 570.042 5.12456 583.423 5.12456 596.937C5.12455 610.451 7.78631 623.833 12.9578 636.318C18.1294 648.803 25.7094 660.147 35.2652 669.703C44.8209 679.259 56.1652 686.839 68.6504 692.01C81.1356 697.182 94.5172 699.844 108.031 699.844L108.031 596.937L108.031 494.031Z" stroke="#CED4DA" stroke-width="2.24932" mask="url(#path-6-inside-4_424_8683)"/>
<mask id="path-7-inside-5_424_8683" fill="white">
<path d="M106.907 494.031C120.42 494.031 133.802 496.693 146.287 501.864C158.772 507.036 170.117 514.616 179.672 524.171C189.228 533.727 196.808 545.072 201.98 557.557C207.151 570.042 209.813 583.423 209.813 596.937L106.907 596.937L106.907 494.031Z"/>
</mask>
<path d="M106.907 494.031C120.42 494.031 133.802 496.693 146.287 501.864C158.772 507.036 170.117 514.616 179.672 524.171C189.228 533.727 196.808 545.072 201.98 557.557C207.151 570.042 209.813 583.423 209.813 596.937L106.907 596.937L106.907 494.031Z" stroke="#CED4DA" stroke-width="2.24932" mask="url(#path-7-inside-5_424_8683)"/>
<g opacity="0.3">
<mask id="path-8-inside-6_424_8683" fill="white">
<path d="M5.12456 596.937C5.12455 610.451 7.78631 623.833 12.9578 636.318C18.1294 648.803 25.7094 660.147 35.2652 669.703C44.8209 679.259 56.1652 686.839 68.6504 692.01C81.1356 697.182 94.5172 699.844 108.031 699.844L108.031 596.937L5.12456 596.937Z"/>
</mask>
<path d="M5.12456 596.937C5.12455 610.451 7.78631 623.833 12.9578 636.318C18.1294 648.803 25.7094 660.147 35.2652 669.703C44.8209 679.259 56.1652 686.839 68.6504 692.01C81.1356 697.182 94.5172 699.844 108.031 699.844L108.031 596.937L5.12456 596.937Z" fill="#495057" stroke="#CED4DA" stroke-width="2.24932" mask="url(#path-8-inside-6_424_8683)"/>
</g>
<mask id="path-9-inside-7_424_8683" fill="white">
<path d="M212.063 903.969C212.063 890.455 209.401 877.073 204.23 864.588C199.058 852.103 191.478 840.758 181.922 831.203C172.367 821.647 161.022 814.067 148.537 808.895C136.052 803.724 122.67 801.062 109.157 801.062C95.6426 801.062 82.2611 803.724 69.7759 808.895C57.2907 814.067 45.9464 821.647 36.3906 831.203C26.8349 840.758 19.2548 852.103 14.0833 864.588C8.91178 877.073 6.25002 890.455 6.25002 903.969L109.156 903.969L212.063 903.969Z"/>
</mask>
<path d="M212.063 903.969C212.063 890.455 209.401 877.073 204.23 864.588C199.058 852.103 191.478 840.758 181.922 831.203C172.367 821.647 161.022 814.067 148.537 808.895C136.052 803.724 122.67 801.062 109.157 801.062C95.6426 801.062 82.2611 803.724 69.7759 808.895C57.2907 814.067 45.9464 821.647 36.3906 831.203C26.8349 840.758 19.2548 852.103 14.0833 864.588C8.91178 877.073 6.25002 890.455 6.25002 903.969L109.156 903.969L212.063 903.969Z" stroke="#CED4DA" stroke-width="2.24932" mask="url(#path-9-inside-7_424_8683)"/>
<mask id="path-10-inside-8_424_8683" fill="white">
<path d="M417.316 904.531C403.655 904.531 390.127 901.84 377.505 896.612C364.884 891.384 353.415 883.721 343.755 874.061C334.095 864.401 326.432 852.933 321.204 840.311C315.976 827.689 313.285 814.161 313.285 800.5C313.285 786.838 315.976 773.311 321.204 760.689C326.432 748.067 334.095 736.599 343.755 726.939C353.415 717.279 364.884 709.616 377.505 704.388C390.127 699.16 403.655 696.469 417.316 696.469L417.316 800.5L417.316 904.531Z"/>
</mask>
<path d="M417.316 904.531C403.655 904.531 390.127 901.84 377.505 896.612C364.884 891.384 353.415 883.721 343.755 874.061C334.095 864.401 326.432 852.933 321.204 840.311C315.976 827.689 313.285 814.161 313.285 800.5C313.285 786.838 315.976 773.311 321.204 760.689C326.432 748.067 334.095 736.599 343.755 726.939C353.415 717.279 364.884 709.616 377.505 704.388C390.127 699.16 403.655 696.469 417.316 696.469L417.316 800.5L417.316 904.531Z" stroke="#CED4DA" stroke-width="2.24932" mask="url(#path-10-inside-8_424_8683)"/>
<g opacity="0.6">
<mask id="path-11-inside-9_424_8683" fill="white">
<path d="M417.313 893.134C411.894 840.771 367.636 799.938 313.84 799.938C313.655 799.938 313.469 799.94 313.284 799.941C313.283 800.128 313.281 800.314 313.281 800.5C313.281 814.161 315.972 827.689 321.2 840.311C326.428 852.932 334.091 864.401 343.751 874.062C353.411 883.722 364.879 891.384 377.501 896.612C390.123 901.84 403.651 904.531 417.312 904.531L417.313 893.134Z"/>
</mask>
<path d="M417.313 893.134C411.894 840.771 367.636 799.938 313.84 799.938C313.655 799.938 313.469 799.94 313.284 799.941C313.283 800.128 313.281 800.314 313.281 800.5C313.281 814.161 315.972 827.689 321.2 840.311C326.428 852.932 334.091 864.401 343.751 874.062C353.411 883.722 364.879 891.384 377.501 896.612C390.123 901.84 403.651 904.531 417.312 904.531L417.313 893.134Z" fill="#495057"/>
<path d="M417.313 893.134L418.431 893.018L418.437 893.076L418.437 893.134L417.313 893.134ZM313.84 799.938L313.84 798.813L313.84 798.813L313.84 799.938ZM313.284 799.941L312.16 799.935L312.166 798.823L313.278 798.817L313.284 799.941ZM313.281 800.5L312.157 800.5V800.5L313.281 800.5ZM321.2 840.311L320.161 840.741L320.161 840.741L321.2 840.311ZM343.751 874.062L342.956 874.857L342.956 874.857L343.751 874.062ZM377.501 896.612L377.071 897.651L377.071 897.651L377.501 896.612ZM417.312 904.531L418.437 904.531L418.437 905.656L417.312 905.656L417.312 904.531ZM417.313 893.134L416.194 893.25C410.834 841.454 367.053 801.062 313.84 801.062L313.84 799.938L313.84 798.813C368.218 798.813 412.954 840.088 418.431 893.018L417.313 893.134ZM313.84 799.938L313.84 801.062C313.654 801.062 313.496 801.065 313.29 801.066L313.284 799.941L313.278 798.817C313.443 798.816 313.655 798.813 313.84 798.813L313.84 799.938ZM313.284 799.941L314.409 799.947C314.408 800.141 314.406 800.317 314.406 800.5L313.281 800.5L312.157 800.5C312.157 800.31 312.159 800.114 312.16 799.935L313.284 799.941ZM313.281 800.5L314.406 800.5C314.406 814.014 317.068 827.395 322.239 839.88L321.2 840.311L320.161 840.741C314.877 827.983 312.157 814.309 312.157 800.5L313.281 800.5ZM321.2 840.311L322.239 839.88C327.411 852.365 334.991 863.711 344.546 873.266L343.751 874.062L342.956 874.857C333.191 865.092 325.446 853.499 320.161 840.741L321.2 840.311ZM343.751 874.062L344.546 873.266C354.102 882.822 365.446 890.402 377.931 895.573L377.501 896.612L377.071 897.651C364.313 892.367 352.72 884.621 342.956 874.857L343.751 874.062ZM377.501 896.612L377.931 895.573C390.417 900.745 403.799 903.407 417.313 903.407L417.312 904.531L417.312 905.656C403.503 905.656 389.829 902.936 377.071 897.651L377.501 896.612ZM417.312 904.531L416.188 904.531L416.188 893.134L417.313 893.134L418.437 893.134L418.437 904.531L417.312 904.531Z" fill="#CED4DA" mask="url(#path-11-inside-9_424_8683)"/>
</g>
<g opacity="0.5">
<mask id="path-13-inside-10_424_8683" fill="white">
<path d="M108.031 482.632C102.612 430.269 58.3545 389.436 4.55861 389.436C4.3733 389.436 4.18803 389.438 4.00295 389.439C4.00195 389.626 4.00002 389.812 4.00002 389.998C4.00001 403.66 6.6909 417.188 11.919 429.81C17.147 442.431 24.8097 453.899 34.4697 463.56C44.1298 473.22 55.5982 480.882 68.2197 486.11C80.8414 491.338 94.3697 494.029 108.031 494.029L108.031 482.632Z"/>
</mask>
<path d="M108.031 482.632C102.612 430.269 58.3545 389.436 4.55861 389.436C4.3733 389.436 4.18803 389.438 4.00295 389.439C4.00195 389.626 4.00002 389.812 4.00002 389.998C4.00001 403.66 6.6909 417.188 11.919 429.81C17.147 442.431 24.8097 453.899 34.4697 463.56C44.1298 473.22 55.5982 480.882 68.2197 486.11C80.8414 491.338 94.3697 494.029 108.031 494.029L108.031 482.632Z" fill="#495057"/>
<path d="M108.031 482.632L109.15 482.516L109.156 482.574L109.156 482.632L108.031 482.632ZM4.55861 389.436L4.55861 388.311L4.55861 388.311L4.55861 389.436ZM4.00295 389.439L2.8783 389.433L2.88428 388.321L3.99707 388.315L4.00295 389.439ZM4.00002 389.998L2.87536 389.998V389.998L4.00002 389.998ZM11.919 429.81L10.8799 430.24L10.8799 430.24L11.919 429.81ZM34.4697 463.56L33.6745 464.355V464.355L34.4697 463.56ZM68.2197 486.11L67.7893 487.149L67.7893 487.149L68.2197 486.11ZM108.031 494.029L109.156 494.029L109.156 495.154L108.031 495.154L108.031 494.029ZM108.031 482.632L106.913 482.748C101.552 430.952 57.7722 390.56 4.55861 390.56L4.55861 389.436L4.55861 388.311C58.9368 388.311 103.672 429.586 109.15 482.516L108.031 482.632ZM4.55861 389.436L4.55861 390.56C4.37261 390.56 4.21446 390.563 4.00883 390.564L4.00295 389.439L3.99707 388.315C4.1616 388.314 4.37399 388.311 4.55861 388.311L4.55861 389.436ZM4.00295 389.439L5.12759 389.445C5.12655 389.64 5.12468 389.815 5.12468 389.998L4.00002 389.998L2.87536 389.998C2.87536 389.808 2.87735 389.612 2.8783 389.433L4.00295 389.439ZM4.00002 389.998L5.12468 389.998C5.12468 403.512 7.78648 416.894 12.958 429.379L11.919 429.81L10.8799 430.24C5.59533 417.482 2.87535 403.807 2.87536 389.998L4.00002 389.998ZM11.919 429.81L12.958 429.379C18.1295 441.864 25.7094 453.209 35.265 462.764L34.4697 463.56L33.6745 464.355C23.91 454.59 16.1645 442.998 10.8799 430.24L11.919 429.81ZM34.4697 463.56L35.265 462.764C44.8206 472.32 56.1651 479.9 68.6501 485.071L68.2197 486.11L67.7893 487.149C55.0314 481.865 43.439 474.119 33.6745 464.355L34.4697 463.56ZM68.2197 486.11L68.6501 485.071C81.1353 490.243 94.5174 492.905 108.031 492.905L108.031 494.029L108.031 495.154C94.222 495.154 80.5474 492.434 67.7893 487.149L68.2197 486.11ZM108.031 494.029L106.907 494.029L106.907 482.632L108.031 482.632L109.156 482.632L109.156 494.029L108.031 494.029Z" fill="#CED4DA" mask="url(#path-13-inside-10_424_8683)"/>
</g>
<circle cx="51.7344" cy="51.7344" r="51.1721" transform="matrix(1 1.74846e-07 1.74846e-07 -1 6.25 956.266)" stroke="#CED4DA" stroke-width="1.12466"/>
<circle cx="51.7344" cy="51.7344" r="51.1721" transform="matrix(1 1.74846e-07 1.74846e-07 -1 262.672 698.719)" stroke="#CED4DA" stroke-width="1.12466"/>
<mask id="path-17-inside-11_424_8683" fill="white">
<path d="M314.406 595.25C300.685 595.25 287.527 600.701 277.825 610.403C268.122 620.105 262.672 633.264 262.672 646.984C262.672 660.705 268.122 673.864 277.825 683.566C287.527 693.268 300.685 698.719 314.406 698.719L314.406 646.984L314.406 595.25Z"/>
</mask>
<path d="M314.406 595.25C300.685 595.25 287.527 600.701 277.825 610.403C268.122 620.105 262.672 633.264 262.672 646.984C262.672 660.705 268.122 673.864 277.825 683.566C287.527 693.268 300.685 698.719 314.406 698.719L314.406 646.984L314.406 595.25Z" fill="#495057" stroke="#CED4DA" stroke-width="2.24932" mask="url(#path-17-inside-11_424_8683)"/>
</g>
<g opacity="0.27">
<circle cx="85.9824" cy="85.9824" r="85.5176" transform="matrix(-1 -8.74228e-08 -8.74228e-08 1 1753.89 0)" stroke="#CED4DA" stroke-width="0.929539"/>
<path opacity="0.7" d="M1910.61 127.812C1906.93 134.145 1902.43 139.991 1897.23 145.194C1889.33 153.092 1879.95 159.358 1869.64 163.632C1859.32 167.906 1848.26 170.105 1837.09 170.105L1837.09 170.57L1922.14 170.57C1922.14 159.401 1919.94 148.341 1915.67 138.022C1914.21 134.502 1912.52 131.091 1910.61 127.812Z" fill="#495057"/>
<mask id="path-20-inside-12_424_8683" fill="white">
<path d="M1838.02 255.623C1849.19 255.623 1860.25 253.423 1870.57 249.149C1880.89 244.875 1890.26 238.61 1898.16 230.712C1906.06 222.814 1912.32 213.438 1916.6 203.119C1920.87 192.8 1923.07 181.74 1923.07 170.57C1923.07 159.401 1920.87 148.341 1916.6 138.022C1912.32 127.703 1906.06 118.327 1898.16 110.429C1890.26 102.531 1880.89 96.2661 1870.57 91.9918C1860.25 87.7175 1849.19 85.5176 1838.02 85.5176L1838.02 170.57L1838.02 255.623Z"/>
</mask>
<path d="M1838.02 255.623C1849.19 255.623 1860.25 253.423 1870.57 249.149C1880.89 244.875 1890.26 238.61 1898.16 230.712C1906.06 222.814 1912.32 213.438 1916.6 203.119C1920.87 192.8 1923.07 181.74 1923.07 170.57C1923.07 159.401 1920.87 148.341 1916.6 138.022C1912.32 127.703 1906.06 118.327 1898.16 110.429C1890.26 102.531 1880.89 96.2661 1870.57 91.9918C1860.25 87.7175 1849.19 85.5176 1838.02 85.5176L1838.02 170.57L1838.02 255.623Z" stroke="#CED4DA" stroke-width="1.85908" mask="url(#path-20-inside-12_424_8683)"/>
<mask id="path-21-inside-13_424_8683" fill="white">
<path d="M1838.95 171.035C1827.78 171.035 1816.72 173.235 1806.4 177.509C1796.08 181.784 1786.7 188.048 1778.81 195.946C1770.91 203.844 1764.64 213.22 1760.37 223.539C1756.09 233.859 1753.89 244.918 1753.89 256.088C1753.89 267.257 1756.09 278.317 1760.37 288.636C1764.64 298.955 1770.91 308.331 1778.81 316.229C1786.7 324.127 1796.08 330.392 1806.4 334.666C1816.72 338.941 1827.78 341.141 1838.95 341.141L1838.95 256.088L1838.95 171.035Z"/>
</mask>
<path d="M1838.95 171.035C1827.78 171.035 1816.72 173.235 1806.4 177.509C1796.08 181.784 1786.7 188.048 1778.81 195.946C1770.91 203.844 1764.64 213.22 1760.37 223.539C1756.09 233.859 1753.89 244.918 1753.89 256.088C1753.89 267.257 1756.09 278.317 1760.37 288.636C1764.64 298.955 1770.91 308.331 1778.81 316.229C1786.7 324.127 1796.08 330.392 1806.4 334.666C1816.72 338.941 1827.78 341.141 1838.95 341.141L1838.95 256.088L1838.95 171.035Z" stroke="#CED4DA" stroke-width="1.85908" mask="url(#path-21-inside-13_424_8683)"/>
<mask id="path-22-inside-14_424_8683" fill="white">
<path d="M1667.91 171.035C1679.08 171.035 1690.14 173.235 1700.46 177.509C1710.78 181.784 1720.16 188.048 1728.05 195.946C1735.95 203.844 1742.22 213.22 1746.49 223.54C1750.77 233.859 1752.97 244.919 1752.97 256.088C1752.97 267.257 1750.77 278.317 1746.49 288.636C1742.22 298.955 1735.95 308.331 1728.05 316.229C1720.16 324.127 1710.78 330.392 1700.46 334.666C1690.14 338.941 1679.08 341.141 1667.91 341.141L1667.91 256.088L1667.91 171.035Z"/>
</mask>
<path d="M1667.91 171.035C1679.08 171.035 1690.14 173.235 1700.46 177.509C1710.78 181.784 1720.16 188.048 1728.05 195.946C1735.95 203.844 1742.22 213.22 1746.49 223.54C1750.77 233.859 1752.97 244.919 1752.97 256.088C1752.97 267.257 1750.77 278.317 1746.49 288.636C1742.22 298.955 1735.95 308.331 1728.05 316.229C1720.16 324.127 1710.78 330.392 1700.46 334.666C1690.14 338.941 1679.08 341.141 1667.91 341.141L1667.91 256.088L1667.91 171.035Z" stroke="#CED4DA" stroke-width="1.85908" mask="url(#path-22-inside-14_424_8683)"/>
<mask id="path-23-inside-15_424_8683" fill="white">
<path d="M1838.02 424.799C1849.19 424.799 1860.25 422.599 1870.57 418.325C1880.89 414.05 1890.26 407.786 1898.16 399.888C1906.06 391.99 1912.32 382.614 1916.6 372.294C1920.87 361.975 1923.07 350.915 1923.07 339.746C1923.07 328.577 1920.87 317.517 1916.6 307.198C1912.32 296.879 1906.06 287.503 1898.16 279.605C1890.26 271.707 1880.89 265.442 1870.57 261.168C1860.25 256.893 1849.19 254.693 1838.02 254.693L1838.02 339.746L1838.02 424.799Z"/>
</mask>
<path d="M1838.02 424.799C1849.19 424.799 1860.25 422.599 1870.57 418.325C1880.89 414.05 1890.26 407.786 1898.16 399.888C1906.06 391.99 1912.32 382.614 1916.6 372.294C1920.87 361.975 1923.07 350.915 1923.07 339.746C1923.07 328.577 1920.87 317.517 1916.6 307.198C1912.32 296.879 1906.06 287.503 1898.16 279.605C1890.26 271.707 1880.89 265.442 1870.57 261.168C1860.25 256.893 1849.19 254.693 1838.02 254.693L1838.02 339.746L1838.02 424.799Z" stroke="#CED4DA" stroke-width="1.85908" mask="url(#path-23-inside-15_424_8683)"/>
<mask id="path-24-inside-16_424_8683" fill="white">
<path d="M1838.95 424.799C1827.78 424.799 1816.72 422.599 1806.4 418.325C1796.08 414.05 1786.7 407.785 1778.81 399.888C1770.91 391.99 1764.64 382.614 1760.37 372.294C1756.09 361.975 1753.89 350.915 1753.89 339.746L1838.95 339.746L1838.95 424.799Z"/>
</mask>
<path d="M1838.95 424.799C1827.78 424.799 1816.72 422.599 1806.4 418.325C1796.08 414.05 1786.7 407.785 1778.81 399.888C1770.91 391.99 1764.64 382.614 1760.37 372.294C1756.09 361.975 1753.89 350.915 1753.89 339.746L1838.95 339.746L1838.95 424.799Z" stroke="#CED4DA" stroke-width="1.85908" mask="url(#path-24-inside-16_424_8683)"/>
<g opacity="0.3">
<mask id="path-25-inside-17_424_8683" fill="white">
<path d="M1923.07 339.746C1923.07 328.577 1920.87 317.517 1916.6 307.198C1912.32 296.879 1906.06 287.503 1898.16 279.605C1890.26 271.707 1880.89 265.442 1870.57 261.168C1860.25 256.893 1849.19 254.693 1838.02 254.693L1838.02 339.746L1923.07 339.746Z"/>
</mask>
<path d="M1923.07 339.746C1923.07 328.577 1920.87 317.517 1916.6 307.198C1912.32 296.879 1906.06 287.503 1898.16 279.605C1890.26 271.707 1880.89 265.442 1870.57 261.168C1860.25 256.893 1849.19 254.693 1838.02 254.693L1838.02 339.746L1923.07 339.746Z" fill="#495057" stroke="#CED4DA" stroke-width="1.85908" mask="url(#path-25-inside-17_424_8683)"/>
</g>
<mask id="path-26-inside-18_424_8683" fill="white">
<path d="M1752.03 85.9825C1752.03 97.1518 1754.23 108.212 1758.51 118.531C1762.78 128.85 1769.05 138.226 1776.95 146.124C1784.84 154.022 1794.22 160.287 1804.54 164.561C1814.86 168.835 1825.92 171.035 1837.09 171.035C1848.26 171.035 1859.32 168.835 1869.64 164.561C1879.96 160.287 1889.33 154.022 1897.23 146.124C1905.13 138.226 1911.39 128.85 1915.67 118.531C1919.94 108.212 1922.14 97.1518 1922.14 85.9825L1837.09 85.9825L1752.03 85.9825Z"/>
</mask>
<path d="M1752.03 85.9825C1752.03 97.1518 1754.23 108.212 1758.51 118.531C1762.78 128.85 1769.05 138.226 1776.95 146.124C1784.84 154.022 1794.22 160.287 1804.54 164.561C1814.86 168.835 1825.92 171.035 1837.09 171.035C1848.26 171.035 1859.32 168.835 1869.64 164.561C1879.96 160.287 1889.33 154.022 1897.23 146.124C1905.13 138.226 1911.39 128.85 1915.67 118.531C1919.94 108.212 1922.14 97.1518 1922.14 85.9825L1837.09 85.9825L1752.03 85.9825Z" stroke="#CED4DA" stroke-width="1.85908" mask="url(#path-26-inside-18_424_8683)"/>
<mask id="path-27-inside-19_424_8683" fill="white">
<path d="M1582.39 85.5177C1593.68 85.5177 1604.86 87.7417 1615.3 92.0627C1625.73 96.3837 1635.21 102.717 1643.19 110.701C1651.18 118.686 1657.51 128.164 1661.83 138.596C1666.15 149.028 1668.38 160.209 1668.38 171.5C1668.38 182.791 1666.15 193.972 1661.83 204.404C1657.51 214.836 1651.18 224.315 1643.19 232.299C1635.21 240.283 1625.73 246.616 1615.3 250.937C1604.86 255.258 1593.68 257.482 1582.39 257.482L1582.39 171.5L1582.39 85.5177Z"/>
</mask>
<path d="M1582.39 85.5177C1593.68 85.5177 1604.86 87.7417 1615.3 92.0627C1625.73 96.3837 1635.21 102.717 1643.19 110.701C1651.18 118.686 1657.51 128.164 1661.83 138.596C1666.15 149.028 1668.38 160.209 1668.38 171.5C1668.38 182.791 1666.15 193.972 1661.83 204.404C1657.51 214.836 1651.18 224.315 1643.19 232.299C1635.21 240.283 1625.73 246.616 1615.3 250.937C1604.86 255.258 1593.68 257.482 1582.39 257.482L1582.39 171.5L1582.39 85.5177Z" stroke="#CED4DA" stroke-width="1.85908" mask="url(#path-27-inside-19_424_8683)"/>
<g opacity="0.6">
<mask id="path-28-inside-20_424_8683" fill="white">
<path d="M1582.4 94.9455C1586.88 138.22 1623.46 171.965 1667.92 171.965C1668.07 171.965 1668.22 171.963 1668.38 171.962C1668.38 171.808 1668.38 171.654 1668.38 171.5C1668.38 160.209 1666.15 149.028 1661.83 138.596C1657.51 128.164 1651.18 118.686 1643.2 110.701C1635.21 102.717 1625.73 96.3837 1615.3 92.0627C1604.87 87.7417 1593.69 85.5178 1582.4 85.5178L1582.4 94.9455Z"/>
</mask>
<path d="M1582.4 94.9455C1586.88 138.22 1623.46 171.965 1667.92 171.965C1668.07 171.965 1668.22 171.963 1668.38 171.962C1668.38 171.808 1668.38 171.654 1668.38 171.5C1668.38 160.209 1666.15 149.028 1661.83 138.596C1657.51 128.164 1651.18 118.686 1643.2 110.701C1635.21 102.717 1625.73 96.3837 1615.3 92.0627C1604.87 87.7417 1593.69 85.5178 1582.4 85.5178L1582.4 94.9455Z" fill="#495057"/>
<path d="M1582.4 94.9455L1581.47 95.0413L1581.47 94.9936L1581.47 94.9455L1582.4 94.9455ZM1667.92 171.965L1667.92 172.895L1667.92 172.895L1667.92 171.965ZM1668.38 171.962L1669.31 171.967L1669.3 172.887L1668.38 172.892L1668.38 171.962ZM1668.38 171.5L1669.31 171.5V171.5L1668.38 171.5ZM1661.83 138.596L1662.69 138.24L1662.69 138.24L1661.83 138.596ZM1643.2 110.701L1643.85 110.044L1643.85 110.044L1643.2 110.701ZM1615.3 92.0627L1615.66 91.204V91.204L1615.3 92.0627ZM1582.4 85.5178L1581.47 85.5178L1581.47 84.5883L1582.4 84.5883L1582.4 85.5178ZM1582.4 94.9455L1583.32 94.8498C1587.75 137.656 1623.94 171.036 1667.92 171.036L1667.92 171.965L1667.92 172.895C1622.97 172.895 1586 138.785 1581.47 95.0413L1582.4 94.9455ZM1667.92 171.965L1667.92 171.036C1668.07 171.036 1668.21 171.034 1668.37 171.033L1668.38 171.962L1668.38 172.892C1668.24 172.892 1668.07 172.895 1667.92 172.895L1667.92 171.965ZM1668.38 171.962L1667.45 171.957C1667.45 171.791 1667.45 171.653 1667.45 171.5L1668.38 171.5L1669.31 171.5C1669.31 171.656 1669.31 171.825 1669.31 171.967L1668.38 171.962ZM1668.38 171.5L1667.45 171.5C1667.45 160.331 1665.25 149.271 1660.98 138.952L1661.83 138.596L1662.69 138.24C1667.06 148.785 1669.31 160.087 1669.31 171.5L1668.38 171.5ZM1661.83 138.596L1660.98 138.952C1656.7 128.633 1650.44 119.257 1642.54 111.359L1643.2 110.701L1643.85 110.044C1651.92 118.115 1658.33 127.696 1662.69 138.24L1661.83 138.596ZM1643.2 110.701L1642.54 111.359C1634.64 103.461 1625.26 97.1958 1614.95 92.9215L1615.3 92.0627L1615.66 91.204C1626.2 95.5717 1635.78 101.974 1643.85 110.044L1643.2 110.701ZM1615.3 92.0627L1614.95 92.9215C1604.63 88.6472 1593.57 86.4474 1582.4 86.4474L1582.4 85.5178L1582.4 84.5883C1593.81 84.5883 1605.11 86.8362 1615.66 91.204L1615.3 92.0627ZM1582.4 85.5178L1583.33 85.5178L1583.33 94.9455L1582.4 94.9455L1581.47 94.9455L1581.47 85.5178L1582.4 85.5178Z" fill="#CED4DA" mask="url(#path-28-inside-20_424_8683)"/>
</g>
<g opacity="0.5">
<mask id="path-30-inside-21_424_8683" fill="white">
<path d="M1838.02 434.228C1842.5 477.502 1879.08 511.247 1923.54 511.247C1923.69 511.247 1923.84 511.245 1924 511.244C1924 511.09 1924 510.936 1924 510.782C1924 499.491 1921.78 488.31 1917.46 477.878C1913.13 467.446 1906.8 457.968 1898.82 449.983C1890.83 441.999 1881.35 435.666 1870.92 431.345C1860.49 427.024 1849.31 424.8 1838.02 424.8L1838.02 434.228Z"/>
</mask>
<path d="M1838.02 434.228C1842.5 477.502 1879.08 511.247 1923.54 511.247C1923.69 511.247 1923.84 511.245 1924 511.244C1924 511.09 1924 510.936 1924 510.782C1924 499.491 1921.78 488.31 1917.46 477.878C1913.13 467.446 1906.8 457.968 1898.82 449.983C1890.83 441.999 1881.35 435.666 1870.92 431.345C1860.49 427.024 1849.31 424.8 1838.02 424.8L1838.02 434.228Z" fill="#495057"/>
<path d="M1838.02 434.228L1837.09 434.323L1837.09 434.276L1837.09 434.228L1838.02 434.228ZM1923.54 511.247L1923.54 512.177L1923.54 512.177L1923.54 511.247ZM1924 511.244L1924.93 511.249L1924.92 512.169L1924 512.174L1924 511.244ZM1924 510.782L1924.93 510.782V510.782L1924 510.782ZM1917.46 477.878L1918.31 477.522L1918.31 477.522L1917.46 477.878ZM1898.82 449.983L1899.47 449.326L1899.47 449.326L1898.82 449.983ZM1870.92 431.345L1871.28 430.486V430.486L1870.92 431.345ZM1838.02 424.8L1837.09 424.8L1837.09 423.87L1838.02 423.87L1838.02 424.8ZM1838.02 434.228L1838.94 434.132C1843.38 476.938 1879.56 510.318 1923.54 510.318L1923.54 511.247L1923.54 512.177C1878.6 512.177 1841.62 478.067 1837.09 434.323L1838.02 434.228ZM1923.54 511.247L1923.54 510.318C1923.69 510.318 1923.83 510.315 1923.99 510.315L1924 511.244L1924 512.174C1923.86 512.174 1923.69 512.177 1923.54 512.177L1923.54 511.247ZM1924 511.244L1923.07 511.239C1923.07 511.073 1923.07 510.935 1923.07 510.782L1924 510.782L1924.93 510.782C1924.93 510.938 1924.93 511.107 1924.93 511.249L1924 511.244ZM1924 510.782L1923.07 510.782C1923.07 499.613 1920.87 488.553 1916.6 478.234L1917.46 477.878L1918.31 477.522C1922.68 488.067 1924.93 499.369 1924.93 510.782L1924 510.782ZM1917.46 477.878L1916.6 478.234C1912.32 467.915 1906.06 458.539 1898.16 450.641L1898.82 449.983L1899.47 449.326C1907.54 457.397 1913.95 466.978 1918.31 477.522L1917.46 477.878ZM1898.82 449.983L1898.16 450.641C1890.26 442.743 1880.89 436.478 1870.57 432.204L1870.92 431.345L1871.28 430.486C1881.82 434.854 1891.4 441.256 1899.47 449.326L1898.82 449.983ZM1870.92 431.345L1870.57 432.204C1860.25 427.929 1849.19 425.729 1838.02 425.729L1838.02 424.8L1838.02 423.87C1849.43 423.87 1860.73 426.118 1871.28 430.486L1870.92 431.345ZM1838.02 424.8L1838.95 424.8L1838.95 434.228L1838.02 434.228L1837.09 434.228L1837.09 424.8L1838.02 424.8Z" fill="#CED4DA" mask="url(#path-30-inside-21_424_8683)"/>
</g>
<circle cx="42.7588" cy="42.7588" r="42.294" transform="matrix(-1 -8.74228e-08 -8.74228e-08 1 1794.8 0)" fill="#495057" stroke="#CED4DA" stroke-width="0.929539"/>
<path d="M1718.39 16.3691C1712.68 23.6371 1709.28 32.8 1709.28 42.7588C1709.28 66.3738 1728.42 85.5176 1752.03 85.5176C1752.66 85.5176 1753.28 85.5009 1753.89 85.4746C1753.73 57.0562 1739.78 31.9047 1718.39 16.3691Z" fill="#495057"/>
<circle cx="42.7588" cy="42.7588" r="42.294" transform="matrix(-1 -8.74228e-08 -8.74228e-08 1 1922.14 42.7588)" stroke="#CED4DA" stroke-width="0.929539"/>
<g opacity="0.4">
<mask id="path-35-inside-22_424_8683" fill="white">
<path d="M1836.62 86.4473C1836.62 80.8321 1837.73 75.2719 1839.88 70.0842C1842.03 64.8964 1845.18 60.1828 1849.15 56.2122C1853.12 52.2417 1857.83 49.0921 1863.02 46.9433C1868.21 44.7945 1873.77 43.6885 1879.38 43.6885C1885 43.6885 1890.56 44.7945 1895.74 46.9433C1900.93 49.0921 1905.65 52.2417 1909.62 56.2122C1913.59 60.1828 1916.74 64.8965 1918.89 70.0842C1921.03 75.2719 1922.14 80.8321 1922.14 86.4473L1879.38 86.4473L1836.62 86.4473Z"/>
</mask>
<path d="M1836.62 86.4473C1836.62 80.8321 1837.73 75.2719 1839.88 70.0842C1842.03 64.8964 1845.18 60.1828 1849.15 56.2122C1853.12 52.2417 1857.83 49.0921 1863.02 46.9433C1868.21 44.7945 1873.77 43.6885 1879.38 43.6885C1885 43.6885 1890.56 44.7945 1895.74 46.9433C1900.93 49.0921 1905.65 52.2417 1909.62 56.2122C1913.59 60.1828 1916.74 64.8965 1918.89 70.0842C1921.03 75.2719 1922.14 80.8321 1922.14 86.4473L1879.38 86.4473L1836.62 86.4473Z" fill="#495057" stroke="#CED4DA" stroke-width="1.85908" mask="url(#path-35-inside-22_424_8683)"/>
</g>
<circle cx="42.7588" cy="42.7588" r="42.294" transform="matrix(-1 -8.74228e-08 -8.74228e-08 1 1710.21 255.623)" stroke="#CED4DA" stroke-width="0.929539"/>
<mask id="path-37-inside-23_424_8683" fill="white">
<path d="M1667.45 341.141C1678.79 341.141 1689.66 336.636 1697.68 328.617C1705.7 320.598 1710.21 309.722 1710.21 298.382C1710.21 287.042 1705.7 276.166 1697.68 268.147C1689.66 260.128 1678.79 255.623 1667.45 255.623L1667.45 298.382L1667.45 341.141Z"/>
</mask>
<path d="M1667.45 341.141C1678.79 341.141 1689.66 336.636 1697.68 328.617C1705.7 320.598 1710.21 309.722 1710.21 298.382C1710.21 287.042 1705.7 276.166 1697.68 268.147C1689.66 260.128 1678.79 255.623 1667.45 255.623L1667.45 298.382L1667.45 341.141Z" fill="#495057" stroke="#CED4DA" stroke-width="1.85908" mask="url(#path-37-inside-23_424_8683)"/>
</g>
</g>
</g>
<defs>
<filter id="filter0_d_424_8683" x="0" y="0" width="1928" height="900" filterUnits="userSpaceOnUse" color-interpolation-filters="sRGB">
<feFlood flood-opacity="0" result="BackgroundImageFix"/>
<feColorMatrix in="SourceAlpha" type="matrix" values="0 0 0 0 0 0 0 0 0 0 0 0 0 0 0 0 0 0 127 0" result="hardAlpha"/>
<feOffset dy="4"/>
<feGaussianBlur stdDeviation="2"/>
<feComposite in2="hardAlpha" operator="out"/>
<feColorMatrix type="matrix" values="0 0 0 0 0 0 0 0 0 0 0 0 0 0 0 0 0 0 0.25 0"/>
<feBlend mode="normal" in2="BackgroundImageFix" result="effect1_dropShadow_424_8683"/>
<feBlend mode="normal" in="SourceGraphic" in2="effect1_dropShadow_424_8683" result="shape"/>
</filter>
<linearGradient id="paint0_linear_424_8683" x1="960" y1="0" x2="960" y2="892" gradientUnits="userSpaceOnUse">
<stop offset="0.413462" stop-color="#0E1115"/>
<stop offset="0.894231" stop-color="#1F272E"/>
<stop offset="1" stop-color="#23303A"/>
</linearGradient>
<clipPath id="clip0_424_8683">
<rect width="1920" height="892" fill="white" transform="translate(4)"/>
</clipPath>
</defs>
</svg>
