<svg width="44" height="54" viewBox="0 0 44 54" fill="none" xmlns="http://www.w3.org/2000/svg">
<g clip-path="url(#clip0_295_3474)">
<path d="M43.5549 31.5488L42.5548 30.8848L28.6529 40.1143C28.1613 40.4406 27.5899 40.613 27 40.613C26.4102 40.613 25.8388 40.4406 25.3474 40.1144L11.4453 30.8848L10.4452 31.5488C9.85162 31.9429 9.85162 32.8145 10.4452 33.2085L26.4491 43.8335C26.783 44.0552 27.2171 44.0552 27.5509 43.8335L43.5548 33.2085C44.1484 32.8145 44.1484 31.9428 43.5549 31.5488Z" fill="#EEF6FB"/>
<path d="M43.5548 26.1699L42.5548 25.5059L28.6528 34.7354C28.1614 35.0617 27.5899 35.2342 27 35.2342C26.4101 35.2342 25.8385 35.0617 25.3471 34.7354L11.4452 25.5059L10.4452 26.1699C9.85162 26.5639 9.85162 27.4356 10.4452 27.8295L26.4491 38.4545C26.783 38.6762 27.2171 38.6762 27.5509 38.4545L43.5548 27.8295C44.1483 27.4356 44.1483 26.5639 43.5548 26.1699Z" fill="#EEF6FB"/>
<path d="M10.4452 22.4509L26.4491 33.0759C26.783 33.2976 27.2171 33.2976 27.5509 33.0759L43.5548 22.4509C44.1484 22.0569 44.1484 21.1853 43.5548 20.7912L27.5509 10.1662C27.2171 9.94458 26.7829 9.94458 26.4491 10.1662L10.4452 20.7912C9.85162 21.1852 9.85162 22.0569 10.4452 22.4509ZM32.13 25.1597C31.8257 25.6181 31.2075 25.7429 30.7492 25.4386L27 22.9495L23.2507 25.4386C22.7924 25.7429 22.1742 25.6181 21.87 25.1597C21.5657 24.7014 21.6905 24.0832 22.1489 23.7789L26.4491 20.9241C26.7829 20.7024 27.2171 20.7024 27.5509 20.9241L31.8511 23.7789C32.3094 24.0832 32.4343 24.7014 32.13 25.1597ZM18.0979 21.0894L26.449 15.5452C26.7828 15.3235 27.217 15.3235 27.5509 15.5452L35.9019 21.0894C36.3603 21.3937 36.4851 22.0119 36.1808 22.4702C35.8766 22.9285 35.2584 23.0534 34.8 22.7491L27 17.5706L19.1998 22.7491C18.7415 23.0534 18.1233 22.9285 17.819 22.4702C17.5148 22.0119 17.6397 21.3937 18.0979 21.0894Z" fill="#EEF6FB"/>
</g>
<defs>
<clipPath id="clip0_295_3474">
<rect width="44" height="54" fill="white"/>
</clipPath>
</defs>
</svg>
