<svg width="1920" height="638" viewBox="0 0 1920 638" fill="none" xmlns="http://www.w3.org/2000/svg">
<g clip-path="url(#clip0_549_9104)">
<rect width="1920" height="638" fill="#01011C"/>
<g opacity="0.04" filter="url(#filter0_d_549_9104)">
<rect x="514" y="-57" width="2171" height="1135" rx="561.934" fill="#060B43"/>
</g>
<g opacity="0.08" filter="url(#filter1_d_549_9104)">
<rect x="664" y="32" width="1871" height="958" rx="479" fill="#060B43"/>
</g>
<g opacity="0.2" filter="url(#filter2_d_549_9104)">
<rect x="799" y="99" width="1601" height="824" rx="412" fill="#060B43"/>
</g>
<g opacity="0.2" filter="url(#filter3_d_549_9104)">
<rect x="908" y="168" width="1384" height="685" rx="342.5" fill="#060B43"/>
</g>
<g opacity="0.2" filter="url(#filter4_d_549_9104)">
<rect x="1024" y="232" width="1152" height="558" rx="279" fill="#060B43"/>
</g>
<g opacity="0.2" filter="url(#filter5_d_549_9104)">
<rect x="1135" y="283" width="930" height="456" rx="228" fill="url(#paint0_linear_549_9104)" shape-rendering="crispEdges"/>
</g>
<g opacity="0.2" filter="url(#filter6_d_549_9104)">
<rect x="1250" y="351" width="700" height="319" rx="159.5" fill="url(#paint1_linear_549_9104)" shape-rendering="crispEdges"/>
</g>
<g opacity="0.4" filter="url(#filter7_d_549_9104)">
<rect x="1347" y="407" width="505" height="208" rx="104" fill="url(#paint2_linear_549_9104)" shape-rendering="crispEdges"/>
</g>
<g filter="url(#filter8_d_549_9104)">
<path d="M1415 510.292C1415 484.726 1435.73 464 1461.29 464H1737.71C1763.27 464 1784 484.726 1784 510.292V510.292C1784 535.859 1763.27 556.585 1737.71 556.585H1461.29C1435.73 556.585 1415 535.859 1415 510.292V510.292Z" fill="white" shape-rendering="crispEdges"/>
<path d="M1461.29 465.5H1737.71C1762.45 465.5 1782.5 485.554 1782.5 510.292C1782.5 535.03 1762.45 555.085 1737.71 555.085H1461.29C1436.55 555.085 1416.5 535.03 1416.5 510.292C1416.5 485.554 1436.55 465.5 1461.29 465.5Z" stroke="#74C1EF" stroke-width="3" shape-rendering="crispEdges"/>
<path d="M1539.97 505.663H1537.89L1532.53 493.607C1532.29 493.061 1531.89 492.598 1531.39 492.273C1530.89 491.948 1530.31 491.774 1529.71 491.774H1507.03C1506.43 491.774 1505.85 491.948 1505.35 492.273C1504.85 492.598 1504.45 493.061 1504.21 493.607L1498.85 505.663H1496.77C1496.36 505.663 1495.96 505.825 1495.68 506.115C1495.39 506.404 1495.22 506.796 1495.22 507.206C1495.22 507.615 1495.39 508.007 1495.68 508.297C1495.96 508.586 1496.36 508.749 1496.77 508.749H1498.31V524.18C1498.31 524.999 1498.64 525.784 1499.21 526.362C1499.79 526.941 1500.58 527.266 1501.4 527.266H1506.03C1506.84 527.266 1507.63 526.941 1508.21 526.362C1508.79 525.784 1509.11 524.999 1509.11 524.18V521.094H1527.63V524.18C1527.63 524.999 1527.95 525.784 1528.53 526.362C1529.11 526.941 1529.9 527.266 1530.72 527.266H1535.34C1536.16 527.266 1536.95 526.941 1537.53 526.362C1538.11 525.784 1538.43 524.999 1538.43 524.18V508.749H1539.97C1540.38 508.749 1540.78 508.586 1541.07 508.297C1541.35 508.007 1541.52 507.615 1541.52 507.206C1541.52 506.796 1541.35 506.404 1541.07 506.115C1540.78 505.825 1540.38 505.663 1539.97 505.663ZM1507.03 494.861H1529.71L1534.51 505.663H1502.23L1507.03 494.861ZM1506.03 524.18H1501.4V521.094H1506.03V524.18ZM1530.72 524.18V521.094H1535.34V524.18H1530.72ZM1535.34 518.008H1501.4V508.749H1535.34V518.008ZM1504.48 513.378C1504.48 512.969 1504.64 512.576 1504.93 512.287C1505.22 511.998 1505.62 511.835 1506.03 511.835H1509.11C1509.52 511.835 1509.91 511.998 1510.2 512.287C1510.49 512.576 1510.65 512.969 1510.65 513.378C1510.65 513.787 1510.49 514.18 1510.2 514.469C1509.91 514.759 1509.52 514.921 1509.11 514.921H1506.03C1505.62 514.921 1505.22 514.759 1504.93 514.469C1504.64 514.18 1504.48 513.787 1504.48 513.378ZM1526.09 513.378C1526.09 512.969 1526.25 512.576 1526.54 512.287C1526.83 511.998 1527.22 511.835 1527.63 511.835H1530.72C1531.12 511.835 1531.52 511.998 1531.81 512.287C1532.1 512.576 1532.26 512.969 1532.26 513.378C1532.26 513.787 1532.1 514.18 1531.81 514.469C1531.52 514.759 1531.12 514.921 1530.72 514.921H1527.63C1527.22 514.921 1526.83 514.759 1526.54 514.469C1526.25 514.18 1526.09 513.787 1526.09 513.378Z" fill="black"/>
<path d="M1553.08 520.792L1560.26 500.712H1564.55L1571.73 520.792H1567.69L1566.05 516.14H1558.82L1557.15 520.792H1553.08ZM1559.74 512.599H1565.07L1562.42 504.614L1559.74 512.599ZM1579.2 521.07C1578.53 521.07 1577.88 520.968 1577.23 520.765C1576.59 520.561 1576.01 520.26 1575.48 519.862C1574.95 519.464 1574.53 518.973 1574.2 518.39C1573.89 517.807 1573.73 517.131 1573.73 516.362V506.433H1577.78V515.849C1577.78 516.515 1578 517.061 1578.44 517.487C1578.87 517.913 1579.51 518.126 1580.35 518.126C1581.15 518.126 1581.78 517.922 1582.24 517.515C1582.71 517.098 1582.95 516.52 1582.95 515.779V506.433H1586.96V520.792H1583.91L1583.44 517.946C1583.27 518.788 1582.95 519.436 1582.49 519.89C1582.04 520.334 1581.52 520.64 1580.92 520.806C1580.34 520.982 1579.77 521.07 1579.2 521.07ZM1596.62 520.945C1595.35 520.945 1594.37 520.783 1593.68 520.459C1592.99 520.135 1592.52 519.682 1592.25 519.098C1591.99 518.515 1591.86 517.839 1591.86 517.071V509.252H1589.53V506.433H1591.98L1593.01 502.1H1595.9V506.419H1599.09V509.252H1595.9L1595.93 516.904C1595.93 517.256 1595.97 517.52 1596.05 517.696C1596.14 517.862 1596.28 517.973 1596.47 518.029C1596.66 518.075 1596.91 518.098 1597.2 518.098H1599.14V520.598C1598.94 520.681 1598.65 520.76 1598.26 520.834C1597.87 520.908 1597.33 520.945 1596.62 520.945ZM1607.78 521.07C1606.38 521.07 1605.15 520.769 1604.1 520.168C1603.07 519.566 1602.26 518.714 1601.69 517.612C1601.12 516.511 1600.84 515.205 1600.84 513.696C1600.84 512.187 1601.12 510.868 1601.69 509.738C1602.26 508.609 1603.07 507.729 1604.1 507.1C1605.15 506.47 1606.38 506.155 1607.8 506.155C1609.21 506.155 1610.44 506.465 1611.48 507.086C1612.52 507.697 1613.32 508.567 1613.88 509.697C1614.45 510.826 1614.73 512.159 1614.73 513.696C1614.73 515.14 1614.45 516.418 1613.89 517.529C1613.35 518.631 1612.56 519.496 1611.52 520.126C1610.49 520.755 1609.25 521.07 1607.78 521.07ZM1607.8 518.057C1608.51 518.057 1609.09 517.848 1609.52 517.432C1609.96 517.015 1610.27 516.469 1610.46 515.793C1610.66 515.108 1610.76 514.363 1610.76 513.557C1610.76 512.798 1610.67 512.081 1610.49 511.405C1610.32 510.729 1610.01 510.183 1609.58 509.766C1609.14 509.349 1608.55 509.141 1607.8 509.141C1607.09 509.141 1606.51 509.34 1606.06 509.738C1605.63 510.127 1605.31 510.659 1605.1 511.335C1604.9 512.002 1604.8 512.743 1604.8 513.557C1604.8 514.307 1604.89 515.029 1605.08 515.724C1605.26 516.409 1605.57 516.969 1606.01 517.404C1606.44 517.839 1607.04 518.057 1607.8 518.057ZM1617.5 520.792V506.433H1621.47V508.461C1621.9 507.831 1622.49 507.289 1623.22 506.836C1623.96 506.382 1624.89 506.155 1626.01 506.155C1626.5 506.155 1627 506.243 1627.51 506.419C1628.02 506.595 1628.5 506.854 1628.94 507.197C1629.39 507.53 1629.76 507.951 1630.04 508.461C1630.5 507.803 1631.11 507.257 1631.86 506.822C1632.62 506.378 1633.46 506.155 1634.38 506.155C1634.92 506.155 1635.46 506.243 1636.01 506.419C1636.56 506.595 1637.07 506.882 1637.54 507.28C1638 507.678 1638.37 508.211 1638.65 508.877C1638.93 509.535 1639.08 510.349 1639.08 511.321V520.792H1635.02V511.821C1635.02 511.247 1634.91 510.789 1634.68 510.446C1634.45 510.095 1634.17 509.845 1633.81 509.697C1633.47 509.539 1633.11 509.46 1632.72 509.46C1632.36 509.46 1631.99 509.535 1631.62 509.683C1631.25 509.822 1630.94 510.048 1630.68 510.363C1630.42 510.678 1630.29 511.09 1630.29 511.599V520.792H1626.25V511.46C1626.25 511.025 1626.13 510.659 1625.9 510.363C1625.67 510.067 1625.38 509.845 1625.02 509.697C1624.68 509.539 1624.33 509.46 1623.97 509.46C1623.6 509.46 1623.23 509.539 1622.86 509.697C1622.49 509.845 1622.18 510.081 1621.93 510.405C1621.68 510.72 1621.55 511.118 1621.55 511.599V520.792H1617.5ZM1648.63 521.07C1647.23 521.07 1646 520.769 1644.95 520.168C1643.92 519.566 1643.11 518.714 1642.54 517.612C1641.97 516.511 1641.69 515.205 1641.69 513.696C1641.69 512.187 1641.97 510.868 1642.54 509.738C1643.11 508.609 1643.92 507.729 1644.95 507.1C1646 506.47 1647.23 506.155 1648.65 506.155C1650.06 506.155 1651.29 506.465 1652.33 507.086C1653.36 507.697 1654.16 508.567 1654.73 509.697C1655.29 510.826 1655.58 512.159 1655.58 513.696C1655.58 515.14 1655.3 516.418 1654.74 517.529C1654.2 518.631 1653.41 519.496 1652.37 520.126C1651.34 520.755 1650.1 521.07 1648.63 521.07ZM1648.65 518.057C1649.36 518.057 1649.93 517.848 1650.37 517.432C1650.8 517.015 1651.12 516.469 1651.31 515.793C1651.51 515.108 1651.6 514.363 1651.6 513.557C1651.6 512.798 1651.52 512.081 1651.34 511.405C1651.16 510.729 1650.86 510.183 1650.42 509.766C1649.99 509.349 1649.4 509.141 1648.65 509.141C1647.93 509.141 1647.35 509.34 1646.91 509.738C1646.48 510.127 1646.16 510.659 1645.95 511.335C1645.75 512.002 1645.65 512.743 1645.65 513.557C1645.65 514.307 1645.74 515.029 1645.92 515.724C1646.11 516.409 1646.42 516.969 1646.85 517.404C1647.29 517.839 1647.89 518.057 1648.65 518.057ZM1664.08 520.945C1662.81 520.945 1661.83 520.783 1661.13 520.459C1660.45 520.135 1659.97 519.682 1659.7 519.098C1659.44 518.515 1659.31 517.839 1659.31 517.071V509.252H1656.98V506.433H1659.44L1660.47 502.1H1663.36V506.419H1666.55V509.252H1663.36L1663.38 516.904C1663.38 517.256 1663.42 517.52 1663.51 517.696C1663.6 517.862 1663.74 517.973 1663.92 518.029C1664.12 518.075 1664.36 518.098 1664.66 518.098H1666.59V520.598C1666.4 520.681 1666.11 520.76 1665.72 520.834C1665.33 520.908 1664.78 520.945 1664.08 520.945ZM1669.48 520.792V506.433H1673.35V520.792H1669.48ZM1669.44 504.378V500.725H1673.38V504.378H1669.44ZM1680.87 520.792L1675.48 506.433H1679.15L1682.29 515.585H1682.4L1685.5 506.433H1689.2L1683.81 520.792H1680.87ZM1697.46 521.07C1696.04 521.07 1694.78 520.774 1693.7 520.181C1692.63 519.58 1691.79 518.733 1691.19 517.64C1690.58 516.548 1690.28 515.261 1690.28 513.779C1690.28 512.344 1690.56 511.053 1691.1 509.905C1691.66 508.748 1692.45 507.836 1693.49 507.169C1694.53 506.493 1695.78 506.155 1697.25 506.155C1698.72 506.155 1699.94 506.465 1700.93 507.086C1701.93 507.697 1702.67 508.553 1703.18 509.655C1703.69 510.747 1703.95 512.011 1703.95 513.446V514.543H1694.3C1694.3 515.275 1694.42 515.913 1694.66 516.46C1694.9 516.997 1695.25 517.413 1695.7 517.71C1696.16 517.997 1696.72 518.14 1697.37 518.14C1698.06 518.14 1698.67 517.992 1699.18 517.696C1699.7 517.399 1700.07 516.913 1700.28 516.237H1703.93C1703.77 517.256 1703.36 518.126 1702.71 518.848C1702.06 519.57 1701.28 520.121 1700.35 520.501C1699.43 520.88 1698.46 521.07 1697.46 521.07ZM1694.3 512.127H1700.16C1700.16 511.553 1700.05 511.025 1699.82 510.544C1699.61 510.062 1699.29 509.683 1698.85 509.405C1698.43 509.127 1697.89 508.988 1697.24 508.988C1696.62 508.988 1696.09 509.141 1695.64 509.447C1695.21 509.743 1694.87 510.132 1694.63 510.613C1694.4 511.095 1694.29 511.599 1694.3 512.127Z" fill="#1F1F1F"/>
</g>
<g opacity="0.6">
<path fill-rule="evenodd" clip-rule="evenodd" d="M1680.98 367.412C1675.52 367.412 1668.11 363.583 1661.76 357.231C1654.16 349.635 1650.17 340.512 1652.04 335.048C1652.1 334.879 1652.24 334.737 1652.41 334.684C1652.58 334.622 1652.77 334.639 1652.93 334.737C1653.25 334.933 1653.61 335.039 1653.99 335.039C1655.12 335.039 1656.03 334.115 1656.03 332.987C1656.03 332.614 1655.93 332.25 1655.74 331.93C1655.64 331.77 1655.62 331.583 1655.68 331.406C1655.75 331.237 1655.88 331.104 1656.05 331.041C1661.51 329.167 1670.64 333.165 1678.23 340.769C1685.84 348.365 1689.82 357.489 1687.96 362.952C1687.9 363.121 1687.76 363.263 1687.59 363.317C1687.42 363.379 1687.23 363.361 1687.07 363.263C1686.75 363.068 1686.39 362.961 1686 362.961C1684.88 362.961 1683.96 363.885 1683.96 365.005C1683.96 365.387 1684.07 365.751 1684.26 366.071C1684.36 366.231 1684.38 366.417 1684.32 366.595C1684.25 366.764 1684.12 366.897 1683.95 366.959C1683.05 367.27 1682.05 367.412 1680.98 367.412ZM1653 336.087C1651.81 341.134 1655.75 349.511 1662.61 356.387C1669.49 363.254 1677.86 367.19 1682.92 366C1682.82 365.68 1682.76 365.351 1682.76 365.005C1682.76 363.219 1684.22 361.762 1686 361.762C1686.35 361.762 1686.69 361.815 1687.01 361.913C1688.19 356.858 1684.25 348.489 1677.39 341.613C1670.51 334.746 1662.13 330.81 1657.09 331.992C1657.19 332.312 1657.24 332.649 1657.24 332.987C1657.24 334.782 1655.78 336.239 1654 336.239C1653.65 336.239 1653.32 336.185 1653 336.087Z" fill="white"/>
<path fill-rule="evenodd" clip-rule="evenodd" d="M1659.02 367.412C1657.95 367.412 1656.95 367.261 1656.06 366.959C1655.88 366.897 1655.75 366.764 1655.68 366.595C1655.62 366.417 1655.64 366.231 1655.74 366.071C1655.93 365.751 1656.04 365.387 1656.04 365.005C1656.04 363.876 1655.11 362.961 1654 362.961C1653.61 362.961 1653.25 363.068 1652.93 363.263C1652.77 363.361 1652.58 363.379 1652.41 363.317C1652.24 363.254 1652.1 363.121 1652.04 362.952C1650.17 357.489 1654.17 348.365 1661.77 340.769C1669.36 333.165 1678.49 329.167 1683.95 331.041C1684.12 331.104 1684.26 331.237 1684.32 331.406C1684.38 331.583 1684.36 331.77 1684.26 331.93C1684.07 332.25 1683.96 332.614 1683.96 332.987C1683.96 334.115 1684.88 335.03 1686 335.03C1686.39 335.03 1686.75 334.933 1687.07 334.737C1687.23 334.639 1687.43 334.622 1687.59 334.684C1687.76 334.746 1687.9 334.879 1687.96 335.048C1689.83 340.512 1685.84 349.635 1678.23 357.231C1671.89 363.583 1664.48 367.412 1659.02 367.412ZM1657.09 366C1662.13 367.19 1670.51 363.254 1677.39 356.387C1684.25 349.511 1688.19 341.134 1687 336.087C1686.68 336.185 1686.35 336.239 1686 336.239C1684.22 336.239 1682.76 334.782 1682.76 332.996C1682.76 332.658 1682.81 332.321 1682.91 332.001C1677.87 330.819 1669.49 334.746 1662.61 341.613C1655.75 348.489 1651.81 356.867 1653 361.913C1653.32 361.815 1653.65 361.762 1654 361.762C1655.78 361.762 1657.24 363.219 1657.24 365.005C1657.24 365.351 1657.18 365.68 1657.09 366Z" fill="white"/>
<path fill-rule="evenodd" clip-rule="evenodd" d="M1653.99 336.238C1652.2 336.238 1650.74 334.781 1650.74 332.987C1650.74 331.201 1652.2 329.744 1653.99 329.744C1655.78 329.744 1657.24 331.201 1657.24 332.987C1657.24 334.781 1655.78 336.238 1653.99 336.238Z" fill="white"/>
<path fill-rule="evenodd" clip-rule="evenodd" d="M1686 336.238C1684.22 336.238 1682.76 334.781 1682.76 332.987C1682.76 331.201 1684.22 329.744 1686 329.744C1687.8 329.744 1689.26 331.201 1689.26 332.987C1689.26 334.781 1687.8 336.238 1686 336.238Z" fill="white"/>
<path fill-rule="evenodd" clip-rule="evenodd" d="M1686 368.256C1684.22 368.256 1682.76 366.799 1682.76 365.004C1682.76 363.219 1684.22 361.762 1686 361.762C1687.8 361.762 1689.26 363.219 1689.26 365.004C1689.26 366.799 1687.8 368.256 1686 368.256Z" fill="white"/>
<path fill-rule="evenodd" clip-rule="evenodd" d="M1653.99 368.256C1652.2 368.256 1650.74 366.799 1650.74 365.004C1650.74 363.219 1652.2 361.762 1653.99 361.762C1655.78 361.762 1657.24 363.219 1657.24 365.004C1657.24 366.799 1655.78 368.256 1653.99 368.256Z" fill="white"/>
<path fill-rule="evenodd" clip-rule="evenodd" d="M1662.35 345.149C1662.35 342.946 1665.63 341.293 1670 341.293C1674.37 341.293 1677.65 342.946 1677.65 345.149C1677.65 347.352 1674.37 349.005 1670 349.005C1665.63 349.005 1662.35 347.352 1662.35 345.149Z" fill="white"/>
<path fill-rule="evenodd" clip-rule="evenodd" d="M1670 352.86C1665.63 352.86 1662.35 351.199 1662.35 348.996C1662.35 348.472 1662.54 347.965 1662.9 347.512C1663.39 347.965 1663.97 348.312 1664.56 348.578C1666.21 349.333 1668.19 349.609 1670 349.609C1671.81 349.609 1673.79 349.333 1675.44 348.578C1676.03 348.312 1676.61 347.965 1677.1 347.512C1677.46 347.965 1677.65 348.472 1677.65 348.996C1677.65 351.199 1674.37 352.86 1670 352.86Z" fill="white"/>
<path fill-rule="evenodd" clip-rule="evenodd" d="M1670 356.707C1665.63 356.707 1662.35 355.055 1662.35 352.852C1662.35 352.319 1662.54 351.821 1662.9 351.368C1663.39 351.812 1663.97 352.168 1664.56 352.434C1666.21 353.18 1668.19 353.456 1670 353.456C1671.81 353.456 1673.79 353.18 1675.44 352.434C1676.03 352.168 1676.61 351.812 1677.1 351.368C1677.46 351.821 1677.65 352.319 1677.65 352.852C1677.65 355.055 1674.37 356.707 1670 356.707ZM1669.54 348.996H1670H1670.46C1670.31 349.005 1670.16 349.005 1670 349.005C1669.84 349.005 1669.69 349.005 1669.54 348.996Z" fill="white"/>
</g>
<g opacity="0.1">
<path d="M1657.29 105.53C1657.94 105.299 1658.37 104.684 1658.37 104C1658.37 103.316 1657.94 102.701 1657.3 102.471L1654.35 101.407C1651.43 100.358 1649.16 98.0832 1648.11 95.1698L1647.05 92.2194C1646.81 91.5777 1646.2 91.145 1645.52 91.145C1644.84 91.145 1644.22 91.5763 1643.99 92.2194L1642.93 95.1698C1641.87 98.0846 1639.6 100.358 1636.69 101.407L1633.74 102.471C1633.09 102.702 1632.66 103.316 1632.66 104C1632.66 104.684 1633.09 105.298 1633.74 105.53L1636.69 106.593C1639.6 107.642 1641.87 109.916 1642.92 112.83L1643.99 115.782C1644.22 116.424 1644.83 116.855 1645.52 116.855C1646.2 116.855 1646.82 116.422 1647.05 115.781L1648.11 112.83C1649.16 109.917 1651.43 107.644 1654.35 106.593L1657.29 105.53ZM1653.45 104.103C1649.79 105.421 1646.94 108.275 1645.62 111.933L1645.52 112.219L1645.41 111.933C1644.09 108.275 1641.24 105.421 1637.58 104.103L1637.3 104L1637.58 103.897C1641.24 102.579 1644.1 99.7252 1645.41 96.0669L1645.52 95.7811L1645.62 96.0669C1646.94 99.7252 1649.79 102.579 1653.45 103.897L1653.73 104L1653.45 104.103Z" fill="white"/>
<path d="M1652.75 92.7049L1654.25 93.2433C1655.54 93.7091 1656.55 94.7173 1657.01 96.0086L1657.55 97.501C1657.76 98.0858 1658.32 98.4788 1658.94 98.4788C1659.56 98.4788 1660.12 98.0858 1660.33 97.5023L1660.87 96.0086C1661.33 94.7159 1662.34 93.7077 1663.63 93.2433L1665.13 92.7049C1665.71 92.4945 1666.1 91.9375 1666.1 91.3196C1666.1 90.7017 1665.71 90.1421 1665.13 89.9277L1663.63 89.3892C1662.34 88.9235 1661.33 87.9153 1660.87 86.624L1660.33 85.1302C1660.12 84.5454 1659.56 84.1538 1658.94 84.1538C1658.32 84.1538 1657.76 84.5468 1657.55 85.1302L1657.01 86.624C1656.55 87.9166 1655.54 88.9235 1654.25 89.3892L1652.75 89.929C1652.17 90.1407 1651.78 90.7004 1651.78 91.3196C1651.78 91.9388 1652.17 92.4958 1652.75 92.7049ZM1658.94 88.725C1659.57 89.7994 1660.46 90.6898 1661.53 91.3156C1660.46 91.9428 1659.57 92.8332 1658.94 93.9062C1658.31 92.8332 1657.42 91.9414 1656.35 91.3156C1657.42 90.6885 1658.31 89.7981 1658.94 88.725Z" fill="white"/>
<path d="M1665.13 115.295L1663.63 114.757C1662.34 114.291 1661.33 113.283 1660.87 111.992L1660.33 110.498C1660.12 109.914 1659.56 109.521 1658.94 109.521C1658.32 109.521 1657.76 109.914 1657.55 110.498L1657.01 111.992C1656.55 113.284 1655.54 114.292 1654.25 114.757L1652.75 115.294C1652.17 115.503 1651.78 116.061 1651.78 116.681C1651.77 117.3 1652.16 117.86 1652.75 118.073L1654.25 118.611C1655.54 119.077 1656.55 120.084 1657.01 121.376L1657.55 122.869C1657.76 123.453 1658.32 123.846 1658.94 123.846C1659.56 123.846 1660.12 123.453 1660.33 122.87L1660.87 121.376C1661.33 120.085 1662.34 119.077 1663.63 118.611L1665.13 118.071C1665.71 117.858 1666.1 117.3 1666.1 116.681C1666.1 116.061 1665.71 115.506 1665.13 115.295ZM1658.94 119.275C1658.31 118.201 1657.42 117.31 1656.35 116.685C1657.42 116.057 1658.31 115.167 1658.94 114.094C1659.57 115.167 1660.46 116.059 1661.53 116.685C1660.46 117.312 1659.57 118.202 1658.94 119.275Z" fill="white"/>
</g>
<g opacity="0.05">
<path d="M887.786 320.53C888.43 320.299 888.863 319.684 888.863 319C888.863 318.316 888.43 317.701 887.789 317.471L884.838 316.407C881.925 315.358 879.652 313.083 878.601 310.17L877.537 307.219C877.306 306.578 876.692 306.145 876.011 306.145C875.328 306.145 874.713 306.576 874.48 307.219L873.417 310.17C872.367 313.085 870.094 315.358 867.179 316.407L864.231 317.471C863.587 317.702 863.154 318.316 863.154 319C863.154 319.684 863.587 320.298 864.229 320.53L867.179 321.593C870.093 322.642 872.366 324.916 873.416 327.83L874.48 330.782C874.711 331.424 875.327 331.855 876.009 331.855C876.692 331.855 877.307 331.422 877.537 330.781L878.601 327.83C879.65 324.917 881.925 322.644 884.838 321.593L887.786 320.53ZM883.941 319.103C880.283 320.421 877.429 323.275 876.111 326.933L876.008 327.219L875.905 326.933C874.586 323.275 871.732 320.421 868.075 319.103L867.79 319L868.076 318.897C871.734 317.579 874.588 314.725 875.906 311.067L876.009 310.781L876.113 311.067C877.43 314.725 880.284 317.579 883.941 318.897L884.227 319L883.941 319.103Z" fill="white"/>
<path d="M883.245 307.705L884.739 308.243C886.031 308.709 887.038 309.717 887.504 311.009L888.041 312.501C888.252 313.086 888.81 313.479 889.43 313.479C890.051 313.479 890.611 313.086 890.82 312.502L891.358 311.009C891.824 309.716 892.832 308.708 894.123 308.243L895.618 307.705C896.199 307.494 896.592 306.937 896.594 306.32C896.595 305.702 896.206 305.142 895.618 304.928L894.123 304.389C892.832 303.924 891.824 302.915 891.358 301.624L890.82 300.13C890.609 299.545 890.052 299.154 889.432 299.154C888.81 299.154 888.252 299.547 888.042 300.13L887.504 301.624C887.038 302.917 886.03 303.924 884.739 304.389L883.241 304.929C882.659 305.141 882.267 305.7 882.269 306.32C882.27 306.939 882.663 307.496 883.245 307.705ZM889.432 303.725C890.059 304.799 890.949 305.69 892.022 306.316C890.948 306.943 890.058 307.833 889.432 308.906C888.805 307.833 887.914 306.941 886.841 306.316C887.914 305.688 888.805 304.798 889.432 303.725Z" fill="white"/>
<path d="M895.617 330.295L894.124 329.757C892.832 329.291 891.824 328.283 891.358 326.992L890.82 325.498C890.61 324.914 890.051 324.521 889.431 324.521C888.809 324.521 888.251 324.914 888.041 325.498L887.503 326.992C887.037 328.284 886.029 329.292 884.738 329.757L883.245 330.294C882.662 330.503 882.269 331.061 882.268 331.681C882.266 332.3 882.657 332.86 883.244 333.073L884.738 333.611C886.03 334.077 887.039 335.084 887.503 336.376L888.04 337.869C888.252 338.453 888.81 338.846 889.432 338.846C890.054 338.846 890.612 338.453 890.821 337.87L891.36 336.376C891.825 335.085 892.834 334.077 894.125 333.611L895.625 333.071C896.206 332.858 896.597 332.3 896.595 331.681C896.594 331.061 896.2 330.506 895.617 330.295ZM889.432 334.275C888.805 333.201 887.914 332.31 886.841 331.685C887.914 331.057 888.806 330.167 889.432 329.094C890.059 330.167 890.95 331.059 892.023 331.685C890.95 332.312 890.058 333.202 889.432 334.275Z" fill="white"/>
</g>
<g opacity="0.4">
<path d="M1158.06 472.224H1162.24C1162.82 472.224 1163.28 471.756 1163.28 471.178V466.996C1163.28 466.419 1162.82 465.951 1162.24 465.951H1158.06C1157.48 465.951 1157.01 466.419 1157.01 466.996V468.042H1152.48C1152.48 468.042 1152.47 465.944 1152.47 465.886C1152.47 464.755 1151.78 463.147 1148.45 461.908C1146.18 461.063 1143.19 460.597 1140.04 460.597C1136.88 460.597 1133.89 461.063 1131.62 461.908C1128.29 463.147 1127.6 464.755 1127.6 465.886C1127.6 465.964 1127.6 489.017 1127.6 489.017C1127.6 490.15 1128.3 491.76 1131.62 492.997C1133.89 493.841 1136.88 494.305 1140.04 494.305C1143.21 494.305 1146.2 493.841 1148.46 492.997C1151.78 491.76 1152.48 490.15 1152.48 489.017V487.697H1157.01V488.743C1157.01 489.32 1157.48 489.788 1158.06 489.788H1162.24C1162.82 489.788 1163.28 489.32 1163.28 488.743V484.561C1163.28 483.983 1162.82 483.515 1162.24 483.515H1158.06C1157.48 483.515 1157.01 483.983 1157.01 484.561V485.606H1152.48V478.636H1157.01V479.96C1157.01 480.538 1157.48 481.006 1158.06 481.006H1162.24C1162.82 481.006 1163.28 480.538 1163.28 479.96V475.778C1163.28 475.201 1162.82 474.733 1162.24 474.733H1158.06C1157.48 474.733 1157.01 475.201 1157.01 475.778V476.545H1152.48V470.133H1157.01V471.178C1157.01 471.756 1157.48 472.224 1158.06 472.224ZM1159.1 485.606H1161.19V487.697H1159.1V485.606ZM1159.1 476.824H1161.19V478.915H1159.1V476.824ZM1150.39 481.315C1150.39 481.791 1149.69 482.605 1147.73 483.336C1145.69 484.095 1142.96 484.513 1140.04 484.513C1137.12 484.513 1134.39 484.095 1132.35 483.336C1130.39 482.605 1129.69 481.791 1129.69 481.315V476.641C1130.21 476.961 1130.84 477.271 1131.62 477.561C1133.89 478.405 1136.88 478.87 1140.04 478.87C1143.21 478.87 1146.2 478.405 1148.46 477.561C1149.24 477.271 1149.87 476.961 1150.39 476.641V481.315ZM1131.62 469.864C1133.89 470.709 1136.88 471.174 1140.04 471.174C1143.19 471.174 1146.18 470.709 1148.45 469.864C1149.23 469.571 1149.87 469.258 1150.39 468.936V473.581C1150.39 474.057 1149.69 474.872 1147.73 475.602C1145.69 476.361 1142.96 476.779 1140.04 476.779C1137.12 476.779 1134.39 476.361 1132.35 475.602C1130.39 474.872 1129.69 474.057 1129.69 473.581V468.944C1130.21 469.263 1130.84 469.574 1131.62 469.864ZM1132.35 463.868C1134.39 463.107 1137.12 462.688 1140.04 462.688C1142.95 462.688 1145.68 463.107 1147.72 463.868C1149.56 464.553 1150.38 465.375 1150.38 465.886C1150.38 466.397 1149.56 467.219 1147.72 467.904C1145.68 468.664 1142.95 469.083 1140.04 469.083C1137.12 469.083 1134.39 468.664 1132.35 467.904C1130.51 467.219 1129.69 466.397 1129.69 465.886C1129.69 465.375 1130.51 464.553 1132.35 463.868ZM1147.73 491.037C1145.69 491.796 1142.96 492.214 1140.04 492.214C1137.12 492.214 1134.39 491.796 1132.35 491.037C1130.39 490.307 1129.69 489.492 1129.69 489.017V484.374C1130.21 484.695 1130.84 485.005 1131.62 485.295C1133.89 486.139 1136.88 486.604 1140.04 486.604C1143.21 486.604 1146.2 486.139 1148.46 485.295C1149.24 485.005 1149.87 484.695 1150.39 484.374V489.017C1150.39 489.492 1149.69 490.307 1147.73 491.037ZM1159.1 468.042H1161.19V470.133H1159.1V468.042Z" fill="white"/>
</g>
<g opacity="0.1">
<path d="M812.544 648.324L820.09 640.778C820.387 640.482 820.842 640.4 821.224 640.581L827.18 643.382C828.318 643.922 829.686 643.683 830.578 642.79L838.064 635.304C838.455 634.914 838.455 634.281 838.064 633.89C837.674 633.5 837.041 633.5 836.65 633.89L829.164 641.375C828.866 641.673 828.41 641.753 828.031 641.573L822.075 638.77C820.938 638.235 819.568 638.471 818.676 639.364L811.13 646.91C810.739 647.3 810.739 647.933 811.13 648.324C811.52 648.714 812.153 648.714 812.544 648.324Z" fill="white"/>
</g>
<g opacity="0.2">
<path d="M1291.72 169.98C1291.52 169.98 1291.33 169.997 1291.14 170.028L1285.99 160.525C1286.54 159.896 1286.87 159.074 1286.87 158.175C1286.87 156.202 1285.27 154.597 1283.3 154.597C1281.76 154.597 1280.44 155.574 1279.94 156.941H1269.96C1269.45 155.574 1268.14 154.597 1266.6 154.597C1264.63 154.597 1263.02 156.202 1263.02 158.175C1263.02 159.074 1263.36 159.896 1263.91 160.525L1258.75 170.028C1258.56 169.997 1258.37 169.98 1258.17 169.98C1256.2 169.98 1254.6 171.585 1254.6 173.557C1254.6 175.53 1256.2 177.135 1258.17 177.135C1258.36 177.135 1258.54 177.121 1258.71 177.094L1263.91 186.669C1263.36 187.299 1263.02 188.121 1263.02 189.02C1263.02 190.992 1264.63 192.597 1266.6 192.597C1268.14 192.597 1269.46 191.62 1269.96 190.254H1279.94C1280.44 191.62 1281.76 192.597 1283.3 192.597C1285.27 192.597 1286.87 190.992 1286.87 189.02C1286.87 188.121 1286.54 187.299 1285.99 186.669L1291.18 177.094C1291.36 177.121 1291.54 177.135 1291.72 177.135C1293.69 177.135 1295.3 175.53 1295.3 173.557C1295.3 171.585 1293.69 169.98 1291.72 169.98ZM1283.3 185.442C1281.73 185.442 1280.39 186.459 1279.91 187.869H1269.99C1269.51 186.459 1268.17 185.442 1266.6 185.442C1266.39 185.442 1266.18 185.462 1265.98 185.497L1260.82 175.967C1261.4 175.331 1261.75 174.485 1261.75 173.557C1261.75 172.645 1261.41 171.811 1260.84 171.178L1265.98 161.698C1266.18 161.733 1266.39 161.752 1266.6 161.752C1268.17 161.752 1269.51 160.735 1269.99 159.326H1279.91C1280.39 160.735 1281.73 161.752 1283.3 161.752C1283.51 161.752 1283.71 161.733 1283.91 161.698L1289.05 171.178C1288.49 171.811 1288.14 172.645 1288.14 173.557C1288.14 174.485 1288.5 175.331 1289.08 175.967L1283.91 185.497C1283.71 185.462 1283.51 185.442 1283.3 185.442ZM1283.3 156.982C1283.95 156.982 1284.49 157.517 1284.49 158.175C1284.49 158.832 1283.95 159.367 1283.3 159.367C1282.64 159.367 1282.1 158.832 1282.1 158.175C1282.1 157.517 1282.64 156.982 1283.3 156.982ZM1266.6 156.982C1267.26 156.982 1267.79 157.517 1267.79 158.175C1267.79 158.832 1267.26 159.367 1266.6 159.367C1265.94 159.367 1265.41 158.832 1265.41 158.175C1265.41 157.517 1265.94 156.982 1266.6 156.982ZM1256.98 173.557C1256.98 172.9 1257.52 172.365 1258.17 172.365C1258.83 172.365 1259.37 172.9 1259.37 173.557C1259.37 174.215 1258.83 174.75 1258.17 174.75C1257.52 174.75 1256.98 174.215 1256.98 173.557ZM1266.6 190.212C1265.94 190.212 1265.41 189.677 1265.41 189.02C1265.41 188.362 1265.94 187.827 1266.6 187.827C1267.26 187.827 1267.79 188.362 1267.79 189.02C1267.79 189.677 1267.26 190.212 1266.6 190.212ZM1283.3 190.212C1282.64 190.212 1282.1 189.677 1282.1 189.02C1282.1 188.362 1282.64 187.827 1283.3 187.827C1283.95 187.827 1284.49 188.362 1284.49 189.02C1284.49 189.677 1283.95 190.212 1283.3 190.212ZM1291.72 174.75C1291.06 174.75 1290.53 174.215 1290.53 173.557C1290.53 172.9 1291.06 172.365 1291.72 172.365C1292.38 172.365 1292.91 172.9 1292.91 173.557C1292.91 174.215 1292.38 174.75 1291.72 174.75Z" fill="white"/>
<path d="M1280.82 164.692C1279.23 164.079 1277.14 163.742 1274.95 163.742C1272.75 163.742 1270.66 164.079 1269.07 164.692C1266.44 165.705 1266.04 167.138 1266.04 167.901V179.294C1266.04 180.058 1266.44 181.492 1269.07 182.504C1270.66 183.116 1272.75 183.453 1274.95 183.453C1277.15 183.453 1279.24 183.116 1280.83 182.504C1283.46 181.492 1283.85 180.058 1283.85 179.294C1283.85 179.294 1283.85 167.975 1283.85 167.901C1283.85 167.138 1283.46 165.705 1280.82 164.692ZM1281.47 173.454C1281.45 173.55 1281.11 174.031 1279.83 174.495C1278.52 174.97 1276.79 175.231 1274.95 175.231C1273.11 175.231 1271.38 174.97 1270.07 174.495C1268.79 174.031 1268.44 173.548 1268.43 173.456V170.834C1268.63 170.929 1268.84 171.021 1269.07 171.11C1270.66 171.723 1272.75 172.061 1274.95 172.061C1277.14 172.061 1279.23 171.723 1280.82 171.11C1281.06 171.021 1281.27 170.929 1281.47 170.834L1281.47 173.454ZM1270.09 166.858C1271.4 166.386 1273.12 166.127 1274.95 166.127C1276.77 166.127 1278.5 166.386 1279.81 166.858C1281.08 167.316 1281.44 167.795 1281.47 167.901C1281.44 168.008 1281.08 168.487 1279.81 168.945C1278.5 169.416 1276.77 169.676 1274.95 169.676C1273.12 169.676 1271.4 169.416 1270.09 168.945C1268.82 168.487 1268.46 168.008 1268.43 167.901C1268.46 167.795 1268.82 167.316 1270.09 166.858ZM1279.83 180.333C1278.52 180.807 1276.79 181.068 1274.95 181.068C1273.11 181.068 1271.38 180.807 1270.07 180.333C1268.79 179.868 1268.44 179.385 1268.43 179.294V176.393C1268.63 176.487 1268.84 176.579 1269.07 176.667C1270.66 177.279 1272.75 177.616 1274.95 177.616C1277.15 177.616 1279.24 177.279 1280.83 176.667C1281.06 176.579 1281.27 176.487 1281.47 176.393L1281.47 179.29C1281.45 179.385 1281.11 179.868 1279.83 180.333Z" fill="white"/>
</g>
</g>
<defs>
<filter id="filter0_d_549_9104" x="442.176" y="-128.824" width="2314.65" height="1278.65" filterUnits="userSpaceOnUse" color-interpolation-filters="sRGB">
<feFlood flood-opacity="0" result="BackgroundImageFix"/>
<feColorMatrix in="SourceAlpha" type="matrix" values="0 0 0 0 0 0 0 0 0 0 0 0 0 0 0 0 0 0 127 0" result="hardAlpha"/>
<feOffset/>
<feGaussianBlur stdDeviation="35.9121"/>
<feComposite in2="hardAlpha" operator="out"/>
<feColorMatrix type="matrix" values="0 0 0 0 0.231956 0 0 0 0 0.420022 0 0 0 0 0.796154 0 0 0 1 0"/>
<feBlend mode="normal" in2="BackgroundImageFix" result="effect1_dropShadow_549_9104"/>
<feBlend mode="normal" in="SourceGraphic" in2="effect1_dropShadow_549_9104" result="shape"/>
</filter>
<filter id="filter1_d_549_9104" x="592.176" y="-39.8242" width="2014.65" height="1101.65" filterUnits="userSpaceOnUse" color-interpolation-filters="sRGB">
<feFlood flood-opacity="0" result="BackgroundImageFix"/>
<feColorMatrix in="SourceAlpha" type="matrix" values="0 0 0 0 0 0 0 0 0 0 0 0 0 0 0 0 0 0 127 0" result="hardAlpha"/>
<feOffset/>
<feGaussianBlur stdDeviation="35.9121"/>
<feComposite in2="hardAlpha" operator="out"/>
<feColorMatrix type="matrix" values="0 0 0 0 0.231956 0 0 0 0 0.420022 0 0 0 0 0.796154 0 0 0 1 0"/>
<feBlend mode="normal" in2="BackgroundImageFix" result="effect1_dropShadow_549_9104"/>
<feBlend mode="normal" in="SourceGraphic" in2="effect1_dropShadow_549_9104" result="shape"/>
</filter>
<filter id="filter2_d_549_9104" x="727.176" y="27.1758" width="1744.65" height="967.648" filterUnits="userSpaceOnUse" color-interpolation-filters="sRGB">
<feFlood flood-opacity="0" result="BackgroundImageFix"/>
<feColorMatrix in="SourceAlpha" type="matrix" values="0 0 0 0 0 0 0 0 0 0 0 0 0 0 0 0 0 0 127 0" result="hardAlpha"/>
<feOffset/>
<feGaussianBlur stdDeviation="35.9121"/>
<feComposite in2="hardAlpha" operator="out"/>
<feColorMatrix type="matrix" values="0 0 0 0 0.231956 0 0 0 0 0.420022 0 0 0 0 0.796154 0 0 0 1 0"/>
<feBlend mode="normal" in2="BackgroundImageFix" result="effect1_dropShadow_549_9104"/>
<feBlend mode="normal" in="SourceGraphic" in2="effect1_dropShadow_549_9104" result="shape"/>
</filter>
<filter id="filter3_d_549_9104" x="836.176" y="96.1758" width="1527.65" height="828.648" filterUnits="userSpaceOnUse" color-interpolation-filters="sRGB">
<feFlood flood-opacity="0" result="BackgroundImageFix"/>
<feColorMatrix in="SourceAlpha" type="matrix" values="0 0 0 0 0 0 0 0 0 0 0 0 0 0 0 0 0 0 127 0" result="hardAlpha"/>
<feOffset/>
<feGaussianBlur stdDeviation="35.9121"/>
<feComposite in2="hardAlpha" operator="out"/>
<feColorMatrix type="matrix" values="0 0 0 0 0.231956 0 0 0 0 0.420022 0 0 0 0 0.796154 0 0 0 1 0"/>
<feBlend mode="normal" in2="BackgroundImageFix" result="effect1_dropShadow_549_9104"/>
<feBlend mode="normal" in="SourceGraphic" in2="effect1_dropShadow_549_9104" result="shape"/>
</filter>
<filter id="filter4_d_549_9104" x="952.176" y="160.176" width="1295.65" height="701.648" filterUnits="userSpaceOnUse" color-interpolation-filters="sRGB">
<feFlood flood-opacity="0" result="BackgroundImageFix"/>
<feColorMatrix in="SourceAlpha" type="matrix" values="0 0 0 0 0 0 0 0 0 0 0 0 0 0 0 0 0 0 127 0" result="hardAlpha"/>
<feOffset/>
<feGaussianBlur stdDeviation="35.9121"/>
<feComposite in2="hardAlpha" operator="out"/>
<feColorMatrix type="matrix" values="0 0 0 0 0.231956 0 0 0 0 0.420022 0 0 0 0 0.796154 0 0 0 1 0"/>
<feBlend mode="normal" in2="BackgroundImageFix" result="effect1_dropShadow_549_9104"/>
<feBlend mode="normal" in="SourceGraphic" in2="effect1_dropShadow_549_9104" result="shape"/>
</filter>
<filter id="filter5_d_549_9104" x="1063.18" y="211.176" width="1073.65" height="599.648" filterUnits="userSpaceOnUse" color-interpolation-filters="sRGB">
<feFlood flood-opacity="0" result="BackgroundImageFix"/>
<feColorMatrix in="SourceAlpha" type="matrix" values="0 0 0 0 0 0 0 0 0 0 0 0 0 0 0 0 0 0 127 0" result="hardAlpha"/>
<feOffset/>
<feGaussianBlur stdDeviation="35.9121"/>
<feComposite in2="hardAlpha" operator="out"/>
<feColorMatrix type="matrix" values="0 0 0 0 0.231956 0 0 0 0 0.420022 0 0 0 0 0.796154 0 0 0 1 0"/>
<feBlend mode="normal" in2="BackgroundImageFix" result="effect1_dropShadow_549_9104"/>
<feBlend mode="normal" in="SourceGraphic" in2="effect1_dropShadow_549_9104" result="shape"/>
</filter>
<filter id="filter6_d_549_9104" x="1178.18" y="279.176" width="843.648" height="462.648" filterUnits="userSpaceOnUse" color-interpolation-filters="sRGB">
<feFlood flood-opacity="0" result="BackgroundImageFix"/>
<feColorMatrix in="SourceAlpha" type="matrix" values="0 0 0 0 0 0 0 0 0 0 0 0 0 0 0 0 0 0 127 0" result="hardAlpha"/>
<feOffset/>
<feGaussianBlur stdDeviation="35.9121"/>
<feComposite in2="hardAlpha" operator="out"/>
<feColorMatrix type="matrix" values="0 0 0 0 0.231956 0 0 0 0 0.420022 0 0 0 0 0.796154 0 0 0 1 0"/>
<feBlend mode="normal" in2="BackgroundImageFix" result="effect1_dropShadow_549_9104"/>
<feBlend mode="normal" in="SourceGraphic" in2="effect1_dropShadow_549_9104" result="shape"/>
</filter>
<filter id="filter7_d_549_9104" x="1275.18" y="335.176" width="648.648" height="351.648" filterUnits="userSpaceOnUse" color-interpolation-filters="sRGB">
<feFlood flood-opacity="0" result="BackgroundImageFix"/>
<feColorMatrix in="SourceAlpha" type="matrix" values="0 0 0 0 0 0 0 0 0 0 0 0 0 0 0 0 0 0 127 0" result="hardAlpha"/>
<feOffset/>
<feGaussianBlur stdDeviation="35.9121"/>
<feComposite in2="hardAlpha" operator="out"/>
<feColorMatrix type="matrix" values="0 0 0 0 0.231956 0 0 0 0 0.420022 0 0 0 0 0.796154 0 0 0 1 0"/>
<feBlend mode="normal" in2="BackgroundImageFix" result="effect1_dropShadow_549_9104"/>
<feBlend mode="normal" in="SourceGraphic" in2="effect1_dropShadow_549_9104" result="shape"/>
</filter>
<filter id="filter8_d_549_9104" x="1394.6" y="443.6" width="409.8" height="133.385" filterUnits="userSpaceOnUse" color-interpolation-filters="sRGB">
<feFlood flood-opacity="0" result="BackgroundImageFix"/>
<feColorMatrix in="SourceAlpha" type="matrix" values="0 0 0 0 0 0 0 0 0 0 0 0 0 0 0 0 0 0 127 0" result="hardAlpha"/>
<feOffset/>
<feGaussianBlur stdDeviation="10.2"/>
<feComposite in2="hardAlpha" operator="out"/>
<feColorMatrix type="matrix" values="0 0 0 0 0.462745 0 0 0 0 0.764706 0 0 0 0 0.937255 0 0 0 1 0"/>
<feBlend mode="normal" in2="BackgroundImageFix" result="effect1_dropShadow_549_9104"/>
<feBlend mode="normal" in="SourceGraphic" in2="effect1_dropShadow_549_9104" result="shape"/>
</filter>
<linearGradient id="paint0_linear_549_9104" x1="1349.42" y1="301.441" x2="1864.61" y2="788.293" gradientUnits="userSpaceOnUse">
<stop stop-color="#5BA3D1"/>
<stop offset="1" stop-color="#5BA3D1" stop-opacity="0"/>
</linearGradient>
<linearGradient id="paint1_linear_549_9104" x1="1365.17" y1="363.872" x2="1778.97" y2="725.785" gradientUnits="userSpaceOnUse">
<stop stop-color="#5BA3D1"/>
<stop offset="1" stop-color="#5BA3D1" stop-opacity="0"/>
</linearGradient>
<linearGradient id="paint2_linear_549_9104" x1="1450.44" y1="407" x2="1741.39" y2="653.758" gradientUnits="userSpaceOnUse">
<stop stop-color="#5BA3D1"/>
<stop offset="1" stop-color="#5BA3D1" stop-opacity="0"/>
</linearGradient>
<clipPath id="clip0_549_9104">
<rect width="1920" height="638" fill="white"/>
</clipPath>
</defs>
</svg>
