<svg width="1920" height="700" viewBox="0 0 1920 700" fill="none" xmlns="http://www.w3.org/2000/svg">
<g clip-path="url(#clip0_397_12639)">
<rect width="1920" height="700" fill="#01011C"/>
<g opacity="0.04" filter="url(#filter0_d_397_12639)">
<rect x="514" y="-57" width="2171" height="1135" rx="561.934" fill="#060B43"/>
</g>
<g opacity="0.08" filter="url(#filter1_d_397_12639)">
<rect x="664" y="32" width="1871" height="958" rx="479" fill="#060B43"/>
</g>
<g opacity="0.2" filter="url(#filter2_d_397_12639)">
<rect x="799" y="99" width="1601" height="824" rx="412" fill="#060B43"/>
</g>
<g opacity="0.2" filter="url(#filter3_d_397_12639)">
<rect x="908" y="168" width="1384" height="685" rx="342.5" fill="#060B43"/>
</g>
<g opacity="0.2" filter="url(#filter4_d_397_12639)">
<rect x="1024" y="232" width="1152" height="558" rx="279" fill="#060B43"/>
</g>
<g opacity="0.2" filter="url(#filter5_d_397_12639)">
<rect x="1135" y="283" width="930" height="456" rx="228" fill="url(#paint0_linear_397_12639)" shape-rendering="crispEdges"/>
</g>
<g opacity="0.2" filter="url(#filter6_d_397_12639)">
<rect x="1250" y="351" width="700" height="319" rx="159.5" fill="url(#paint1_linear_397_12639)" shape-rendering="crispEdges"/>
</g>
<g opacity="0.4" filter="url(#filter7_d_397_12639)">
<rect x="1347" y="407" width="505" height="208" rx="104" fill="url(#paint2_linear_397_12639)" shape-rendering="crispEdges"/>
</g>
<g filter="url(#filter8_d_397_12639)">
<path d="M1415 510.292C1415 484.726 1435.73 464 1461.29 464H1737.71C1763.27 464 1784 484.726 1784 510.292V510.292C1784 535.859 1763.27 556.585 1737.71 556.585H1461.29C1435.73 556.585 1415 535.859 1415 510.292V510.292Z" fill="white" shape-rendering="crispEdges"/>
<path d="M1461.29 465.5H1737.71C1762.45 465.5 1782.5 485.554 1782.5 510.292C1782.5 535.03 1762.45 555.085 1737.71 555.085H1461.29C1436.55 555.085 1416.5 535.03 1416.5 510.292C1416.5 485.554 1436.55 465.5 1461.29 465.5Z" stroke="#74C1EF" stroke-width="3" shape-rendering="crispEdges"/>
<g clip-path="url(#clip1_397_12639)">
<path d="M1493.61 512.811C1493.04 512.37 1492.37 512.066 1491.66 511.925C1490.95 511.783 1490.21 511.807 1489.51 511.996L1481.44 513.851C1481.63 513.058 1481.64 512.233 1481.46 511.437C1481.28 510.641 1480.93 509.896 1480.42 509.256C1479.92 508.617 1479.27 508.101 1478.54 507.745C1477.81 507.39 1477 507.206 1476.19 507.206H1466.53C1465.72 507.204 1464.92 507.363 1464.17 507.673C1463.42 507.983 1462.74 508.439 1462.17 509.013L1457.8 513.379H1452.27C1451.45 513.379 1450.66 513.704 1450.09 514.283C1449.51 514.861 1449.18 515.646 1449.18 516.465V524.18C1449.18 524.999 1449.51 525.784 1450.09 526.363C1450.66 526.942 1451.45 527.267 1452.27 527.267H1472.33C1472.45 527.267 1472.58 527.251 1472.7 527.22L1485.05 524.134C1485.13 524.115 1485.2 524.09 1485.28 524.057L1492.77 520.867L1492.86 520.828C1493.58 520.468 1494.2 519.93 1494.65 519.266C1495.11 518.601 1495.39 517.832 1495.46 517.03C1495.54 516.228 1495.41 515.42 1495.09 514.682C1494.76 513.944 1494.26 513.3 1493.62 512.811H1493.61ZM1452.27 516.465H1456.9V524.18H1452.27V516.465ZM1491.51 518.048L1484.18 521.169L1472.14 524.18H1459.98V515.56L1464.35 511.197C1464.63 510.909 1464.97 510.681 1465.35 510.526C1465.72 510.37 1466.12 510.291 1466.53 510.292H1476.19C1476.8 510.292 1477.39 510.536 1477.82 510.97C1478.26 511.404 1478.5 511.993 1478.5 512.607C1478.5 513.221 1478.26 513.81 1477.82 514.244C1477.39 514.678 1476.8 514.922 1476.19 514.922H1470.79C1470.38 514.922 1469.98 515.084 1469.69 515.374C1469.4 515.663 1469.24 516.056 1469.24 516.465C1469.24 516.874 1469.4 517.267 1469.69 517.556C1469.98 517.845 1470.38 518.008 1470.79 518.008H1476.96C1477.07 518.008 1477.19 517.995 1477.3 517.969L1490.23 514.997L1490.29 514.981C1490.68 514.872 1491.1 514.912 1491.47 515.094C1491.84 515.277 1492.12 515.588 1492.27 515.969C1492.42 516.349 1492.43 516.772 1492.29 517.156C1492.14 517.54 1491.86 517.858 1491.5 518.048H1491.51ZM1480.82 504.12C1481.2 504.12 1481.58 504.089 1481.95 504.027C1482.38 505.284 1483.15 506.393 1484.18 507.224C1485.22 508.055 1486.47 508.572 1487.79 508.715C1489.1 508.858 1490.44 508.621 1491.62 508.031C1492.81 507.441 1493.81 506.523 1494.49 505.386C1495.17 504.249 1495.51 502.941 1495.48 501.615C1495.44 500.29 1495.02 499.002 1494.28 497.906C1493.53 496.81 1492.49 495.95 1491.27 495.428C1490.05 494.906 1488.71 494.744 1487.4 494.961C1486.99 493.75 1486.26 492.675 1485.28 491.855C1484.3 491.034 1483.11 490.499 1481.85 490.309C1480.58 490.119 1479.29 490.281 1478.12 490.778C1476.94 491.274 1475.92 492.086 1475.18 493.123C1474.43 494.161 1473.99 495.384 1473.89 496.658C1473.8 497.932 1474.05 499.208 1474.64 500.344C1475.22 501.481 1476.1 502.435 1477.2 503.101C1478.29 503.767 1479.54 504.12 1480.82 504.12ZM1492.39 501.805C1492.39 502.568 1492.16 503.314 1491.74 503.948C1491.32 504.583 1490.71 505.077 1490.01 505.369C1489.3 505.661 1488.53 505.738 1487.78 505.589C1487.03 505.44 1486.34 505.073 1485.8 504.533C1485.26 503.993 1484.9 503.306 1484.75 502.558C1484.6 501.809 1484.68 501.034 1484.97 500.329C1485.26 499.624 1485.75 499.021 1486.39 498.597C1487.02 498.174 1487.77 497.947 1488.53 497.947C1489.55 497.947 1490.54 498.354 1491.26 499.077C1491.98 499.801 1492.39 500.782 1492.39 501.805ZM1480.82 493.318C1481.66 493.318 1482.48 493.594 1483.15 494.103C1483.82 494.612 1484.3 495.326 1484.53 496.136C1483.74 496.692 1483.07 497.407 1482.57 498.235C1482.08 499.063 1481.76 499.986 1481.64 500.945C1481.37 501.003 1481.09 501.033 1480.82 501.034C1479.79 501.034 1478.81 500.627 1478.09 499.904C1477.36 499.18 1476.96 498.199 1476.96 497.176C1476.96 496.153 1477.36 495.171 1478.09 494.448C1478.81 493.724 1479.79 493.318 1480.82 493.318Z" fill="black"/>
</g>
<path d="M1510.07 520.792V500.712H1523.73L1523.72 504.1H1514.15V509.141H1522.44V512.46H1514.15V520.792H1510.07ZM1526.63 520.792V506.433H1530.5V520.792H1526.63ZM1526.59 504.378V500.725H1530.53V504.378H1526.59ZM1534.07 520.792V506.433H1538.06V508.461C1538.28 508.109 1538.57 507.771 1538.92 507.447C1539.28 507.114 1539.74 506.84 1540.28 506.628C1540.83 506.415 1541.48 506.308 1542.23 506.308C1543.11 506.308 1543.92 506.479 1544.68 506.822C1545.45 507.164 1546.07 507.706 1546.54 508.447C1547.02 509.178 1547.25 510.136 1547.25 511.321V520.792H1543.2V511.821C1543.2 511.044 1542.97 510.46 1542.5 510.072C1542.04 509.683 1541.48 509.488 1540.81 509.488C1540.36 509.488 1539.93 509.567 1539.52 509.724C1539.11 509.882 1538.78 510.118 1538.52 510.433C1538.26 510.747 1538.13 511.136 1538.13 511.599V520.792H1534.07ZM1554.69 521.07C1553.79 521.07 1552.96 520.899 1552.22 520.556C1551.49 520.214 1550.91 519.719 1550.48 519.07C1550.06 518.413 1549.85 517.617 1549.85 516.682C1549.85 515.108 1550.43 513.914 1551.61 513.099C1552.79 512.275 1554.64 511.849 1557.18 511.821L1558.98 511.794V510.933C1558.98 510.275 1558.79 509.771 1558.4 509.419C1558.02 509.058 1557.42 508.882 1556.61 508.891C1556.03 508.9 1555.47 509.039 1554.93 509.308C1554.4 509.576 1554.04 510.044 1553.83 510.71H1550.46C1550.51 509.673 1550.81 508.822 1551.36 508.155C1551.92 507.479 1552.66 506.979 1553.6 506.655C1554.53 506.322 1555.6 506.155 1556.8 506.155C1558.27 506.155 1559.44 506.341 1560.33 506.711C1561.22 507.072 1561.86 507.595 1562.26 508.28C1562.67 508.956 1562.87 509.761 1562.87 510.696V520.792H1559.48L1559.15 518.321C1558.66 519.357 1558.04 520.075 1557.3 520.473C1556.57 520.871 1555.7 521.07 1554.69 521.07ZM1556.07 518.404C1556.43 518.404 1556.78 518.339 1557.12 518.209C1557.47 518.071 1557.79 517.89 1558.07 517.668C1558.35 517.436 1558.56 517.177 1558.72 516.89C1558.89 516.603 1558.97 516.307 1558.98 516.001V513.877L1557.53 513.904C1556.85 513.914 1556.22 513.997 1555.64 514.154C1555.05 514.303 1554.58 514.548 1554.22 514.89C1553.87 515.233 1553.69 515.696 1553.69 516.279C1553.69 516.946 1553.92 517.469 1554.37 517.848C1554.84 518.219 1555.4 518.404 1556.07 518.404ZM1566.16 520.792V506.433H1570.15V508.461C1570.37 508.109 1570.66 507.771 1571.01 507.447C1571.37 507.114 1571.82 506.84 1572.37 506.628C1572.91 506.415 1573.56 506.308 1574.31 506.308C1575.19 506.308 1576.01 506.479 1576.77 506.822C1577.54 507.164 1578.16 507.706 1578.63 508.447C1579.1 509.178 1579.34 510.136 1579.34 511.321V520.792H1575.28V511.821C1575.28 511.044 1575.05 510.46 1574.59 510.072C1574.13 509.683 1573.56 509.488 1572.9 509.488C1572.45 509.488 1572.02 509.567 1571.6 509.724C1571.2 509.882 1570.86 510.118 1570.6 510.433C1570.35 510.747 1570.22 511.136 1570.22 511.599V520.792H1566.16ZM1588.87 521.07C1587.54 521.07 1586.35 520.774 1585.31 520.181C1584.26 519.589 1583.44 518.742 1582.83 517.64C1582.24 516.529 1581.94 515.205 1581.94 513.668C1581.94 512.187 1582.23 510.882 1582.81 509.752C1583.38 508.623 1584.18 507.743 1585.22 507.114C1586.27 506.475 1587.49 506.155 1588.87 506.155C1590.08 506.155 1591.11 506.401 1591.98 506.891C1592.86 507.382 1593.55 508.044 1594.05 508.877C1594.56 509.71 1594.85 510.641 1594.93 511.669H1591.55C1591.49 511.289 1591.36 510.914 1591.15 510.544C1590.95 510.164 1590.66 509.854 1590.29 509.613C1589.92 509.363 1589.46 509.238 1588.9 509.238C1587.96 509.238 1587.19 509.604 1586.6 510.335C1586.01 511.058 1585.72 512.159 1585.72 513.641C1585.72 515.039 1586.01 516.15 1586.58 516.973C1587.16 517.788 1587.96 518.196 1588.99 518.196C1589.53 518.196 1589.99 518.061 1590.35 517.793C1590.72 517.524 1591 517.205 1591.21 516.835C1591.41 516.455 1591.54 516.103 1591.6 515.779H1594.89C1594.82 516.77 1594.54 517.668 1594.03 518.473C1593.52 519.27 1592.82 519.904 1591.94 520.376C1591.07 520.839 1590.05 521.07 1588.87 521.07ZM1597.77 520.792V506.433H1601.65V520.792H1597.77ZM1597.73 504.378V500.725H1601.68V504.378H1597.73ZM1609.4 521.07C1608.49 521.07 1607.67 520.899 1606.93 520.556C1606.2 520.214 1605.62 519.719 1605.19 519.07C1604.77 518.413 1604.55 517.617 1604.55 516.682C1604.55 515.108 1605.14 513.914 1606.32 513.099C1607.49 512.275 1609.35 511.849 1611.89 511.821L1613.69 511.794V510.933C1613.69 510.275 1613.5 509.771 1613.11 509.419C1612.73 509.058 1612.13 508.882 1611.32 508.891C1610.73 508.9 1610.17 509.039 1609.64 509.308C1609.11 509.576 1608.74 510.044 1608.54 510.71H1605.17C1605.22 509.673 1605.52 508.822 1606.07 508.155C1606.62 507.479 1607.37 506.979 1608.3 506.655C1609.24 506.322 1610.31 506.155 1611.51 506.155C1612.97 506.155 1614.15 506.341 1615.04 506.711C1615.93 507.072 1616.57 507.595 1616.97 508.28C1617.38 508.956 1617.58 509.761 1617.58 510.696V520.792H1614.19L1613.86 518.321C1613.37 519.357 1612.75 520.075 1612.01 520.473C1611.28 520.871 1610.41 521.07 1609.4 521.07ZM1610.78 518.404C1611.14 518.404 1611.49 518.339 1611.83 518.209C1612.18 518.071 1612.5 517.89 1612.78 517.668C1613.05 517.436 1613.27 517.177 1613.43 516.89C1613.59 516.603 1613.68 516.307 1613.69 516.001V513.877L1612.23 513.904C1611.56 513.914 1610.93 513.997 1610.35 514.154C1609.76 514.303 1609.29 514.548 1608.93 514.89C1608.58 515.233 1608.4 515.696 1608.4 516.279C1608.4 516.946 1608.63 517.469 1609.08 517.848C1609.54 518.219 1610.11 518.404 1610.78 518.404ZM1625.45 521.042C1624.4 521.042 1623.56 520.917 1622.94 520.667C1622.32 520.418 1621.86 520.089 1621.56 519.682C1621.27 519.265 1621.08 518.807 1620.99 518.307C1620.91 517.797 1620.87 517.284 1620.87 516.765V500.156H1624.84V516.265C1624.84 516.793 1624.95 517.223 1625.17 517.557C1625.41 517.881 1625.84 518.08 1626.47 518.154L1627.15 518.196V520.695C1626.87 520.788 1626.59 520.867 1626.3 520.931C1626.01 521.005 1625.73 521.042 1625.45 521.042ZM1644.32 521.07C1643.32 521.07 1642.34 520.945 1641.39 520.695C1640.43 520.445 1639.56 520.07 1638.77 519.57C1637.99 519.07 1637.34 518.446 1636.83 517.696C1636.33 516.946 1636.03 516.066 1635.93 515.057H1640.08C1640.22 515.668 1640.48 516.182 1640.87 516.599C1641.27 517.015 1641.78 517.335 1642.4 517.557C1643.03 517.779 1643.75 517.89 1644.55 517.89C1645.19 517.89 1645.8 517.797 1646.37 517.612C1646.95 517.427 1647.41 517.145 1647.77 516.765C1648.13 516.386 1648.32 515.909 1648.32 515.335C1648.32 514.65 1648.07 514.136 1647.57 513.793C1647.07 513.442 1646.39 513.164 1645.52 512.96L1641.76 512.141C1640.7 511.919 1639.77 511.576 1638.97 511.113C1638.18 510.641 1637.58 510.03 1637.15 509.28C1636.72 508.521 1636.51 507.6 1636.51 506.516C1636.51 505.267 1636.85 504.188 1637.54 503.281C1638.23 502.373 1639.17 501.679 1640.36 501.198C1641.55 500.707 1642.89 500.462 1644.37 500.462C1646.05 500.462 1647.46 500.735 1648.61 501.281C1649.76 501.818 1650.65 502.549 1651.26 503.475C1651.87 504.392 1652.18 505.415 1652.19 506.544H1648.13C1648.06 505.85 1647.85 505.294 1647.5 504.878C1647.14 504.452 1646.69 504.146 1646.14 503.961C1645.59 503.767 1644.96 503.67 1644.26 503.67C1643.05 503.67 1642.16 503.915 1641.61 504.406C1641.05 504.896 1640.77 505.466 1640.77 506.114C1640.77 506.725 1640.98 507.22 1641.4 507.6C1641.83 507.97 1642.51 508.252 1643.44 508.447L1646.93 509.197C1648.22 509.447 1649.27 509.845 1650.08 510.391C1650.88 510.928 1651.47 511.581 1651.84 512.349C1652.21 513.117 1652.4 513.978 1652.4 514.932C1652.4 516.145 1652.05 517.214 1651.36 518.14C1650.67 519.057 1649.72 519.774 1648.51 520.293C1647.3 520.811 1645.9 521.07 1644.32 521.07ZM1661.94 521.07C1660.51 521.07 1659.26 520.774 1658.18 520.181C1657.1 519.58 1656.26 518.733 1655.66 517.64C1655.06 516.548 1654.76 515.261 1654.76 513.779C1654.76 512.344 1655.03 511.053 1655.58 509.905C1656.13 508.748 1656.93 507.836 1657.97 507.169C1659 506.493 1660.26 506.155 1661.73 506.155C1663.19 506.155 1664.42 506.465 1665.41 507.086C1666.4 507.697 1667.15 508.553 1667.66 509.655C1668.17 510.747 1668.42 512.011 1668.42 513.446V514.543H1658.77C1658.77 515.275 1658.89 515.913 1659.13 516.46C1659.37 516.997 1659.72 517.413 1660.18 517.71C1660.64 517.997 1661.19 518.14 1661.84 518.14C1662.54 518.14 1663.14 517.992 1663.66 517.696C1664.18 517.399 1664.55 516.913 1664.76 516.237H1668.41C1668.24 517.256 1667.84 518.126 1667.19 518.848C1666.54 519.57 1665.75 520.121 1664.83 520.501C1663.9 520.88 1662.94 521.07 1661.94 521.07ZM1658.77 512.127H1664.63C1664.63 511.553 1664.52 511.025 1664.3 510.544C1664.09 510.062 1663.76 509.683 1663.33 509.405C1662.9 509.127 1662.37 508.988 1661.72 508.988C1661.1 508.988 1660.56 509.141 1660.12 509.447C1659.69 509.743 1659.35 510.132 1659.11 510.613C1658.88 511.095 1658.76 511.599 1658.77 512.127ZM1671.35 520.792V506.433H1675.25V509.835C1675.48 509.104 1675.8 508.465 1676.22 507.919C1676.65 507.364 1677.16 506.933 1677.76 506.628C1678.36 506.313 1679.04 506.155 1679.8 506.155C1679.93 506.155 1680.05 506.165 1680.16 506.183C1680.28 506.192 1680.37 506.211 1680.43 506.239V510.099C1680.34 510.062 1680.24 510.039 1680.12 510.03C1680.01 510.021 1679.91 510.011 1679.82 510.002C1679.02 509.937 1678.34 509.96 1677.78 510.072C1677.21 510.183 1676.75 510.372 1676.4 510.641C1676.05 510.909 1675.79 511.238 1675.64 511.627C1675.48 512.016 1675.4 512.451 1675.4 512.932V520.792H1671.35ZM1687.12 520.792L1681.73 506.433H1685.4L1688.53 515.585H1688.65L1691.74 506.433H1695.45L1690.06 520.792H1687.12ZM1697.59 520.792V506.433H1701.46V520.792H1697.59ZM1697.55 504.378V500.725H1701.49V504.378H1697.55ZM1711.2 521.07C1709.87 521.07 1708.68 520.774 1707.63 520.181C1706.59 519.589 1705.76 518.742 1705.16 517.64C1704.57 516.529 1704.27 515.205 1704.27 513.668C1704.27 512.187 1704.56 510.882 1705.13 509.752C1705.71 508.623 1706.51 507.743 1707.55 507.114C1708.6 506.475 1709.81 506.155 1711.2 506.155C1712.4 506.155 1713.44 506.401 1714.31 506.891C1715.19 507.382 1715.88 508.044 1716.38 508.877C1716.89 509.71 1717.18 510.641 1717.26 511.669H1713.88C1713.82 511.289 1713.68 510.914 1713.48 510.544C1713.28 510.164 1712.99 509.854 1712.62 509.613C1712.25 509.363 1711.78 509.238 1711.23 509.238C1710.28 509.238 1709.52 509.604 1708.92 510.335C1708.34 511.058 1708.05 512.159 1708.05 513.641C1708.05 515.039 1708.34 516.15 1708.91 516.973C1709.48 517.788 1710.28 518.196 1711.31 518.196C1711.86 518.196 1712.31 518.061 1712.67 517.793C1713.04 517.524 1713.33 517.205 1713.53 516.835C1713.74 516.455 1713.87 516.103 1713.92 515.779H1717.21C1717.15 516.77 1716.86 517.668 1716.35 518.473C1715.84 519.27 1715.15 519.904 1714.27 520.376C1713.4 520.839 1712.38 521.07 1711.2 521.07ZM1726.71 521.07C1725.28 521.07 1724.03 520.774 1722.95 520.181C1721.87 519.58 1721.04 518.733 1720.43 517.64C1719.83 516.548 1719.53 515.261 1719.53 513.779C1719.53 512.344 1719.8 511.053 1720.35 509.905C1720.91 508.748 1721.7 507.836 1722.74 507.169C1723.78 506.493 1725.03 506.155 1726.5 506.155C1727.96 506.155 1729.19 506.465 1730.18 507.086C1731.17 507.697 1731.92 508.553 1732.43 509.655C1732.94 510.747 1733.2 512.011 1733.2 513.446V514.543H1723.54C1723.54 515.275 1723.66 515.913 1723.91 516.46C1724.15 516.997 1724.49 517.413 1724.95 517.71C1725.41 517.997 1725.97 518.14 1726.61 518.14C1727.31 518.14 1727.91 517.992 1728.43 517.696C1728.95 517.399 1729.32 516.913 1729.53 516.237H1733.18C1733.02 517.256 1732.61 518.126 1731.96 518.848C1731.31 519.57 1730.52 520.121 1729.6 520.501C1728.67 520.88 1727.71 521.07 1726.71 521.07ZM1723.54 512.127H1729.4C1729.4 511.553 1729.29 511.025 1729.07 510.544C1728.86 510.062 1728.53 509.683 1728.1 509.405C1727.67 509.127 1727.14 508.988 1726.49 508.988C1725.87 508.988 1725.34 509.141 1724.89 509.447C1724.46 509.743 1724.12 510.132 1723.88 510.613C1723.65 511.095 1723.53 511.599 1723.54 512.127ZM1741.87 521.07C1740.87 521.07 1739.9 520.908 1738.98 520.584C1738.06 520.251 1737.28 519.732 1736.63 519.029C1735.99 518.316 1735.59 517.395 1735.42 516.265H1738.92C1739.05 516.774 1739.27 517.177 1739.59 517.473C1739.91 517.77 1740.28 517.983 1740.69 518.112C1741.09 518.233 1741.48 518.293 1741.85 518.293C1742.63 518.293 1743.26 518.172 1743.73 517.932C1744.21 517.682 1744.45 517.302 1744.45 516.793C1744.45 516.404 1744.31 516.094 1744.02 515.863C1743.74 515.631 1743.28 515.455 1742.63 515.335L1740.1 514.807C1738.83 514.539 1737.81 514.085 1737.03 513.446C1736.27 512.798 1735.88 511.882 1735.87 510.696C1735.86 509.835 1736.08 509.062 1736.53 508.377C1737 507.692 1737.68 507.151 1738.58 506.752C1739.48 506.354 1740.59 506.155 1741.89 506.155C1743.66 506.155 1745.07 506.544 1746.13 507.322C1747.19 508.1 1747.74 509.197 1747.75 510.613H1744.37C1744.26 510.058 1743.99 509.632 1743.53 509.336C1743.09 509.03 1742.52 508.877 1741.84 508.877C1741.14 508.877 1740.57 509.002 1740.12 509.252C1739.66 509.502 1739.44 509.882 1739.44 510.391C1739.44 510.771 1739.62 511.071 1739.99 511.294C1740.36 511.507 1740.94 511.692 1741.71 511.849L1744.05 512.377C1744.85 512.571 1745.51 512.84 1746.01 513.182C1746.51 513.516 1746.91 513.881 1747.19 514.279C1747.46 514.677 1747.65 515.08 1747.75 515.488C1747.87 515.886 1747.92 516.247 1747.92 516.571C1747.92 517.524 1747.67 518.339 1747.16 519.015C1746.65 519.682 1745.94 520.191 1745.03 520.543C1744.13 520.894 1743.07 521.07 1741.87 521.07Z" fill="#1F1F1F"/>
</g>
<g opacity="0.6">
<path fill-rule="evenodd" clip-rule="evenodd" d="M1680.98 367.412C1675.52 367.412 1668.11 363.583 1661.76 357.231C1654.16 349.635 1650.17 340.512 1652.04 335.048C1652.1 334.879 1652.24 334.737 1652.4 334.684C1652.58 334.622 1652.77 334.639 1652.93 334.737C1653.25 334.933 1653.61 335.039 1653.99 335.039C1655.11 335.039 1656.03 334.115 1656.03 332.987C1656.03 332.614 1655.93 332.25 1655.74 331.93C1655.64 331.77 1655.62 331.583 1655.68 331.406C1655.75 331.237 1655.88 331.104 1656.05 331.041C1661.51 329.167 1670.63 333.165 1678.23 340.769C1685.83 348.365 1689.82 357.489 1687.96 362.952C1687.9 363.121 1687.76 363.263 1687.59 363.317C1687.42 363.379 1687.23 363.361 1687.07 363.263C1686.75 363.068 1686.39 362.961 1686 362.961C1684.88 362.961 1683.96 363.885 1683.96 365.005C1683.96 365.387 1684.07 365.751 1684.26 366.071C1684.36 366.231 1684.38 366.417 1684.32 366.595C1684.25 366.764 1684.12 366.897 1683.95 366.959C1683.05 367.27 1682.05 367.412 1680.98 367.412ZM1653 336.087C1651.81 341.134 1655.75 349.511 1662.61 356.387C1669.49 363.254 1677.86 367.19 1682.92 366C1682.81 365.68 1682.76 365.351 1682.76 365.005C1682.76 363.219 1684.22 361.762 1686 361.762C1686.35 361.762 1686.69 361.815 1687.01 361.913C1688.19 356.858 1684.25 348.489 1677.39 341.613C1670.51 334.746 1662.13 330.81 1657.09 331.992C1657.18 332.312 1657.24 332.649 1657.24 332.987C1657.24 334.782 1655.78 336.239 1653.99 336.239C1653.65 336.239 1653.32 336.185 1653 336.087Z" fill="white"/>
<path fill-rule="evenodd" clip-rule="evenodd" d="M1659.02 367.412C1657.95 367.412 1656.95 367.261 1656.06 366.959C1655.88 366.897 1655.75 366.764 1655.68 366.595C1655.62 366.417 1655.64 366.231 1655.74 366.071C1655.93 365.751 1656.04 365.387 1656.04 365.005C1656.04 363.876 1655.12 362.961 1654 362.961C1653.61 362.961 1653.25 363.068 1652.93 363.263C1652.77 363.361 1652.58 363.379 1652.41 363.317C1652.24 363.254 1652.1 363.121 1652.04 362.952C1650.17 357.489 1654.17 348.365 1661.77 340.769C1669.37 333.165 1678.49 329.167 1683.95 331.041C1684.12 331.104 1684.26 331.237 1684.32 331.406C1684.38 331.583 1684.36 331.77 1684.26 331.93C1684.07 332.25 1683.96 332.614 1683.96 332.987C1683.96 334.115 1684.89 335.03 1686 335.03C1686.39 335.03 1686.75 334.933 1687.07 334.737C1687.23 334.639 1687.43 334.622 1687.6 334.684C1687.76 334.746 1687.9 334.879 1687.96 335.048C1689.83 340.512 1685.84 349.635 1678.23 357.231C1671.89 363.583 1664.48 367.412 1659.02 367.412ZM1657.09 366C1662.13 367.19 1670.51 363.254 1677.39 356.387C1684.25 349.511 1688.19 341.134 1687 336.087C1686.68 336.185 1686.35 336.239 1686 336.239C1684.22 336.239 1682.76 334.782 1682.76 332.996C1682.76 332.658 1682.82 332.321 1682.91 332.001C1677.87 330.819 1669.49 334.746 1662.61 341.613C1655.75 348.489 1651.81 356.867 1653 361.913C1653.32 361.815 1653.65 361.762 1654 361.762C1655.78 361.762 1657.24 363.219 1657.24 365.005C1657.24 365.351 1657.19 365.68 1657.09 366Z" fill="white"/>
<path fill-rule="evenodd" clip-rule="evenodd" d="M1653.99 336.238C1652.2 336.238 1650.74 334.781 1650.74 332.987C1650.74 331.201 1652.2 329.744 1653.99 329.744C1655.78 329.744 1657.24 331.201 1657.24 332.987C1657.24 334.781 1655.78 336.238 1653.99 336.238Z" fill="white"/>
<path fill-rule="evenodd" clip-rule="evenodd" d="M1686 336.238C1684.22 336.238 1682.76 334.781 1682.76 332.987C1682.76 331.201 1684.22 329.744 1686 329.744C1687.8 329.744 1689.26 331.201 1689.26 332.987C1689.26 334.781 1687.8 336.238 1686 336.238Z" fill="white"/>
<path fill-rule="evenodd" clip-rule="evenodd" d="M1686 368.256C1684.22 368.256 1682.76 366.799 1682.76 365.004C1682.76 363.219 1684.22 361.762 1686 361.762C1687.8 361.762 1689.26 363.219 1689.26 365.004C1689.26 366.799 1687.8 368.256 1686 368.256Z" fill="white"/>
<path fill-rule="evenodd" clip-rule="evenodd" d="M1653.99 368.256C1652.2 368.256 1650.74 366.799 1650.74 365.004C1650.74 363.219 1652.2 361.762 1653.99 361.762C1655.78 361.762 1657.24 363.219 1657.24 365.004C1657.24 366.799 1655.78 368.256 1653.99 368.256Z" fill="white"/>
<path fill-rule="evenodd" clip-rule="evenodd" d="M1662.35 345.149C1662.35 342.946 1665.63 341.293 1669.99 341.293C1674.37 341.293 1677.65 342.946 1677.65 345.149C1677.65 347.352 1674.37 349.005 1669.99 349.005C1665.63 349.005 1662.35 347.352 1662.35 345.149Z" fill="white"/>
<path fill-rule="evenodd" clip-rule="evenodd" d="M1669.99 352.86C1665.63 352.86 1662.35 351.199 1662.35 348.996C1662.35 348.471 1662.54 347.965 1662.9 347.512C1663.39 347.965 1663.97 348.312 1664.56 348.578C1666.21 349.333 1668.19 349.609 1669.99 349.609C1671.81 349.609 1673.79 349.333 1675.44 348.578C1676.03 348.312 1676.61 347.965 1677.1 347.512C1677.46 347.965 1677.65 348.471 1677.65 348.996C1677.65 351.199 1674.37 352.86 1669.99 352.86Z" fill="white"/>
<path fill-rule="evenodd" clip-rule="evenodd" d="M1669.99 356.707C1665.63 356.707 1662.35 355.055 1662.35 352.851C1662.35 352.318 1662.54 351.821 1662.9 351.368C1663.39 351.812 1663.97 352.167 1664.56 352.434C1666.21 353.18 1668.19 353.456 1669.99 353.456C1671.81 353.456 1673.79 353.18 1675.44 352.434C1676.03 352.167 1676.61 351.812 1677.1 351.368C1677.46 351.821 1677.65 352.318 1677.65 352.851C1677.65 355.055 1674.37 356.707 1669.99 356.707ZM1669.54 348.996H1669.99H1670.46C1670.31 349.005 1670.15 349.005 1669.99 349.005C1669.84 349.005 1669.69 349.005 1669.54 348.996Z" fill="white"/>
</g>
<g opacity="0.1">
<path d="M1657.29 105.529C1657.94 105.299 1658.37 104.684 1658.37 104C1658.37 103.316 1657.94 102.701 1657.3 102.47L1654.35 101.407C1651.43 100.357 1649.16 98.083 1648.11 95.1696L1647.05 92.2191C1646.81 91.5774 1646.2 91.1448 1645.52 91.1448C1644.84 91.1448 1644.22 91.5761 1643.99 92.2191L1642.93 95.1696C1641.87 98.0843 1639.6 100.357 1636.69 101.407L1633.74 102.47C1633.09 102.702 1632.66 103.316 1632.66 104C1632.66 104.684 1633.09 105.298 1633.74 105.529L1636.69 106.593C1639.6 107.642 1641.87 109.915 1642.92 112.83L1643.99 115.782C1644.22 116.423 1644.83 116.855 1645.52 116.855C1646.2 116.855 1646.82 116.422 1647.05 115.78L1648.11 112.83C1649.16 109.917 1651.43 107.644 1654.35 106.593L1657.29 105.529ZM1653.45 104.103C1649.79 105.421 1646.94 108.275 1645.62 111.933L1645.52 112.219L1645.41 111.933C1644.09 108.275 1641.24 105.421 1637.58 104.103L1637.3 104L1637.58 103.897C1641.24 102.579 1644.1 99.7249 1645.41 96.0666L1645.52 95.7808L1645.62 96.0666C1646.94 99.7249 1649.79 102.579 1653.45 103.897L1653.73 104L1653.45 104.103Z" fill="white"/>
<path d="M1652.75 92.7049L1654.25 93.2433C1655.54 93.7091 1656.55 94.7173 1657.01 96.0086L1657.55 97.501C1657.76 98.0858 1658.32 98.4788 1658.94 98.4788C1659.56 98.4788 1660.12 98.0858 1660.33 97.5023L1660.87 96.0086C1661.33 94.7159 1662.34 93.7077 1663.63 93.2433L1665.13 92.7049C1665.71 92.4945 1666.1 91.9375 1666.1 91.3196C1666.1 90.7017 1665.71 90.1421 1665.13 89.9277L1663.63 89.3892C1662.34 88.9235 1661.33 87.9153 1660.87 86.624L1660.33 85.1302C1660.12 84.5454 1659.56 84.1538 1658.94 84.1538C1658.32 84.1538 1657.76 84.5468 1657.55 85.1302L1657.01 86.624C1656.55 87.9166 1655.54 88.9235 1654.25 89.3892L1652.75 89.929C1652.17 90.1407 1651.78 90.7004 1651.78 91.3196C1651.78 91.9388 1652.17 92.4958 1652.75 92.7049ZM1658.94 88.725C1659.57 89.7994 1660.46 90.6898 1661.53 91.3156C1660.46 91.9428 1659.57 92.8332 1658.94 93.9062C1658.31 92.8332 1657.42 91.9414 1656.35 91.3156C1657.42 90.6885 1658.31 89.7981 1658.94 88.725Z" fill="white"/>
<path d="M1665.13 115.295L1663.63 114.757C1662.34 114.291 1661.33 113.283 1660.87 111.991L1660.33 110.498C1660.12 109.914 1659.56 109.521 1658.94 109.521C1658.32 109.521 1657.76 109.914 1657.55 110.498L1657.01 111.991C1656.55 113.284 1655.54 114.292 1654.25 114.757L1652.75 115.294C1652.17 115.503 1651.78 116.061 1651.78 116.68C1651.77 117.3 1652.16 117.859 1652.75 118.072L1654.25 118.611C1655.54 119.076 1656.55 120.083 1657.01 121.376L1657.55 122.868C1657.76 123.453 1658.32 123.846 1658.94 123.846C1659.56 123.846 1660.12 123.453 1660.33 122.87L1660.87 121.376C1661.33 120.085 1662.34 119.076 1663.63 118.611L1665.13 118.071C1665.71 117.858 1666.1 117.3 1666.1 116.68C1666.1 116.061 1665.71 115.506 1665.13 115.295ZM1658.94 119.275C1658.31 118.201 1657.42 117.31 1656.35 116.684C1657.42 116.057 1658.31 115.167 1658.94 114.094C1659.57 115.167 1660.46 116.059 1661.53 116.684C1660.46 117.312 1659.57 118.202 1658.94 119.275Z" fill="white"/>
</g>
<g opacity="0.05">
<path d="M887.786 351.529C888.43 351.299 888.863 350.684 888.863 350C888.863 349.316 888.43 348.701 887.789 348.47L884.838 347.407C881.925 346.357 879.652 344.083 878.601 341.17L877.537 338.219C877.306 337.577 876.692 337.145 876.011 337.145C875.328 337.145 874.713 337.576 874.48 338.219L873.417 341.17C872.367 344.084 870.094 346.357 867.179 347.407L864.231 348.47C863.587 348.702 863.154 349.316 863.154 350C863.154 350.684 863.587 351.298 864.229 351.529L867.179 352.593C870.093 353.642 872.366 355.915 873.416 358.83L874.48 361.782C874.711 362.423 875.327 362.855 876.009 362.855C876.692 362.855 877.307 362.422 877.537 361.78L878.601 358.83C879.65 355.917 881.925 353.644 884.838 352.593L887.786 351.529ZM883.941 350.103C880.283 351.421 877.429 354.275 876.111 357.933L876.008 358.219L875.905 357.933C874.586 354.275 871.732 351.421 868.075 350.103L867.79 350L868.076 349.897C871.734 348.579 874.588 345.725 875.906 342.067L876.009 341.781L876.113 342.067C877.43 345.725 880.284 348.579 883.941 349.897L884.227 350L883.941 350.103Z" fill="white"/>
<path d="M883.246 338.705L884.74 339.243C886.032 339.709 887.039 340.717 887.505 342.009L888.042 343.501C888.252 344.086 888.811 344.479 889.431 344.479C890.052 344.479 890.612 344.086 890.821 343.502L891.359 342.009C891.825 340.716 892.833 339.708 894.124 339.243L895.619 338.705C896.2 338.494 896.593 337.937 896.594 337.32C896.596 336.702 896.207 336.142 895.619 335.928L894.124 335.389C892.833 334.924 891.825 333.915 891.359 332.624L890.821 331.13C890.61 330.545 890.053 330.154 889.433 330.154C888.811 330.154 888.252 330.547 888.043 331.13L887.505 332.624C887.039 333.917 886.031 334.924 884.74 335.389L883.242 335.929C882.66 336.141 882.268 336.7 882.27 337.32C882.271 337.939 882.664 338.496 883.246 338.705ZM889.433 334.725C890.06 335.799 890.95 336.69 892.023 337.316C890.949 337.943 890.058 338.833 889.433 339.906C888.806 338.833 887.915 337.941 886.842 337.316C887.915 336.688 888.806 335.798 889.433 334.725Z" fill="white"/>
<path d="M895.617 361.295L894.124 360.757C892.832 360.291 891.824 359.283 891.358 357.991L890.82 356.498C890.61 355.914 890.051 355.521 889.431 355.521C888.809 355.521 888.251 355.914 888.041 356.498L887.503 357.991C887.037 359.284 886.029 360.292 884.738 360.757L883.245 361.294C882.662 361.503 882.269 362.061 882.268 362.68C882.266 363.3 882.657 363.859 883.244 364.072L884.738 364.611C886.03 365.076 887.039 366.083 887.503 367.376L888.04 368.868C888.252 369.453 888.81 369.846 889.432 369.846C890.054 369.846 890.612 369.453 890.821 368.87L891.36 367.376C891.825 366.085 892.834 365.076 894.125 364.611L895.625 364.071C896.206 363.858 896.597 363.3 896.595 362.68C896.594 362.061 896.2 361.506 895.617 361.295ZM889.432 365.275C888.805 364.201 887.914 363.31 886.841 362.684C887.914 362.057 888.806 361.167 889.432 360.094C890.059 361.167 890.95 362.059 892.023 362.684C890.95 363.312 890.058 364.202 889.432 365.275Z" fill="white"/>
</g>
<g opacity="0.4">
<path d="M1158.06 472.223H1162.24C1162.82 472.223 1163.28 471.755 1163.28 471.178V466.996C1163.28 466.418 1162.82 465.95 1162.24 465.95H1158.06C1157.48 465.95 1157.01 466.418 1157.01 466.996V468.041H1152.48C1152.48 468.041 1152.47 465.943 1152.47 465.886C1152.47 464.755 1151.78 463.147 1148.45 461.908C1146.18 461.063 1143.19 460.597 1140.04 460.597C1136.88 460.597 1133.89 461.063 1131.62 461.908C1128.3 463.147 1127.6 464.755 1127.6 465.886C1127.6 465.964 1127.6 489.016 1127.6 489.016C1127.6 490.15 1128.3 491.76 1131.62 492.997C1133.89 493.84 1136.88 494.305 1140.04 494.305C1143.21 494.305 1146.2 493.84 1148.46 492.997C1151.78 491.76 1152.48 490.15 1152.48 489.016V487.697H1157.01V488.742C1157.01 489.32 1157.48 489.788 1158.06 489.788H1162.24C1162.82 489.788 1163.28 489.32 1163.28 488.742V484.56C1163.28 483.983 1162.82 483.515 1162.24 483.515H1158.06C1157.48 483.515 1157.01 483.983 1157.01 484.56V485.606H1152.48V478.636H1157.01V479.96C1157.01 480.538 1157.48 481.006 1158.06 481.006H1162.24C1162.82 481.006 1163.28 480.538 1163.28 479.96V475.778C1163.28 475.201 1162.82 474.733 1162.24 474.733H1158.06C1157.48 474.733 1157.01 475.201 1157.01 475.778V476.545H1152.48V470.132H1157.01V471.178C1157.01 471.755 1157.48 472.223 1158.06 472.223ZM1159.1 485.606H1161.19V487.697H1159.1V485.606ZM1159.1 476.824H1161.19V478.915H1159.1V476.824ZM1150.39 481.315C1150.39 481.791 1149.69 482.605 1147.73 483.335C1145.7 484.094 1142.96 484.512 1140.04 484.512C1137.12 484.512 1134.39 484.094 1132.35 483.335C1130.39 482.605 1129.7 481.791 1129.7 481.315V476.64C1130.21 476.96 1130.84 477.271 1131.62 477.561C1133.89 478.405 1136.88 478.87 1140.04 478.87C1143.21 478.87 1146.2 478.405 1148.46 477.561C1149.24 477.271 1149.87 476.96 1150.39 476.64V481.315ZM1131.62 469.863C1133.89 470.709 1136.88 471.174 1140.04 471.174C1143.19 471.174 1146.18 470.709 1148.45 469.863C1149.24 469.571 1149.87 469.258 1150.39 468.936V473.581C1150.39 474.057 1149.69 474.871 1147.73 475.602C1145.7 476.361 1142.96 476.779 1140.04 476.779C1137.12 476.779 1134.39 476.361 1132.35 475.602C1130.39 474.871 1129.7 474.057 1129.7 473.581V468.944C1130.21 469.263 1130.84 469.573 1131.62 469.863ZM1132.35 463.867C1134.39 463.107 1137.12 462.688 1140.04 462.688C1142.95 462.688 1145.68 463.107 1147.72 463.867C1149.56 464.552 1150.38 465.375 1150.38 465.886C1150.38 466.396 1149.56 467.219 1147.72 467.904C1145.68 468.664 1142.95 469.083 1140.04 469.083C1137.12 469.083 1134.39 468.664 1132.35 467.904C1130.51 467.219 1129.69 466.396 1129.69 465.886C1129.69 465.375 1130.51 464.552 1132.35 463.867ZM1147.73 491.037C1145.7 491.796 1142.96 492.214 1140.04 492.214C1137.12 492.214 1134.39 491.796 1132.35 491.037C1130.39 490.307 1129.7 489.492 1129.7 489.016V484.374C1130.21 484.694 1130.84 485.005 1131.62 485.295C1133.89 486.139 1136.88 486.603 1140.04 486.603C1143.21 486.603 1146.2 486.139 1148.46 485.295C1149.24 485.005 1149.87 484.694 1150.39 484.374V489.016C1150.39 489.492 1149.69 490.307 1147.73 491.037ZM1159.1 468.041H1161.19V470.132H1159.1V468.041Z" fill="white"/>
</g>
<g opacity="0.3">
<path d="M1354.5 651.874H1353.57C1353.35 651.874 1353.16 652.056 1353.16 652.28V661.326C1353.16 661.55 1353.35 661.731 1353.57 661.731H1354.5C1354.72 661.731 1354.9 661.55 1354.9 661.326V652.28C1354.9 652.056 1354.72 651.874 1354.5 651.874Z" fill="white"/>
<path d="M1359.14 654.194H1358.21C1357.98 654.194 1357.8 654.375 1357.8 654.599V661.326C1357.8 661.55 1357.98 661.731 1358.21 661.731H1359.14C1359.36 661.731 1359.54 661.55 1359.54 661.326V654.599C1359.54 654.375 1359.36 654.194 1359.14 654.194Z" fill="white"/>
<path d="M1349.86 654.194H1348.93C1348.71 654.194 1348.53 654.375 1348.53 654.599V661.326C1348.53 661.55 1348.71 661.731 1348.93 661.731H1349.86C1350.08 661.731 1350.26 661.55 1350.26 661.326V654.599C1350.26 654.375 1350.08 654.194 1349.86 654.194Z" fill="white"/>
<path d="M1363.78 648.685H1362.85C1362.62 648.685 1362.44 648.867 1362.44 649.091V651.468C1362.44 651.692 1362.62 651.874 1362.85 651.874H1363.78C1364 651.874 1364.18 651.692 1364.18 651.468V649.091C1364.18 648.867 1364 648.685 1363.78 648.685Z" fill="white"/>
<path d="M1363.78 653.614H1362.85C1362.62 653.614 1362.44 653.795 1362.44 654.02V656.397C1362.44 656.621 1362.62 656.803 1362.85 656.803H1363.78C1364 656.803 1364.18 656.621 1364.18 656.397V654.02C1364.18 653.795 1364 653.614 1363.78 653.614Z" fill="white"/>
<path d="M1363.78 658.542H1362.85C1362.62 658.542 1362.44 658.724 1362.44 658.948V659.876C1362.44 660.1 1362.62 660.282 1362.85 660.282H1363.78C1364 660.282 1364.18 660.1 1364.18 659.876V658.948C1364.18 658.724 1364 658.542 1363.78 658.542Z" fill="white"/>
<path d="M1357.22 665.21H1348.86C1348.24 665.21 1347.63 664.961 1347.19 664.517C1346.75 664.074 1346.5 663.472 1346.5 662.845V647.862C1346.5 647.234 1346.75 646.633 1347.19 646.189C1347.63 645.745 1348.24 645.496 1348.86 645.496H1363.85C1364.47 645.496 1365.07 645.745 1365.52 646.189C1365.96 646.633 1366.21 647.234 1366.21 647.862V655.353C1366.22 655.511 1366.28 655.661 1366.4 655.77C1366.51 655.878 1366.67 655.937 1366.83 655.933C1367.32 655.932 1367.81 656.045 1368.25 656.264C1368.34 656.311 1368.44 656.333 1368.55 656.329C1368.65 656.325 1368.75 656.294 1368.84 656.239C1368.93 656.184 1369 656.108 1369.05 656.017C1369.1 655.927 1369.12 655.825 1369.12 655.721V647.862C1369.12 647.17 1368.98 646.484 1368.72 645.845C1368.45 645.206 1368.06 644.625 1367.57 644.136C1367.08 643.647 1366.5 643.259 1365.86 642.995C1365.22 642.731 1364.54 642.596 1363.85 642.597H1348.86C1347.47 642.597 1346.13 643.152 1345.14 644.139C1344.15 645.126 1343.6 646.465 1343.6 647.862V662.845C1343.6 664.241 1344.15 665.58 1345.14 666.567C1346.13 667.555 1347.47 668.11 1348.86 668.11H1358.06C1358.17 668.111 1358.29 668.078 1358.38 668.016C1358.48 667.954 1358.56 667.865 1358.61 667.76C1358.65 667.654 1358.67 667.537 1358.65 667.423C1358.64 667.308 1358.59 667.202 1358.51 667.115C1358.14 666.723 1357.89 666.229 1357.8 665.697C1357.78 665.56 1357.71 665.436 1357.6 665.346C1357.5 665.257 1357.36 665.209 1357.22 665.21Z" fill="white"/>
<path d="M1367.1 670.991L1368.14 668.382C1368.32 667.917 1368.6 667.495 1368.95 667.141C1369.3 666.788 1369.73 666.51 1370.19 666.327L1372.82 665.292C1372.87 665.27 1372.92 665.233 1372.95 665.185C1372.98 665.137 1373 665.08 1373 665.022C1373 664.964 1372.98 664.907 1372.95 664.859C1372.92 664.811 1372.87 664.774 1372.82 664.752L1370.19 663.717C1369.73 663.533 1369.3 663.256 1368.95 662.903C1368.6 662.549 1368.32 662.127 1368.14 661.662L1367.1 659.053C1367.08 658.999 1367.04 658.952 1366.99 658.92C1366.95 658.887 1366.89 658.87 1366.83 658.87C1366.77 658.87 1366.72 658.887 1366.67 658.92C1366.62 658.952 1366.58 658.999 1366.56 659.053L1365.53 661.662C1365.34 662.127 1365.07 662.55 1364.71 662.903C1364.36 663.257 1363.94 663.534 1363.47 663.717L1360.86 664.752C1360.81 664.774 1360.76 664.811 1360.73 664.859C1360.7 664.907 1360.68 664.964 1360.68 665.022C1360.68 665.08 1360.7 665.137 1360.73 665.185C1360.76 665.233 1360.81 665.27 1360.86 665.292L1363.47 666.327C1363.94 666.51 1364.36 666.787 1364.71 667.141C1365.07 667.494 1365.34 667.917 1365.53 668.382L1366.56 670.991C1366.58 671.046 1366.62 671.093 1366.67 671.126C1366.72 671.159 1366.77 671.177 1366.83 671.177C1366.89 671.177 1366.95 671.159 1366.99 671.126C1367.04 671.093 1367.08 671.046 1367.1 670.991Z" fill="white"/>
</g>
<g opacity="0.1">
<path d="M810.598 665.576H813.098C814.2 665.576 815.098 664.679 815.098 663.576V660.116C815.098 659.014 814.2 658.116 813.098 658.116H810.598C809.495 658.116 808.598 659.014 808.598 660.116V663.576C808.598 664.679 809.495 665.576 810.598 665.576ZM810.598 660.116H813.098L813.1 663.576H810.598V660.116Z" fill="white"/>
<path d="M819.098 665.576H821.598C822.7 665.576 823.598 664.679 823.598 663.576V651.177C823.598 650.074 822.7 649.177 821.598 649.177H819.098C817.995 649.177 817.098 650.074 817.098 651.177V663.576C817.098 664.679 817.995 665.576 819.098 665.576ZM819.098 651.177H821.598L821.6 663.576H819.098V651.177Z" fill="white"/>
<path d="M827.598 652.656C826.495 652.656 825.598 653.554 825.598 654.656V663.576C825.598 664.679 826.495 665.576 827.598 665.576H830.098C831.2 665.576 832.098 664.679 832.098 663.576V654.656C832.098 653.554 831.2 652.656 830.098 652.656H827.598ZM827.598 663.576V654.656H830.098L830.1 663.576H827.598Z" fill="white"/>
<path d="M840.598 663.576V644.156C840.598 643.054 839.7 642.156 838.598 642.156H836.098C834.995 642.156 834.098 643.054 834.098 644.156V663.576C834.098 664.679 834.995 665.576 836.098 665.576H838.598C839.7 665.576 840.598 664.679 840.598 663.576ZM836.098 644.156H838.598L838.6 663.576H836.098V644.156Z" fill="white"/>
<path d="M812.545 648.323L820.091 640.778C820.388 640.482 820.843 640.4 821.225 640.58L827.181 643.382C828.319 643.922 829.687 643.683 830.579 642.789L838.065 635.304C838.456 634.913 838.456 634.281 838.065 633.89C837.675 633.499 837.042 633.499 836.651 633.89L829.165 641.375C828.867 641.673 828.411 641.753 828.032 641.573L822.076 638.77C820.938 638.235 819.569 638.471 818.677 639.364L811.131 646.909C810.74 647.3 810.74 647.933 811.131 648.323C811.521 648.714 812.154 648.714 812.545 648.323Z" fill="white"/>
</g>
<g opacity="0.2">
<path d="M1291.72 169.98C1291.53 169.98 1291.33 169.997 1291.14 170.027L1285.99 160.525C1286.54 159.896 1286.87 159.074 1286.87 158.174C1286.87 156.202 1285.27 154.597 1283.3 154.597C1281.76 154.597 1280.44 155.574 1279.94 156.94H1269.96C1269.46 155.574 1268.14 154.597 1266.6 154.597C1264.63 154.597 1263.02 156.202 1263.02 158.174C1263.02 159.073 1263.36 159.896 1263.91 160.525L1258.75 170.027C1258.57 169.996 1258.37 169.98 1258.18 169.98C1256.2 169.98 1254.6 171.585 1254.6 173.557C1254.6 175.53 1256.2 177.135 1258.18 177.135C1258.36 177.135 1258.54 177.121 1258.72 177.094L1263.91 186.669C1263.36 187.298 1263.02 188.12 1263.02 189.02C1263.02 190.992 1264.63 192.597 1266.6 192.597C1268.14 192.597 1269.46 191.62 1269.96 190.253H1279.94C1280.44 191.62 1281.76 192.597 1283.3 192.597C1285.27 192.597 1286.87 190.992 1286.87 189.02C1286.87 188.12 1286.54 187.298 1285.99 186.669L1291.18 177.094C1291.36 177.121 1291.54 177.135 1291.72 177.135C1293.7 177.135 1295.3 175.53 1295.3 173.557C1295.3 171.585 1293.7 169.98 1291.72 169.98ZM1283.3 185.442C1281.73 185.442 1280.39 186.459 1279.91 187.869H1269.99C1269.51 186.459 1268.17 185.442 1266.6 185.442C1266.39 185.442 1266.19 185.461 1265.99 185.496L1260.82 175.967C1261.4 175.33 1261.75 174.485 1261.75 173.557C1261.75 172.644 1261.41 171.811 1260.84 171.178L1265.99 161.697C1266.19 161.732 1266.39 161.752 1266.6 161.752C1268.17 161.752 1269.51 160.735 1269.99 159.325H1279.91C1280.39 160.735 1281.73 161.752 1283.3 161.752C1283.51 161.752 1283.71 161.732 1283.91 161.698L1289.05 171.178C1288.49 171.811 1288.15 172.644 1288.15 173.557C1288.15 174.485 1288.5 175.33 1289.08 175.967L1283.91 185.496C1283.71 185.461 1283.51 185.442 1283.3 185.442ZM1283.3 156.982C1283.95 156.982 1284.49 157.517 1284.49 158.174C1284.49 158.832 1283.95 159.367 1283.3 159.367C1282.64 159.367 1282.1 158.832 1282.1 158.174C1282.1 157.517 1282.64 156.982 1283.3 156.982ZM1266.6 156.982C1267.26 156.982 1267.79 157.517 1267.79 158.174C1267.79 158.832 1267.26 159.367 1266.6 159.367C1265.94 159.367 1265.41 158.832 1265.41 158.174C1265.41 157.517 1265.94 156.982 1266.6 156.982ZM1256.98 173.557C1256.98 172.9 1257.52 172.365 1258.18 172.365C1258.83 172.365 1259.37 172.9 1259.37 173.557C1259.37 174.215 1258.83 174.75 1258.18 174.75C1257.52 174.75 1256.98 174.215 1256.98 173.557ZM1266.6 190.212C1265.94 190.212 1265.41 189.677 1265.41 189.02C1265.41 188.362 1265.94 187.827 1266.6 187.827C1267.26 187.827 1267.79 188.362 1267.79 189.02C1267.79 189.677 1267.26 190.212 1266.6 190.212ZM1283.3 190.212C1282.64 190.212 1282.1 189.677 1282.1 189.02C1282.1 188.362 1282.64 187.827 1283.3 187.827C1283.95 187.827 1284.49 188.362 1284.49 189.02C1284.49 189.677 1283.95 190.212 1283.3 190.212ZM1291.72 174.75C1291.07 174.75 1290.53 174.215 1290.53 173.557C1290.53 172.9 1291.07 172.365 1291.72 172.365C1292.38 172.365 1292.92 172.9 1292.92 173.557C1292.92 174.215 1292.38 174.75 1291.72 174.75Z" fill="white"/>
<path d="M1280.83 164.692C1279.23 164.079 1277.15 163.741 1274.95 163.741C1272.75 163.741 1270.66 164.079 1269.07 164.692C1266.44 165.705 1266.04 167.137 1266.04 167.901V179.293C1266.04 180.058 1266.44 181.492 1269.07 182.504C1270.66 183.116 1272.75 183.453 1274.95 183.453C1277.15 183.453 1279.24 183.116 1280.83 182.504C1283.46 181.492 1283.85 180.058 1283.85 179.293C1283.85 179.293 1283.85 167.975 1283.85 167.901C1283.85 167.137 1283.46 165.705 1280.83 164.692ZM1281.47 173.453C1281.45 173.55 1281.11 174.031 1279.83 174.495C1278.52 174.969 1276.79 175.23 1274.95 175.23C1273.11 175.23 1271.38 174.969 1270.07 174.495C1268.79 174.03 1268.45 173.548 1268.43 173.456V170.834C1268.63 170.929 1268.84 171.021 1269.07 171.11C1270.66 171.723 1272.75 172.06 1274.95 172.06C1277.15 172.06 1279.23 171.723 1280.83 171.11C1281.06 171.021 1281.27 170.929 1281.47 170.834L1281.47 173.453ZM1270.09 166.858C1271.4 166.386 1273.12 166.126 1274.95 166.126C1276.77 166.126 1278.5 166.386 1279.81 166.858C1281.08 167.315 1281.44 167.795 1281.47 167.901C1281.44 168.007 1281.08 168.487 1279.81 168.944C1278.5 169.416 1276.77 169.675 1274.95 169.675C1273.12 169.675 1271.4 169.416 1270.09 168.944C1268.82 168.487 1268.46 168.007 1268.43 167.901C1268.46 167.795 1268.82 167.315 1270.09 166.858ZM1279.83 180.332C1278.52 180.807 1276.79 181.068 1274.95 181.068C1273.11 181.068 1271.38 180.807 1270.07 180.332C1268.79 179.868 1268.45 179.385 1268.43 179.293V176.393C1268.63 176.487 1268.84 176.579 1269.07 176.667C1270.66 177.279 1272.75 177.616 1274.95 177.616C1277.15 177.616 1279.24 177.279 1280.83 176.667C1281.06 176.579 1281.27 176.487 1281.47 176.393L1281.47 179.29C1281.45 179.385 1281.11 179.868 1279.83 180.332Z" fill="white"/>
</g>
</g>
<defs>
<filter id="filter0_d_397_12639" x="442.176" y="-128.824" width="2314.65" height="1278.65" filterUnits="userSpaceOnUse" color-interpolation-filters="sRGB">
<feFlood flood-opacity="0" result="BackgroundImageFix"/>
<feColorMatrix in="SourceAlpha" type="matrix" values="0 0 0 0 0 0 0 0 0 0 0 0 0 0 0 0 0 0 127 0" result="hardAlpha"/>
<feOffset/>
<feGaussianBlur stdDeviation="35.9121"/>
<feComposite in2="hardAlpha" operator="out"/>
<feColorMatrix type="matrix" values="0 0 0 0 0.231956 0 0 0 0 0.420022 0 0 0 0 0.796154 0 0 0 1 0"/>
<feBlend mode="normal" in2="BackgroundImageFix" result="effect1_dropShadow_397_12639"/>
<feBlend mode="normal" in="SourceGraphic" in2="effect1_dropShadow_397_12639" result="shape"/>
</filter>
<filter id="filter1_d_397_12639" x="592.176" y="-39.8242" width="2014.65" height="1101.65" filterUnits="userSpaceOnUse" color-interpolation-filters="sRGB">
<feFlood flood-opacity="0" result="BackgroundImageFix"/>
<feColorMatrix in="SourceAlpha" type="matrix" values="0 0 0 0 0 0 0 0 0 0 0 0 0 0 0 0 0 0 127 0" result="hardAlpha"/>
<feOffset/>
<feGaussianBlur stdDeviation="35.9121"/>
<feComposite in2="hardAlpha" operator="out"/>
<feColorMatrix type="matrix" values="0 0 0 0 0.231956 0 0 0 0 0.420022 0 0 0 0 0.796154 0 0 0 1 0"/>
<feBlend mode="normal" in2="BackgroundImageFix" result="effect1_dropShadow_397_12639"/>
<feBlend mode="normal" in="SourceGraphic" in2="effect1_dropShadow_397_12639" result="shape"/>
</filter>
<filter id="filter2_d_397_12639" x="727.176" y="27.1758" width="1744.65" height="967.648" filterUnits="userSpaceOnUse" color-interpolation-filters="sRGB">
<feFlood flood-opacity="0" result="BackgroundImageFix"/>
<feColorMatrix in="SourceAlpha" type="matrix" values="0 0 0 0 0 0 0 0 0 0 0 0 0 0 0 0 0 0 127 0" result="hardAlpha"/>
<feOffset/>
<feGaussianBlur stdDeviation="35.9121"/>
<feComposite in2="hardAlpha" operator="out"/>
<feColorMatrix type="matrix" values="0 0 0 0 0.231956 0 0 0 0 0.420022 0 0 0 0 0.796154 0 0 0 1 0"/>
<feBlend mode="normal" in2="BackgroundImageFix" result="effect1_dropShadow_397_12639"/>
<feBlend mode="normal" in="SourceGraphic" in2="effect1_dropShadow_397_12639" result="shape"/>
</filter>
<filter id="filter3_d_397_12639" x="836.176" y="96.1758" width="1527.65" height="828.648" filterUnits="userSpaceOnUse" color-interpolation-filters="sRGB">
<feFlood flood-opacity="0" result="BackgroundImageFix"/>
<feColorMatrix in="SourceAlpha" type="matrix" values="0 0 0 0 0 0 0 0 0 0 0 0 0 0 0 0 0 0 127 0" result="hardAlpha"/>
<feOffset/>
<feGaussianBlur stdDeviation="35.9121"/>
<feComposite in2="hardAlpha" operator="out"/>
<feColorMatrix type="matrix" values="0 0 0 0 0.231956 0 0 0 0 0.420022 0 0 0 0 0.796154 0 0 0 1 0"/>
<feBlend mode="normal" in2="BackgroundImageFix" result="effect1_dropShadow_397_12639"/>
<feBlend mode="normal" in="SourceGraphic" in2="effect1_dropShadow_397_12639" result="shape"/>
</filter>
<filter id="filter4_d_397_12639" x="952.176" y="160.176" width="1295.65" height="701.648" filterUnits="userSpaceOnUse" color-interpolation-filters="sRGB">
<feFlood flood-opacity="0" result="BackgroundImageFix"/>
<feColorMatrix in="SourceAlpha" type="matrix" values="0 0 0 0 0 0 0 0 0 0 0 0 0 0 0 0 0 0 127 0" result="hardAlpha"/>
<feOffset/>
<feGaussianBlur stdDeviation="35.9121"/>
<feComposite in2="hardAlpha" operator="out"/>
<feColorMatrix type="matrix" values="0 0 0 0 0.231956 0 0 0 0 0.420022 0 0 0 0 0.796154 0 0 0 1 0"/>
<feBlend mode="normal" in2="BackgroundImageFix" result="effect1_dropShadow_397_12639"/>
<feBlend mode="normal" in="SourceGraphic" in2="effect1_dropShadow_397_12639" result="shape"/>
</filter>
<filter id="filter5_d_397_12639" x="1063.18" y="211.176" width="1073.65" height="599.648" filterUnits="userSpaceOnUse" color-interpolation-filters="sRGB">
<feFlood flood-opacity="0" result="BackgroundImageFix"/>
<feColorMatrix in="SourceAlpha" type="matrix" values="0 0 0 0 0 0 0 0 0 0 0 0 0 0 0 0 0 0 127 0" result="hardAlpha"/>
<feOffset/>
<feGaussianBlur stdDeviation="35.9121"/>
<feComposite in2="hardAlpha" operator="out"/>
<feColorMatrix type="matrix" values="0 0 0 0 0.231956 0 0 0 0 0.420022 0 0 0 0 0.796154 0 0 0 1 0"/>
<feBlend mode="normal" in2="BackgroundImageFix" result="effect1_dropShadow_397_12639"/>
<feBlend mode="normal" in="SourceGraphic" in2="effect1_dropShadow_397_12639" result="shape"/>
</filter>
<filter id="filter6_d_397_12639" x="1178.18" y="279.176" width="843.648" height="462.648" filterUnits="userSpaceOnUse" color-interpolation-filters="sRGB">
<feFlood flood-opacity="0" result="BackgroundImageFix"/>
<feColorMatrix in="SourceAlpha" type="matrix" values="0 0 0 0 0 0 0 0 0 0 0 0 0 0 0 0 0 0 127 0" result="hardAlpha"/>
<feOffset/>
<feGaussianBlur stdDeviation="35.9121"/>
<feComposite in2="hardAlpha" operator="out"/>
<feColorMatrix type="matrix" values="0 0 0 0 0.231956 0 0 0 0 0.420022 0 0 0 0 0.796154 0 0 0 1 0"/>
<feBlend mode="normal" in2="BackgroundImageFix" result="effect1_dropShadow_397_12639"/>
<feBlend mode="normal" in="SourceGraphic" in2="effect1_dropShadow_397_12639" result="shape"/>
</filter>
<filter id="filter7_d_397_12639" x="1275.18" y="335.176" width="648.648" height="351.648" filterUnits="userSpaceOnUse" color-interpolation-filters="sRGB">
<feFlood flood-opacity="0" result="BackgroundImageFix"/>
<feColorMatrix in="SourceAlpha" type="matrix" values="0 0 0 0 0 0 0 0 0 0 0 0 0 0 0 0 0 0 127 0" result="hardAlpha"/>
<feOffset/>
<feGaussianBlur stdDeviation="35.9121"/>
<feComposite in2="hardAlpha" operator="out"/>
<feColorMatrix type="matrix" values="0 0 0 0 0.231956 0 0 0 0 0.420022 0 0 0 0 0.796154 0 0 0 1 0"/>
<feBlend mode="normal" in2="BackgroundImageFix" result="effect1_dropShadow_397_12639"/>
<feBlend mode="normal" in="SourceGraphic" in2="effect1_dropShadow_397_12639" result="shape"/>
</filter>
<filter id="filter8_d_397_12639" x="1394.6" y="443.6" width="409.8" height="133.385" filterUnits="userSpaceOnUse" color-interpolation-filters="sRGB">
<feFlood flood-opacity="0" result="BackgroundImageFix"/>
<feColorMatrix in="SourceAlpha" type="matrix" values="0 0 0 0 0 0 0 0 0 0 0 0 0 0 0 0 0 0 127 0" result="hardAlpha"/>
<feOffset/>
<feGaussianBlur stdDeviation="10.2"/>
<feComposite in2="hardAlpha" operator="out"/>
<feColorMatrix type="matrix" values="0 0 0 0 0.462745 0 0 0 0 0.764706 0 0 0 0 0.937255 0 0 0 1 0"/>
<feBlend mode="normal" in2="BackgroundImageFix" result="effect1_dropShadow_397_12639"/>
<feBlend mode="normal" in="SourceGraphic" in2="effect1_dropShadow_397_12639" result="shape"/>
</filter>
<linearGradient id="paint0_linear_397_12639" x1="1349.42" y1="301.441" x2="1864.61" y2="788.293" gradientUnits="userSpaceOnUse">
<stop stop-color="#5BA3D1"/>
<stop offset="1" stop-color="#5BA3D1" stop-opacity="0"/>
</linearGradient>
<linearGradient id="paint1_linear_397_12639" x1="1365.17" y1="363.872" x2="1778.97" y2="725.785" gradientUnits="userSpaceOnUse">
<stop stop-color="#5BA3D1"/>
<stop offset="1" stop-color="#5BA3D1" stop-opacity="0"/>
</linearGradient>
<linearGradient id="paint2_linear_397_12639" x1="1450.44" y1="407" x2="1741.39" y2="653.758" gradientUnits="userSpaceOnUse">
<stop stop-color="#5BA3D1"/>
<stop offset="1" stop-color="#5BA3D1" stop-opacity="0"/>
</linearGradient>
<clipPath id="clip0_397_12639">
<rect width="1920" height="700" fill="white"/>
</clipPath>
<clipPath id="clip1_397_12639">
<rect width="49.38" height="49.38" fill="white" transform="translate(1449.18 485.602)"/>
</clipPath>
</defs>
</svg>
