<svg width="1920" height="870" viewBox="0 0 1920 870" fill="none" xmlns="http://www.w3.org/2000/svg">
<g clip-path="url(#clip0_399_12714)">
<rect width="1920" height="870" fill="#1F1F1F"/>
<rect x="1205" width="715" height="870" fill="#4A8FB8"/>
<g opacity="0.27">
<circle cx="1721.1" cy="968.695" r="99.4797" transform="rotate(180 1721.1 968.695)" stroke="#F8F9FA" stroke-width="1.0813"/>
<mask id="path-3-inside-1_399_12714" fill="white">
<path d="M1918.98 771.358C1931.97 771.358 1944.84 773.917 1956.84 778.889C1968.85 783.861 1979.76 791.149 1988.94 800.336C1998.13 809.524 2005.42 820.431 2010.39 832.434C2015.36 844.438 2017.92 857.304 2017.92 870.297C2017.92 883.29 2015.36 896.155 2010.39 908.159C2005.42 920.163 1998.13 931.07 1988.94 940.257C1979.76 949.445 1968.85 956.732 1956.84 961.705C1944.84 966.677 1931.97 969.236 1918.98 969.236L1918.98 870.297L1918.98 771.358Z"/>
</mask>
<path d="M1918.98 771.358C1931.97 771.358 1944.84 773.917 1956.84 778.889C1968.85 783.861 1979.76 791.149 1988.94 800.336C1998.13 809.524 2005.42 820.431 2010.39 832.434C2015.36 844.438 2017.92 857.304 2017.92 870.297C2017.92 883.29 2015.36 896.155 2010.39 908.159C2005.42 920.163 1998.13 931.07 1988.94 940.257C1979.76 949.445 1968.85 956.732 1956.84 961.705C1944.84 966.677 1931.97 969.236 1918.98 969.236L1918.98 870.297L1918.98 771.358Z" stroke="#F8F9FA" stroke-width="2.1626" mask="url(#path-3-inside-1_399_12714)"/>
<mask id="path-4-inside-2_399_12714" fill="white">
<path d="M1920.06 869.756C1907.07 869.756 1894.2 867.197 1882.2 862.225C1870.19 857.253 1859.29 849.965 1850.1 840.777C1840.91 831.59 1833.63 820.683 1828.65 808.679C1823.68 796.675 1821.12 783.81 1821.12 770.817C1821.12 757.824 1823.68 744.958 1828.65 732.955C1833.63 720.951 1840.91 710.044 1850.1 700.857C1859.29 691.669 1870.19 684.381 1882.2 679.409C1894.2 674.437 1907.07 671.878 1920.06 671.878L1920.06 770.817L1920.06 869.756Z"/>
</mask>
<path d="M1920.06 869.756C1907.07 869.756 1894.2 867.197 1882.2 862.225C1870.19 857.253 1859.29 849.965 1850.1 840.777C1840.91 831.59 1833.63 820.683 1828.65 808.679C1823.68 796.675 1821.12 783.81 1821.12 770.817C1821.12 757.824 1823.68 744.958 1828.65 732.955C1833.63 720.951 1840.91 710.044 1850.1 700.857C1859.29 691.669 1870.19 684.381 1882.2 679.409C1894.2 674.437 1907.07 671.878 1920.06 671.878L1920.06 770.817L1920.06 869.756Z" stroke="#F8F9FA" stroke-width="2.1626" mask="url(#path-4-inside-2_399_12714)"/>
<mask id="path-5-inside-3_399_12714" fill="white">
<path d="M1721.1 869.756C1734.09 869.756 1746.96 867.197 1758.96 862.225C1770.97 857.253 1781.87 849.965 1791.06 840.777C1800.25 831.59 1807.53 820.683 1812.51 808.679C1817.48 796.675 1820.04 783.81 1820.04 770.817C1820.04 757.824 1817.48 744.958 1812.51 732.955C1807.53 720.951 1800.25 710.044 1791.06 700.857C1781.87 691.669 1770.97 684.381 1758.96 679.409C1746.96 674.437 1734.09 671.878 1721.1 671.878L1721.1 770.817L1721.1 869.756Z"/>
</mask>
<path d="M1721.1 869.756C1734.09 869.756 1746.96 867.197 1758.96 862.225C1770.97 857.253 1781.87 849.965 1791.06 840.777C1800.25 831.59 1807.53 820.683 1812.51 808.679C1817.48 796.675 1820.04 783.81 1820.04 770.817C1820.04 757.824 1817.48 744.958 1812.51 732.955C1807.53 720.951 1800.25 710.044 1791.06 700.857C1781.87 691.669 1770.97 684.381 1758.96 679.409C1746.96 674.437 1734.09 671.878 1721.1 671.878L1721.1 770.817L1721.1 869.756Z" stroke="#F8F9FA" stroke-width="2.1626" mask="url(#path-5-inside-3_399_12714)"/>
<mask id="path-6-inside-4_399_12714" fill="white">
<path d="M1918.98 574.561C1931.97 574.561 1944.84 577.12 1956.84 582.093C1968.85 587.065 1979.76 594.353 1988.94 603.54C1998.13 612.727 2005.42 623.634 2010.39 635.638C2015.36 647.642 2017.92 660.508 2017.92 673.5C2017.92 686.493 2015.36 699.359 2010.39 711.363C2005.42 723.367 1998.13 734.274 1988.94 743.461C1979.76 752.648 1968.85 759.936 1956.84 764.908C1944.84 769.88 1931.97 772.439 1918.98 772.439L1918.98 673.5L1918.98 574.561Z"/>
</mask>
<path d="M1918.98 574.561C1931.97 574.561 1944.84 577.12 1956.84 582.093C1968.85 587.065 1979.76 594.353 1988.94 603.54C1998.13 612.727 2005.42 623.634 2010.39 635.638C2015.36 647.642 2017.92 660.508 2017.92 673.5C2017.92 686.493 2015.36 699.359 2010.39 711.363C2005.42 723.367 1998.13 734.274 1988.94 743.461C1979.76 752.648 1968.85 759.936 1956.84 764.908C1944.84 769.88 1931.97 772.439 1918.98 772.439L1918.98 673.5L1918.98 574.561Z" stroke="#F8F9FA" stroke-width="2.1626" mask="url(#path-6-inside-4_399_12714)"/>
<mask id="path-7-inside-5_399_12714" fill="white">
<path d="M1920.06 574.561C1907.07 574.561 1894.2 577.12 1882.2 582.093C1870.19 587.065 1859.29 594.353 1850.1 603.54C1840.91 612.727 1833.63 623.634 1828.65 635.638C1823.68 647.642 1821.12 660.508 1821.12 673.5L1920.06 673.5L1920.06 574.561Z"/>
</mask>
<path d="M1920.06 574.561C1907.07 574.561 1894.2 577.12 1882.2 582.093C1870.19 587.065 1859.29 594.353 1850.1 603.54C1840.91 612.727 1833.63 623.634 1828.65 635.638C1823.68 647.642 1821.12 660.508 1821.12 673.5L1920.06 673.5L1920.06 574.561Z" stroke="#F8F9FA" stroke-width="2.1626" mask="url(#path-7-inside-5_399_12714)"/>
<mask id="path-8-inside-6_399_12714" fill="white">
<path d="M2017.92 673.5C2017.92 686.493 2015.36 699.359 2010.39 711.363C2005.42 723.367 1998.13 734.274 1988.94 743.461C1979.76 752.648 1968.85 759.936 1956.84 764.908C1944.84 769.88 1931.97 772.439 1918.98 772.439L1918.98 673.5L2017.92 673.5Z"/>
</mask>
<path d="M2017.92 673.5C2017.92 686.493 2015.36 699.359 2010.39 711.363C2005.42 723.367 1998.13 734.274 1988.94 743.461C1979.76 752.648 1968.85 759.936 1956.84 764.908C1944.84 769.88 1931.97 772.439 1918.98 772.439L1918.98 673.5L2017.92 673.5Z" fill="#4A8FB8" stroke="#F8F9FA" stroke-width="2.1626" mask="url(#path-8-inside-6_399_12714)"/>
<mask id="path-9-inside-7_399_12714" fill="white">
<path d="M1818.96 968.695C1818.96 955.702 1821.52 942.836 1826.49 930.832C1831.47 918.829 1838.75 907.922 1847.94 898.734C1857.13 889.547 1868.03 882.259 1880.04 877.287C1892.04 872.315 1904.91 869.756 1917.9 869.756C1930.89 869.756 1943.76 872.315 1955.76 877.287C1967.77 882.259 1978.67 889.547 1987.86 898.734C1997.05 907.922 2004.34 918.829 2009.31 930.832C2014.28 942.836 2016.84 955.702 2016.84 968.695L1917.9 968.695H1818.96Z"/>
</mask>
<path d="M1818.96 968.695C1818.96 955.702 1821.52 942.836 1826.49 930.832C1831.47 918.829 1838.75 907.922 1847.94 898.734C1857.13 889.547 1868.03 882.259 1880.04 877.287C1892.04 872.315 1904.91 869.756 1917.9 869.756C1930.89 869.756 1943.76 872.315 1955.76 877.287C1967.77 882.259 1978.67 889.547 1987.86 898.734C1997.05 907.922 2004.34 918.829 2009.31 930.832C2014.28 942.836 2016.84 955.702 2016.84 968.695L1917.9 968.695H1818.96Z" stroke="#F8F9FA" stroke-width="2.1626" mask="url(#path-9-inside-7_399_12714)"/>
<mask id="path-10-inside-8_399_12714" fill="white">
<path d="M1621.62 969.237C1634.76 969.237 1647.76 966.649 1659.9 961.623C1672.03 956.596 1683.06 949.229 1692.35 939.941C1701.64 930.654 1709 919.627 1714.03 907.492C1719.06 895.357 1721.64 882.351 1721.64 869.216C1721.64 856.081 1719.06 843.075 1714.03 830.94C1709 818.805 1701.64 807.779 1692.35 798.491C1683.06 789.203 1672.03 781.836 1659.9 776.809C1647.76 771.783 1634.76 769.196 1621.62 769.196L1621.62 869.216L1621.62 969.237Z"/>
</mask>
<path d="M1621.62 969.237C1634.76 969.237 1647.76 966.649 1659.9 961.623C1672.03 956.596 1683.06 949.229 1692.35 939.941C1701.64 930.654 1709 919.627 1714.03 907.492C1719.06 895.357 1721.64 882.351 1721.64 869.216C1721.64 856.081 1719.06 843.075 1714.03 830.94C1709 818.805 1701.64 807.779 1692.35 798.491C1683.06 789.203 1672.03 781.836 1659.9 776.809C1647.76 771.783 1634.76 769.196 1621.62 769.196L1621.62 869.216L1621.62 969.237Z" stroke="#F8F9FA" stroke-width="2.1626" mask="url(#path-10-inside-8_399_12714)"/>
<mask id="path-11-inside-9_399_12714" fill="white">
<path d="M1621.62 958.252C1626.85 907.921 1669.39 868.675 1721.1 868.675C1721.28 868.675 1721.46 868.678 1721.64 868.679C1721.64 868.858 1721.64 869.037 1721.64 869.216C1721.64 882.351 1719.06 895.358 1714.03 907.493C1709 919.628 1701.64 930.654 1692.35 939.942C1683.06 949.23 1672.03 956.597 1659.9 961.624C1647.76 966.65 1634.76 969.237 1621.62 969.237V958.252Z"/>
</mask>
<path d="M1621.62 958.252C1626.85 907.921 1669.39 868.675 1721.1 868.675C1721.28 868.675 1721.46 868.678 1721.64 868.679C1721.64 868.858 1721.64 869.037 1721.64 869.216C1721.64 882.351 1719.06 895.358 1714.03 907.493C1709 919.628 1701.64 930.654 1692.35 939.942C1683.06 949.23 1672.03 956.597 1659.9 961.624C1647.76 966.65 1634.76 969.237 1621.62 969.237V958.252Z" fill="#DCECF7"/>
<path d="M1621.62 958.252L1620.55 958.141L1620.54 958.196V958.252H1621.62ZM1721.1 868.675V867.594H1721.1L1721.1 868.675ZM1721.64 868.679L1722.72 868.673L1722.72 867.604L1721.65 867.598L1721.64 868.679ZM1721.64 869.216H1722.73V869.216H1721.64ZM1714.03 907.493L1715.03 907.906L1715.03 907.906L1714.03 907.493ZM1692.35 939.942L1693.11 940.706L1693.11 940.706L1692.35 939.942ZM1659.9 961.624L1660.31 962.623L1660.31 962.623L1659.9 961.624ZM1621.62 969.237H1620.54V970.318L1621.62 970.318V969.237ZM1621.62 958.252L1622.7 958.364C1627.86 908.578 1669.95 869.757 1721.1 869.757L1721.1 868.675L1721.1 867.594C1668.83 867.594 1625.83 907.264 1620.55 958.141L1621.62 958.252ZM1721.1 868.675V869.757C1721.28 869.757 1721.44 869.759 1721.64 869.76L1721.64 868.679L1721.65 867.598C1721.49 867.597 1721.28 867.594 1721.1 867.594V868.675ZM1721.64 868.679L1720.56 868.685C1720.56 868.873 1720.56 869.041 1720.56 869.216H1721.64H1722.73C1722.73 869.034 1722.72 868.844 1722.72 868.673L1721.64 868.679ZM1721.64 869.216H1720.56C1720.56 882.209 1718 895.075 1713.03 907.079L1714.03 907.493L1715.03 907.906C1720.11 895.64 1722.73 882.493 1722.73 869.216H1721.64ZM1714.03 907.493L1713.03 907.079C1708.06 919.083 1700.77 929.99 1691.58 939.177L1692.35 939.942L1693.11 940.706C1702.5 931.318 1709.95 920.173 1715.03 907.906L1714.03 907.493ZM1692.35 939.942L1691.58 939.177C1682.4 948.365 1671.49 955.652 1659.49 960.625L1659.9 961.624L1660.31 962.623C1672.58 957.542 1683.73 950.095 1693.11 940.706L1692.35 939.942ZM1659.9 961.624L1659.49 960.625C1647.48 965.597 1634.62 968.155 1621.62 968.156V969.237V970.318C1634.9 970.318 1648.05 967.703 1660.31 962.623L1659.9 961.624ZM1621.62 969.237H1622.71V958.252H1621.62H1620.54V969.237H1621.62Z" fill="#F8F9FA" mask="url(#path-11-inside-9_399_12714)"/>
<mask id="path-13-inside-10_399_12714" fill="white">
<path d="M1918.98 563.585C1924.2 513.249 1966.75 473.999 2018.46 473.999C2018.64 473.999 2018.82 474.002 2019 474.003C2019 474.182 2019 474.361 2019 474.54C2019 487.675 2016.41 500.681 2011.39 512.816C2006.36 524.951 1998.99 535.978 1989.71 545.266C1980.42 554.553 1969.39 561.921 1957.26 566.947C1945.12 571.974 1932.11 574.561 1918.98 574.561V563.585Z"/>
</mask>
<path d="M1918.98 563.585C1924.2 513.249 1966.75 473.999 2018.46 473.999C2018.64 473.999 2018.82 474.002 2019 474.003C2019 474.182 2019 474.361 2019 474.54C2019 487.675 2016.41 500.681 2011.39 512.816C2006.36 524.951 1998.99 535.978 1989.71 545.266C1980.42 554.553 1969.39 561.921 1957.26 566.947C1945.12 571.974 1932.11 574.561 1918.98 574.561V563.585Z" fill="#DCECF7"/>
<path d="M1918.98 563.585L1917.9 563.473L1917.9 563.529V563.585H1918.98ZM2018.46 473.999L2018.46 472.918H2018.46V473.999ZM2019 474.003L2020.08 473.997L2020.07 472.927L2019 472.922L2019 474.003ZM2019 474.54H2020.08V474.54L2019 474.54ZM2011.39 512.816L2012.39 513.23L2012.39 513.23L2011.39 512.816ZM1989.71 545.266L1990.47 546.03L1990.47 546.03L1989.71 545.266ZM1957.26 566.947L1957.67 567.946V567.946L1957.26 566.947ZM1918.98 574.561H1917.9V575.642H1918.98V574.561ZM1918.98 563.585L1920.06 563.696C1925.22 513.906 1967.3 475.08 2018.46 475.08V473.999V472.918C1966.19 472.918 1923.18 512.592 1917.9 563.473L1918.98 563.585ZM2018.46 473.999L2018.46 475.08C2018.64 475.08 2018.79 475.083 2018.99 475.084L2019 474.003L2019 472.922C2018.85 472.921 2018.64 472.918 2018.46 472.918L2018.46 473.999ZM2019 474.003L2017.92 474.009C2017.92 474.196 2017.92 474.364 2017.92 474.54L2019 474.54L2020.08 474.54C2020.08 474.358 2020.08 474.167 2020.08 473.997L2019 474.003ZM2019 474.54H2017.92C2017.92 487.533 2015.36 500.399 2010.39 512.403L2011.39 512.816L2012.39 513.23C2017.47 500.964 2020.08 487.817 2020.08 474.54H2019ZM2011.39 512.816L2010.39 512.403C2005.42 524.406 1998.13 535.314 1988.94 544.501L1989.71 545.266L1990.47 546.03C1999.86 536.642 2007.3 525.496 2012.39 513.23L2011.39 512.816ZM1989.71 545.266L1988.94 544.501C1979.75 553.688 1968.85 560.976 1956.84 565.948L1957.26 566.947L1957.67 567.946C1969.94 562.865 1981.08 555.418 1990.47 546.03L1989.71 545.266ZM1957.26 566.947L1956.84 565.948C1944.84 570.92 1931.97 573.479 1918.98 573.479V574.561V575.642C1932.26 575.642 1945.4 573.027 1957.67 567.946L1957.26 566.947ZM1918.98 574.561H1920.06V563.585H1918.98H1917.9V574.561H1918.98Z" fill="#F8F9FA" mask="url(#path-13-inside-10_399_12714)"/>
<circle cx="1720.56" cy="721.618" r="49.1992" transform="rotate(180 1720.56 721.618)" stroke="#F8F9FA" stroke-width="1.0813"/>
<mask id="path-16-inside-11_399_12714" fill="white">
<path d="M1720.56 671.878C1733.75 671.878 1746.4 677.119 1755.73 686.447C1765.06 695.775 1770.3 708.426 1770.3 721.618C1770.3 734.81 1765.06 747.461 1755.73 756.789C1746.4 766.117 1733.75 771.358 1720.56 771.358L1720.56 721.618L1720.56 671.878Z"/>
</mask>
<path d="M1720.56 671.878C1733.75 671.878 1746.4 677.119 1755.73 686.447C1765.06 695.775 1770.3 708.426 1770.3 721.618C1770.3 734.81 1765.06 747.461 1755.73 756.789C1746.4 766.117 1733.75 771.358 1720.56 771.358L1720.56 721.618L1720.56 671.878Z" fill="#94C6E4" stroke="#F8F9FA" stroke-width="2.1626" mask="url(#path-16-inside-11_399_12714)"/>
</g>
<g opacity="0.27">
<circle cx="79.55" cy="79.55" r="79.12" transform="matrix(-1 1.74846e-07 1.74846e-07 1 1049.96 -81)" stroke="#CED4DA" stroke-width="0.86"/>
<path opacity="0.7" d="M1194.95 37.25C1191.54 43.1098 1187.39 48.5179 1182.57 53.332C1175.26 60.6391 1166.59 66.4351 1157.04 70.3897C1147.49 74.3442 1137.26 76.3799 1126.93 76.3799L1126.93 76.8096L1205.62 76.8096C1205.62 66.476 1203.58 56.2433 1199.63 46.6963C1198.28 43.4393 1196.72 40.2842 1194.95 37.25Z" fill="#495057"/>
<mask id="path-19-inside-12_399_12714" fill="white">
<path d="M1127.79 155.5C1138.12 155.5 1148.36 153.465 1157.9 149.51C1167.45 145.556 1176.12 139.759 1183.43 132.452C1190.74 125.145 1196.54 116.471 1200.49 106.923C1204.44 97.3763 1206.48 87.1438 1206.48 76.8101C1206.48 66.4764 1204.44 56.2438 1200.49 46.6967C1196.54 37.1496 1190.74 28.4749 1183.43 21.1679C1176.12 13.8608 1167.45 8.06455 1157.9 4.11001C1148.36 0.155471 1138.12 -1.8799 1127.79 -1.8799L1127.79 76.8101L1127.79 155.5Z"/>
</mask>
<path d="M1127.79 155.5C1138.12 155.5 1148.36 153.465 1157.9 149.51C1167.45 145.556 1176.12 139.759 1183.43 132.452C1190.74 125.145 1196.54 116.471 1200.49 106.923C1204.44 97.3763 1206.48 87.1438 1206.48 76.8101C1206.48 66.4764 1204.44 56.2438 1200.49 46.6967C1196.54 37.1496 1190.74 28.4749 1183.43 21.1679C1176.12 13.8608 1167.45 8.06455 1157.9 4.11001C1148.36 0.155471 1138.12 -1.8799 1127.79 -1.8799L1127.79 76.8101L1127.79 155.5Z" stroke="#CED4DA" stroke-width="1.72" mask="url(#path-19-inside-12_399_12714)"/>
<mask id="path-20-inside-13_399_12714" fill="white">
<path d="M1128.65 77.2399C1118.32 77.2399 1108.08 79.2753 1098.54 83.2298C1088.99 87.1844 1080.31 92.9806 1073.01 100.288C1065.7 107.595 1059.9 116.269 1055.95 125.817C1052 135.364 1049.96 145.596 1049.96 155.93C1049.96 166.264 1052 176.496 1055.95 186.043C1059.9 195.59 1065.7 204.265 1073.01 211.572C1080.31 218.879 1088.99 224.675 1098.54 228.63C1108.08 232.585 1118.32 234.62 1128.65 234.62L1128.65 155.93L1128.65 77.2399Z"/>
</mask>
<path d="M1128.65 77.2399C1118.32 77.2399 1108.08 79.2753 1098.54 83.2298C1088.99 87.1844 1080.31 92.9806 1073.01 100.288C1065.7 107.595 1059.9 116.269 1055.95 125.817C1052 135.364 1049.96 145.596 1049.96 155.93C1049.96 166.264 1052 176.496 1055.95 186.043C1059.9 195.59 1065.7 204.265 1073.01 211.572C1080.31 218.879 1088.99 224.675 1098.54 228.63C1108.08 232.585 1118.32 234.62 1128.65 234.62L1128.65 155.93L1128.65 77.2399Z" stroke="#CED4DA" stroke-width="1.72" mask="url(#path-20-inside-13_399_12714)"/>
<mask id="path-21-inside-14_399_12714" fill="white">
<path d="M970.411 77.2401C980.744 77.2401 990.977 79.2755 1000.52 83.23C1010.07 87.1846 1018.75 92.9808 1026.05 100.288C1033.36 107.595 1039.16 116.27 1043.11 125.817C1047.07 135.364 1049.1 145.596 1049.1 155.93C1049.1 166.264 1047.07 176.496 1043.11 186.043C1039.16 195.591 1033.36 204.265 1026.05 211.572C1018.75 218.879 1010.07 224.676 1000.52 228.63C990.977 232.585 980.744 234.62 970.411 234.62L970.411 155.93L970.411 77.2401Z"/>
</mask>
<path d="M970.411 77.2401C980.744 77.2401 990.977 79.2755 1000.52 83.23C1010.07 87.1846 1018.75 92.9808 1026.05 100.288C1033.36 107.595 1039.16 116.27 1043.11 125.817C1047.07 135.364 1049.1 145.596 1049.1 155.93C1049.1 166.264 1047.07 176.496 1043.11 186.043C1039.16 195.591 1033.36 204.265 1026.05 211.572C1018.75 218.879 1010.07 224.676 1000.52 228.63C990.977 232.585 980.744 234.62 970.411 234.62L970.411 155.93L970.411 77.2401Z" stroke="#CED4DA" stroke-width="1.72" mask="url(#path-21-inside-14_399_12714)"/>
<mask id="path-22-inside-15_399_12714" fill="white">
<path d="M1127.79 312.02C1138.12 312.02 1148.36 309.985 1157.9 306.03C1167.45 302.076 1176.12 296.279 1183.43 288.972C1190.74 281.665 1196.54 272.991 1200.49 263.443C1204.44 253.896 1206.48 243.664 1206.48 233.33C1206.48 222.996 1204.44 212.764 1200.49 203.217C1196.54 193.67 1190.74 184.995 1183.43 177.688C1176.12 170.381 1167.45 164.585 1157.9 160.63C1148.36 156.675 1138.12 154.64 1127.79 154.64L1127.79 233.33L1127.79 312.02Z"/>
</mask>
<path d="M1127.79 312.02C1138.12 312.02 1148.36 309.985 1157.9 306.03C1167.45 302.076 1176.12 296.279 1183.43 288.972C1190.74 281.665 1196.54 272.991 1200.49 263.443C1204.44 253.896 1206.48 243.664 1206.48 233.33C1206.48 222.996 1204.44 212.764 1200.49 203.217C1196.54 193.67 1190.74 184.995 1183.43 177.688C1176.12 170.381 1167.45 164.585 1157.9 160.63C1148.36 156.675 1138.12 154.64 1127.79 154.64L1127.79 233.33L1127.79 312.02Z" stroke="#CED4DA" stroke-width="1.72" mask="url(#path-22-inside-15_399_12714)"/>
<mask id="path-23-inside-16_399_12714" fill="white">
<path d="M1128.65 312.02C1118.32 312.02 1108.08 309.985 1098.54 306.03C1088.99 302.075 1080.31 296.279 1073.01 288.972C1065.7 281.665 1059.9 272.99 1055.95 263.443C1052 253.896 1049.96 243.664 1049.96 233.33L1128.65 233.33L1128.65 312.02Z"/>
</mask>
<path d="M1128.65 312.02C1118.32 312.02 1108.08 309.985 1098.54 306.03C1088.99 302.075 1080.31 296.279 1073.01 288.972C1065.7 281.665 1059.9 272.99 1055.95 263.443C1052 253.896 1049.96 243.664 1049.96 233.33L1128.65 233.33L1128.65 312.02Z" stroke="#CED4DA" stroke-width="1.72" mask="url(#path-23-inside-16_399_12714)"/>
<g opacity="0.3">
<mask id="path-24-inside-17_399_12714" fill="white">
<path d="M1206.48 233.33C1206.48 222.996 1204.44 212.764 1200.49 203.217C1196.54 193.67 1190.74 184.995 1183.43 177.688C1176.12 170.381 1167.45 164.585 1157.9 160.63C1148.36 156.675 1138.12 154.64 1127.79 154.64L1127.79 233.33L1206.48 233.33Z"/>
</mask>
<path d="M1206.48 233.33C1206.48 222.996 1204.44 212.764 1200.49 203.217C1196.54 193.67 1190.74 184.995 1183.43 177.688C1176.12 170.381 1167.45 164.585 1157.9 160.63C1148.36 156.675 1138.12 154.64 1127.79 154.64L1127.79 233.33L1206.48 233.33Z" fill="#495057" stroke="#CED4DA" stroke-width="1.72" mask="url(#path-24-inside-17_399_12714)"/>
</g>
<mask id="path-25-inside-18_399_12714" fill="white">
<path d="M1048.24 -1.44986C1048.24 8.88386 1050.27 19.1164 1054.23 28.6635C1058.18 38.2106 1063.98 46.8853 1071.29 54.1924C1078.59 61.4994 1087.27 67.2957 1096.82 71.2502C1106.36 75.2048 1116.6 77.2401 1126.93 77.2401C1137.26 77.2401 1147.5 75.2047 1157.04 71.2502C1166.59 67.2957 1175.26 61.4994 1182.57 54.1923C1189.88 46.8853 1195.67 38.2106 1199.63 28.6635C1203.58 19.1164 1205.62 8.88382 1205.62 -1.4499L1126.93 -1.44988L1048.24 -1.44986Z"/>
</mask>
<path d="M1048.24 -1.44986C1048.24 8.88386 1050.27 19.1164 1054.23 28.6635C1058.18 38.2106 1063.98 46.8853 1071.29 54.1924C1078.59 61.4994 1087.27 67.2957 1096.82 71.2502C1106.36 75.2048 1116.6 77.2401 1126.93 77.2401C1137.26 77.2401 1147.5 75.2047 1157.04 71.2502C1166.59 67.2957 1175.26 61.4994 1182.57 54.1923C1189.88 46.8853 1195.67 38.2106 1199.63 28.6635C1203.58 19.1164 1205.62 8.88382 1205.62 -1.4499L1126.93 -1.44988L1048.24 -1.44986Z" stroke="#CED4DA" stroke-width="1.72" mask="url(#path-25-inside-18_399_12714)"/>
<mask id="path-26-inside-19_399_12714" fill="white">
<path d="M891.29 -1.88002C901.736 -1.88003 912.081 0.177594 921.732 4.17535C931.384 8.17312 940.153 14.0327 947.54 21.4196C954.927 28.8065 960.787 37.5761 964.784 47.2275C968.782 56.879 970.84 67.2233 970.84 77.67C970.84 88.1166 968.782 98.461 964.784 108.112C960.787 117.764 954.927 126.533 947.54 133.92C940.153 141.307 931.384 147.167 921.732 151.165C912.081 155.162 901.736 157.22 891.29 157.22L891.29 77.67L891.29 -1.88002Z"/>
</mask>
<path d="M891.29 -1.88002C901.736 -1.88003 912.081 0.177594 921.732 4.17535C931.384 8.17312 940.153 14.0327 947.54 21.4196C954.927 28.8065 960.787 37.5761 964.784 47.2275C968.782 56.879 970.84 67.2233 970.84 77.67C970.84 88.1166 968.782 98.461 964.784 108.112C960.787 117.764 954.927 126.533 947.54 133.92C940.153 141.307 931.384 147.167 921.732 151.165C912.081 155.162 901.736 157.22 891.29 157.22L891.29 77.67L891.29 -1.88002Z" stroke="#CED4DA" stroke-width="1.72" mask="url(#path-26-inside-19_399_12714)"/>
<g opacity="0.6">
<mask id="path-27-inside-20_399_12714" fill="white">
<path d="M891.29 6.8633C895.447 46.8905 929.283 78.0996 970.41 78.0996C970.553 78.0996 970.695 78.0974 970.838 78.0967C970.839 77.9545 970.84 77.8122 970.84 77.6699C970.84 67.2233 968.782 56.879 964.784 47.2275C960.786 37.5761 954.927 28.8068 947.54 21.4199C940.153 14.0331 931.384 8.17355 921.732 4.17579C912.081 0.178033 901.737 -1.87987 891.29 -1.87987L891.29 6.8633Z"/>
</mask>
<path d="M891.29 6.8633C895.447 46.8905 929.283 78.0996 970.41 78.0996C970.553 78.0996 970.695 78.0974 970.838 78.0967C970.839 77.9545 970.84 77.8122 970.84 77.6699C970.84 67.2233 968.782 56.879 964.784 47.2275C960.786 37.5761 954.927 28.8068 947.54 21.4199C940.153 14.0331 931.384 8.17355 921.732 4.17579C912.081 0.178033 901.737 -1.87987 891.29 -1.87987L891.29 6.8633Z" fill="#495057"/>
<path d="M891.29 6.8633L890.435 6.95212L890.43 6.90783L890.43 6.8633L891.29 6.8633ZM970.41 78.0996L970.41 78.9596L970.41 78.9596L970.41 78.0996ZM970.838 78.0967L971.698 78.1013L971.693 78.9522L970.842 78.9567L970.838 78.0967ZM970.84 77.6699L971.7 77.6699V77.6699L970.84 77.6699ZM964.784 47.2275L965.579 46.8984L965.579 46.8984L964.784 47.2275ZM947.54 21.4199L948.148 20.8118V20.8118L947.54 21.4199ZM921.732 4.17579L922.062 3.38125V3.38125L921.732 4.17579ZM891.29 -1.87987L890.43 -1.87987L890.43 -2.73987L891.29 -2.73987L891.29 -1.87987ZM891.29 6.8633L892.145 6.77447C896.257 46.3681 929.729 77.2396 970.41 77.2396L970.41 78.0996L970.41 78.9596C928.838 78.9596 894.636 47.413 890.435 6.95212L891.29 6.8633ZM970.41 78.0996L970.41 77.2396C970.553 77.2396 970.676 77.2375 970.833 77.2367L970.838 78.0967L970.842 78.9567C970.714 78.9573 970.553 78.9596 970.41 78.9596L970.41 78.0996ZM970.838 78.0967L969.978 78.0921C969.979 77.9464 969.98 77.8091 969.98 77.6699L970.84 77.6699L971.7 77.6699C971.7 77.8152 971.699 77.9625 971.698 78.1013L970.838 78.0967ZM970.84 77.6699L969.98 77.6699C969.98 67.3362 967.944 57.1037 963.99 47.5566L964.784 47.2275L965.579 46.8984C969.62 56.6542 971.7 67.1103 971.7 77.6699L970.84 77.6699ZM964.784 47.2275L963.99 47.5566C960.035 38.0096 954.239 29.335 946.932 22.028L947.54 21.4199L948.148 20.8118C955.615 28.2785 961.538 37.1427 965.579 46.8984L964.784 47.2275ZM947.54 21.4199L946.932 22.028C939.625 14.721 930.95 8.92486 921.403 4.97033L921.732 4.17579L922.062 3.38125C931.817 7.42223 940.681 13.3451 948.148 20.8118L947.54 21.4199ZM921.732 4.17579L921.403 4.97033C911.856 1.01578 901.624 -1.01987 891.29 -1.01987L891.29 -1.87987L891.29 -2.73987C901.85 -2.73987 912.306 -0.659716 922.062 3.38125L921.732 4.17579ZM891.29 -1.87987L892.15 -1.87987L892.15 6.8633L891.29 6.8633L890.43 6.8633L890.43 -1.87987L891.29 -1.87987Z" fill="#CED4DA" mask="url(#path-27-inside-20_399_12714)"/>
</g>
<g opacity="0.5">
<mask id="path-29-inside-21_399_12714" fill="white">
<path d="M1127.79 320.764C1131.95 360.791 1165.78 392 1206.91 392C1207.05 392 1207.2 391.998 1207.34 391.998C1207.34 391.855 1207.34 391.713 1207.34 391.571C1207.34 381.124 1205.28 370.78 1201.28 361.128C1197.29 351.477 1191.43 342.707 1184.04 335.32C1176.65 327.933 1167.88 322.073 1158.23 318.076C1148.58 314.078 1138.24 312.02 1127.79 312.02L1127.79 320.764Z"/>
</mask>
<path d="M1127.79 320.764C1131.95 360.791 1165.78 392 1206.91 392C1207.05 392 1207.2 391.998 1207.34 391.998C1207.34 391.855 1207.34 391.713 1207.34 391.571C1207.34 381.124 1205.28 370.78 1201.28 361.128C1197.29 351.477 1191.43 342.707 1184.04 335.32C1176.65 327.933 1167.88 322.073 1158.23 318.076C1148.58 314.078 1138.24 312.02 1127.79 312.02L1127.79 320.764Z" fill="#495057"/>
<path d="M1127.79 320.764L1126.93 320.853L1126.93 320.809L1126.93 320.764L1127.79 320.764ZM1206.91 392L1206.91 392.86L1206.91 392.86L1206.91 392ZM1207.34 391.998L1208.2 392.002L1208.19 392.853L1207.34 392.858L1207.34 391.998ZM1207.34 391.571L1208.2 391.571V391.571L1207.34 391.571ZM1201.28 361.128L1202.08 360.799L1202.08 360.799L1201.28 361.128ZM1184.04 335.32L1184.65 334.712L1184.65 334.712L1184.04 335.32ZM1158.23 318.076L1158.56 317.281L1158.56 317.281L1158.23 318.076ZM1127.79 312.02L1126.93 312.02L1126.93 311.16L1127.79 311.16L1127.79 312.02ZM1127.79 320.764L1128.65 320.675C1132.76 360.269 1166.23 391.14 1206.91 391.14L1206.91 392L1206.91 392.86C1165.34 392.86 1131.14 361.314 1126.93 320.853L1127.79 320.764ZM1206.91 392L1206.91 391.14C1207.05 391.14 1207.18 391.138 1207.33 391.138L1207.34 391.998L1207.34 392.858C1207.21 392.858 1207.05 392.86 1206.91 392.86L1206.91 392ZM1207.34 391.998L1206.48 391.993C1206.48 391.847 1206.48 391.71 1206.48 391.571L1207.34 391.571L1208.2 391.571C1208.2 391.716 1208.2 391.863 1208.2 392.002L1207.34 391.998ZM1207.34 391.571L1206.48 391.571C1206.48 381.237 1204.44 371.005 1200.49 361.458L1201.28 361.128L1202.08 360.799C1206.12 370.555 1208.2 381.011 1208.2 391.571L1207.34 391.571ZM1201.28 361.128L1200.49 361.458C1196.54 351.91 1190.74 343.235 1183.43 335.928L1184.04 335.32L1184.65 334.712C1192.11 342.178 1198.04 351.044 1202.08 360.799L1201.28 361.128ZM1184.04 335.32L1183.43 335.928C1176.12 328.621 1167.45 322.825 1157.9 318.87L1158.23 318.076L1158.56 317.281C1168.32 321.322 1177.18 327.245 1184.65 334.712L1184.04 335.32ZM1158.23 318.076L1157.9 318.87C1148.36 314.916 1138.12 312.88 1127.79 312.88L1127.79 312.02L1127.79 311.16C1138.35 311.16 1148.81 313.24 1158.56 317.281L1158.23 318.076ZM1127.79 312.02L1128.65 312.02L1128.65 320.764L1127.79 320.764L1126.93 320.764L1126.93 312.02L1127.79 312.02Z" fill="#CED4DA" mask="url(#path-29-inside-21_399_12714)"/>
</g>
<circle cx="39.56" cy="39.56" r="39.13" transform="matrix(-1 1.74846e-07 1.74846e-07 1 1205.62 -41.4399)" stroke="#CED4DA" stroke-width="0.86"/>
<circle cx="39.56" cy="39.56" r="39.13" transform="matrix(-1 1.74846e-07 1.74846e-07 1 1009.54 155.5)" stroke="#CED4DA" stroke-width="0.86"/>
<mask id="path-33-inside-22_399_12714" fill="white">
<path d="M969.979 234.62C980.471 234.62 990.533 230.452 997.952 223.033C1005.37 215.614 1009.54 205.552 1009.54 195.06C1009.54 184.568 1005.37 174.506 997.952 167.087C990.533 159.668 980.471 155.5 969.979 155.5L969.979 195.06L969.979 234.62Z"/>
</mask>
<path d="M969.979 234.62C980.471 234.62 990.533 230.452 997.952 223.033C1005.37 215.614 1009.54 205.552 1009.54 195.06C1009.54 184.568 1005.37 174.506 997.952 167.087C990.533 159.668 980.471 155.5 969.979 155.5L969.979 195.06L969.979 234.62Z" fill="#495057" stroke="#CED4DA" stroke-width="1.72" mask="url(#path-33-inside-22_399_12714)"/>
</g>
</g>
<defs>
<clipPath id="clip0_399_12714">
<rect width="1920" height="870" fill="white"/>
</clipPath>
</defs>
</svg>
